M48
; DRILL file {KiCad (5.1.2-1)-1} date Monday, 02 September 2019 at 14:15:14
; FORMAT={-:-/ absolute / metric / decimal}
; #@! TF.CreationDate,2019-09-02T14:15:14+01:00
; #@! TF.GenerationSoftware,Kicad,Pcbnew,(5.1.2-1)-1
; #@! TF.FileFunction,Plated,1,2,PTH
FMAT,2
METRIC
T1C0.400
T2C0.750
T3C0.800
T4C1.000
%
G90
G05
T1
X77.697Y-54.223
X79.078Y-65.7
X79.121Y-58.86
X79.188Y-42.767
X80.19Y-55.572
X80.622Y-43.407
X82.336Y-38.571
X82.87Y-63.18
X83.067Y-64.227
X83.273Y-59.087
X83.362Y-38.182
X83.427Y-50.657
X83.478Y-72.419
X83.592Y-49.448
X84.151Y-54.408
X84.363Y-37.899
X84.758Y-73.159
X84.81Y-38.866
X84.854Y-55.756
X85.061Y-65.837
X85.288Y-63.307
X85.716Y-72.677
X86.375Y-54.864
X86.45Y-59.335
X86.599Y-38.579
X86.748Y-69.197
X86.817Y-66.324
X87.201Y-52.97
X87.353Y-49.415
X87.42Y-59.844
X87.809Y-39.091
X88.018Y-66.399
X88.802Y-54.086
X89.093Y-52.764
X89.107Y-46.245
X89.224Y-39.549
X89.845Y-32.004
X90.361Y-66.221
X91.544Y-61.726
X92.584Y-60.87
X98.095Y-52.312
X98.179Y-55.703
X98.778Y-59.769
X99.095Y-52.088
X99.43Y-72.87
X99.63Y-55.533
X99.793Y-59.673
X100.525Y-58.99
X100.621Y-72.411
X100.63Y-55.519
X100.803Y-82.858
X101.299Y-67.495
X102.3Y-67.463
X103.6Y-88.786
X104.062Y-83.104
X104.599Y-88.176
X105.312Y-62.881
X105.563Y-83.063
X105.791Y-49.706
X105.959Y-50.755
X106.047Y-87.826
X106.175Y-79.937
X106.565Y-63.873
X106.68Y-83.076
X106.71Y-55.725
X107.188Y-79.275
X107.33Y-87.844
X108.367Y-59.037
X108.933Y-83.232
X108.994Y-77.386
X109.665Y-78.76
X109.945Y-82.985
X110.233Y-79.878
X110.686Y-83.658
X110.871Y-54.443
X112.41Y-131.251
X114.992Y-58.568
X115.964Y-47.075
X116.081Y-81.082
X116.473Y-78.196
X116.505Y-79.989
X116.543Y-82.707
X116.966Y-112.584
X117.407Y-91.555
X117.909Y-137.725
X118.852Y-140.699
X118.905Y-74.703
X119.126Y-51.388
X119.205Y-60.635
X119.761Y-82.932
X119.912Y-90.051
X120.242Y-86.194
X120.356Y-84.463
X120.361Y-74.563
X120.523Y-142.693
X120.681Y-94.337
X121.281Y-51.288
X121.412Y-147.535
X121.626Y-129.696
X121.666Y-59.517
X121.666Y-142.579
X122.503Y-60.259
X122.682Y-142.738
X122.742Y-148.465
X122.936Y-94.489
X123.182Y-85.894
X123.21Y-77.975
X123.404Y-128.583
X123.415Y-59.696
X123.936Y-94.489
X124.167Y-84.415
X124.555Y-55.084
X124.841Y-152.466
X124.914Y-74.075
X124.956Y-162.95
X126.167Y-59.92
X126.61Y-54.076
X126.989Y-49.281
X127.134Y-37.474
X127.589Y-93.005
X127.611Y-54.055
X127.69Y-98.608
X128.296Y-137.255
X128.655Y-100.657
X130.135Y-91.544
X131.942Y-94.415
T2
X123.952Y-35.306
X125.222Y-35.306
X126.492Y-35.306
T3
X77.47Y-141.034
X77.47Y-156.274
X80.01Y-141.034
X80.01Y-156.274
X82.55Y-141.034
X82.55Y-156.274
X85.09Y-141.034
X85.09Y-156.274
X87.63Y-141.034
X87.63Y-156.274
X90.17Y-141.034
X90.17Y-156.274
X92.71Y-141.034
X92.71Y-156.274
X95.25Y-141.034
X95.25Y-156.274
X97.79Y-141.034
X97.79Y-156.274
X100.33Y-141.034
X100.33Y-156.274
X102.87Y-141.034
X102.87Y-156.274
X105.41Y-141.034
X105.41Y-156.274
X107.95Y-141.034
X107.95Y-156.274
X110.49Y-141.034
X110.49Y-156.274
X77.47Y-145.034
X77.47Y-160.274
X80.01Y-145.034
X80.01Y-160.274
X82.55Y-145.034
X82.55Y-160.274
X85.09Y-145.034
X85.09Y-160.274
X87.63Y-145.034
X87.63Y-160.274
X90.17Y-145.034
X90.17Y-160.274
X92.71Y-145.034
X92.71Y-160.274
X95.25Y-145.034
X95.25Y-160.274
X97.79Y-145.034
X97.79Y-160.274
X100.33Y-145.034
X100.33Y-160.274
X102.87Y-145.034
X102.87Y-160.274
X105.41Y-145.034
X105.41Y-160.274
X107.95Y-145.034
X107.95Y-160.274
X110.49Y-145.034
X110.49Y-160.274
X76.073Y-96.012
X76.073Y-111.252
X78.613Y-96.012
X78.613Y-111.252
X81.153Y-96.012
X81.153Y-111.252
X83.693Y-96.012
X83.693Y-111.252
X86.233Y-96.012
X86.233Y-111.252
X88.773Y-96.012
X88.773Y-111.252
X91.313Y-96.012
X91.313Y-111.252
X93.853Y-96.012
X93.853Y-111.252
X96.393Y-96.012
X96.393Y-111.252
X98.933Y-96.012
X98.933Y-111.252
X101.473Y-96.012
X101.473Y-111.252
X104.013Y-96.012
X104.013Y-111.252
X121.485Y-171.958
X126.365Y-171.958
X76.073Y-78.867
X76.073Y-86.487
X78.613Y-78.867
X78.613Y-86.487
X81.153Y-78.867
X81.153Y-86.487
X83.693Y-78.867
X83.693Y-86.487
X86.233Y-78.867
X86.233Y-86.487
X88.773Y-78.867
X88.773Y-86.487
X91.313Y-78.867
X91.313Y-86.487
X93.853Y-78.867
X93.853Y-86.487
X77.47Y-115.971
X77.47Y-131.211
X80.01Y-115.971
X80.01Y-131.211
X82.55Y-115.971
X82.55Y-131.211
X85.09Y-115.971
X85.09Y-131.211
X87.63Y-115.971
X87.63Y-131.211
X90.17Y-115.971
X90.17Y-131.211
X92.71Y-115.971
X92.71Y-131.211
X95.25Y-115.971
X95.25Y-131.211
X97.79Y-115.971
X97.79Y-131.211
X100.33Y-115.971
X100.33Y-131.211
X102.87Y-115.971
X102.87Y-131.211
X105.41Y-115.971
X105.41Y-131.211
X107.95Y-115.971
X107.95Y-131.211
X110.49Y-115.971
X110.49Y-131.211
X77.47Y-119.761
X77.47Y-135.001
X80.01Y-119.761
X80.01Y-135.001
X82.55Y-119.761
X82.55Y-135.001
X85.09Y-119.761
X85.09Y-135.001
X87.63Y-119.761
X87.63Y-135.001
X90.17Y-119.761
X90.17Y-135.001
X92.71Y-119.761
X92.71Y-135.001
X95.25Y-119.761
X95.25Y-135.001
X97.79Y-119.761
X97.79Y-135.001
X100.33Y-119.761
X100.33Y-135.001
X102.87Y-119.761
X102.87Y-135.001
X105.41Y-119.761
X105.41Y-135.001
X107.95Y-119.761
X107.95Y-135.001
X110.49Y-119.761
X110.49Y-135.001
X73.533Y-99.695
X73.533Y-107.315
X76.073Y-99.695
X76.073Y-107.315
X78.613Y-99.695
X78.613Y-107.315
X81.153Y-99.695
X81.153Y-107.315
X83.693Y-99.695
X83.693Y-107.315
X86.233Y-99.695
X86.233Y-107.315
X88.773Y-99.695
X88.773Y-107.315
X91.313Y-99.695
X91.313Y-107.315
X93.853Y-99.695
X93.853Y-107.315
X96.393Y-99.695
X96.393Y-107.315
X98.933Y-99.695
X98.933Y-107.315
X101.473Y-99.695
X101.473Y-107.315
X104.013Y-99.695
X104.013Y-107.315
X106.553Y-99.695
X106.553Y-107.315
T4
X85.725Y-40.767
X85.725Y-43.307
X88.265Y-40.767
X88.265Y-43.307
X90.805Y-40.767
X90.805Y-43.307
X93.345Y-40.767
X93.345Y-43.307
X95.885Y-40.767
X95.885Y-43.307
X98.425Y-40.767
X98.425Y-43.307
X100.965Y-40.767
X100.965Y-43.307
X103.505Y-40.767
X103.505Y-43.307
X106.045Y-40.767
X106.045Y-43.307
X108.585Y-40.767
X108.585Y-43.307
X111.125Y-40.767
X111.125Y-43.307
X113.665Y-40.767
X113.665Y-43.307
X116.205Y-40.767
X116.205Y-43.307
X118.745Y-40.767
X118.745Y-43.307
X121.285Y-40.767
X121.285Y-43.307
X123.825Y-40.767
X123.825Y-43.307
X126.365Y-40.767
X126.365Y-43.307
X92.456Y-29.718
X94.996Y-29.718
X97.536Y-29.718
X106.172Y-29.591
X108.712Y-29.591
X111.252Y-29.591
X113.792Y-29.591
X116.332Y-29.591
X118.872Y-29.591
X121.412Y-29.591
X123.952Y-29.591
X126.492Y-29.591
X129.032Y-29.591
X133.858Y-112.522
X133.858Y-115.062
X133.858Y-117.602
X133.858Y-120.142
X133.858Y-122.682
X136.398Y-112.522
X136.398Y-115.062
X136.398Y-117.602
X136.398Y-120.142
X136.398Y-122.682
T0
M30
