G04 #@! TF.GenerationSoftware,KiCad,Pcbnew,(5.1.2-1)-1*
G04 #@! TF.CreationDate,2020-07-05T10:41:52+01:00*
G04 #@! TF.ProjectId,MZ80-80CLR,4d5a3830-2d38-4304-934c-522e6b696361,rev?*
G04 #@! TF.SameCoordinates,Original*
G04 #@! TF.FileFunction,Legend,Bot*
G04 #@! TF.FilePolarity,Positive*
%FSLAX46Y46*%
G04 Gerber Fmt 4.6, Leading zero omitted, Abs format (unit mm)*
G04 Created by KiCad (PCBNEW (5.1.2-1)-1) date 2020-07-05 10:41:52*
%MOMM*%
%LPD*%
G04 APERTURE LIST*
%ADD10C,0.120000*%
%ADD11C,0.150000*%
%ADD12C,0.100000*%
G04 APERTURE END LIST*
D10*
X70612000Y-132874000D02*
X70612000Y-33131000D01*
X141859000Y-132874000D02*
X70612000Y-132874000D01*
X141859000Y-62357000D02*
X141859000Y-132874000D01*
X133858000Y-62357000D02*
X141859000Y-62357000D01*
X133858000Y-33131000D02*
X133858000Y-62357000D01*
X70612000Y-33131000D02*
X133858000Y-33131000D01*
D11*
X105545380Y-117523285D02*
X104545380Y-117523285D01*
X105450142Y-118570904D02*
X105497761Y-118523285D01*
X105545380Y-118380428D01*
X105545380Y-118285190D01*
X105497761Y-118142333D01*
X105402523Y-118047095D01*
X105307285Y-117999476D01*
X105116809Y-117951857D01*
X104973952Y-117951857D01*
X104783476Y-117999476D01*
X104688238Y-118047095D01*
X104593000Y-118142333D01*
X104545380Y-118285190D01*
X104545380Y-118380428D01*
X104593000Y-118523285D01*
X104640619Y-118570904D01*
X104640619Y-118951857D02*
X104593000Y-118999476D01*
X104545380Y-119094714D01*
X104545380Y-119332809D01*
X104593000Y-119428047D01*
X104640619Y-119475666D01*
X104735857Y-119523285D01*
X104831095Y-119523285D01*
X104973952Y-119475666D01*
X105545380Y-118904238D01*
X105545380Y-119523285D01*
X104545380Y-120142333D02*
X104545380Y-120237571D01*
X104593000Y-120332809D01*
X104640619Y-120380428D01*
X104735857Y-120428047D01*
X104926333Y-120475666D01*
X105164428Y-120475666D01*
X105354904Y-120428047D01*
X105450142Y-120380428D01*
X105497761Y-120332809D01*
X105545380Y-120237571D01*
X105545380Y-120142333D01*
X105497761Y-120047095D01*
X105450142Y-119999476D01*
X105354904Y-119951857D01*
X105164428Y-119904238D01*
X104926333Y-119904238D01*
X104735857Y-119951857D01*
X104640619Y-119999476D01*
X104593000Y-120047095D01*
X104545380Y-120142333D01*
X105545380Y-121666142D02*
X104545380Y-121666142D01*
X105259666Y-121999476D01*
X104545380Y-122332809D01*
X105545380Y-122332809D01*
X105450142Y-123380428D02*
X105497761Y-123332809D01*
X105545380Y-123189952D01*
X105545380Y-123094714D01*
X105497761Y-122951857D01*
X105402523Y-122856619D01*
X105307285Y-122809000D01*
X105116809Y-122761380D01*
X104973952Y-122761380D01*
X104783476Y-122809000D01*
X104688238Y-122856619D01*
X104593000Y-122951857D01*
X104545380Y-123094714D01*
X104545380Y-123189952D01*
X104593000Y-123332809D01*
X104640619Y-123380428D01*
X105545380Y-124332809D02*
X105545380Y-123761380D01*
X105545380Y-124047095D02*
X104545380Y-124047095D01*
X104688238Y-123951857D01*
X104783476Y-123856619D01*
X104831095Y-123761380D01*
X104878714Y-125189952D02*
X105545380Y-125189952D01*
X104497761Y-124951857D02*
X105212047Y-124713761D01*
X105212047Y-125332809D01*
X104640619Y-125666142D02*
X104593000Y-125713761D01*
X104545380Y-125809000D01*
X104545380Y-126047095D01*
X104593000Y-126142333D01*
X104640619Y-126189952D01*
X104735857Y-126237571D01*
X104831095Y-126237571D01*
X104973952Y-126189952D01*
X105545380Y-125618523D01*
X105545380Y-126237571D01*
X105545380Y-126713761D02*
X105545380Y-126904238D01*
X105497761Y-126999476D01*
X105450142Y-127047095D01*
X105307285Y-127142333D01*
X105116809Y-127189952D01*
X104735857Y-127189952D01*
X104640619Y-127142333D01*
X104593000Y-127094714D01*
X104545380Y-126999476D01*
X104545380Y-126809000D01*
X104593000Y-126713761D01*
X104640619Y-126666142D01*
X104735857Y-126618523D01*
X104973952Y-126618523D01*
X105069190Y-126666142D01*
X105116809Y-126713761D01*
X105164428Y-126809000D01*
X105164428Y-126999476D01*
X105116809Y-127094714D01*
X105069190Y-127142333D01*
X104973952Y-127189952D01*
X104973952Y-127761380D02*
X104926333Y-127666142D01*
X104878714Y-127618523D01*
X104783476Y-127570904D01*
X104735857Y-127570904D01*
X104640619Y-127618523D01*
X104593000Y-127666142D01*
X104545380Y-127761380D01*
X104545380Y-127951857D01*
X104593000Y-128047095D01*
X104640619Y-128094714D01*
X104735857Y-128142333D01*
X104783476Y-128142333D01*
X104878714Y-128094714D01*
X104926333Y-128047095D01*
X104973952Y-127951857D01*
X104973952Y-127761380D01*
X105021571Y-127666142D01*
X105069190Y-127618523D01*
X105164428Y-127570904D01*
X105354904Y-127570904D01*
X105450142Y-127618523D01*
X105497761Y-127666142D01*
X105545380Y-127761380D01*
X105545380Y-127951857D01*
X105497761Y-128047095D01*
X105450142Y-128094714D01*
X105354904Y-128142333D01*
X105164428Y-128142333D01*
X105069190Y-128094714D01*
X105021571Y-128047095D01*
X104973952Y-127951857D01*
X106671571Y-120070904D02*
X106671571Y-120404238D01*
X107195380Y-120547095D02*
X107195380Y-120070904D01*
X106195380Y-120070904D01*
X106195380Y-120547095D01*
X106195380Y-120880428D02*
X107195380Y-121547095D01*
X106195380Y-121547095D02*
X107195380Y-120880428D01*
X106195380Y-121785190D02*
X106195380Y-122356619D01*
X107195380Y-122070904D02*
X106195380Y-122070904D01*
X106671571Y-122689952D02*
X106671571Y-123023285D01*
X107195380Y-123166142D02*
X107195380Y-122689952D01*
X106195380Y-122689952D01*
X106195380Y-123166142D01*
X107195380Y-123594714D02*
X106195380Y-123594714D01*
X107195380Y-124166142D01*
X106195380Y-124166142D01*
X107195380Y-124642333D02*
X106195380Y-124642333D01*
X106195380Y-124880428D01*
X106243000Y-125023285D01*
X106338238Y-125118523D01*
X106433476Y-125166142D01*
X106623952Y-125213761D01*
X106766809Y-125213761D01*
X106957285Y-125166142D01*
X107052523Y-125118523D01*
X107147761Y-125023285D01*
X107195380Y-124880428D01*
X107195380Y-124642333D01*
X106671571Y-125642333D02*
X106671571Y-125975666D01*
X107195380Y-126118523D02*
X107195380Y-125642333D01*
X106195380Y-125642333D01*
X106195380Y-126118523D01*
X107195380Y-127118523D02*
X106719190Y-126785190D01*
X107195380Y-126547095D02*
X106195380Y-126547095D01*
X106195380Y-126928047D01*
X106243000Y-127023285D01*
X106290619Y-127070904D01*
X106385857Y-127118523D01*
X106528714Y-127118523D01*
X106623952Y-127070904D01*
X106671571Y-127023285D01*
X106719190Y-126928047D01*
X106719190Y-126547095D01*
D10*
X127254000Y-40386000D02*
X127254000Y-34544000D01*
X83312000Y-40386000D02*
X127254000Y-40386000D01*
X83312000Y-34544000D02*
X83312000Y-40386000D01*
X127254000Y-34544000D02*
X83312000Y-34544000D01*
D11*
X82653142Y-36901523D02*
X82700761Y-36853904D01*
X82748380Y-36711047D01*
X82748380Y-36615809D01*
X82700761Y-36472952D01*
X82605523Y-36377714D01*
X82510285Y-36330095D01*
X82319809Y-36282476D01*
X82176952Y-36282476D01*
X81986476Y-36330095D01*
X81891238Y-36377714D01*
X81796000Y-36472952D01*
X81748380Y-36615809D01*
X81748380Y-36711047D01*
X81796000Y-36853904D01*
X81843619Y-36901523D01*
X82748380Y-37330095D02*
X81748380Y-37330095D01*
X82748380Y-37901523D01*
X81748380Y-37901523D01*
X82748380Y-38901523D02*
X82748380Y-38330095D01*
X82748380Y-38615809D02*
X81748380Y-38615809D01*
X81891238Y-38520571D01*
X81986476Y-38425333D01*
X82034095Y-38330095D01*
X89797380Y-77105333D02*
X88797380Y-77105333D01*
X89702142Y-78152952D02*
X89749761Y-78105333D01*
X89797380Y-77962476D01*
X89797380Y-77867238D01*
X89749761Y-77724380D01*
X89654523Y-77629142D01*
X89559285Y-77581523D01*
X89368809Y-77533904D01*
X89225952Y-77533904D01*
X89035476Y-77581523D01*
X88940238Y-77629142D01*
X88845000Y-77724380D01*
X88797380Y-77867238D01*
X88797380Y-77962476D01*
X88845000Y-78105333D01*
X88892619Y-78152952D01*
X89225952Y-78724380D02*
X89178333Y-78629142D01*
X89130714Y-78581523D01*
X89035476Y-78533904D01*
X88987857Y-78533904D01*
X88892619Y-78581523D01*
X88845000Y-78629142D01*
X88797380Y-78724380D01*
X88797380Y-78914857D01*
X88845000Y-79010095D01*
X88892619Y-79057714D01*
X88987857Y-79105333D01*
X89035476Y-79105333D01*
X89130714Y-79057714D01*
X89178333Y-79010095D01*
X89225952Y-78914857D01*
X89225952Y-78724380D01*
X89273571Y-78629142D01*
X89321190Y-78581523D01*
X89416428Y-78533904D01*
X89606904Y-78533904D01*
X89702142Y-78581523D01*
X89749761Y-78629142D01*
X89797380Y-78724380D01*
X89797380Y-78914857D01*
X89749761Y-79010095D01*
X89702142Y-79057714D01*
X89606904Y-79105333D01*
X89416428Y-79105333D01*
X89321190Y-79057714D01*
X89273571Y-79010095D01*
X89225952Y-78914857D01*
X89797380Y-80772000D02*
X89797380Y-80295809D01*
X88797380Y-80295809D01*
X89749761Y-81057714D02*
X89797380Y-81200571D01*
X89797380Y-81438666D01*
X89749761Y-81533904D01*
X89702142Y-81581523D01*
X89606904Y-81629142D01*
X89511666Y-81629142D01*
X89416428Y-81581523D01*
X89368809Y-81533904D01*
X89321190Y-81438666D01*
X89273571Y-81248190D01*
X89225952Y-81152952D01*
X89178333Y-81105333D01*
X89083095Y-81057714D01*
X88987857Y-81057714D01*
X88892619Y-81105333D01*
X88845000Y-81152952D01*
X88797380Y-81248190D01*
X88797380Y-81486285D01*
X88845000Y-81629142D01*
X89797380Y-82581523D02*
X89797380Y-82010095D01*
X89797380Y-82295809D02*
X88797380Y-82295809D01*
X88940238Y-82200571D01*
X89035476Y-82105333D01*
X89083095Y-82010095D01*
X88797380Y-83438666D02*
X88797380Y-83248190D01*
X88845000Y-83152952D01*
X88892619Y-83105333D01*
X89035476Y-83010095D01*
X89225952Y-82962476D01*
X89606904Y-82962476D01*
X89702142Y-83010095D01*
X89749761Y-83057714D01*
X89797380Y-83152952D01*
X89797380Y-83343428D01*
X89749761Y-83438666D01*
X89702142Y-83486285D01*
X89606904Y-83533904D01*
X89368809Y-83533904D01*
X89273571Y-83486285D01*
X89225952Y-83438666D01*
X89178333Y-83343428D01*
X89178333Y-83152952D01*
X89225952Y-83057714D01*
X89273571Y-83010095D01*
X89368809Y-82962476D01*
X88797380Y-84438666D02*
X88797380Y-83962476D01*
X89273571Y-83914857D01*
X89225952Y-83962476D01*
X89178333Y-84057714D01*
X89178333Y-84295809D01*
X89225952Y-84391047D01*
X89273571Y-84438666D01*
X89368809Y-84486285D01*
X89606904Y-84486285D01*
X89702142Y-84438666D01*
X89749761Y-84391047D01*
X89797380Y-84295809D01*
X89797380Y-84057714D01*
X89749761Y-83962476D01*
X89702142Y-83914857D01*
X90923571Y-77272000D02*
X90923571Y-77605333D01*
X91447380Y-77748190D02*
X91447380Y-77272000D01*
X90447380Y-77272000D01*
X90447380Y-77748190D01*
X90447380Y-78081523D02*
X91447380Y-78748190D01*
X90447380Y-78748190D02*
X91447380Y-78081523D01*
X90447380Y-78986285D02*
X90447380Y-79557714D01*
X91447380Y-79272000D02*
X90447380Y-79272000D01*
X90923571Y-79891047D02*
X90923571Y-80224380D01*
X91447380Y-80367238D02*
X91447380Y-79891047D01*
X90447380Y-79891047D01*
X90447380Y-80367238D01*
X91447380Y-80795809D02*
X90447380Y-80795809D01*
X91447380Y-81367238D01*
X90447380Y-81367238D01*
X91447380Y-81843428D02*
X90447380Y-81843428D01*
X90447380Y-82081523D01*
X90495000Y-82224380D01*
X90590238Y-82319619D01*
X90685476Y-82367238D01*
X90875952Y-82414857D01*
X91018809Y-82414857D01*
X91209285Y-82367238D01*
X91304523Y-82319619D01*
X91399761Y-82224380D01*
X91447380Y-82081523D01*
X91447380Y-81843428D01*
X90923571Y-82843428D02*
X90923571Y-83176761D01*
X91447380Y-83319619D02*
X91447380Y-82843428D01*
X90447380Y-82843428D01*
X90447380Y-83319619D01*
X91447380Y-84319619D02*
X90971190Y-83986285D01*
X91447380Y-83748190D02*
X90447380Y-83748190D01*
X90447380Y-84129142D01*
X90495000Y-84224380D01*
X90542619Y-84272000D01*
X90637857Y-84319619D01*
X90780714Y-84319619D01*
X90875952Y-84272000D01*
X90923571Y-84224380D01*
X90971190Y-84129142D01*
X90971190Y-83748190D01*
X134120380Y-95575904D02*
X133120380Y-95575904D01*
X134025142Y-96623523D02*
X134072761Y-96575904D01*
X134120380Y-96433047D01*
X134120380Y-96337809D01*
X134072761Y-96194952D01*
X133977523Y-96099714D01*
X133882285Y-96052095D01*
X133691809Y-96004476D01*
X133548952Y-96004476D01*
X133358476Y-96052095D01*
X133263238Y-96099714D01*
X133168000Y-96194952D01*
X133120380Y-96337809D01*
X133120380Y-96433047D01*
X133168000Y-96575904D01*
X133215619Y-96623523D01*
X134120380Y-97575904D02*
X134120380Y-97004476D01*
X134120380Y-97290190D02*
X133120380Y-97290190D01*
X133263238Y-97194952D01*
X133358476Y-97099714D01*
X133406095Y-97004476D01*
X133120380Y-98480666D02*
X133120380Y-98004476D01*
X133596571Y-97956857D01*
X133548952Y-98004476D01*
X133501333Y-98099714D01*
X133501333Y-98337809D01*
X133548952Y-98433047D01*
X133596571Y-98480666D01*
X133691809Y-98528285D01*
X133929904Y-98528285D01*
X134025142Y-98480666D01*
X134072761Y-98433047D01*
X134120380Y-98337809D01*
X134120380Y-98099714D01*
X134072761Y-98004476D01*
X134025142Y-97956857D01*
X133215619Y-99671142D02*
X133168000Y-99718761D01*
X133120380Y-99814000D01*
X133120380Y-100052095D01*
X133168000Y-100147333D01*
X133215619Y-100194952D01*
X133310857Y-100242571D01*
X133406095Y-100242571D01*
X133548952Y-100194952D01*
X134120380Y-99623523D01*
X134120380Y-100242571D01*
X133120380Y-100861619D02*
X133120380Y-100956857D01*
X133168000Y-101052095D01*
X133215619Y-101099714D01*
X133310857Y-101147333D01*
X133501333Y-101194952D01*
X133739428Y-101194952D01*
X133929904Y-101147333D01*
X134025142Y-101099714D01*
X134072761Y-101052095D01*
X134120380Y-100956857D01*
X134120380Y-100861619D01*
X134072761Y-100766380D01*
X134025142Y-100718761D01*
X133929904Y-100671142D01*
X133739428Y-100623523D01*
X133501333Y-100623523D01*
X133310857Y-100671142D01*
X133215619Y-100718761D01*
X133168000Y-100766380D01*
X133120380Y-100861619D01*
X134120380Y-102147333D02*
X134120380Y-101575904D01*
X134120380Y-101861619D02*
X133120380Y-101861619D01*
X133263238Y-101766380D01*
X133358476Y-101671142D01*
X133406095Y-101575904D01*
X133120380Y-103004476D02*
X133120380Y-102814000D01*
X133168000Y-102718761D01*
X133215619Y-102671142D01*
X133358476Y-102575904D01*
X133548952Y-102528285D01*
X133929904Y-102528285D01*
X134025142Y-102575904D01*
X134072761Y-102623523D01*
X134120380Y-102718761D01*
X134120380Y-102909238D01*
X134072761Y-103004476D01*
X134025142Y-103052095D01*
X133929904Y-103099714D01*
X133691809Y-103099714D01*
X133596571Y-103052095D01*
X133548952Y-103004476D01*
X133501333Y-102909238D01*
X133501333Y-102718761D01*
X133548952Y-102623523D01*
X133596571Y-102575904D01*
X133691809Y-102528285D01*
X135246571Y-95814000D02*
X135246571Y-96147333D01*
X135770380Y-96290190D02*
X135770380Y-95814000D01*
X134770380Y-95814000D01*
X134770380Y-96290190D01*
X134770380Y-96623523D02*
X135770380Y-97290190D01*
X134770380Y-97290190D02*
X135770380Y-96623523D01*
X134770380Y-97528285D02*
X134770380Y-98099714D01*
X135770380Y-97814000D02*
X134770380Y-97814000D01*
X135246571Y-98433047D02*
X135246571Y-98766380D01*
X135770380Y-98909238D02*
X135770380Y-98433047D01*
X134770380Y-98433047D01*
X134770380Y-98909238D01*
X135770380Y-99337809D02*
X134770380Y-99337809D01*
X135770380Y-99909238D01*
X134770380Y-99909238D01*
X135770380Y-100385428D02*
X134770380Y-100385428D01*
X134770380Y-100623523D01*
X134818000Y-100766380D01*
X134913238Y-100861619D01*
X135008476Y-100909238D01*
X135198952Y-100956857D01*
X135341809Y-100956857D01*
X135532285Y-100909238D01*
X135627523Y-100861619D01*
X135722761Y-100766380D01*
X135770380Y-100623523D01*
X135770380Y-100385428D01*
X135246571Y-101385428D02*
X135246571Y-101718761D01*
X135770380Y-101861619D02*
X135770380Y-101385428D01*
X134770380Y-101385428D01*
X134770380Y-101861619D01*
X135770380Y-102861619D02*
X135294190Y-102528285D01*
X135770380Y-102290190D02*
X134770380Y-102290190D01*
X134770380Y-102671142D01*
X134818000Y-102766380D01*
X134865619Y-102814000D01*
X134960857Y-102861619D01*
X135103714Y-102861619D01*
X135198952Y-102814000D01*
X135246571Y-102766380D01*
X135294190Y-102671142D01*
X135294190Y-102290190D01*
D10*
X94488000Y-86106000D02*
X94488000Y-75692000D01*
X73660000Y-86106000D02*
X94488000Y-86106000D01*
X73660000Y-75692000D02*
X73660000Y-86106000D01*
X94488000Y-75692000D02*
X73660000Y-75692000D01*
X139573000Y-108331000D02*
X139573000Y-90170000D01*
X108585000Y-108331000D02*
X139573000Y-108331000D01*
X108585000Y-90170000D02*
X108585000Y-108331000D01*
X139573000Y-90170000D02*
X108585000Y-90170000D01*
X110998000Y-131699000D02*
X110998000Y-113538000D01*
X74930000Y-131699000D02*
X110998000Y-131699000D01*
X74930000Y-113538000D02*
X74930000Y-131699000D01*
X110998000Y-113538000D02*
X74930000Y-113538000D01*
X116130000Y-79252578D02*
X116130000Y-78735422D01*
X117550000Y-79252578D02*
X117550000Y-78735422D01*
X119559000Y-79252578D02*
X119559000Y-78735422D01*
X120979000Y-79252578D02*
X120979000Y-78735422D01*
X124718578Y-72084000D02*
X124201422Y-72084000D01*
X124718578Y-70664000D02*
X124201422Y-70664000D01*
X111628422Y-77903000D02*
X112145578Y-77903000D01*
X111628422Y-79323000D02*
X112145578Y-79323000D01*
X124718578Y-75640000D02*
X124201422Y-75640000D01*
X124718578Y-74220000D02*
X124201422Y-74220000D01*
X112136422Y-72950000D02*
X112653578Y-72950000D01*
X112136422Y-74370000D02*
X112653578Y-74370000D01*
X110358422Y-67743000D02*
X110875578Y-67743000D01*
X110358422Y-69163000D02*
X110875578Y-69163000D01*
X80770000Y-65830267D02*
X80770000Y-65487733D01*
X81790000Y-65830267D02*
X81790000Y-65487733D01*
X81870733Y-60958000D02*
X82213267Y-60958000D01*
X81870733Y-61978000D02*
X82213267Y-61978000D01*
X82548000Y-65830267D02*
X82548000Y-65487733D01*
X83568000Y-65830267D02*
X83568000Y-65487733D01*
X88009000Y-65830267D02*
X88009000Y-65487733D01*
X89029000Y-65830267D02*
X89029000Y-65487733D01*
X81870733Y-57656000D02*
X82213267Y-57656000D01*
X81870733Y-58676000D02*
X82213267Y-58676000D01*
X91823000Y-55454733D02*
X91823000Y-55797267D01*
X90803000Y-55454733D02*
X90803000Y-55797267D01*
X93474000Y-55454733D02*
X93474000Y-55797267D01*
X92454000Y-55454733D02*
X92454000Y-55797267D01*
X92246267Y-59438000D02*
X91903733Y-59438000D01*
X92246267Y-58418000D02*
X91903733Y-58418000D01*
X86235000Y-55454733D02*
X86235000Y-55797267D01*
X85215000Y-55454733D02*
X85215000Y-55797267D01*
X89914000Y-65830267D02*
X89914000Y-65487733D01*
X90934000Y-65830267D02*
X90934000Y-65487733D01*
X92246267Y-63121000D02*
X91903733Y-63121000D01*
X92246267Y-62101000D02*
X91903733Y-62101000D01*
X81870733Y-54608000D02*
X82213267Y-54608000D01*
X81870733Y-55628000D02*
X82213267Y-55628000D01*
X113366733Y-76325000D02*
X113709267Y-76325000D01*
X113366733Y-77345000D02*
X113709267Y-77345000D01*
X122599267Y-67185000D02*
X122256733Y-67185000D01*
X122599267Y-66165000D02*
X122256733Y-66165000D01*
X122599267Y-69217000D02*
X122256733Y-69217000D01*
X122599267Y-68197000D02*
X122256733Y-68197000D01*
X112350733Y-70356000D02*
X112693267Y-70356000D01*
X112350733Y-71376000D02*
X112693267Y-71376000D01*
X117600000Y-66503733D02*
X117600000Y-66846267D01*
X118620000Y-66503733D02*
X118620000Y-66846267D01*
X112350733Y-66165000D02*
X112693267Y-66165000D01*
X112350733Y-67185000D02*
X112693267Y-67185000D01*
X122726267Y-77345000D02*
X122383733Y-77345000D01*
X122726267Y-76325000D02*
X122383733Y-76325000D01*
X111250000Y-57321267D02*
X111250000Y-56978733D01*
X112270000Y-57321267D02*
X112270000Y-56978733D01*
X110238000Y-87331733D02*
X110238000Y-87674267D01*
X109218000Y-87331733D02*
X109218000Y-87674267D01*
X126367000Y-87331733D02*
X126367000Y-87674267D01*
X125347000Y-87331733D02*
X125347000Y-87674267D01*
X122045000Y-57321267D02*
X122045000Y-56978733D01*
X123065000Y-57321267D02*
X123065000Y-56978733D01*
D12*
X115748571Y-78672571D02*
X115772380Y-78648761D01*
X115796190Y-78577333D01*
X115796190Y-78529714D01*
X115772380Y-78458285D01*
X115724761Y-78410666D01*
X115677142Y-78386857D01*
X115581904Y-78363047D01*
X115510476Y-78363047D01*
X115415238Y-78386857D01*
X115367619Y-78410666D01*
X115320000Y-78458285D01*
X115296190Y-78529714D01*
X115296190Y-78577333D01*
X115320000Y-78648761D01*
X115343809Y-78672571D01*
X115343809Y-78863047D02*
X115320000Y-78886857D01*
X115296190Y-78934476D01*
X115296190Y-79053523D01*
X115320000Y-79101142D01*
X115343809Y-79124952D01*
X115391428Y-79148761D01*
X115439047Y-79148761D01*
X115510476Y-79124952D01*
X115796190Y-78839238D01*
X115796190Y-79148761D01*
X115462857Y-79577333D02*
X115796190Y-79577333D01*
X115272380Y-79458285D02*
X115629523Y-79339238D01*
X115629523Y-79648761D01*
X119177571Y-78672571D02*
X119201380Y-78648761D01*
X119225190Y-78577333D01*
X119225190Y-78529714D01*
X119201380Y-78458285D01*
X119153761Y-78410666D01*
X119106142Y-78386857D01*
X119010904Y-78363047D01*
X118939476Y-78363047D01*
X118844238Y-78386857D01*
X118796619Y-78410666D01*
X118749000Y-78458285D01*
X118725190Y-78529714D01*
X118725190Y-78577333D01*
X118749000Y-78648761D01*
X118772809Y-78672571D01*
X118772809Y-78863047D02*
X118749000Y-78886857D01*
X118725190Y-78934476D01*
X118725190Y-79053523D01*
X118749000Y-79101142D01*
X118772809Y-79124952D01*
X118820428Y-79148761D01*
X118868047Y-79148761D01*
X118939476Y-79124952D01*
X119225190Y-78839238D01*
X119225190Y-79148761D01*
X118725190Y-79315428D02*
X118725190Y-79624952D01*
X118915666Y-79458285D01*
X118915666Y-79529714D01*
X118939476Y-79577333D01*
X118963285Y-79601142D01*
X119010904Y-79624952D01*
X119129952Y-79624952D01*
X119177571Y-79601142D01*
X119201380Y-79577333D01*
X119225190Y-79529714D01*
X119225190Y-79386857D01*
X119201380Y-79339238D01*
X119177571Y-79315428D01*
X122606571Y-70925571D02*
X122630380Y-70901761D01*
X122654190Y-70830333D01*
X122654190Y-70782714D01*
X122630380Y-70711285D01*
X122582761Y-70663666D01*
X122535142Y-70639857D01*
X122439904Y-70616047D01*
X122368476Y-70616047D01*
X122273238Y-70639857D01*
X122225619Y-70663666D01*
X122178000Y-70711285D01*
X122154190Y-70782714D01*
X122154190Y-70830333D01*
X122178000Y-70901761D01*
X122201809Y-70925571D01*
X122201809Y-71116047D02*
X122178000Y-71139857D01*
X122154190Y-71187476D01*
X122154190Y-71306523D01*
X122178000Y-71354142D01*
X122201809Y-71377952D01*
X122249428Y-71401761D01*
X122297047Y-71401761D01*
X122368476Y-71377952D01*
X122654190Y-71092238D01*
X122654190Y-71401761D01*
X122201809Y-71592238D02*
X122178000Y-71616047D01*
X122154190Y-71663666D01*
X122154190Y-71782714D01*
X122178000Y-71830333D01*
X122201809Y-71854142D01*
X122249428Y-71877952D01*
X122297047Y-71877952D01*
X122368476Y-71854142D01*
X122654190Y-71568428D01*
X122654190Y-71877952D01*
X110033571Y-78291571D02*
X110057380Y-78267761D01*
X110081190Y-78196333D01*
X110081190Y-78148714D01*
X110057380Y-78077285D01*
X110009761Y-78029666D01*
X109962142Y-78005857D01*
X109866904Y-77982047D01*
X109795476Y-77982047D01*
X109700238Y-78005857D01*
X109652619Y-78029666D01*
X109605000Y-78077285D01*
X109581190Y-78148714D01*
X109581190Y-78196333D01*
X109605000Y-78267761D01*
X109628809Y-78291571D01*
X109628809Y-78482047D02*
X109605000Y-78505857D01*
X109581190Y-78553476D01*
X109581190Y-78672523D01*
X109605000Y-78720142D01*
X109628809Y-78743952D01*
X109676428Y-78767761D01*
X109724047Y-78767761D01*
X109795476Y-78743952D01*
X110081190Y-78458238D01*
X110081190Y-78767761D01*
X110081190Y-79243952D02*
X110081190Y-78958238D01*
X110081190Y-79101095D02*
X109581190Y-79101095D01*
X109652619Y-79053476D01*
X109700238Y-79005857D01*
X109724047Y-78958238D01*
X122606571Y-74608571D02*
X122630380Y-74584761D01*
X122654190Y-74513333D01*
X122654190Y-74465714D01*
X122630380Y-74394285D01*
X122582761Y-74346666D01*
X122535142Y-74322857D01*
X122439904Y-74299047D01*
X122368476Y-74299047D01*
X122273238Y-74322857D01*
X122225619Y-74346666D01*
X122178000Y-74394285D01*
X122154190Y-74465714D01*
X122154190Y-74513333D01*
X122178000Y-74584761D01*
X122201809Y-74608571D01*
X122654190Y-75084761D02*
X122654190Y-74799047D01*
X122654190Y-74941904D02*
X122154190Y-74941904D01*
X122225619Y-74894285D01*
X122273238Y-74846666D01*
X122297047Y-74799047D01*
X122368476Y-75370476D02*
X122344666Y-75322857D01*
X122320857Y-75299047D01*
X122273238Y-75275238D01*
X122249428Y-75275238D01*
X122201809Y-75299047D01*
X122178000Y-75322857D01*
X122154190Y-75370476D01*
X122154190Y-75465714D01*
X122178000Y-75513333D01*
X122201809Y-75537142D01*
X122249428Y-75560952D01*
X122273238Y-75560952D01*
X122320857Y-75537142D01*
X122344666Y-75513333D01*
X122368476Y-75465714D01*
X122368476Y-75370476D01*
X122392285Y-75322857D01*
X122416095Y-75299047D01*
X122463714Y-75275238D01*
X122558952Y-75275238D01*
X122606571Y-75299047D01*
X122630380Y-75322857D01*
X122654190Y-75370476D01*
X122654190Y-75465714D01*
X122630380Y-75513333D01*
X122606571Y-75537142D01*
X122558952Y-75560952D01*
X122463714Y-75560952D01*
X122416095Y-75537142D01*
X122392285Y-75513333D01*
X122368476Y-75465714D01*
X110541571Y-73211571D02*
X110565380Y-73187761D01*
X110589190Y-73116333D01*
X110589190Y-73068714D01*
X110565380Y-72997285D01*
X110517761Y-72949666D01*
X110470142Y-72925857D01*
X110374904Y-72902047D01*
X110303476Y-72902047D01*
X110208238Y-72925857D01*
X110160619Y-72949666D01*
X110113000Y-72997285D01*
X110089190Y-73068714D01*
X110089190Y-73116333D01*
X110113000Y-73187761D01*
X110136809Y-73211571D01*
X110589190Y-73687761D02*
X110589190Y-73402047D01*
X110589190Y-73544904D02*
X110089190Y-73544904D01*
X110160619Y-73497285D01*
X110208238Y-73449666D01*
X110232047Y-73402047D01*
X110589190Y-73925857D02*
X110589190Y-74021095D01*
X110565380Y-74068714D01*
X110541571Y-74092523D01*
X110470142Y-74140142D01*
X110374904Y-74163952D01*
X110184428Y-74163952D01*
X110136809Y-74140142D01*
X110113000Y-74116333D01*
X110089190Y-74068714D01*
X110089190Y-73973476D01*
X110113000Y-73925857D01*
X110136809Y-73902047D01*
X110184428Y-73878238D01*
X110303476Y-73878238D01*
X110351095Y-73902047D01*
X110374904Y-73925857D01*
X110398714Y-73973476D01*
X110398714Y-74068714D01*
X110374904Y-74116333D01*
X110351095Y-74140142D01*
X110303476Y-74163952D01*
X108763571Y-68004571D02*
X108787380Y-67980761D01*
X108811190Y-67909333D01*
X108811190Y-67861714D01*
X108787380Y-67790285D01*
X108739761Y-67742666D01*
X108692142Y-67718857D01*
X108596904Y-67695047D01*
X108525476Y-67695047D01*
X108430238Y-67718857D01*
X108382619Y-67742666D01*
X108335000Y-67790285D01*
X108311190Y-67861714D01*
X108311190Y-67909333D01*
X108335000Y-67980761D01*
X108358809Y-68004571D01*
X108811190Y-68480761D02*
X108811190Y-68195047D01*
X108811190Y-68337904D02*
X108311190Y-68337904D01*
X108382619Y-68290285D01*
X108430238Y-68242666D01*
X108454047Y-68195047D01*
X108311190Y-68647428D02*
X108311190Y-68980761D01*
X108811190Y-68766476D01*
X80315571Y-65337571D02*
X80339380Y-65313761D01*
X80363190Y-65242333D01*
X80363190Y-65194714D01*
X80339380Y-65123285D01*
X80291761Y-65075666D01*
X80244142Y-65051857D01*
X80148904Y-65028047D01*
X80077476Y-65028047D01*
X79982238Y-65051857D01*
X79934619Y-65075666D01*
X79887000Y-65123285D01*
X79863190Y-65194714D01*
X79863190Y-65242333D01*
X79887000Y-65313761D01*
X79910809Y-65337571D01*
X79863190Y-65504238D02*
X79863190Y-65813761D01*
X80053666Y-65647095D01*
X80053666Y-65718523D01*
X80077476Y-65766142D01*
X80101285Y-65789952D01*
X80148904Y-65813761D01*
X80267952Y-65813761D01*
X80315571Y-65789952D01*
X80339380Y-65766142D01*
X80363190Y-65718523D01*
X80363190Y-65575666D01*
X80339380Y-65528047D01*
X80315571Y-65504238D01*
X79863190Y-66266142D02*
X79863190Y-66028047D01*
X80101285Y-66004238D01*
X80077476Y-66028047D01*
X80053666Y-66075666D01*
X80053666Y-66194714D01*
X80077476Y-66242333D01*
X80101285Y-66266142D01*
X80148904Y-66289952D01*
X80267952Y-66289952D01*
X80315571Y-66266142D01*
X80339380Y-66242333D01*
X80363190Y-66194714D01*
X80363190Y-66075666D01*
X80339380Y-66028047D01*
X80315571Y-66004238D01*
X80188571Y-61146571D02*
X80212380Y-61122761D01*
X80236190Y-61051333D01*
X80236190Y-61003714D01*
X80212380Y-60932285D01*
X80164761Y-60884666D01*
X80117142Y-60860857D01*
X80021904Y-60837047D01*
X79950476Y-60837047D01*
X79855238Y-60860857D01*
X79807619Y-60884666D01*
X79760000Y-60932285D01*
X79736190Y-61003714D01*
X79736190Y-61051333D01*
X79760000Y-61122761D01*
X79783809Y-61146571D01*
X79736190Y-61313238D02*
X79736190Y-61622761D01*
X79926666Y-61456095D01*
X79926666Y-61527523D01*
X79950476Y-61575142D01*
X79974285Y-61598952D01*
X80021904Y-61622761D01*
X80140952Y-61622761D01*
X80188571Y-61598952D01*
X80212380Y-61575142D01*
X80236190Y-61527523D01*
X80236190Y-61384666D01*
X80212380Y-61337047D01*
X80188571Y-61313238D01*
X79902857Y-62051333D02*
X80236190Y-62051333D01*
X79712380Y-61932285D02*
X80069523Y-61813238D01*
X80069523Y-62122761D01*
X82474571Y-65337571D02*
X82498380Y-65313761D01*
X82522190Y-65242333D01*
X82522190Y-65194714D01*
X82498380Y-65123285D01*
X82450761Y-65075666D01*
X82403142Y-65051857D01*
X82307904Y-65028047D01*
X82236476Y-65028047D01*
X82141238Y-65051857D01*
X82093619Y-65075666D01*
X82046000Y-65123285D01*
X82022190Y-65194714D01*
X82022190Y-65242333D01*
X82046000Y-65313761D01*
X82069809Y-65337571D01*
X82022190Y-65504238D02*
X82022190Y-65813761D01*
X82212666Y-65647095D01*
X82212666Y-65718523D01*
X82236476Y-65766142D01*
X82260285Y-65789952D01*
X82307904Y-65813761D01*
X82426952Y-65813761D01*
X82474571Y-65789952D01*
X82498380Y-65766142D01*
X82522190Y-65718523D01*
X82522190Y-65575666D01*
X82498380Y-65528047D01*
X82474571Y-65504238D01*
X82022190Y-65980428D02*
X82022190Y-66289952D01*
X82212666Y-66123285D01*
X82212666Y-66194714D01*
X82236476Y-66242333D01*
X82260285Y-66266142D01*
X82307904Y-66289952D01*
X82426952Y-66289952D01*
X82474571Y-66266142D01*
X82498380Y-66242333D01*
X82522190Y-66194714D01*
X82522190Y-66051857D01*
X82498380Y-66004238D01*
X82474571Y-65980428D01*
X87554571Y-65210571D02*
X87578380Y-65186761D01*
X87602190Y-65115333D01*
X87602190Y-65067714D01*
X87578380Y-64996285D01*
X87530761Y-64948666D01*
X87483142Y-64924857D01*
X87387904Y-64901047D01*
X87316476Y-64901047D01*
X87221238Y-64924857D01*
X87173619Y-64948666D01*
X87126000Y-64996285D01*
X87102190Y-65067714D01*
X87102190Y-65115333D01*
X87126000Y-65186761D01*
X87149809Y-65210571D01*
X87102190Y-65377238D02*
X87102190Y-65686761D01*
X87292666Y-65520095D01*
X87292666Y-65591523D01*
X87316476Y-65639142D01*
X87340285Y-65662952D01*
X87387904Y-65686761D01*
X87506952Y-65686761D01*
X87554571Y-65662952D01*
X87578380Y-65639142D01*
X87602190Y-65591523D01*
X87602190Y-65448666D01*
X87578380Y-65401047D01*
X87554571Y-65377238D01*
X87149809Y-65877238D02*
X87126000Y-65901047D01*
X87102190Y-65948666D01*
X87102190Y-66067714D01*
X87126000Y-66115333D01*
X87149809Y-66139142D01*
X87197428Y-66162952D01*
X87245047Y-66162952D01*
X87316476Y-66139142D01*
X87602190Y-65853428D01*
X87602190Y-66162952D01*
X80188571Y-57844571D02*
X80212380Y-57820761D01*
X80236190Y-57749333D01*
X80236190Y-57701714D01*
X80212380Y-57630285D01*
X80164761Y-57582666D01*
X80117142Y-57558857D01*
X80021904Y-57535047D01*
X79950476Y-57535047D01*
X79855238Y-57558857D01*
X79807619Y-57582666D01*
X79760000Y-57630285D01*
X79736190Y-57701714D01*
X79736190Y-57749333D01*
X79760000Y-57820761D01*
X79783809Y-57844571D01*
X79736190Y-58011238D02*
X79736190Y-58320761D01*
X79926666Y-58154095D01*
X79926666Y-58225523D01*
X79950476Y-58273142D01*
X79974285Y-58296952D01*
X80021904Y-58320761D01*
X80140952Y-58320761D01*
X80188571Y-58296952D01*
X80212380Y-58273142D01*
X80236190Y-58225523D01*
X80236190Y-58082666D01*
X80212380Y-58035047D01*
X80188571Y-58011238D01*
X80236190Y-58796952D02*
X80236190Y-58511238D01*
X80236190Y-58654095D02*
X79736190Y-58654095D01*
X79807619Y-58606476D01*
X79855238Y-58558857D01*
X79879047Y-58511238D01*
X90348571Y-55304571D02*
X90372380Y-55280761D01*
X90396190Y-55209333D01*
X90396190Y-55161714D01*
X90372380Y-55090285D01*
X90324761Y-55042666D01*
X90277142Y-55018857D01*
X90181904Y-54995047D01*
X90110476Y-54995047D01*
X90015238Y-55018857D01*
X89967619Y-55042666D01*
X89920000Y-55090285D01*
X89896190Y-55161714D01*
X89896190Y-55209333D01*
X89920000Y-55280761D01*
X89943809Y-55304571D01*
X89896190Y-55471238D02*
X89896190Y-55780761D01*
X90086666Y-55614095D01*
X90086666Y-55685523D01*
X90110476Y-55733142D01*
X90134285Y-55756952D01*
X90181904Y-55780761D01*
X90300952Y-55780761D01*
X90348571Y-55756952D01*
X90372380Y-55733142D01*
X90396190Y-55685523D01*
X90396190Y-55542666D01*
X90372380Y-55495047D01*
X90348571Y-55471238D01*
X89896190Y-56090285D02*
X89896190Y-56137904D01*
X89920000Y-56185523D01*
X89943809Y-56209333D01*
X89991428Y-56233142D01*
X90086666Y-56256952D01*
X90205714Y-56256952D01*
X90300952Y-56233142D01*
X90348571Y-56209333D01*
X90372380Y-56185523D01*
X90396190Y-56137904D01*
X90396190Y-56090285D01*
X90372380Y-56042666D01*
X90348571Y-56018857D01*
X90300952Y-55995047D01*
X90205714Y-55971238D01*
X90086666Y-55971238D01*
X89991428Y-55995047D01*
X89943809Y-56018857D01*
X89920000Y-56042666D01*
X89896190Y-56090285D01*
X92380571Y-55304571D02*
X92404380Y-55280761D01*
X92428190Y-55209333D01*
X92428190Y-55161714D01*
X92404380Y-55090285D01*
X92356761Y-55042666D01*
X92309142Y-55018857D01*
X92213904Y-54995047D01*
X92142476Y-54995047D01*
X92047238Y-55018857D01*
X91999619Y-55042666D01*
X91952000Y-55090285D01*
X91928190Y-55161714D01*
X91928190Y-55209333D01*
X91952000Y-55280761D01*
X91975809Y-55304571D01*
X91975809Y-55495047D02*
X91952000Y-55518857D01*
X91928190Y-55566476D01*
X91928190Y-55685523D01*
X91952000Y-55733142D01*
X91975809Y-55756952D01*
X92023428Y-55780761D01*
X92071047Y-55780761D01*
X92142476Y-55756952D01*
X92428190Y-55471238D01*
X92428190Y-55780761D01*
X92428190Y-56018857D02*
X92428190Y-56114095D01*
X92404380Y-56161714D01*
X92380571Y-56185523D01*
X92309142Y-56233142D01*
X92213904Y-56256952D01*
X92023428Y-56256952D01*
X91975809Y-56233142D01*
X91952000Y-56209333D01*
X91928190Y-56161714D01*
X91928190Y-56066476D01*
X91952000Y-56018857D01*
X91975809Y-55995047D01*
X92023428Y-55971238D01*
X92142476Y-55971238D01*
X92190095Y-55995047D01*
X92213904Y-56018857D01*
X92237714Y-56066476D01*
X92237714Y-56161714D01*
X92213904Y-56209333D01*
X92190095Y-56233142D01*
X92142476Y-56256952D01*
X90221571Y-58606571D02*
X90245380Y-58582761D01*
X90269190Y-58511333D01*
X90269190Y-58463714D01*
X90245380Y-58392285D01*
X90197761Y-58344666D01*
X90150142Y-58320857D01*
X90054904Y-58297047D01*
X89983476Y-58297047D01*
X89888238Y-58320857D01*
X89840619Y-58344666D01*
X89793000Y-58392285D01*
X89769190Y-58463714D01*
X89769190Y-58511333D01*
X89793000Y-58582761D01*
X89816809Y-58606571D01*
X89816809Y-58797047D02*
X89793000Y-58820857D01*
X89769190Y-58868476D01*
X89769190Y-58987523D01*
X89793000Y-59035142D01*
X89816809Y-59058952D01*
X89864428Y-59082761D01*
X89912047Y-59082761D01*
X89983476Y-59058952D01*
X90269190Y-58773238D01*
X90269190Y-59082761D01*
X89983476Y-59368476D02*
X89959666Y-59320857D01*
X89935857Y-59297047D01*
X89888238Y-59273238D01*
X89864428Y-59273238D01*
X89816809Y-59297047D01*
X89793000Y-59320857D01*
X89769190Y-59368476D01*
X89769190Y-59463714D01*
X89793000Y-59511333D01*
X89816809Y-59535142D01*
X89864428Y-59558952D01*
X89888238Y-59558952D01*
X89935857Y-59535142D01*
X89959666Y-59511333D01*
X89983476Y-59463714D01*
X89983476Y-59368476D01*
X90007285Y-59320857D01*
X90031095Y-59297047D01*
X90078714Y-59273238D01*
X90173952Y-59273238D01*
X90221571Y-59297047D01*
X90245380Y-59320857D01*
X90269190Y-59368476D01*
X90269190Y-59463714D01*
X90245380Y-59511333D01*
X90221571Y-59535142D01*
X90173952Y-59558952D01*
X90078714Y-59558952D01*
X90031095Y-59535142D01*
X90007285Y-59511333D01*
X89983476Y-59463714D01*
X84760571Y-55177571D02*
X84784380Y-55153761D01*
X84808190Y-55082333D01*
X84808190Y-55034714D01*
X84784380Y-54963285D01*
X84736761Y-54915666D01*
X84689142Y-54891857D01*
X84593904Y-54868047D01*
X84522476Y-54868047D01*
X84427238Y-54891857D01*
X84379619Y-54915666D01*
X84332000Y-54963285D01*
X84308190Y-55034714D01*
X84308190Y-55082333D01*
X84332000Y-55153761D01*
X84355809Y-55177571D01*
X84355809Y-55368047D02*
X84332000Y-55391857D01*
X84308190Y-55439476D01*
X84308190Y-55558523D01*
X84332000Y-55606142D01*
X84355809Y-55629952D01*
X84403428Y-55653761D01*
X84451047Y-55653761D01*
X84522476Y-55629952D01*
X84808190Y-55344238D01*
X84808190Y-55653761D01*
X84308190Y-55820428D02*
X84308190Y-56153761D01*
X84808190Y-55939476D01*
X89586571Y-65337571D02*
X89610380Y-65313761D01*
X89634190Y-65242333D01*
X89634190Y-65194714D01*
X89610380Y-65123285D01*
X89562761Y-65075666D01*
X89515142Y-65051857D01*
X89419904Y-65028047D01*
X89348476Y-65028047D01*
X89253238Y-65051857D01*
X89205619Y-65075666D01*
X89158000Y-65123285D01*
X89134190Y-65194714D01*
X89134190Y-65242333D01*
X89158000Y-65313761D01*
X89181809Y-65337571D01*
X89181809Y-65528047D02*
X89158000Y-65551857D01*
X89134190Y-65599476D01*
X89134190Y-65718523D01*
X89158000Y-65766142D01*
X89181809Y-65789952D01*
X89229428Y-65813761D01*
X89277047Y-65813761D01*
X89348476Y-65789952D01*
X89634190Y-65504238D01*
X89634190Y-65813761D01*
X89134190Y-66242333D02*
X89134190Y-66147095D01*
X89158000Y-66099476D01*
X89181809Y-66075666D01*
X89253238Y-66028047D01*
X89348476Y-66004238D01*
X89538952Y-66004238D01*
X89586571Y-66028047D01*
X89610380Y-66051857D01*
X89634190Y-66099476D01*
X89634190Y-66194714D01*
X89610380Y-66242333D01*
X89586571Y-66266142D01*
X89538952Y-66289952D01*
X89419904Y-66289952D01*
X89372285Y-66266142D01*
X89348476Y-66242333D01*
X89324666Y-66194714D01*
X89324666Y-66099476D01*
X89348476Y-66051857D01*
X89372285Y-66028047D01*
X89419904Y-66004238D01*
X90221571Y-62289571D02*
X90245380Y-62265761D01*
X90269190Y-62194333D01*
X90269190Y-62146714D01*
X90245380Y-62075285D01*
X90197761Y-62027666D01*
X90150142Y-62003857D01*
X90054904Y-61980047D01*
X89983476Y-61980047D01*
X89888238Y-62003857D01*
X89840619Y-62027666D01*
X89793000Y-62075285D01*
X89769190Y-62146714D01*
X89769190Y-62194333D01*
X89793000Y-62265761D01*
X89816809Y-62289571D01*
X89816809Y-62480047D02*
X89793000Y-62503857D01*
X89769190Y-62551476D01*
X89769190Y-62670523D01*
X89793000Y-62718142D01*
X89816809Y-62741952D01*
X89864428Y-62765761D01*
X89912047Y-62765761D01*
X89983476Y-62741952D01*
X90269190Y-62456238D01*
X90269190Y-62765761D01*
X89769190Y-63218142D02*
X89769190Y-62980047D01*
X90007285Y-62956238D01*
X89983476Y-62980047D01*
X89959666Y-63027666D01*
X89959666Y-63146714D01*
X89983476Y-63194333D01*
X90007285Y-63218142D01*
X90054904Y-63241952D01*
X90173952Y-63241952D01*
X90221571Y-63218142D01*
X90245380Y-63194333D01*
X90269190Y-63146714D01*
X90269190Y-63027666D01*
X90245380Y-62980047D01*
X90221571Y-62956238D01*
X80188571Y-54796571D02*
X80212380Y-54772761D01*
X80236190Y-54701333D01*
X80236190Y-54653714D01*
X80212380Y-54582285D01*
X80164761Y-54534666D01*
X80117142Y-54510857D01*
X80021904Y-54487047D01*
X79950476Y-54487047D01*
X79855238Y-54510857D01*
X79807619Y-54534666D01*
X79760000Y-54582285D01*
X79736190Y-54653714D01*
X79736190Y-54701333D01*
X79760000Y-54772761D01*
X79783809Y-54796571D01*
X79783809Y-54987047D02*
X79760000Y-55010857D01*
X79736190Y-55058476D01*
X79736190Y-55177523D01*
X79760000Y-55225142D01*
X79783809Y-55248952D01*
X79831428Y-55272761D01*
X79879047Y-55272761D01*
X79950476Y-55248952D01*
X80236190Y-54963238D01*
X80236190Y-55272761D01*
X79736190Y-55582285D02*
X79736190Y-55629904D01*
X79760000Y-55677523D01*
X79783809Y-55701333D01*
X79831428Y-55725142D01*
X79926666Y-55748952D01*
X80045714Y-55748952D01*
X80140952Y-55725142D01*
X80188571Y-55701333D01*
X80212380Y-55677523D01*
X80236190Y-55629904D01*
X80236190Y-55582285D01*
X80212380Y-55534666D01*
X80188571Y-55510857D01*
X80140952Y-55487047D01*
X80045714Y-55463238D01*
X79926666Y-55463238D01*
X79831428Y-55487047D01*
X79783809Y-55510857D01*
X79760000Y-55534666D01*
X79736190Y-55582285D01*
X111684571Y-76513571D02*
X111708380Y-76489761D01*
X111732190Y-76418333D01*
X111732190Y-76370714D01*
X111708380Y-76299285D01*
X111660761Y-76251666D01*
X111613142Y-76227857D01*
X111517904Y-76204047D01*
X111446476Y-76204047D01*
X111351238Y-76227857D01*
X111303619Y-76251666D01*
X111256000Y-76299285D01*
X111232190Y-76370714D01*
X111232190Y-76418333D01*
X111256000Y-76489761D01*
X111279809Y-76513571D01*
X111732190Y-76989761D02*
X111732190Y-76704047D01*
X111732190Y-76846904D02*
X111232190Y-76846904D01*
X111303619Y-76799285D01*
X111351238Y-76751666D01*
X111375047Y-76704047D01*
X111232190Y-77418333D02*
X111232190Y-77323095D01*
X111256000Y-77275476D01*
X111279809Y-77251666D01*
X111351238Y-77204047D01*
X111446476Y-77180238D01*
X111636952Y-77180238D01*
X111684571Y-77204047D01*
X111708380Y-77227857D01*
X111732190Y-77275476D01*
X111732190Y-77370714D01*
X111708380Y-77418333D01*
X111684571Y-77442142D01*
X111636952Y-77465952D01*
X111517904Y-77465952D01*
X111470285Y-77442142D01*
X111446476Y-77418333D01*
X111422666Y-77370714D01*
X111422666Y-77275476D01*
X111446476Y-77227857D01*
X111470285Y-77204047D01*
X111517904Y-77180238D01*
X120574571Y-66226571D02*
X120598380Y-66202761D01*
X120622190Y-66131333D01*
X120622190Y-66083714D01*
X120598380Y-66012285D01*
X120550761Y-65964666D01*
X120503142Y-65940857D01*
X120407904Y-65917047D01*
X120336476Y-65917047D01*
X120241238Y-65940857D01*
X120193619Y-65964666D01*
X120146000Y-66012285D01*
X120122190Y-66083714D01*
X120122190Y-66131333D01*
X120146000Y-66202761D01*
X120169809Y-66226571D01*
X120622190Y-66702761D02*
X120622190Y-66417047D01*
X120622190Y-66559904D02*
X120122190Y-66559904D01*
X120193619Y-66512285D01*
X120241238Y-66464666D01*
X120265047Y-66417047D01*
X120122190Y-67155142D02*
X120122190Y-66917047D01*
X120360285Y-66893238D01*
X120336476Y-66917047D01*
X120312666Y-66964666D01*
X120312666Y-67083714D01*
X120336476Y-67131333D01*
X120360285Y-67155142D01*
X120407904Y-67178952D01*
X120526952Y-67178952D01*
X120574571Y-67155142D01*
X120598380Y-67131333D01*
X120622190Y-67083714D01*
X120622190Y-66964666D01*
X120598380Y-66917047D01*
X120574571Y-66893238D01*
X120574571Y-68258571D02*
X120598380Y-68234761D01*
X120622190Y-68163333D01*
X120622190Y-68115714D01*
X120598380Y-68044285D01*
X120550761Y-67996666D01*
X120503142Y-67972857D01*
X120407904Y-67949047D01*
X120336476Y-67949047D01*
X120241238Y-67972857D01*
X120193619Y-67996666D01*
X120146000Y-68044285D01*
X120122190Y-68115714D01*
X120122190Y-68163333D01*
X120146000Y-68234761D01*
X120169809Y-68258571D01*
X120622190Y-68734761D02*
X120622190Y-68449047D01*
X120622190Y-68591904D02*
X120122190Y-68591904D01*
X120193619Y-68544285D01*
X120241238Y-68496666D01*
X120265047Y-68449047D01*
X120288857Y-69163333D02*
X120622190Y-69163333D01*
X120098380Y-69044285D02*
X120455523Y-68925238D01*
X120455523Y-69234761D01*
X110668571Y-70544571D02*
X110692380Y-70520761D01*
X110716190Y-70449333D01*
X110716190Y-70401714D01*
X110692380Y-70330285D01*
X110644761Y-70282666D01*
X110597142Y-70258857D01*
X110501904Y-70235047D01*
X110430476Y-70235047D01*
X110335238Y-70258857D01*
X110287619Y-70282666D01*
X110240000Y-70330285D01*
X110216190Y-70401714D01*
X110216190Y-70449333D01*
X110240000Y-70520761D01*
X110263809Y-70544571D01*
X110716190Y-71020761D02*
X110716190Y-70735047D01*
X110716190Y-70877904D02*
X110216190Y-70877904D01*
X110287619Y-70830285D01*
X110335238Y-70782666D01*
X110359047Y-70735047D01*
X110216190Y-71187428D02*
X110216190Y-71496952D01*
X110406666Y-71330285D01*
X110406666Y-71401714D01*
X110430476Y-71449333D01*
X110454285Y-71473142D01*
X110501904Y-71496952D01*
X110620952Y-71496952D01*
X110668571Y-71473142D01*
X110692380Y-71449333D01*
X110716190Y-71401714D01*
X110716190Y-71258857D01*
X110692380Y-71211238D01*
X110668571Y-71187428D01*
X117145571Y-66226571D02*
X117169380Y-66202761D01*
X117193190Y-66131333D01*
X117193190Y-66083714D01*
X117169380Y-66012285D01*
X117121761Y-65964666D01*
X117074142Y-65940857D01*
X116978904Y-65917047D01*
X116907476Y-65917047D01*
X116812238Y-65940857D01*
X116764619Y-65964666D01*
X116717000Y-66012285D01*
X116693190Y-66083714D01*
X116693190Y-66131333D01*
X116717000Y-66202761D01*
X116740809Y-66226571D01*
X117193190Y-66702761D02*
X117193190Y-66417047D01*
X117193190Y-66559904D02*
X116693190Y-66559904D01*
X116764619Y-66512285D01*
X116812238Y-66464666D01*
X116836047Y-66417047D01*
X116740809Y-66893238D02*
X116717000Y-66917047D01*
X116693190Y-66964666D01*
X116693190Y-67083714D01*
X116717000Y-67131333D01*
X116740809Y-67155142D01*
X116788428Y-67178952D01*
X116836047Y-67178952D01*
X116907476Y-67155142D01*
X117193190Y-66869428D01*
X117193190Y-67178952D01*
X110668571Y-66353571D02*
X110692380Y-66329761D01*
X110716190Y-66258333D01*
X110716190Y-66210714D01*
X110692380Y-66139285D01*
X110644761Y-66091666D01*
X110597142Y-66067857D01*
X110501904Y-66044047D01*
X110430476Y-66044047D01*
X110335238Y-66067857D01*
X110287619Y-66091666D01*
X110240000Y-66139285D01*
X110216190Y-66210714D01*
X110216190Y-66258333D01*
X110240000Y-66329761D01*
X110263809Y-66353571D01*
X110716190Y-66829761D02*
X110716190Y-66544047D01*
X110716190Y-66686904D02*
X110216190Y-66686904D01*
X110287619Y-66639285D01*
X110335238Y-66591666D01*
X110359047Y-66544047D01*
X110716190Y-67305952D02*
X110716190Y-67020238D01*
X110716190Y-67163095D02*
X110216190Y-67163095D01*
X110287619Y-67115476D01*
X110335238Y-67067857D01*
X110359047Y-67020238D01*
X120701571Y-76751666D02*
X120725380Y-76727857D01*
X120749190Y-76656428D01*
X120749190Y-76608809D01*
X120725380Y-76537380D01*
X120677761Y-76489761D01*
X120630142Y-76465952D01*
X120534904Y-76442142D01*
X120463476Y-76442142D01*
X120368238Y-76465952D01*
X120320619Y-76489761D01*
X120273000Y-76537380D01*
X120249190Y-76608809D01*
X120249190Y-76656428D01*
X120273000Y-76727857D01*
X120296809Y-76751666D01*
X120749190Y-76989761D02*
X120749190Y-77085000D01*
X120725380Y-77132619D01*
X120701571Y-77156428D01*
X120630142Y-77204047D01*
X120534904Y-77227857D01*
X120344428Y-77227857D01*
X120296809Y-77204047D01*
X120273000Y-77180238D01*
X120249190Y-77132619D01*
X120249190Y-77037380D01*
X120273000Y-76989761D01*
X120296809Y-76965952D01*
X120344428Y-76942142D01*
X120463476Y-76942142D01*
X120511095Y-76965952D01*
X120534904Y-76989761D01*
X120558714Y-77037380D01*
X120558714Y-77132619D01*
X120534904Y-77180238D01*
X120511095Y-77204047D01*
X120463476Y-77227857D01*
X110795571Y-56812666D02*
X110819380Y-56788857D01*
X110843190Y-56717428D01*
X110843190Y-56669809D01*
X110819380Y-56598380D01*
X110771761Y-56550761D01*
X110724142Y-56526952D01*
X110628904Y-56503142D01*
X110557476Y-56503142D01*
X110462238Y-56526952D01*
X110414619Y-56550761D01*
X110367000Y-56598380D01*
X110343190Y-56669809D01*
X110343190Y-56717428D01*
X110367000Y-56788857D01*
X110390809Y-56812666D01*
X110557476Y-57098380D02*
X110533666Y-57050761D01*
X110509857Y-57026952D01*
X110462238Y-57003142D01*
X110438428Y-57003142D01*
X110390809Y-57026952D01*
X110367000Y-57050761D01*
X110343190Y-57098380D01*
X110343190Y-57193619D01*
X110367000Y-57241238D01*
X110390809Y-57265047D01*
X110438428Y-57288857D01*
X110462238Y-57288857D01*
X110509857Y-57265047D01*
X110533666Y-57241238D01*
X110557476Y-57193619D01*
X110557476Y-57098380D01*
X110581285Y-57050761D01*
X110605095Y-57026952D01*
X110652714Y-57003142D01*
X110747952Y-57003142D01*
X110795571Y-57026952D01*
X110819380Y-57050761D01*
X110843190Y-57098380D01*
X110843190Y-57193619D01*
X110819380Y-57241238D01*
X110795571Y-57265047D01*
X110747952Y-57288857D01*
X110652714Y-57288857D01*
X110605095Y-57265047D01*
X110581285Y-57241238D01*
X110557476Y-57193619D01*
X108763571Y-87419666D02*
X108787380Y-87395857D01*
X108811190Y-87324428D01*
X108811190Y-87276809D01*
X108787380Y-87205380D01*
X108739761Y-87157761D01*
X108692142Y-87133952D01*
X108596904Y-87110142D01*
X108525476Y-87110142D01*
X108430238Y-87133952D01*
X108382619Y-87157761D01*
X108335000Y-87205380D01*
X108311190Y-87276809D01*
X108311190Y-87324428D01*
X108335000Y-87395857D01*
X108358809Y-87419666D01*
X108311190Y-87586333D02*
X108311190Y-87919666D01*
X108811190Y-87705380D01*
X124892571Y-87419666D02*
X124916380Y-87395857D01*
X124940190Y-87324428D01*
X124940190Y-87276809D01*
X124916380Y-87205380D01*
X124868761Y-87157761D01*
X124821142Y-87133952D01*
X124725904Y-87110142D01*
X124654476Y-87110142D01*
X124559238Y-87133952D01*
X124511619Y-87157761D01*
X124464000Y-87205380D01*
X124440190Y-87276809D01*
X124440190Y-87324428D01*
X124464000Y-87395857D01*
X124487809Y-87419666D01*
X124440190Y-87848238D02*
X124440190Y-87753000D01*
X124464000Y-87705380D01*
X124487809Y-87681571D01*
X124559238Y-87633952D01*
X124654476Y-87610142D01*
X124844952Y-87610142D01*
X124892571Y-87633952D01*
X124916380Y-87657761D01*
X124940190Y-87705380D01*
X124940190Y-87800619D01*
X124916380Y-87848238D01*
X124892571Y-87872047D01*
X124844952Y-87895857D01*
X124725904Y-87895857D01*
X124678285Y-87872047D01*
X124654476Y-87848238D01*
X124630666Y-87800619D01*
X124630666Y-87705380D01*
X124654476Y-87657761D01*
X124678285Y-87633952D01*
X124725904Y-87610142D01*
X121590571Y-57066666D02*
X121614380Y-57042857D01*
X121638190Y-56971428D01*
X121638190Y-56923809D01*
X121614380Y-56852380D01*
X121566761Y-56804761D01*
X121519142Y-56780952D01*
X121423904Y-56757142D01*
X121352476Y-56757142D01*
X121257238Y-56780952D01*
X121209619Y-56804761D01*
X121162000Y-56852380D01*
X121138190Y-56923809D01*
X121138190Y-56971428D01*
X121162000Y-57042857D01*
X121185809Y-57066666D01*
X121138190Y-57519047D02*
X121138190Y-57280952D01*
X121376285Y-57257142D01*
X121352476Y-57280952D01*
X121328666Y-57328571D01*
X121328666Y-57447619D01*
X121352476Y-57495238D01*
X121376285Y-57519047D01*
X121423904Y-57542857D01*
X121542952Y-57542857D01*
X121590571Y-57519047D01*
X121614380Y-57495238D01*
X121638190Y-57447619D01*
X121638190Y-57328571D01*
X121614380Y-57280952D01*
X121590571Y-57257142D01*
M02*
