%FSLAX45Y45*%
G04 Gerber Fmt 4.5, Leading zero omitted, Abs format (unit mm)*
G04 Created by KiCad (PCBNEW (5.1.2-1)-1) date 2020-07-05 10:41:57*
%MOMM*%
%LPD*%
G04 APERTURE LIST*
%ADD10C,0.100000*%
%ADD11C,0.200000*%
%ADD12C,0.300000*%
G04 APERTURE END LIST*
D10*
X13398500Y-6223000D02*
X14200000Y-6223000D01*
X13398500Y-3300000D02*
X13398500Y-6223000D01*
X13398500Y-3300000D02*
X7048500Y-3300000D01*
X14200000Y-13300000D02*
X14200000Y-6223000D01*
X7048500Y-13300000D02*
X14200000Y-13300000D01*
X7048500Y-3300000D02*
X7048500Y-13300000D01*
D11*
D12*
X7329928Y-13770714D02*
X7329928Y-13470714D01*
X7401357Y-13470714D01*
X7444214Y-13485000D01*
X7472786Y-13513571D01*
X7487071Y-13542143D01*
X7501357Y-13599286D01*
X7501357Y-13642143D01*
X7487071Y-13699286D01*
X7472786Y-13727857D01*
X7444214Y-13756429D01*
X7401357Y-13770714D01*
X7329928Y-13770714D01*
X7629928Y-13770714D02*
X7629928Y-13570714D01*
X7629928Y-13627857D02*
X7644214Y-13599286D01*
X7658500Y-13585000D01*
X7687071Y-13570714D01*
X7715643Y-13570714D01*
X7815643Y-13770714D02*
X7815643Y-13570714D01*
X7815643Y-13470714D02*
X7801357Y-13485000D01*
X7815643Y-13499286D01*
X7829928Y-13485000D01*
X7815643Y-13470714D01*
X7815643Y-13499286D01*
X8001357Y-13770714D02*
X7972786Y-13756429D01*
X7958500Y-13727857D01*
X7958500Y-13470714D01*
X8158500Y-13770714D02*
X8129928Y-13756429D01*
X8115643Y-13727857D01*
X8115643Y-13470714D01*
X8501357Y-13770714D02*
X8501357Y-13470714D01*
X8601357Y-13685000D01*
X8701357Y-13470714D01*
X8701357Y-13770714D01*
X8972786Y-13770714D02*
X8972786Y-13613571D01*
X8958500Y-13585000D01*
X8929928Y-13570714D01*
X8872786Y-13570714D01*
X8844214Y-13585000D01*
X8972786Y-13756429D02*
X8944214Y-13770714D01*
X8872786Y-13770714D01*
X8844214Y-13756429D01*
X8829928Y-13727857D01*
X8829928Y-13699286D01*
X8844214Y-13670714D01*
X8872786Y-13656429D01*
X8944214Y-13656429D01*
X8972786Y-13642143D01*
X9115643Y-13570714D02*
X9115643Y-13870714D01*
X9115643Y-13585000D02*
X9144214Y-13570714D01*
X9201357Y-13570714D01*
X9229928Y-13585000D01*
X9244214Y-13599286D01*
X9258500Y-13627857D01*
X9258500Y-13713571D01*
X9244214Y-13742143D01*
X9229928Y-13756429D01*
X9201357Y-13770714D01*
X9144214Y-13770714D01*
X9115643Y-13756429D01*
X9387071Y-13742143D02*
X9401357Y-13756429D01*
X9387071Y-13770714D01*
X9372786Y-13756429D01*
X9387071Y-13742143D01*
X9387071Y-13770714D01*
X9387071Y-13585000D02*
X9401357Y-13599286D01*
X9387071Y-13613571D01*
X9372786Y-13599286D01*
X9387071Y-13585000D01*
X9387071Y-13613571D01*
M02*
