%FSLAX45Y45*%
G04 Gerber Fmt 4.5, Leading zero omitted, Abs format (unit mm)*
G04 Created by KiCad (PCBNEW (5.1.2-1)-1) date 2020-07-05 10:41:57*
%MOMM*%
%LPD*%
G04 APERTURE LIST*
%ADD10C,0.100000*%
%ADD11C,0.200000*%
%ADD12C,0.300000*%
G04 APERTURE END LIST*
D10*
X13398500Y-6223000D02*
X14200000Y-6223000D01*
X13398500Y-3300000D02*
X13398500Y-6223000D01*
X13398500Y-3300000D02*
X7048500Y-3300000D01*
X14200000Y-13300000D02*
X14200000Y-6223000D01*
X7048500Y-13300000D02*
X14200000Y-13300000D01*
X7048500Y-3300000D02*
X7048500Y-13300000D01*
D11*
X7227260Y-8932550D02*
X7267260Y-8972550D01*
X7267260Y-8932550D02*
X7227260Y-8972550D01*
X7298400Y-8239310D02*
X7338400Y-8279310D01*
X7338400Y-8239310D02*
X7298400Y-8279310D01*
X7320600Y-7053900D02*
X7360600Y-7093900D01*
X7360600Y-7053900D02*
X7320600Y-7093900D01*
X7419470Y-8686110D02*
X7459470Y-8726110D01*
X7459470Y-8686110D02*
X7419470Y-8726110D01*
X7470720Y-4699480D02*
X7510720Y-4739480D01*
X7510720Y-4699480D02*
X7470720Y-4739480D01*
X7489030Y-9530320D02*
X7529030Y-9570320D01*
X7529030Y-9530320D02*
X7489030Y-9570320D01*
X7524250Y-7829440D02*
X7564250Y-7869440D01*
X7564250Y-7829440D02*
X7524250Y-7869440D01*
X7542230Y-5419510D02*
X7582230Y-5459510D01*
X7582230Y-5419510D02*
X7542230Y-5459510D01*
X7542600Y-5582990D02*
X7582600Y-5622990D01*
X7582600Y-5582990D02*
X7542600Y-5622990D01*
X7554300Y-4504800D02*
X7594300Y-4544800D01*
X7594300Y-4504800D02*
X7554300Y-4544800D01*
X7573640Y-8860380D02*
X7613640Y-8900380D01*
X7613640Y-8860380D02*
X7573640Y-8900380D01*
X7574940Y-8741170D02*
X7614940Y-8781170D01*
X7614940Y-8741170D02*
X7574940Y-8781170D01*
X7575020Y-8139720D02*
X7615020Y-8179720D01*
X7615020Y-8139720D02*
X7575020Y-8179720D01*
X7612700Y-9085900D02*
X7652700Y-9125900D01*
X7652700Y-9085900D02*
X7612700Y-9125900D01*
X7676750Y-4729150D02*
X7716750Y-4769150D01*
X7716750Y-4729150D02*
X7676750Y-4769150D01*
X7727000Y-9085900D02*
X7767000Y-9125900D01*
X7767000Y-9085900D02*
X7727000Y-9125900D01*
X7765100Y-9733600D02*
X7805100Y-9773600D01*
X7805100Y-9733600D02*
X7765100Y-9773600D01*
X7811710Y-5551370D02*
X7851710Y-5591370D01*
X7851710Y-5551370D02*
X7811710Y-5591370D01*
X7811950Y-5662590D02*
X7851950Y-5702590D01*
X7851950Y-5662590D02*
X7811950Y-5702590D01*
X7841300Y-6926900D02*
X7881300Y-6966900D01*
X7881300Y-6926900D02*
X7841300Y-6966900D01*
X7841300Y-9085900D02*
X7881300Y-9125900D01*
X7881300Y-9085900D02*
X7841300Y-9125900D01*
X7915380Y-5375580D02*
X7955380Y-5415580D01*
X7955380Y-5375580D02*
X7915380Y-5415580D01*
X7942900Y-9085900D02*
X7982900Y-9125900D01*
X7982900Y-9085900D02*
X7942900Y-9125900D01*
X7981000Y-5491800D02*
X8021000Y-5531800D01*
X8021000Y-5491800D02*
X7981000Y-5531800D01*
X7981000Y-5809300D02*
X8021000Y-5849300D01*
X8021000Y-5809300D02*
X7981000Y-5849300D01*
X7981000Y-6126800D02*
X8021000Y-6166800D01*
X8021000Y-6126800D02*
X7981000Y-6166800D01*
X7988850Y-5305960D02*
X8028850Y-5345960D01*
X8028850Y-5305960D02*
X7988850Y-5345960D01*
X7995100Y-9734580D02*
X8035100Y-9774580D01*
X8035100Y-9734580D02*
X7995100Y-9774580D01*
X8065180Y-10530270D02*
X8105180Y-10570270D01*
X8105180Y-10530270D02*
X8065180Y-10570270D01*
X8095300Y-6355400D02*
X8135300Y-6395400D01*
X8135300Y-6355400D02*
X8095300Y-6395400D01*
X8231360Y-6946100D02*
X8271360Y-6986100D01*
X8271360Y-6946100D02*
X8231360Y-6986100D01*
X8273100Y-5949000D02*
X8313100Y-5989000D01*
X8313100Y-5949000D02*
X8273100Y-5989000D01*
X8274160Y-9740110D02*
X8314160Y-9780110D01*
X8314160Y-9740110D02*
X8274160Y-9780110D01*
X8274160Y-10107420D02*
X8314160Y-10147420D01*
X8314160Y-10107420D02*
X8274160Y-10147420D01*
X8387400Y-5504500D02*
X8427400Y-5544500D01*
X8427400Y-5504500D02*
X8387400Y-5544500D01*
X8387400Y-6469700D02*
X8427400Y-6509700D01*
X8427400Y-6469700D02*
X8387400Y-6509700D01*
X8392710Y-5615320D02*
X8432710Y-5655320D01*
X8432710Y-5615320D02*
X8392710Y-5655320D01*
X8418000Y-5118980D02*
X8458000Y-5158980D01*
X8458000Y-5118980D02*
X8418000Y-5158980D01*
X8501700Y-9085900D02*
X8541700Y-9125900D01*
X8541700Y-9085900D02*
X8501700Y-9125900D01*
X8552500Y-5339400D02*
X8592500Y-5379400D01*
X8592500Y-5339400D02*
X8552500Y-5379400D01*
X8603300Y-9085900D02*
X8643300Y-9125900D01*
X8643300Y-9085900D02*
X8603300Y-9125900D01*
X8666800Y-9733600D02*
X8706800Y-9773600D01*
X8706800Y-9733600D02*
X8666800Y-9773600D01*
X8688130Y-7363370D02*
X8728130Y-7403370D01*
X8728130Y-7363370D02*
X8688130Y-7403370D01*
X8704900Y-9085900D02*
X8744900Y-9125900D01*
X8744900Y-9085900D02*
X8704900Y-9125900D01*
X8730300Y-6457000D02*
X8770300Y-6497000D01*
X8770300Y-6457000D02*
X8730300Y-6497000D01*
X8768000Y-5119640D02*
X8808000Y-5159640D01*
X8808000Y-5119640D02*
X8768000Y-5159640D01*
X8819200Y-9085900D02*
X8859200Y-9125900D01*
X8859200Y-9085900D02*
X8819200Y-9125900D01*
X8918610Y-5953070D02*
X8958610Y-5993070D01*
X8958610Y-5953070D02*
X8918610Y-5993070D01*
X8942990Y-5187480D02*
X8982990Y-5227480D01*
X8982990Y-5187480D02*
X8942990Y-5227480D01*
X8950290Y-11156170D02*
X8990290Y-11196170D01*
X8990290Y-11156170D02*
X8950290Y-11196170D01*
X9009700Y-5631500D02*
X9049700Y-5671500D01*
X9049700Y-5631500D02*
X9009700Y-5671500D01*
X9017920Y-7252320D02*
X9057920Y-7292320D01*
X9057920Y-7252320D02*
X9017920Y-7292320D01*
X9022400Y-6736400D02*
X9062400Y-6776400D01*
X9062400Y-6736400D02*
X9022400Y-6776400D01*
X9059510Y-4613860D02*
X9099510Y-4653860D01*
X9099510Y-4613860D02*
X9059510Y-4653860D01*
X9098600Y-5771200D02*
X9138600Y-5811200D01*
X9138600Y-5771200D02*
X9098600Y-5811200D01*
X9098600Y-5974400D02*
X9138600Y-6014400D01*
X9138600Y-5974400D02*
X9098600Y-6014400D01*
X9098600Y-6139500D02*
X9138600Y-6179500D01*
X9138600Y-6139500D02*
X9098600Y-6179500D01*
X9111300Y-5339400D02*
X9151300Y-5379400D01*
X9151300Y-5339400D02*
X9111300Y-5379400D01*
X9136700Y-6469700D02*
X9176700Y-6509700D01*
X9176700Y-6469700D02*
X9136700Y-6509700D01*
X9162360Y-9873480D02*
X9202360Y-9913480D01*
X9202360Y-9873480D02*
X9162360Y-9913480D01*
X9162360Y-10114600D02*
X9202360Y-10154600D01*
X9202360Y-10114600D02*
X9162360Y-10154600D01*
X9171840Y-7311280D02*
X9211840Y-7351280D01*
X9211840Y-7311280D02*
X9171840Y-7351280D01*
X9194600Y-8334540D02*
X9234600Y-8374540D01*
X9234600Y-8334540D02*
X9194600Y-8374540D01*
X9218000Y-6981710D02*
X9258000Y-7021710D01*
X9258000Y-6981710D02*
X9218000Y-7021710D01*
X9228990Y-4850240D02*
X9268990Y-4890240D01*
X9268990Y-4850240D02*
X9228990Y-4890240D01*
X9252300Y-6798640D02*
X9292300Y-6838640D01*
X9292300Y-6798640D02*
X9252300Y-6838640D01*
X9276400Y-5339400D02*
X9316400Y-5379400D01*
X9316400Y-5339400D02*
X9276400Y-5379400D01*
X9317240Y-4712100D02*
X9357240Y-4752100D01*
X9357240Y-4712100D02*
X9317240Y-4752100D01*
X9333510Y-6940850D02*
X9373510Y-6980850D01*
X9373510Y-6940850D02*
X9333510Y-6980850D01*
X9378000Y-5631500D02*
X9418000Y-5671500D01*
X9418000Y-5631500D02*
X9378000Y-5671500D01*
X9378000Y-6241100D02*
X9418000Y-6281100D01*
X9418000Y-6241100D02*
X9378000Y-6281100D01*
X9390700Y-5872800D02*
X9430700Y-5912800D01*
X9430700Y-5872800D02*
X9390700Y-5912800D01*
X9480500Y-5382840D02*
X9520500Y-5422840D01*
X9520500Y-5382840D02*
X9480500Y-5422840D01*
X9543100Y-9098600D02*
X9583100Y-9138600D01*
X9583100Y-9098600D02*
X9543100Y-9138600D01*
X9543100Y-9733600D02*
X9583100Y-9773600D01*
X9583100Y-9733600D02*
X9543100Y-9773600D01*
X9634250Y-6924660D02*
X9674250Y-6964660D01*
X9674250Y-6924660D02*
X9634250Y-6964660D01*
X9636710Y-4779170D02*
X9676710Y-4819170D01*
X9676710Y-4779170D02*
X9636710Y-4819170D01*
X9647290Y-8334450D02*
X9687290Y-8374450D01*
X9687290Y-8334450D02*
X9647290Y-8374450D01*
X9830050Y-4671410D02*
X9870050Y-4711410D01*
X9870050Y-4671410D02*
X9830050Y-4711410D01*
X9866770Y-9574030D02*
X9906770Y-9614030D01*
X9906770Y-9574030D02*
X9866770Y-9614030D01*
X9896740Y-10055200D02*
X9936740Y-10095200D01*
X9936740Y-10055200D02*
X9896740Y-10095200D01*
X9916130Y-8497190D02*
X9956130Y-8537190D01*
X9956130Y-8497190D02*
X9916130Y-8537190D01*
X9945940Y-4704690D02*
X9985940Y-4744690D01*
X9985940Y-4704690D02*
X9945940Y-4744690D01*
X10043860Y-7970860D02*
X10083860Y-8010860D01*
X10083860Y-7970860D02*
X10043860Y-8010860D01*
X10043860Y-8385440D02*
X10083860Y-8425440D01*
X10083860Y-8385440D02*
X10043860Y-8425440D01*
X10069820Y-9900460D02*
X10109820Y-9940460D01*
X10109820Y-9900460D02*
X10069820Y-9940460D01*
X10117190Y-5875600D02*
X10157190Y-5915600D01*
X10157190Y-5875600D02*
X10117190Y-5915600D01*
X10126950Y-8109530D02*
X10166950Y-8149530D01*
X10166950Y-8109530D02*
X10126950Y-8149530D01*
X10126950Y-8565530D02*
X10166950Y-8605530D01*
X10166950Y-8565530D02*
X10126950Y-8605530D01*
X10132590Y-9164290D02*
X10172590Y-9204290D01*
X10172590Y-9164290D02*
X10132590Y-9204290D01*
X10132590Y-9674050D02*
X10172590Y-9714050D01*
X10172590Y-9674050D02*
X10132590Y-9714050D01*
X10151970Y-9788720D02*
X10191970Y-9828720D01*
X10191970Y-9788720D02*
X10151970Y-9828720D01*
X10195060Y-4954510D02*
X10235060Y-4994510D01*
X10235060Y-4954510D02*
X10195060Y-4994510D01*
X10196880Y-8369060D02*
X10236880Y-8409060D01*
X10236880Y-8369060D02*
X10196880Y-8409060D01*
X10313770Y-5064190D02*
X10353770Y-5104190D01*
X10353770Y-5064190D02*
X10313770Y-5104190D01*
X10316510Y-8369500D02*
X10356510Y-8409500D01*
X10356510Y-8369500D02*
X10316510Y-8409500D01*
X10373550Y-6178030D02*
X10413550Y-6218030D01*
X10413550Y-6178030D02*
X10373550Y-6218030D01*
X10445110Y-4661820D02*
X10485110Y-4701820D01*
X10485110Y-4661820D02*
X10445110Y-4701820D01*
X10451980Y-5106520D02*
X10491980Y-5146520D01*
X10491980Y-5106520D02*
X10451980Y-5146520D01*
X10547580Y-8966070D02*
X10587580Y-9006070D01*
X10587580Y-8966070D02*
X10547580Y-9006070D01*
X10634610Y-9165660D02*
X10674610Y-9205660D01*
X10674610Y-9165660D02*
X10634610Y-9205660D01*
X10643770Y-4560350D02*
X10683770Y-4600350D01*
X10683770Y-4560350D02*
X10643770Y-4600350D01*
X10658670Y-9329530D02*
X10698670Y-9369530D01*
X10698670Y-9329530D02*
X10658670Y-9369530D01*
X10671750Y-10017730D02*
X10711750Y-10057730D01*
X10711750Y-10017730D02*
X10671750Y-10057730D01*
X10688500Y-5602880D02*
X10728500Y-5642880D01*
X10728500Y-5602880D02*
X10688500Y-5642880D01*
X10801010Y-9184370D02*
X10841010Y-9224370D01*
X10841010Y-9184370D02*
X10801010Y-9224370D01*
X10803030Y-9082440D02*
X10843030Y-9122440D01*
X10843030Y-9082440D02*
X10803030Y-9122440D01*
X10814290Y-4595620D02*
X10854290Y-4635620D01*
X10854290Y-4595620D02*
X10814290Y-4635620D01*
X10838500Y-6736400D02*
X10878500Y-6776400D01*
X10878500Y-6736400D02*
X10838500Y-6776400D01*
X10838500Y-8819200D02*
X10878500Y-8859200D01*
X10878500Y-8819200D02*
X10838500Y-8859200D01*
X10851200Y-6914200D02*
X10891200Y-6954200D01*
X10891200Y-6914200D02*
X10851200Y-6954200D01*
X10914700Y-5961700D02*
X10954700Y-6001700D01*
X10954700Y-5961700D02*
X10914700Y-6001700D01*
X10929420Y-9983120D02*
X10969420Y-10023120D01*
X10969420Y-9983120D02*
X10929420Y-10023120D01*
X10952800Y-7803200D02*
X10992800Y-7843200D01*
X10992800Y-7803200D02*
X10952800Y-7843200D01*
X10952800Y-7917500D02*
X10992800Y-7957500D01*
X10992800Y-7917500D02*
X10952800Y-7957500D01*
X10972692Y-8392272D02*
X11012692Y-8432272D01*
X11012692Y-8392272D02*
X10972692Y-8432272D01*
X10990900Y-7346000D02*
X11030900Y-7386000D01*
X11030900Y-7346000D02*
X10990900Y-7386000D01*
X11029000Y-7485700D02*
X11069000Y-7525700D01*
X11069000Y-7485700D02*
X11029000Y-7525700D01*
X11041700Y-6647500D02*
X11081700Y-6687500D01*
X11081700Y-6647500D02*
X11041700Y-6687500D01*
X11041700Y-7066600D02*
X11081700Y-7106600D01*
X11081700Y-7066600D02*
X11041700Y-7106600D01*
X11050900Y-6487900D02*
X11090900Y-6527900D01*
X11090900Y-6487900D02*
X11050900Y-6527900D01*
X11055401Y-8448481D02*
X11095401Y-8488481D01*
X11095401Y-8448481D02*
X11055401Y-8488481D01*
X11092500Y-7621900D02*
X11132500Y-7661900D01*
X11132500Y-7621900D02*
X11092500Y-7661900D01*
X11130600Y-9979190D02*
X11170600Y-10019190D01*
X11170600Y-9979190D02*
X11130600Y-10019190D01*
X11143300Y-6939600D02*
X11183300Y-6979600D01*
X11183300Y-6939600D02*
X11143300Y-6979600D01*
X11205950Y-9785830D02*
X11245950Y-9825830D01*
X11245950Y-9785830D02*
X11205950Y-9825830D01*
X11209917Y-6441203D02*
X11249917Y-6481203D01*
X11249917Y-6441203D02*
X11209917Y-6481203D01*
X11225849Y-6818951D02*
X11265849Y-6858951D01*
X11265849Y-6818951D02*
X11225849Y-6858951D01*
X11246560Y-9947120D02*
X11286560Y-9987120D01*
X11286560Y-9947120D02*
X11246560Y-9987120D01*
X11283000Y-8946200D02*
X11323000Y-8986200D01*
X11323000Y-8946200D02*
X11283000Y-8986200D01*
X11321100Y-6545900D02*
X11361100Y-6585900D01*
X11361100Y-6545900D02*
X11321100Y-6585900D01*
X11380590Y-8392710D02*
X11420590Y-8432710D01*
X11420590Y-8392710D02*
X11380590Y-8432710D01*
X11421320Y-5411290D02*
X11461320Y-5451290D01*
X11461320Y-5411290D02*
X11421320Y-5451290D01*
X11450180Y-5265820D02*
X11490180Y-5305820D01*
X11490180Y-5265820D02*
X11450180Y-5305820D01*
X11460800Y-5961700D02*
X11500800Y-6001700D01*
X11500800Y-5961700D02*
X11460800Y-6001700D01*
X11460800Y-7968300D02*
X11500800Y-8008300D01*
X11500800Y-7968300D02*
X11460800Y-8008300D01*
X11473390Y-8099870D02*
X11513390Y-8139870D01*
X11513390Y-8099870D02*
X11473390Y-8139870D01*
X11516440Y-9488170D02*
X11556440Y-9528170D01*
X11556440Y-9488170D02*
X11516440Y-9528170D01*
X11521270Y-8439910D02*
X11561270Y-8479910D01*
X11561270Y-8439910D02*
X11521270Y-8479910D01*
X11524300Y-6749100D02*
X11564300Y-6789100D01*
X11564300Y-6749100D02*
X11524300Y-6789100D01*
X11532160Y-9975800D02*
X11572160Y-10015800D01*
X11572160Y-9975800D02*
X11532160Y-10015800D01*
X11549700Y-8031800D02*
X11589700Y-8071800D01*
X11589700Y-8031800D02*
X11549700Y-8071800D01*
X11560300Y-9688460D02*
X11600300Y-9728460D01*
X11600300Y-9688460D02*
X11560300Y-9728460D01*
X11589750Y-8540040D02*
X11629750Y-8580040D01*
X11629750Y-8540040D02*
X11589750Y-8580040D01*
X11613200Y-6330000D02*
X11653200Y-6370000D01*
X11653200Y-6330000D02*
X11613200Y-6370000D01*
X11663170Y-4234340D02*
X11703170Y-4274340D01*
X11703170Y-4234340D02*
X11663170Y-4274340D01*
X11678580Y-5254030D02*
X11718580Y-5294030D01*
X11718580Y-5254030D02*
X11678580Y-5294030D01*
X11738520Y-8543520D02*
X11778520Y-8583520D01*
X11778520Y-8543520D02*
X11738520Y-8583520D01*
X11840330Y-8489890D02*
X11880330Y-8529890D01*
X11880330Y-8489890D02*
X11840330Y-8529890D01*
X11844770Y-9300960D02*
X11884770Y-9340960D01*
X11884770Y-9300960D02*
X11844770Y-9340960D01*
X11861090Y-5340750D02*
X11901090Y-5380750D01*
X11901090Y-5340750D02*
X11861090Y-5380750D01*
X11905300Y-6545900D02*
X11945300Y-6585900D01*
X11945300Y-6545900D02*
X11905300Y-6585900D01*
X11956100Y-8831900D02*
X11996100Y-8871900D01*
X11996100Y-8831900D02*
X11956100Y-8871900D01*
X12059040Y-8499760D02*
X12099040Y-8539760D01*
X12099040Y-8499760D02*
X12059040Y-8539760D01*
X12083100Y-6545900D02*
X12123100Y-6585900D01*
X12123100Y-6545900D02*
X12083100Y-6585900D01*
X12121200Y-6749100D02*
X12161200Y-6789100D01*
X12161200Y-6749100D02*
X12121200Y-6789100D01*
X12126780Y-8580180D02*
X12166780Y-8620180D01*
X12166780Y-8580180D02*
X12126780Y-8620180D01*
X12133900Y-8019100D02*
X12173900Y-8059100D01*
X12173900Y-8019100D02*
X12133900Y-8059100D01*
X12141710Y-8387660D02*
X12181710Y-8427660D01*
X12181710Y-8387660D02*
X12141710Y-8427660D01*
X12146600Y-6965000D02*
X12186600Y-7005000D01*
X12186600Y-6965000D02*
X12146600Y-7005000D01*
X12146600Y-7473000D02*
X12186600Y-7513000D01*
X12186600Y-7473000D02*
X12146600Y-7513000D01*
X12172000Y-6545900D02*
X12212000Y-6585900D01*
X12212000Y-6545900D02*
X12172000Y-6585900D01*
X12218100Y-6439640D02*
X12258100Y-6479640D01*
X12258100Y-6439640D02*
X12218100Y-6479640D01*
X12222800Y-6330000D02*
X12262800Y-6370000D01*
X12262800Y-6330000D02*
X12222800Y-6370000D01*
X12235500Y-7765100D02*
X12275500Y-7805100D01*
X12275500Y-7765100D02*
X12235500Y-7805100D01*
X12246430Y-8395450D02*
X12286430Y-8435450D01*
X12286430Y-8395450D02*
X12246430Y-8435450D01*
X12286300Y-7981000D02*
X12326300Y-8021000D01*
X12326300Y-7981000D02*
X12286300Y-8021000D01*
X12338857Y-6560357D02*
X12378857Y-6600357D01*
X12378857Y-6560357D02*
X12338857Y-6600357D01*
X12372160Y-8629380D02*
X12412160Y-8669380D01*
X12412160Y-8629380D02*
X12372160Y-8669380D01*
X12393330Y-9666840D02*
X12433330Y-9706840D01*
X12433330Y-9666840D02*
X12393330Y-9706840D01*
X12401760Y-5750760D02*
X12441760Y-5790760D01*
X12441760Y-5750760D02*
X12401760Y-5790760D01*
X12413300Y-6647500D02*
X12453300Y-6687500D01*
X12453300Y-6647500D02*
X12413300Y-6687500D01*
X12413300Y-6850700D02*
X12453300Y-6890700D01*
X12453300Y-6850700D02*
X12413300Y-6890700D01*
X12426000Y-7663500D02*
X12466000Y-7703500D01*
X12466000Y-7663500D02*
X12426000Y-7703500D01*
X12509900Y-7833640D02*
X12549900Y-7873640D01*
X12549900Y-7833640D02*
X12509900Y-7873640D01*
X12514900Y-5961700D02*
X12554900Y-6001700D01*
X12554900Y-5961700D02*
X12514900Y-6001700D01*
X12591100Y-8400100D02*
X12631100Y-8440100D01*
X12631100Y-8400100D02*
X12591100Y-8440100D01*
X12602950Y-5687640D02*
X12642950Y-5727640D01*
X12642950Y-5687640D02*
X12602950Y-5727640D01*
X12629200Y-8095300D02*
X12669200Y-8135300D01*
X12669200Y-8095300D02*
X12629200Y-8135300D01*
X12641900Y-6812600D02*
X12681900Y-6852600D01*
X12681900Y-6812600D02*
X12641900Y-6852600D01*
X12641900Y-7117400D02*
X12681900Y-7157400D01*
X12681900Y-7117400D02*
X12641900Y-7157400D01*
X12641900Y-7574600D02*
X12681900Y-7614600D01*
X12681900Y-7574600D02*
X12641900Y-7614600D01*
X12641900Y-7879400D02*
X12681900Y-7919400D01*
X12681900Y-7879400D02*
X12641900Y-7919400D01*
X12721060Y-5271800D02*
X12761060Y-5311800D01*
X12761060Y-5271800D02*
X12721060Y-5311800D01*
X12806420Y-8637960D02*
X12846420Y-8677960D01*
X12846420Y-8637960D02*
X12806420Y-8677960D01*
X12826870Y-5450830D02*
X12866870Y-5490830D01*
X12866870Y-5450830D02*
X12826870Y-5490830D01*
X12839520Y-9269660D02*
X12879520Y-9309660D01*
X12879520Y-9269660D02*
X12839520Y-9309660D01*
X12871820Y-6157850D02*
X12911820Y-6197850D01*
X12911820Y-6157850D02*
X12871820Y-6197850D01*
X12920440Y-5717580D02*
X12960440Y-5757580D01*
X12960440Y-5717580D02*
X12920440Y-5757580D01*
X12948350Y-4755650D02*
X12988350Y-4795650D01*
X12988350Y-4755650D02*
X12948350Y-4795650D01*
X13021411Y-5714070D02*
X13061411Y-5754070D01*
X13061411Y-5714070D02*
X13021411Y-5754070D01*
X13078110Y-4721590D02*
X13118110Y-4761590D01*
X13118110Y-4721590D02*
X13078110Y-4761590D01*
X13137020Y-5270770D02*
X13177020Y-5310770D01*
X13177020Y-5270770D02*
X13137020Y-5310770D01*
X13726360Y-7879390D02*
X13766360Y-7919390D01*
X13766360Y-7879390D02*
X13726360Y-7919390D01*
X13146400Y-3549700D02*
G75*
G03X13146400Y-3549700I-40000J0D01*
G01*
X13146400Y-3749700D02*
G75*
G03X13146400Y-3749700I-40000J0D01*
G01*
X13146400Y-3949700D02*
G75*
G03X13146400Y-3949700I-40000J0D01*
G01*
X7688000Y-11503000D02*
G75*
G03X7688000Y-11503000I-40000J0D01*
G01*
X7688000Y-13027000D02*
G75*
G03X7688000Y-13027000I-40000J0D01*
G01*
X7942000Y-11503000D02*
G75*
G03X7942000Y-11503000I-40000J0D01*
G01*
X7942000Y-13027000D02*
G75*
G03X7942000Y-13027000I-40000J0D01*
G01*
X8196000Y-11503000D02*
G75*
G03X8196000Y-11503000I-40000J0D01*
G01*
X8196000Y-13027000D02*
G75*
G03X8196000Y-13027000I-40000J0D01*
G01*
X8450000Y-11503000D02*
G75*
G03X8450000Y-11503000I-40000J0D01*
G01*
X8450000Y-13027000D02*
G75*
G03X8450000Y-13027000I-40000J0D01*
G01*
X8704000Y-11503000D02*
G75*
G03X8704000Y-11503000I-40000J0D01*
G01*
X8704000Y-13027000D02*
G75*
G03X8704000Y-13027000I-40000J0D01*
G01*
X8958000Y-11503000D02*
G75*
G03X8958000Y-11503000I-40000J0D01*
G01*
X8958000Y-13027000D02*
G75*
G03X8958000Y-13027000I-40000J0D01*
G01*
X9212000Y-11503000D02*
G75*
G03X9212000Y-11503000I-40000J0D01*
G01*
X9212000Y-13027000D02*
G75*
G03X9212000Y-13027000I-40000J0D01*
G01*
X9466000Y-11503000D02*
G75*
G03X9466000Y-11503000I-40000J0D01*
G01*
X9466000Y-13027000D02*
G75*
G03X9466000Y-13027000I-40000J0D01*
G01*
X9720000Y-11503000D02*
G75*
G03X9720000Y-11503000I-40000J0D01*
G01*
X9720000Y-13027000D02*
G75*
G03X9720000Y-13027000I-40000J0D01*
G01*
X9974000Y-11503000D02*
G75*
G03X9974000Y-11503000I-40000J0D01*
G01*
X9974000Y-13027000D02*
G75*
G03X9974000Y-13027000I-40000J0D01*
G01*
X10228000Y-11503000D02*
G75*
G03X10228000Y-11503000I-40000J0D01*
G01*
X10228000Y-13027000D02*
G75*
G03X10228000Y-13027000I-40000J0D01*
G01*
X10482000Y-11503000D02*
G75*
G03X10482000Y-11503000I-40000J0D01*
G01*
X10482000Y-13027000D02*
G75*
G03X10482000Y-13027000I-40000J0D01*
G01*
X10736000Y-11503000D02*
G75*
G03X10736000Y-11503000I-40000J0D01*
G01*
X10736000Y-13027000D02*
G75*
G03X10736000Y-13027000I-40000J0D01*
G01*
X10990000Y-11503000D02*
G75*
G03X10990000Y-11503000I-40000J0D01*
G01*
X10990000Y-13027000D02*
G75*
G03X10990000Y-13027000I-40000J0D01*
G01*
X11050000Y-9161000D02*
G75*
G03X11050000Y-9161000I-40000J0D01*
G01*
X11050000Y-10685000D02*
G75*
G03X11050000Y-10685000I-40000J0D01*
G01*
X11304000Y-9161000D02*
G75*
G03X11304000Y-9161000I-40000J0D01*
G01*
X11304000Y-10685000D02*
G75*
G03X11304000Y-10685000I-40000J0D01*
G01*
X11558000Y-9161000D02*
G75*
G03X11558000Y-9161000I-40000J0D01*
G01*
X11558000Y-10685000D02*
G75*
G03X11558000Y-10685000I-40000J0D01*
G01*
X11812000Y-9161000D02*
G75*
G03X11812000Y-9161000I-40000J0D01*
G01*
X11812000Y-10685000D02*
G75*
G03X11812000Y-10685000I-40000J0D01*
G01*
X12066000Y-9161000D02*
G75*
G03X12066000Y-9161000I-40000J0D01*
G01*
X12066000Y-10685000D02*
G75*
G03X12066000Y-10685000I-40000J0D01*
G01*
X12320000Y-9161000D02*
G75*
G03X12320000Y-9161000I-40000J0D01*
G01*
X12320000Y-10685000D02*
G75*
G03X12320000Y-10685000I-40000J0D01*
G01*
X12574000Y-9161000D02*
G75*
G03X12574000Y-9161000I-40000J0D01*
G01*
X12574000Y-10685000D02*
G75*
G03X12574000Y-10685000I-40000J0D01*
G01*
X12828000Y-9161000D02*
G75*
G03X12828000Y-9161000I-40000J0D01*
G01*
X12828000Y-10685000D02*
G75*
G03X12828000Y-10685000I-40000J0D01*
G01*
X13082000Y-9161000D02*
G75*
G03X13082000Y-9161000I-40000J0D01*
G01*
X13082000Y-10685000D02*
G75*
G03X13082000Y-10685000I-40000J0D01*
G01*
X13336000Y-9161000D02*
G75*
G03X13336000Y-9161000I-40000J0D01*
G01*
X13336000Y-10685000D02*
G75*
G03X13336000Y-10685000I-40000J0D01*
G01*
X13590000Y-9161000D02*
G75*
G03X13590000Y-9161000I-40000J0D01*
G01*
X13590000Y-10685000D02*
G75*
G03X13590000Y-10685000I-40000J0D01*
G01*
X13844000Y-9161000D02*
G75*
G03X13844000Y-9161000I-40000J0D01*
G01*
X13844000Y-10685000D02*
G75*
G03X13844000Y-10685000I-40000J0D01*
G01*
X7558400Y-7708900D02*
G75*
G03X7558400Y-7708900I-40000J0D01*
G01*
X7558400Y-8470900D02*
G75*
G03X7558400Y-8470900I-40000J0D01*
G01*
X9336400Y-7708900D02*
G75*
G03X9336400Y-7708900I-40000J0D01*
G01*
X9336400Y-8470900D02*
G75*
G03X9336400Y-8470900I-40000J0D01*
G01*
X8496300Y-3569500D02*
X8496300Y-3669500D01*
X8446300Y-3619500D02*
X8546300Y-3619500D01*
X8496300Y-3823500D02*
X8496300Y-3923500D01*
X8446300Y-3873500D02*
X8546300Y-3873500D01*
X8750300Y-3569500D02*
X8750300Y-3669500D01*
X8700300Y-3619500D02*
X8800300Y-3619500D01*
X8750300Y-3823500D02*
X8750300Y-3923500D01*
X8700300Y-3873500D02*
X8800300Y-3873500D01*
X9004300Y-3569500D02*
X9004300Y-3669500D01*
X8954300Y-3619500D02*
X9054300Y-3619500D01*
X9004300Y-3823500D02*
X9004300Y-3923500D01*
X8954300Y-3873500D02*
X9054300Y-3873500D01*
X9258300Y-3569500D02*
X9258300Y-3669500D01*
X9208300Y-3619500D02*
X9308300Y-3619500D01*
X9258300Y-3823500D02*
X9258300Y-3923500D01*
X9208300Y-3873500D02*
X9308300Y-3873500D01*
X9512300Y-3569500D02*
X9512300Y-3669500D01*
X9462300Y-3619500D02*
X9562300Y-3619500D01*
X9512300Y-3823500D02*
X9512300Y-3923500D01*
X9462300Y-3873500D02*
X9562300Y-3873500D01*
X9766300Y-3569500D02*
X9766300Y-3669500D01*
X9716300Y-3619500D02*
X9816300Y-3619500D01*
X9766300Y-3823500D02*
X9766300Y-3923500D01*
X9716300Y-3873500D02*
X9816300Y-3873500D01*
X10020300Y-3569500D02*
X10020300Y-3669500D01*
X9970300Y-3619500D02*
X10070300Y-3619500D01*
X10020300Y-3823500D02*
X10020300Y-3923500D01*
X9970300Y-3873500D02*
X10070300Y-3873500D01*
X10274300Y-3569500D02*
X10274300Y-3669500D01*
X10224300Y-3619500D02*
X10324300Y-3619500D01*
X10274300Y-3823500D02*
X10274300Y-3923500D01*
X10224300Y-3873500D02*
X10324300Y-3873500D01*
X10528300Y-3569500D02*
X10528300Y-3669500D01*
X10478300Y-3619500D02*
X10578300Y-3619500D01*
X10528300Y-3823500D02*
X10528300Y-3923500D01*
X10478300Y-3873500D02*
X10578300Y-3873500D01*
X10782300Y-3569500D02*
X10782300Y-3669500D01*
X10732300Y-3619500D02*
X10832300Y-3619500D01*
X10782300Y-3823500D02*
X10782300Y-3923500D01*
X10732300Y-3873500D02*
X10832300Y-3873500D01*
X11036300Y-3569500D02*
X11036300Y-3669500D01*
X10986300Y-3619500D02*
X11086300Y-3619500D01*
X11036300Y-3823500D02*
X11036300Y-3923500D01*
X10986300Y-3873500D02*
X11086300Y-3873500D01*
X11290300Y-3569500D02*
X11290300Y-3669500D01*
X11240300Y-3619500D02*
X11340300Y-3619500D01*
X11290300Y-3823500D02*
X11290300Y-3923500D01*
X11240300Y-3873500D02*
X11340300Y-3873500D01*
X11544300Y-3569500D02*
X11544300Y-3669500D01*
X11494300Y-3619500D02*
X11594300Y-3619500D01*
X11544300Y-3823500D02*
X11544300Y-3923500D01*
X11494300Y-3873500D02*
X11594300Y-3873500D01*
X11798300Y-3569500D02*
X11798300Y-3669500D01*
X11748300Y-3619500D02*
X11848300Y-3619500D01*
X11798300Y-3823500D02*
X11798300Y-3923500D01*
X11748300Y-3873500D02*
X11848300Y-3873500D01*
X12052300Y-3569500D02*
X12052300Y-3669500D01*
X12002300Y-3619500D02*
X12102300Y-3619500D01*
X12052300Y-3823500D02*
X12052300Y-3923500D01*
X12002300Y-3873500D02*
X12102300Y-3873500D01*
X12306300Y-3569500D02*
X12306300Y-3669500D01*
X12256300Y-3619500D02*
X12356300Y-3619500D01*
X12306300Y-3823500D02*
X12306300Y-3923500D01*
X12256300Y-3873500D02*
X12356300Y-3873500D01*
X12560300Y-3569500D02*
X12560300Y-3669500D01*
X12510300Y-3619500D02*
X12610300Y-3619500D01*
X12560300Y-3823500D02*
X12560300Y-3923500D01*
X12510300Y-3873500D02*
X12610300Y-3873500D01*
X10795000Y-4852200D02*
X10795000Y-4952200D01*
X10745000Y-4902200D02*
X10845000Y-4902200D01*
X10795000Y-5106200D02*
X10795000Y-5206200D01*
X10745000Y-5156200D02*
X10845000Y-5156200D01*
X11049000Y-4852200D02*
X11049000Y-4952200D01*
X10999000Y-4902200D02*
X11099000Y-4902200D01*
X11049000Y-5106200D02*
X11049000Y-5206200D01*
X10999000Y-5156200D02*
X11099000Y-5156200D01*
X11303000Y-4852200D02*
X11303000Y-4952200D01*
X11253000Y-4902200D02*
X11353000Y-4902200D01*
X11303000Y-5106200D02*
X11303000Y-5206200D01*
X11253000Y-5156200D02*
X11353000Y-5156200D01*
X12065000Y-4839500D02*
X12065000Y-4939500D01*
X12015000Y-4889500D02*
X12115000Y-4889500D01*
X12065000Y-5093500D02*
X12065000Y-5193500D01*
X12015000Y-5143500D02*
X12115000Y-5143500D01*
X12319000Y-4839500D02*
X12319000Y-4939500D01*
X12269000Y-4889500D02*
X12369000Y-4889500D01*
X12319000Y-5093500D02*
X12319000Y-5193500D01*
X12269000Y-5143500D02*
X12369000Y-5143500D01*
X12573000Y-4839500D02*
X12573000Y-4939500D01*
X12523000Y-4889500D02*
X12623000Y-4889500D01*
X12573000Y-5093500D02*
X12573000Y-5193500D01*
X12523000Y-5143500D02*
X12623000Y-5143500D01*
X12827000Y-4839500D02*
X12827000Y-4939500D01*
X12777000Y-4889500D02*
X12877000Y-4889500D01*
X12827000Y-5093500D02*
X12827000Y-5193500D01*
X12777000Y-5143500D02*
X12877000Y-5143500D01*
X13081000Y-4839500D02*
X13081000Y-4939500D01*
X13031000Y-4889500D02*
X13131000Y-4889500D01*
X13081000Y-5093500D02*
X13081000Y-5193500D01*
X13031000Y-5143500D02*
X13131000Y-5143500D01*
X10795000Y-4344200D02*
X10795000Y-4444200D01*
X10745000Y-4394200D02*
X10845000Y-4394200D01*
X11049000Y-4344200D02*
X11049000Y-4444200D01*
X10999000Y-4394200D02*
X11099000Y-4394200D01*
X11303000Y-4344200D02*
X11303000Y-4444200D01*
X11253000Y-4394200D02*
X11353000Y-4394200D01*
X11557000Y-4344200D02*
X11557000Y-4444200D01*
X11507000Y-4394200D02*
X11607000Y-4394200D01*
X11811000Y-4344200D02*
X11811000Y-4444200D01*
X11761000Y-4394200D02*
X11861000Y-4394200D01*
X12065000Y-4344200D02*
X12065000Y-4444200D01*
X12015000Y-4394200D02*
X12115000Y-4394200D01*
X12319000Y-4344200D02*
X12319000Y-4444200D01*
X12269000Y-4394200D02*
X12369000Y-4394200D01*
X12573000Y-4344200D02*
X12573000Y-4444200D01*
X12523000Y-4394200D02*
X12623000Y-4394200D01*
X12827000Y-4344200D02*
X12827000Y-4444200D01*
X12777000Y-4394200D02*
X12877000Y-4394200D01*
X13081000Y-4344200D02*
X13081000Y-4444200D01*
X13031000Y-4394200D02*
X13131000Y-4394200D01*
D12*
X7329928Y-13770714D02*
X7329928Y-13470714D01*
X7401357Y-13470714D01*
X7444214Y-13485000D01*
X7472786Y-13513571D01*
X7487071Y-13542143D01*
X7501357Y-13599286D01*
X7501357Y-13642143D01*
X7487071Y-13699286D01*
X7472786Y-13727857D01*
X7444214Y-13756429D01*
X7401357Y-13770714D01*
X7329928Y-13770714D01*
X7629928Y-13770714D02*
X7629928Y-13570714D01*
X7629928Y-13627857D02*
X7644214Y-13599286D01*
X7658500Y-13585000D01*
X7687071Y-13570714D01*
X7715643Y-13570714D01*
X7815643Y-13770714D02*
X7815643Y-13570714D01*
X7815643Y-13470714D02*
X7801357Y-13485000D01*
X7815643Y-13499286D01*
X7829928Y-13485000D01*
X7815643Y-13470714D01*
X7815643Y-13499286D01*
X8001357Y-13770714D02*
X7972786Y-13756429D01*
X7958500Y-13727857D01*
X7958500Y-13470714D01*
X8158500Y-13770714D02*
X8129928Y-13756429D01*
X8115643Y-13727857D01*
X8115643Y-13470714D01*
X8501357Y-13770714D02*
X8501357Y-13470714D01*
X8601357Y-13685000D01*
X8701357Y-13470714D01*
X8701357Y-13770714D01*
X8972786Y-13770714D02*
X8972786Y-13613571D01*
X8958500Y-13585000D01*
X8929928Y-13570714D01*
X8872786Y-13570714D01*
X8844214Y-13585000D01*
X8972786Y-13756429D02*
X8944214Y-13770714D01*
X8872786Y-13770714D01*
X8844214Y-13756429D01*
X8829928Y-13727857D01*
X8829928Y-13699286D01*
X8844214Y-13670714D01*
X8872786Y-13656429D01*
X8944214Y-13656429D01*
X8972786Y-13642143D01*
X9115643Y-13570714D02*
X9115643Y-13870714D01*
X9115643Y-13585000D02*
X9144214Y-13570714D01*
X9201357Y-13570714D01*
X9229928Y-13585000D01*
X9244214Y-13599286D01*
X9258500Y-13627857D01*
X9258500Y-13713571D01*
X9244214Y-13742143D01*
X9229928Y-13756429D01*
X9201357Y-13770714D01*
X9144214Y-13770714D01*
X9115643Y-13756429D01*
X9387071Y-13742143D02*
X9401357Y-13756429D01*
X9387071Y-13770714D01*
X9372786Y-13756429D01*
X9387071Y-13742143D01*
X9387071Y-13770714D01*
X9387071Y-13585000D02*
X9401357Y-13599286D01*
X9387071Y-13613571D01*
X9372786Y-13599286D01*
X9387071Y-13585000D01*
X9387071Y-13613571D01*
X7003500Y-14245000D02*
X7043500Y-14285000D01*
X7043500Y-14245000D02*
X7003500Y-14285000D01*
X7387071Y-14100714D02*
X7415643Y-14100714D01*
X7444214Y-14115000D01*
X7458500Y-14129286D01*
X7472786Y-14157857D01*
X7487071Y-14215000D01*
X7487071Y-14286429D01*
X7472786Y-14343571D01*
X7458500Y-14372143D01*
X7444214Y-14386429D01*
X7415643Y-14400714D01*
X7387071Y-14400714D01*
X7358500Y-14386429D01*
X7344214Y-14372143D01*
X7329928Y-14343571D01*
X7315643Y-14286429D01*
X7315643Y-14215000D01*
X7329928Y-14157857D01*
X7344214Y-14129286D01*
X7358500Y-14115000D01*
X7387071Y-14100714D01*
X7615643Y-14372143D02*
X7629928Y-14386429D01*
X7615643Y-14400714D01*
X7601357Y-14386429D01*
X7615643Y-14372143D01*
X7615643Y-14400714D01*
X7887071Y-14200714D02*
X7887071Y-14400714D01*
X7815643Y-14086429D02*
X7744214Y-14300714D01*
X7929928Y-14300714D01*
X8101357Y-14100714D02*
X8129928Y-14100714D01*
X8158500Y-14115000D01*
X8172786Y-14129286D01*
X8187071Y-14157857D01*
X8201357Y-14215000D01*
X8201357Y-14286429D01*
X8187071Y-14343571D01*
X8172786Y-14372143D01*
X8158500Y-14386429D01*
X8129928Y-14400714D01*
X8101357Y-14400714D01*
X8072786Y-14386429D01*
X8058500Y-14372143D01*
X8044214Y-14343571D01*
X8029928Y-14286429D01*
X8029928Y-14215000D01*
X8044214Y-14157857D01*
X8058500Y-14129286D01*
X8072786Y-14115000D01*
X8101357Y-14100714D01*
X8329928Y-14400714D02*
X8329928Y-14200714D01*
X8329928Y-14229286D02*
X8344214Y-14215000D01*
X8372786Y-14200714D01*
X8415643Y-14200714D01*
X8444214Y-14215000D01*
X8458500Y-14243571D01*
X8458500Y-14400714D01*
X8458500Y-14243571D02*
X8472786Y-14215000D01*
X8501357Y-14200714D01*
X8544214Y-14200714D01*
X8572786Y-14215000D01*
X8587071Y-14243571D01*
X8587071Y-14400714D01*
X8729928Y-14400714D02*
X8729928Y-14200714D01*
X8729928Y-14229286D02*
X8744214Y-14215000D01*
X8772786Y-14200714D01*
X8815643Y-14200714D01*
X8844214Y-14215000D01*
X8858500Y-14243571D01*
X8858500Y-14400714D01*
X8858500Y-14243571D02*
X8872786Y-14215000D01*
X8901357Y-14200714D01*
X8944214Y-14200714D01*
X8972786Y-14215000D01*
X8987071Y-14243571D01*
X8987071Y-14400714D01*
X9572786Y-14086429D02*
X9315643Y-14472143D01*
X9958500Y-14100714D02*
X9987071Y-14100714D01*
X10015643Y-14115000D01*
X10029928Y-14129286D01*
X10044214Y-14157857D01*
X10058500Y-14215000D01*
X10058500Y-14286429D01*
X10044214Y-14343571D01*
X10029928Y-14372143D01*
X10015643Y-14386429D01*
X9987071Y-14400714D01*
X9958500Y-14400714D01*
X9929928Y-14386429D01*
X9915643Y-14372143D01*
X9901357Y-14343571D01*
X9887071Y-14286429D01*
X9887071Y-14215000D01*
X9901357Y-14157857D01*
X9915643Y-14129286D01*
X9929928Y-14115000D01*
X9958500Y-14100714D01*
X10187071Y-14372143D02*
X10201357Y-14386429D01*
X10187071Y-14400714D01*
X10172786Y-14386429D01*
X10187071Y-14372143D01*
X10187071Y-14400714D01*
X10387071Y-14100714D02*
X10415643Y-14100714D01*
X10444214Y-14115000D01*
X10458500Y-14129286D01*
X10472786Y-14157857D01*
X10487071Y-14215000D01*
X10487071Y-14286429D01*
X10472786Y-14343571D01*
X10458500Y-14372143D01*
X10444214Y-14386429D01*
X10415643Y-14400714D01*
X10387071Y-14400714D01*
X10358500Y-14386429D01*
X10344214Y-14372143D01*
X10329928Y-14343571D01*
X10315643Y-14286429D01*
X10315643Y-14215000D01*
X10329928Y-14157857D01*
X10344214Y-14129286D01*
X10358500Y-14115000D01*
X10387071Y-14100714D01*
X10772786Y-14400714D02*
X10601357Y-14400714D01*
X10687071Y-14400714D02*
X10687071Y-14100714D01*
X10658500Y-14143571D01*
X10629928Y-14172143D01*
X10601357Y-14186429D01*
X11029928Y-14100714D02*
X10972786Y-14100714D01*
X10944214Y-14115000D01*
X10929928Y-14129286D01*
X10901357Y-14172143D01*
X10887071Y-14229286D01*
X10887071Y-14343571D01*
X10901357Y-14372143D01*
X10915643Y-14386429D01*
X10944214Y-14400714D01*
X11001357Y-14400714D01*
X11029928Y-14386429D01*
X11044214Y-14372143D01*
X11058500Y-14343571D01*
X11058500Y-14272143D01*
X11044214Y-14243571D01*
X11029928Y-14229286D01*
X11001357Y-14215000D01*
X10944214Y-14215000D01*
X10915643Y-14229286D01*
X10901357Y-14243571D01*
X10887071Y-14272143D01*
X11172786Y-14100714D02*
X11172786Y-14157857D01*
X11287071Y-14100714D02*
X11287071Y-14157857D01*
X11729928Y-14515000D02*
X11715643Y-14500714D01*
X11687071Y-14457857D01*
X11672786Y-14429286D01*
X11658500Y-14386429D01*
X11644214Y-14315000D01*
X11644214Y-14257857D01*
X11658500Y-14186429D01*
X11672786Y-14143571D01*
X11687071Y-14115000D01*
X11715643Y-14072143D01*
X11729928Y-14057857D01*
X12001357Y-14400714D02*
X11829928Y-14400714D01*
X11915643Y-14400714D02*
X11915643Y-14100714D01*
X11887071Y-14143571D01*
X11858500Y-14172143D01*
X11829928Y-14186429D01*
X12144214Y-14400714D02*
X12201357Y-14400714D01*
X12229928Y-14386429D01*
X12244214Y-14372143D01*
X12272786Y-14329286D01*
X12287071Y-14272143D01*
X12287071Y-14157857D01*
X12272786Y-14129286D01*
X12258500Y-14115000D01*
X12229928Y-14100714D01*
X12172786Y-14100714D01*
X12144214Y-14115000D01*
X12129928Y-14129286D01*
X12115643Y-14157857D01*
X12115643Y-14229286D01*
X12129928Y-14257857D01*
X12144214Y-14272143D01*
X12172786Y-14286429D01*
X12229928Y-14286429D01*
X12258500Y-14272143D01*
X12272786Y-14257857D01*
X12287071Y-14229286D01*
X12544214Y-14200714D02*
X12544214Y-14400714D01*
X12472786Y-14086429D02*
X12401357Y-14300714D01*
X12587071Y-14300714D01*
X12929928Y-14400714D02*
X12929928Y-14100714D01*
X13058500Y-14400714D02*
X13058500Y-14243571D01*
X13044214Y-14215000D01*
X13015643Y-14200714D01*
X12972786Y-14200714D01*
X12944214Y-14215000D01*
X12929928Y-14229286D01*
X13244214Y-14400714D02*
X13215643Y-14386429D01*
X13201357Y-14372143D01*
X13187071Y-14343571D01*
X13187071Y-14257857D01*
X13201357Y-14229286D01*
X13215643Y-14215000D01*
X13244214Y-14200714D01*
X13287071Y-14200714D01*
X13315643Y-14215000D01*
X13329928Y-14229286D01*
X13344214Y-14257857D01*
X13344214Y-14343571D01*
X13329928Y-14372143D01*
X13315643Y-14386429D01*
X13287071Y-14400714D01*
X13244214Y-14400714D01*
X13515643Y-14400714D02*
X13487071Y-14386429D01*
X13472786Y-14357857D01*
X13472786Y-14100714D01*
X13744214Y-14386429D02*
X13715643Y-14400714D01*
X13658500Y-14400714D01*
X13629928Y-14386429D01*
X13615643Y-14357857D01*
X13615643Y-14243571D01*
X13629928Y-14215000D01*
X13658500Y-14200714D01*
X13715643Y-14200714D01*
X13744214Y-14215000D01*
X13758500Y-14243571D01*
X13758500Y-14272143D01*
X13615643Y-14300714D01*
X13872786Y-14386429D02*
X13901357Y-14400714D01*
X13958500Y-14400714D01*
X13987071Y-14386429D01*
X14001357Y-14357857D01*
X14001357Y-14343571D01*
X13987071Y-14315000D01*
X13958500Y-14300714D01*
X13915643Y-14300714D01*
X13887071Y-14286429D01*
X13872786Y-14257857D01*
X13872786Y-14243571D01*
X13887071Y-14215000D01*
X13915643Y-14200714D01*
X13958500Y-14200714D01*
X13987071Y-14215000D01*
X14101357Y-14515000D02*
X14115643Y-14500714D01*
X14144214Y-14457857D01*
X14158500Y-14429286D01*
X14172786Y-14386429D01*
X14187071Y-14315000D01*
X14187071Y-14257857D01*
X14172786Y-14186429D01*
X14158500Y-14143571D01*
X14144214Y-14115000D01*
X14115643Y-14072143D01*
X14101357Y-14057857D01*
X7043500Y-14661000D02*
G75*
G03X7043500Y-14661000I-40000J0D01*
G01*
X7387071Y-14496714D02*
X7415643Y-14496714D01*
X7444214Y-14511000D01*
X7458500Y-14525286D01*
X7472786Y-14553857D01*
X7487071Y-14611000D01*
X7487071Y-14682429D01*
X7472786Y-14739571D01*
X7458500Y-14768143D01*
X7444214Y-14782429D01*
X7415643Y-14796714D01*
X7387071Y-14796714D01*
X7358500Y-14782429D01*
X7344214Y-14768143D01*
X7329928Y-14739571D01*
X7315643Y-14682429D01*
X7315643Y-14611000D01*
X7329928Y-14553857D01*
X7344214Y-14525286D01*
X7358500Y-14511000D01*
X7387071Y-14496714D01*
X7615643Y-14768143D02*
X7629928Y-14782429D01*
X7615643Y-14796714D01*
X7601357Y-14782429D01*
X7615643Y-14768143D01*
X7615643Y-14796714D01*
X7801357Y-14625286D02*
X7772786Y-14611000D01*
X7758500Y-14596714D01*
X7744214Y-14568143D01*
X7744214Y-14553857D01*
X7758500Y-14525286D01*
X7772786Y-14511000D01*
X7801357Y-14496714D01*
X7858500Y-14496714D01*
X7887071Y-14511000D01*
X7901357Y-14525286D01*
X7915643Y-14553857D01*
X7915643Y-14568143D01*
X7901357Y-14596714D01*
X7887071Y-14611000D01*
X7858500Y-14625286D01*
X7801357Y-14625286D01*
X7772786Y-14639571D01*
X7758500Y-14653857D01*
X7744214Y-14682429D01*
X7744214Y-14739571D01*
X7758500Y-14768143D01*
X7772786Y-14782429D01*
X7801357Y-14796714D01*
X7858500Y-14796714D01*
X7887071Y-14782429D01*
X7901357Y-14768143D01*
X7915643Y-14739571D01*
X7915643Y-14682429D01*
X7901357Y-14653857D01*
X7887071Y-14639571D01*
X7858500Y-14625286D01*
X8101357Y-14496714D02*
X8129928Y-14496714D01*
X8158500Y-14511000D01*
X8172786Y-14525286D01*
X8187071Y-14553857D01*
X8201357Y-14611000D01*
X8201357Y-14682429D01*
X8187071Y-14739571D01*
X8172786Y-14768143D01*
X8158500Y-14782429D01*
X8129928Y-14796714D01*
X8101357Y-14796714D01*
X8072786Y-14782429D01*
X8058500Y-14768143D01*
X8044214Y-14739571D01*
X8029928Y-14682429D01*
X8029928Y-14611000D01*
X8044214Y-14553857D01*
X8058500Y-14525286D01*
X8072786Y-14511000D01*
X8101357Y-14496714D01*
X8329928Y-14796714D02*
X8329928Y-14596714D01*
X8329928Y-14625286D02*
X8344214Y-14611000D01*
X8372786Y-14596714D01*
X8415643Y-14596714D01*
X8444214Y-14611000D01*
X8458500Y-14639571D01*
X8458500Y-14796714D01*
X8458500Y-14639571D02*
X8472786Y-14611000D01*
X8501357Y-14596714D01*
X8544214Y-14596714D01*
X8572786Y-14611000D01*
X8587071Y-14639571D01*
X8587071Y-14796714D01*
X8729928Y-14796714D02*
X8729928Y-14596714D01*
X8729928Y-14625286D02*
X8744214Y-14611000D01*
X8772786Y-14596714D01*
X8815643Y-14596714D01*
X8844214Y-14611000D01*
X8858500Y-14639571D01*
X8858500Y-14796714D01*
X8858500Y-14639571D02*
X8872786Y-14611000D01*
X8901357Y-14596714D01*
X8944214Y-14596714D01*
X8972786Y-14611000D01*
X8987071Y-14639571D01*
X8987071Y-14796714D01*
X9572786Y-14482429D02*
X9315643Y-14868143D01*
X9958500Y-14496714D02*
X9987071Y-14496714D01*
X10015643Y-14511000D01*
X10029928Y-14525286D01*
X10044214Y-14553857D01*
X10058500Y-14611000D01*
X10058500Y-14682429D01*
X10044214Y-14739571D01*
X10029928Y-14768143D01*
X10015643Y-14782429D01*
X9987071Y-14796714D01*
X9958500Y-14796714D01*
X9929928Y-14782429D01*
X9915643Y-14768143D01*
X9901357Y-14739571D01*
X9887071Y-14682429D01*
X9887071Y-14611000D01*
X9901357Y-14553857D01*
X9915643Y-14525286D01*
X9929928Y-14511000D01*
X9958500Y-14496714D01*
X10187071Y-14768143D02*
X10201357Y-14782429D01*
X10187071Y-14796714D01*
X10172786Y-14782429D01*
X10187071Y-14768143D01*
X10187071Y-14796714D01*
X10387071Y-14496714D02*
X10415643Y-14496714D01*
X10444214Y-14511000D01*
X10458500Y-14525286D01*
X10472786Y-14553857D01*
X10487071Y-14611000D01*
X10487071Y-14682429D01*
X10472786Y-14739571D01*
X10458500Y-14768143D01*
X10444214Y-14782429D01*
X10415643Y-14796714D01*
X10387071Y-14796714D01*
X10358500Y-14782429D01*
X10344214Y-14768143D01*
X10329928Y-14739571D01*
X10315643Y-14682429D01*
X10315643Y-14611000D01*
X10329928Y-14553857D01*
X10344214Y-14525286D01*
X10358500Y-14511000D01*
X10387071Y-14496714D01*
X10587071Y-14496714D02*
X10772786Y-14496714D01*
X10672786Y-14611000D01*
X10715643Y-14611000D01*
X10744214Y-14625286D01*
X10758500Y-14639571D01*
X10772786Y-14668143D01*
X10772786Y-14739571D01*
X10758500Y-14768143D01*
X10744214Y-14782429D01*
X10715643Y-14796714D01*
X10629928Y-14796714D01*
X10601357Y-14782429D01*
X10587071Y-14768143D01*
X11058500Y-14796714D02*
X10887071Y-14796714D01*
X10972786Y-14796714D02*
X10972786Y-14496714D01*
X10944214Y-14539571D01*
X10915643Y-14568143D01*
X10887071Y-14582429D01*
X11172786Y-14496714D02*
X11172786Y-14553857D01*
X11287071Y-14496714D02*
X11287071Y-14553857D01*
X11729928Y-14911000D02*
X11715643Y-14896714D01*
X11687071Y-14853857D01*
X11672786Y-14825286D01*
X11658500Y-14782429D01*
X11644214Y-14711000D01*
X11644214Y-14653857D01*
X11658500Y-14582429D01*
X11672786Y-14539571D01*
X11687071Y-14511000D01*
X11715643Y-14468143D01*
X11729928Y-14453857D01*
X11987071Y-14496714D02*
X11844214Y-14496714D01*
X11829928Y-14639571D01*
X11844214Y-14625286D01*
X11872786Y-14611000D01*
X11944214Y-14611000D01*
X11972786Y-14625286D01*
X11987071Y-14639571D01*
X12001357Y-14668143D01*
X12001357Y-14739571D01*
X11987071Y-14768143D01*
X11972786Y-14782429D01*
X11944214Y-14796714D01*
X11872786Y-14796714D01*
X11844214Y-14782429D01*
X11829928Y-14768143D01*
X12144214Y-14796714D02*
X12201357Y-14796714D01*
X12229928Y-14782429D01*
X12244214Y-14768143D01*
X12272786Y-14725286D01*
X12287071Y-14668143D01*
X12287071Y-14553857D01*
X12272786Y-14525286D01*
X12258500Y-14511000D01*
X12229928Y-14496714D01*
X12172786Y-14496714D01*
X12144214Y-14511000D01*
X12129928Y-14525286D01*
X12115643Y-14553857D01*
X12115643Y-14625286D01*
X12129928Y-14653857D01*
X12144214Y-14668143D01*
X12172786Y-14682429D01*
X12229928Y-14682429D01*
X12258500Y-14668143D01*
X12272786Y-14653857D01*
X12287071Y-14625286D01*
X12644214Y-14796714D02*
X12644214Y-14496714D01*
X12772786Y-14796714D02*
X12772786Y-14639571D01*
X12758500Y-14611000D01*
X12729928Y-14596714D01*
X12687071Y-14596714D01*
X12658500Y-14611000D01*
X12644214Y-14625286D01*
X12958500Y-14796714D02*
X12929928Y-14782429D01*
X12915643Y-14768143D01*
X12901357Y-14739571D01*
X12901357Y-14653857D01*
X12915643Y-14625286D01*
X12929928Y-14611000D01*
X12958500Y-14596714D01*
X13001357Y-14596714D01*
X13029928Y-14611000D01*
X13044214Y-14625286D01*
X13058500Y-14653857D01*
X13058500Y-14739571D01*
X13044214Y-14768143D01*
X13029928Y-14782429D01*
X13001357Y-14796714D01*
X12958500Y-14796714D01*
X13229928Y-14796714D02*
X13201357Y-14782429D01*
X13187071Y-14753857D01*
X13187071Y-14496714D01*
X13458500Y-14782429D02*
X13429928Y-14796714D01*
X13372786Y-14796714D01*
X13344214Y-14782429D01*
X13329928Y-14753857D01*
X13329928Y-14639571D01*
X13344214Y-14611000D01*
X13372786Y-14596714D01*
X13429928Y-14596714D01*
X13458500Y-14611000D01*
X13472786Y-14639571D01*
X13472786Y-14668143D01*
X13329928Y-14696714D01*
X13587071Y-14782429D02*
X13615643Y-14796714D01*
X13672786Y-14796714D01*
X13701357Y-14782429D01*
X13715643Y-14753857D01*
X13715643Y-14739571D01*
X13701357Y-14711000D01*
X13672786Y-14696714D01*
X13629928Y-14696714D01*
X13601357Y-14682429D01*
X13587071Y-14653857D01*
X13587071Y-14639571D01*
X13601357Y-14611000D01*
X13629928Y-14596714D01*
X13672786Y-14596714D01*
X13701357Y-14611000D01*
X13815643Y-14911000D02*
X13829928Y-14896714D01*
X13858500Y-14853857D01*
X13872786Y-14825286D01*
X13887071Y-14782429D01*
X13901357Y-14711000D01*
X13901357Y-14653857D01*
X13887071Y-14582429D01*
X13872786Y-14539571D01*
X13858500Y-14511000D01*
X13829928Y-14468143D01*
X13815643Y-14453857D01*
X6993500Y-15007000D02*
X6993500Y-15107000D01*
X6943500Y-15057000D02*
X7043500Y-15057000D01*
X7487071Y-15192714D02*
X7315643Y-15192714D01*
X7401357Y-15192714D02*
X7401357Y-14892714D01*
X7372786Y-14935571D01*
X7344214Y-14964143D01*
X7315643Y-14978429D01*
X7615643Y-15164143D02*
X7629928Y-15178429D01*
X7615643Y-15192714D01*
X7601357Y-15178429D01*
X7615643Y-15164143D01*
X7615643Y-15192714D01*
X7815643Y-14892714D02*
X7844214Y-14892714D01*
X7872786Y-14907000D01*
X7887071Y-14921286D01*
X7901357Y-14949857D01*
X7915643Y-15007000D01*
X7915643Y-15078429D01*
X7901357Y-15135571D01*
X7887071Y-15164143D01*
X7872786Y-15178429D01*
X7844214Y-15192714D01*
X7815643Y-15192714D01*
X7787071Y-15178429D01*
X7772786Y-15164143D01*
X7758500Y-15135571D01*
X7744214Y-15078429D01*
X7744214Y-15007000D01*
X7758500Y-14949857D01*
X7772786Y-14921286D01*
X7787071Y-14907000D01*
X7815643Y-14892714D01*
X8101357Y-14892714D02*
X8129928Y-14892714D01*
X8158500Y-14907000D01*
X8172786Y-14921286D01*
X8187071Y-14949857D01*
X8201357Y-15007000D01*
X8201357Y-15078429D01*
X8187071Y-15135571D01*
X8172786Y-15164143D01*
X8158500Y-15178429D01*
X8129928Y-15192714D01*
X8101357Y-15192714D01*
X8072786Y-15178429D01*
X8058500Y-15164143D01*
X8044214Y-15135571D01*
X8029928Y-15078429D01*
X8029928Y-15007000D01*
X8044214Y-14949857D01*
X8058500Y-14921286D01*
X8072786Y-14907000D01*
X8101357Y-14892714D01*
X8329928Y-15192714D02*
X8329928Y-14992714D01*
X8329928Y-15021286D02*
X8344214Y-15007000D01*
X8372786Y-14992714D01*
X8415643Y-14992714D01*
X8444214Y-15007000D01*
X8458500Y-15035571D01*
X8458500Y-15192714D01*
X8458500Y-15035571D02*
X8472786Y-15007000D01*
X8501357Y-14992714D01*
X8544214Y-14992714D01*
X8572786Y-15007000D01*
X8587071Y-15035571D01*
X8587071Y-15192714D01*
X8729928Y-15192714D02*
X8729928Y-14992714D01*
X8729928Y-15021286D02*
X8744214Y-15007000D01*
X8772786Y-14992714D01*
X8815643Y-14992714D01*
X8844214Y-15007000D01*
X8858500Y-15035571D01*
X8858500Y-15192714D01*
X8858500Y-15035571D02*
X8872786Y-15007000D01*
X8901357Y-14992714D01*
X8944214Y-14992714D01*
X8972786Y-15007000D01*
X8987071Y-15035571D01*
X8987071Y-15192714D01*
X9572786Y-14878429D02*
X9315643Y-15264143D01*
X9958500Y-14892714D02*
X9987071Y-14892714D01*
X10015643Y-14907000D01*
X10029928Y-14921286D01*
X10044214Y-14949857D01*
X10058500Y-15007000D01*
X10058500Y-15078429D01*
X10044214Y-15135571D01*
X10029928Y-15164143D01*
X10015643Y-15178429D01*
X9987071Y-15192714D01*
X9958500Y-15192714D01*
X9929928Y-15178429D01*
X9915643Y-15164143D01*
X9901357Y-15135571D01*
X9887071Y-15078429D01*
X9887071Y-15007000D01*
X9901357Y-14949857D01*
X9915643Y-14921286D01*
X9929928Y-14907000D01*
X9958500Y-14892714D01*
X10187071Y-15164143D02*
X10201357Y-15178429D01*
X10187071Y-15192714D01*
X10172786Y-15178429D01*
X10187071Y-15164143D01*
X10187071Y-15192714D01*
X10387071Y-14892714D02*
X10415643Y-14892714D01*
X10444214Y-14907000D01*
X10458500Y-14921286D01*
X10472786Y-14949857D01*
X10487071Y-15007000D01*
X10487071Y-15078429D01*
X10472786Y-15135571D01*
X10458500Y-15164143D01*
X10444214Y-15178429D01*
X10415643Y-15192714D01*
X10387071Y-15192714D01*
X10358500Y-15178429D01*
X10344214Y-15164143D01*
X10329928Y-15135571D01*
X10315643Y-15078429D01*
X10315643Y-15007000D01*
X10329928Y-14949857D01*
X10344214Y-14921286D01*
X10358500Y-14907000D01*
X10387071Y-14892714D01*
X10587071Y-14892714D02*
X10772786Y-14892714D01*
X10672786Y-15007000D01*
X10715643Y-15007000D01*
X10744214Y-15021286D01*
X10758500Y-15035571D01*
X10772786Y-15064143D01*
X10772786Y-15135571D01*
X10758500Y-15164143D01*
X10744214Y-15178429D01*
X10715643Y-15192714D01*
X10629928Y-15192714D01*
X10601357Y-15178429D01*
X10587071Y-15164143D01*
X10915643Y-15192714D02*
X10972786Y-15192714D01*
X11001357Y-15178429D01*
X11015643Y-15164143D01*
X11044214Y-15121286D01*
X11058500Y-15064143D01*
X11058500Y-14949857D01*
X11044214Y-14921286D01*
X11029928Y-14907000D01*
X11001357Y-14892714D01*
X10944214Y-14892714D01*
X10915643Y-14907000D01*
X10901357Y-14921286D01*
X10887071Y-14949857D01*
X10887071Y-15021286D01*
X10901357Y-15049857D01*
X10915643Y-15064143D01*
X10944214Y-15078429D01*
X11001357Y-15078429D01*
X11029928Y-15064143D01*
X11044214Y-15049857D01*
X11058500Y-15021286D01*
X11172786Y-14892714D02*
X11172786Y-14949857D01*
X11287071Y-14892714D02*
X11287071Y-14949857D01*
X11729928Y-15307000D02*
X11715643Y-15292714D01*
X11687071Y-15249857D01*
X11672786Y-15221286D01*
X11658500Y-15178429D01*
X11644214Y-15107000D01*
X11644214Y-15049857D01*
X11658500Y-14978429D01*
X11672786Y-14935571D01*
X11687071Y-14907000D01*
X11715643Y-14864143D01*
X11729928Y-14849857D01*
X11972786Y-14892714D02*
X11915643Y-14892714D01*
X11887071Y-14907000D01*
X11872786Y-14921286D01*
X11844214Y-14964143D01*
X11829928Y-15021286D01*
X11829928Y-15135571D01*
X11844214Y-15164143D01*
X11858500Y-15178429D01*
X11887071Y-15192714D01*
X11944214Y-15192714D01*
X11972786Y-15178429D01*
X11987071Y-15164143D01*
X12001357Y-15135571D01*
X12001357Y-15064143D01*
X11987071Y-15035571D01*
X11972786Y-15021286D01*
X11944214Y-15007000D01*
X11887071Y-15007000D01*
X11858500Y-15021286D01*
X11844214Y-15035571D01*
X11829928Y-15064143D01*
X12187071Y-14892714D02*
X12215643Y-14892714D01*
X12244214Y-14907000D01*
X12258500Y-14921286D01*
X12272786Y-14949857D01*
X12287071Y-15007000D01*
X12287071Y-15078429D01*
X12272786Y-15135571D01*
X12258500Y-15164143D01*
X12244214Y-15178429D01*
X12215643Y-15192714D01*
X12187071Y-15192714D01*
X12158500Y-15178429D01*
X12144214Y-15164143D01*
X12129928Y-15135571D01*
X12115643Y-15078429D01*
X12115643Y-15007000D01*
X12129928Y-14949857D01*
X12144214Y-14921286D01*
X12158500Y-14907000D01*
X12187071Y-14892714D01*
X12644214Y-15192714D02*
X12644214Y-14892714D01*
X12772786Y-15192714D02*
X12772786Y-15035571D01*
X12758500Y-15007000D01*
X12729928Y-14992714D01*
X12687071Y-14992714D01*
X12658500Y-15007000D01*
X12644214Y-15021286D01*
X12958500Y-15192714D02*
X12929928Y-15178429D01*
X12915643Y-15164143D01*
X12901357Y-15135571D01*
X12901357Y-15049857D01*
X12915643Y-15021286D01*
X12929928Y-15007000D01*
X12958500Y-14992714D01*
X13001357Y-14992714D01*
X13029928Y-15007000D01*
X13044214Y-15021286D01*
X13058500Y-15049857D01*
X13058500Y-15135571D01*
X13044214Y-15164143D01*
X13029928Y-15178429D01*
X13001357Y-15192714D01*
X12958500Y-15192714D01*
X13229928Y-15192714D02*
X13201357Y-15178429D01*
X13187071Y-15149857D01*
X13187071Y-14892714D01*
X13458500Y-15178429D02*
X13429928Y-15192714D01*
X13372786Y-15192714D01*
X13344214Y-15178429D01*
X13329928Y-15149857D01*
X13329928Y-15035571D01*
X13344214Y-15007000D01*
X13372786Y-14992714D01*
X13429928Y-14992714D01*
X13458500Y-15007000D01*
X13472786Y-15035571D01*
X13472786Y-15064143D01*
X13329928Y-15092714D01*
X13587071Y-15178429D02*
X13615643Y-15192714D01*
X13672786Y-15192714D01*
X13701357Y-15178429D01*
X13715643Y-15149857D01*
X13715643Y-15135571D01*
X13701357Y-15107000D01*
X13672786Y-15092714D01*
X13629928Y-15092714D01*
X13601357Y-15078429D01*
X13587071Y-15049857D01*
X13587071Y-15035571D01*
X13601357Y-15007000D01*
X13629928Y-14992714D01*
X13672786Y-14992714D01*
X13701357Y-15007000D01*
X13815643Y-15307000D02*
X13829928Y-15292714D01*
X13858500Y-15249857D01*
X13872786Y-15221286D01*
X13887071Y-15178429D01*
X13901357Y-15107000D01*
X13901357Y-15049857D01*
X13887071Y-14978429D01*
X13872786Y-14935571D01*
X13858500Y-14907000D01*
X13829928Y-14864143D01*
X13815643Y-14849857D01*
M02*
