M48
; DRILL file {KiCad (5.1.2-1)-1} date Sunday, 05 July 2020 at 10:41:56
; FORMAT={-:-/ absolute / metric / decimal}
; #@! TF.CreationDate,2020-07-05T10:41:56+01:00
; #@! TF.GenerationSoftware,Kicad,Pcbnew,(5.1.2-1)-1
; #@! TF.FileFunction,Plated,1,2,PTH
FMAT,2
METRIC
T1C0.400
T2C0.800
T3C1.000
%
G90
G05
T1
X72.473Y-89.525
X73.184Y-82.593
X73.406Y-70.739
X74.395Y-87.061
X74.907Y-47.195
X75.09Y-95.503
X75.442Y-78.494
X75.622Y-54.395
X75.626Y-56.03
X75.743Y-45.248
X75.936Y-88.804
X75.949Y-87.612
X75.95Y-81.597
X76.327Y-91.059
X76.968Y-47.491
X77.47Y-91.059
X77.851Y-97.536
X78.317Y-55.714
X78.319Y-56.826
X78.613Y-69.469
X78.613Y-91.059
X79.354Y-53.956
X79.629Y-91.059
X80.01Y-55.118
X80.01Y-58.293
X80.01Y-61.468
X80.088Y-53.26
X80.151Y-97.546
X80.852Y-105.503
X81.153Y-63.754
X82.514Y-69.661
X82.931Y-59.69
X82.942Y-97.601
X82.942Y-101.274
X84.074Y-55.245
X84.074Y-64.897
X84.127Y-56.353
X84.38Y-51.39
X85.217Y-91.059
X85.725Y-53.594
X86.233Y-91.059
X86.868Y-97.536
X87.081Y-73.834
X87.249Y-91.059
X87.503Y-64.77
X87.88Y-51.396
X88.392Y-91.059
X89.386Y-59.731
X89.63Y-52.075
X89.703Y-111.762
X90.297Y-56.515
X90.379Y-72.723
X90.424Y-67.564
X90.795Y-46.339
X91.186Y-57.912
X91.186Y-59.944
X91.186Y-61.595
X91.313Y-53.594
X91.567Y-64.897
X91.824Y-98.935
X91.824Y-101.346
X91.918Y-73.313
X92.146Y-83.545
X92.38Y-70.017
X92.49Y-48.702
X92.723Y-68.186
X92.964Y-53.594
X93.372Y-47.321
X93.535Y-69.608
X93.98Y-56.515
X93.98Y-62.611
X94.107Y-58.928
X95.005Y-54.028
X95.631Y-91.186
X95.631Y-97.536
X96.542Y-69.447
X96.567Y-47.992
X96.673Y-83.544
X98.501Y-46.914
X98.868Y-95.94
X99.167Y-100.752
X99.361Y-85.172
X99.659Y-47.247
X100.639Y-79.909
X100.639Y-84.054
X100.898Y-99.205
X101.372Y-58.956
X101.469Y-81.295
X101.469Y-85.855
X101.526Y-91.843
X101.526Y-96.941
X101.72Y-98.087
X102.151Y-49.745
X102.169Y-83.891
X103.338Y-50.842
X103.365Y-83.895
X103.935Y-61.98
X104.651Y-46.818
X104.72Y-51.265
X105.676Y-89.861
X106.546Y-91.857
X106.638Y-45.803
X106.787Y-93.495
X106.917Y-100.377
X107.085Y-56.229
X108.21Y-92.044
X108.23Y-91.024
X108.343Y-46.156
X108.585Y-67.564
X108.585Y-88.392
X108.712Y-69.342
X109.347Y-59.817
X109.494Y-100.031
X109.728Y-78.232
X109.728Y-79.375
X109.927Y-84.123
X110.109Y-73.66
X110.49Y-75.057
X110.617Y-66.675
X110.617Y-70.866
X110.709Y-65.079
X110.754Y-84.685
X111.125Y-76.419
X111.506Y-99.992
X111.633Y-69.596
X112.259Y-98.058
X112.299Y-64.612
X112.458Y-68.39
X112.666Y-99.671
X113.03Y-89.662
X113.411Y-65.659
X114.006Y-84.127
X114.413Y-54.313
X114.702Y-52.858
X114.808Y-59.817
X114.808Y-79.883
X114.934Y-81.199
X115.364Y-95.082
X115.413Y-84.599
X115.443Y-67.691
X115.522Y-99.958
X115.697Y-80.518
X115.803Y-97.085
X116.097Y-85.6
X116.332Y-63.5
X116.832Y-42.543
X116.986Y-52.74
X117.585Y-85.635
X118.603Y-85.099
X118.648Y-93.21
X118.811Y-53.607
X119.253Y-65.659
X119.761Y-88.519
X120.79Y-85.198
X121.031Y-65.659
X121.412Y-67.691
X121.468Y-86.002
X121.539Y-80.391
X121.617Y-84.077
X121.666Y-69.85
X121.666Y-74.93
X121.92Y-65.659
X122.381Y-64.596
X122.428Y-63.5
X122.555Y-77.851
X122.664Y-84.154
X123.063Y-80.01
X123.589Y-65.804
X123.922Y-86.494
X124.133Y-96.868
X124.218Y-57.708
X124.333Y-66.675
X124.333Y-68.707
X124.46Y-76.835
X125.299Y-78.536
X125.349Y-59.817
X126.111Y-84.201
X126.229Y-57.076
X126.492Y-81.153
X126.619Y-68.326
X126.619Y-71.374
X126.619Y-75.946
X126.619Y-78.994
X127.411Y-52.918
X128.264Y-86.58
X128.469Y-54.708
X128.595Y-92.897
X128.918Y-61.778
X129.404Y-57.376
X129.683Y-47.756
X130.414Y-57.341
X130.981Y-47.416
X131.57Y-52.908
X137.464Y-78.994
T2
X131.064Y-35.497
X131.064Y-37.497
X131.064Y-39.497
X76.48Y-115.03
X76.48Y-130.27
X79.02Y-115.03
X79.02Y-130.27
X81.56Y-115.03
X81.56Y-130.27
X84.1Y-115.03
X84.1Y-130.27
X86.64Y-115.03
X86.64Y-130.27
X89.18Y-115.03
X89.18Y-130.27
X91.72Y-115.03
X91.72Y-130.27
X94.26Y-115.03
X94.26Y-130.27
X96.8Y-115.03
X96.8Y-130.27
X99.34Y-115.03
X99.34Y-130.27
X101.88Y-115.03
X101.88Y-130.27
X104.42Y-115.03
X104.42Y-130.27
X106.96Y-115.03
X106.96Y-130.27
X109.5Y-115.03
X109.5Y-130.27
X110.1Y-91.61
X110.1Y-106.85
X112.64Y-91.61
X112.64Y-106.85
X115.18Y-91.61
X115.18Y-106.85
X117.72Y-91.61
X117.72Y-106.85
X120.26Y-91.61
X120.26Y-106.85
X122.8Y-91.61
X122.8Y-106.85
X125.34Y-91.61
X125.34Y-106.85
X127.88Y-91.61
X127.88Y-106.85
X130.42Y-91.61
X130.42Y-106.85
X132.96Y-91.61
X132.96Y-106.85
X135.5Y-91.61
X135.5Y-106.85
X138.04Y-91.61
X138.04Y-106.85
X75.184Y-77.089
X75.184Y-84.709
X92.964Y-77.089
X92.964Y-84.709
T3
X84.963Y-36.195
X84.963Y-38.735
X87.503Y-36.195
X87.503Y-38.735
X90.043Y-36.195
X90.043Y-38.735
X92.583Y-36.195
X92.583Y-38.735
X95.123Y-36.195
X95.123Y-38.735
X97.663Y-36.195
X97.663Y-38.735
X100.203Y-36.195
X100.203Y-38.735
X102.743Y-36.195
X102.743Y-38.735
X105.283Y-36.195
X105.283Y-38.735
X107.823Y-36.195
X107.823Y-38.735
X110.363Y-36.195
X110.363Y-38.735
X112.903Y-36.195
X112.903Y-38.735
X115.443Y-36.195
X115.443Y-38.735
X117.983Y-36.195
X117.983Y-38.735
X120.523Y-36.195
X120.523Y-38.735
X123.063Y-36.195
X123.063Y-38.735
X125.603Y-36.195
X125.603Y-38.735
X107.95Y-49.022
X107.95Y-51.562
X110.49Y-49.022
X110.49Y-51.562
X113.03Y-49.022
X113.03Y-51.562
X120.65Y-48.895
X120.65Y-51.435
X123.19Y-48.895
X123.19Y-51.435
X125.73Y-48.895
X125.73Y-51.435
X128.27Y-48.895
X128.27Y-51.435
X130.81Y-48.895
X130.81Y-51.435
X107.95Y-43.942
X110.49Y-43.942
X113.03Y-43.942
X115.57Y-43.942
X118.11Y-43.942
X120.65Y-43.942
X123.19Y-43.942
X125.73Y-43.942
X128.27Y-43.942
X130.81Y-43.942
T0
M30
