G04 #@! TF.GenerationSoftware,KiCad,Pcbnew,(5.1.2-1)-1*
G04 #@! TF.CreationDate,2020-07-05T10:41:52+01:00*
G04 #@! TF.ProjectId,MZ80-80CLR,4d5a3830-2d38-4304-934c-522e6b696361,rev?*
G04 #@! TF.SameCoordinates,Original*
G04 #@! TF.FileFunction,Paste,Bot*
G04 #@! TF.FilePolarity,Positive*
%FSLAX46Y46*%
G04 Gerber Fmt 4.6, Leading zero omitted, Abs format (unit mm)*
G04 Created by KiCad (PCBNEW (5.1.2-1)-1) date 2020-07-05 10:41:52*
%MOMM*%
%LPD*%
G04 APERTURE LIST*
%ADD10C,0.100000*%
%ADD11C,0.975000*%
%ADD12C,0.950000*%
G04 APERTURE END LIST*
D10*
G36*
X117320142Y-77570174D02*
G01*
X117343803Y-77573684D01*
X117367007Y-77579496D01*
X117389529Y-77587554D01*
X117411153Y-77597782D01*
X117431670Y-77610079D01*
X117450883Y-77624329D01*
X117468607Y-77640393D01*
X117484671Y-77658117D01*
X117498921Y-77677330D01*
X117511218Y-77697847D01*
X117521446Y-77719471D01*
X117529504Y-77741993D01*
X117535316Y-77765197D01*
X117538826Y-77788858D01*
X117540000Y-77812750D01*
X117540000Y-78300250D01*
X117538826Y-78324142D01*
X117535316Y-78347803D01*
X117529504Y-78371007D01*
X117521446Y-78393529D01*
X117511218Y-78415153D01*
X117498921Y-78435670D01*
X117484671Y-78454883D01*
X117468607Y-78472607D01*
X117450883Y-78488671D01*
X117431670Y-78502921D01*
X117411153Y-78515218D01*
X117389529Y-78525446D01*
X117367007Y-78533504D01*
X117343803Y-78539316D01*
X117320142Y-78542826D01*
X117296250Y-78544000D01*
X116383750Y-78544000D01*
X116359858Y-78542826D01*
X116336197Y-78539316D01*
X116312993Y-78533504D01*
X116290471Y-78525446D01*
X116268847Y-78515218D01*
X116248330Y-78502921D01*
X116229117Y-78488671D01*
X116211393Y-78472607D01*
X116195329Y-78454883D01*
X116181079Y-78435670D01*
X116168782Y-78415153D01*
X116158554Y-78393529D01*
X116150496Y-78371007D01*
X116144684Y-78347803D01*
X116141174Y-78324142D01*
X116140000Y-78300250D01*
X116140000Y-77812750D01*
X116141174Y-77788858D01*
X116144684Y-77765197D01*
X116150496Y-77741993D01*
X116158554Y-77719471D01*
X116168782Y-77697847D01*
X116181079Y-77677330D01*
X116195329Y-77658117D01*
X116211393Y-77640393D01*
X116229117Y-77624329D01*
X116248330Y-77610079D01*
X116268847Y-77597782D01*
X116290471Y-77587554D01*
X116312993Y-77579496D01*
X116336197Y-77573684D01*
X116359858Y-77570174D01*
X116383750Y-77569000D01*
X117296250Y-77569000D01*
X117320142Y-77570174D01*
X117320142Y-77570174D01*
G37*
D11*
X116840000Y-78056500D03*
D10*
G36*
X117320142Y-79445174D02*
G01*
X117343803Y-79448684D01*
X117367007Y-79454496D01*
X117389529Y-79462554D01*
X117411153Y-79472782D01*
X117431670Y-79485079D01*
X117450883Y-79499329D01*
X117468607Y-79515393D01*
X117484671Y-79533117D01*
X117498921Y-79552330D01*
X117511218Y-79572847D01*
X117521446Y-79594471D01*
X117529504Y-79616993D01*
X117535316Y-79640197D01*
X117538826Y-79663858D01*
X117540000Y-79687750D01*
X117540000Y-80175250D01*
X117538826Y-80199142D01*
X117535316Y-80222803D01*
X117529504Y-80246007D01*
X117521446Y-80268529D01*
X117511218Y-80290153D01*
X117498921Y-80310670D01*
X117484671Y-80329883D01*
X117468607Y-80347607D01*
X117450883Y-80363671D01*
X117431670Y-80377921D01*
X117411153Y-80390218D01*
X117389529Y-80400446D01*
X117367007Y-80408504D01*
X117343803Y-80414316D01*
X117320142Y-80417826D01*
X117296250Y-80419000D01*
X116383750Y-80419000D01*
X116359858Y-80417826D01*
X116336197Y-80414316D01*
X116312993Y-80408504D01*
X116290471Y-80400446D01*
X116268847Y-80390218D01*
X116248330Y-80377921D01*
X116229117Y-80363671D01*
X116211393Y-80347607D01*
X116195329Y-80329883D01*
X116181079Y-80310670D01*
X116168782Y-80290153D01*
X116158554Y-80268529D01*
X116150496Y-80246007D01*
X116144684Y-80222803D01*
X116141174Y-80199142D01*
X116140000Y-80175250D01*
X116140000Y-79687750D01*
X116141174Y-79663858D01*
X116144684Y-79640197D01*
X116150496Y-79616993D01*
X116158554Y-79594471D01*
X116168782Y-79572847D01*
X116181079Y-79552330D01*
X116195329Y-79533117D01*
X116211393Y-79515393D01*
X116229117Y-79499329D01*
X116248330Y-79485079D01*
X116268847Y-79472782D01*
X116290471Y-79462554D01*
X116312993Y-79454496D01*
X116336197Y-79448684D01*
X116359858Y-79445174D01*
X116383750Y-79444000D01*
X117296250Y-79444000D01*
X117320142Y-79445174D01*
X117320142Y-79445174D01*
G37*
D11*
X116840000Y-79931500D03*
D10*
G36*
X120749142Y-77570174D02*
G01*
X120772803Y-77573684D01*
X120796007Y-77579496D01*
X120818529Y-77587554D01*
X120840153Y-77597782D01*
X120860670Y-77610079D01*
X120879883Y-77624329D01*
X120897607Y-77640393D01*
X120913671Y-77658117D01*
X120927921Y-77677330D01*
X120940218Y-77697847D01*
X120950446Y-77719471D01*
X120958504Y-77741993D01*
X120964316Y-77765197D01*
X120967826Y-77788858D01*
X120969000Y-77812750D01*
X120969000Y-78300250D01*
X120967826Y-78324142D01*
X120964316Y-78347803D01*
X120958504Y-78371007D01*
X120950446Y-78393529D01*
X120940218Y-78415153D01*
X120927921Y-78435670D01*
X120913671Y-78454883D01*
X120897607Y-78472607D01*
X120879883Y-78488671D01*
X120860670Y-78502921D01*
X120840153Y-78515218D01*
X120818529Y-78525446D01*
X120796007Y-78533504D01*
X120772803Y-78539316D01*
X120749142Y-78542826D01*
X120725250Y-78544000D01*
X119812750Y-78544000D01*
X119788858Y-78542826D01*
X119765197Y-78539316D01*
X119741993Y-78533504D01*
X119719471Y-78525446D01*
X119697847Y-78515218D01*
X119677330Y-78502921D01*
X119658117Y-78488671D01*
X119640393Y-78472607D01*
X119624329Y-78454883D01*
X119610079Y-78435670D01*
X119597782Y-78415153D01*
X119587554Y-78393529D01*
X119579496Y-78371007D01*
X119573684Y-78347803D01*
X119570174Y-78324142D01*
X119569000Y-78300250D01*
X119569000Y-77812750D01*
X119570174Y-77788858D01*
X119573684Y-77765197D01*
X119579496Y-77741993D01*
X119587554Y-77719471D01*
X119597782Y-77697847D01*
X119610079Y-77677330D01*
X119624329Y-77658117D01*
X119640393Y-77640393D01*
X119658117Y-77624329D01*
X119677330Y-77610079D01*
X119697847Y-77597782D01*
X119719471Y-77587554D01*
X119741993Y-77579496D01*
X119765197Y-77573684D01*
X119788858Y-77570174D01*
X119812750Y-77569000D01*
X120725250Y-77569000D01*
X120749142Y-77570174D01*
X120749142Y-77570174D01*
G37*
D11*
X120269000Y-78056500D03*
D10*
G36*
X120749142Y-79445174D02*
G01*
X120772803Y-79448684D01*
X120796007Y-79454496D01*
X120818529Y-79462554D01*
X120840153Y-79472782D01*
X120860670Y-79485079D01*
X120879883Y-79499329D01*
X120897607Y-79515393D01*
X120913671Y-79533117D01*
X120927921Y-79552330D01*
X120940218Y-79572847D01*
X120950446Y-79594471D01*
X120958504Y-79616993D01*
X120964316Y-79640197D01*
X120967826Y-79663858D01*
X120969000Y-79687750D01*
X120969000Y-80175250D01*
X120967826Y-80199142D01*
X120964316Y-80222803D01*
X120958504Y-80246007D01*
X120950446Y-80268529D01*
X120940218Y-80290153D01*
X120927921Y-80310670D01*
X120913671Y-80329883D01*
X120897607Y-80347607D01*
X120879883Y-80363671D01*
X120860670Y-80377921D01*
X120840153Y-80390218D01*
X120818529Y-80400446D01*
X120796007Y-80408504D01*
X120772803Y-80414316D01*
X120749142Y-80417826D01*
X120725250Y-80419000D01*
X119812750Y-80419000D01*
X119788858Y-80417826D01*
X119765197Y-80414316D01*
X119741993Y-80408504D01*
X119719471Y-80400446D01*
X119697847Y-80390218D01*
X119677330Y-80377921D01*
X119658117Y-80363671D01*
X119640393Y-80347607D01*
X119624329Y-80329883D01*
X119610079Y-80310670D01*
X119597782Y-80290153D01*
X119587554Y-80268529D01*
X119579496Y-80246007D01*
X119573684Y-80222803D01*
X119570174Y-80199142D01*
X119569000Y-80175250D01*
X119569000Y-79687750D01*
X119570174Y-79663858D01*
X119573684Y-79640197D01*
X119579496Y-79616993D01*
X119587554Y-79594471D01*
X119597782Y-79572847D01*
X119610079Y-79552330D01*
X119624329Y-79533117D01*
X119640393Y-79515393D01*
X119658117Y-79499329D01*
X119677330Y-79485079D01*
X119697847Y-79472782D01*
X119719471Y-79462554D01*
X119741993Y-79454496D01*
X119765197Y-79448684D01*
X119788858Y-79445174D01*
X119812750Y-79444000D01*
X120725250Y-79444000D01*
X120749142Y-79445174D01*
X120749142Y-79445174D01*
G37*
D11*
X120269000Y-79931500D03*
D10*
G36*
X123790142Y-70675174D02*
G01*
X123813803Y-70678684D01*
X123837007Y-70684496D01*
X123859529Y-70692554D01*
X123881153Y-70702782D01*
X123901670Y-70715079D01*
X123920883Y-70729329D01*
X123938607Y-70745393D01*
X123954671Y-70763117D01*
X123968921Y-70782330D01*
X123981218Y-70802847D01*
X123991446Y-70824471D01*
X123999504Y-70846993D01*
X124005316Y-70870197D01*
X124008826Y-70893858D01*
X124010000Y-70917750D01*
X124010000Y-71830250D01*
X124008826Y-71854142D01*
X124005316Y-71877803D01*
X123999504Y-71901007D01*
X123991446Y-71923529D01*
X123981218Y-71945153D01*
X123968921Y-71965670D01*
X123954671Y-71984883D01*
X123938607Y-72002607D01*
X123920883Y-72018671D01*
X123901670Y-72032921D01*
X123881153Y-72045218D01*
X123859529Y-72055446D01*
X123837007Y-72063504D01*
X123813803Y-72069316D01*
X123790142Y-72072826D01*
X123766250Y-72074000D01*
X123278750Y-72074000D01*
X123254858Y-72072826D01*
X123231197Y-72069316D01*
X123207993Y-72063504D01*
X123185471Y-72055446D01*
X123163847Y-72045218D01*
X123143330Y-72032921D01*
X123124117Y-72018671D01*
X123106393Y-72002607D01*
X123090329Y-71984883D01*
X123076079Y-71965670D01*
X123063782Y-71945153D01*
X123053554Y-71923529D01*
X123045496Y-71901007D01*
X123039684Y-71877803D01*
X123036174Y-71854142D01*
X123035000Y-71830250D01*
X123035000Y-70917750D01*
X123036174Y-70893858D01*
X123039684Y-70870197D01*
X123045496Y-70846993D01*
X123053554Y-70824471D01*
X123063782Y-70802847D01*
X123076079Y-70782330D01*
X123090329Y-70763117D01*
X123106393Y-70745393D01*
X123124117Y-70729329D01*
X123143330Y-70715079D01*
X123163847Y-70702782D01*
X123185471Y-70692554D01*
X123207993Y-70684496D01*
X123231197Y-70678684D01*
X123254858Y-70675174D01*
X123278750Y-70674000D01*
X123766250Y-70674000D01*
X123790142Y-70675174D01*
X123790142Y-70675174D01*
G37*
D11*
X123522500Y-71374000D03*
D10*
G36*
X125665142Y-70675174D02*
G01*
X125688803Y-70678684D01*
X125712007Y-70684496D01*
X125734529Y-70692554D01*
X125756153Y-70702782D01*
X125776670Y-70715079D01*
X125795883Y-70729329D01*
X125813607Y-70745393D01*
X125829671Y-70763117D01*
X125843921Y-70782330D01*
X125856218Y-70802847D01*
X125866446Y-70824471D01*
X125874504Y-70846993D01*
X125880316Y-70870197D01*
X125883826Y-70893858D01*
X125885000Y-70917750D01*
X125885000Y-71830250D01*
X125883826Y-71854142D01*
X125880316Y-71877803D01*
X125874504Y-71901007D01*
X125866446Y-71923529D01*
X125856218Y-71945153D01*
X125843921Y-71965670D01*
X125829671Y-71984883D01*
X125813607Y-72002607D01*
X125795883Y-72018671D01*
X125776670Y-72032921D01*
X125756153Y-72045218D01*
X125734529Y-72055446D01*
X125712007Y-72063504D01*
X125688803Y-72069316D01*
X125665142Y-72072826D01*
X125641250Y-72074000D01*
X125153750Y-72074000D01*
X125129858Y-72072826D01*
X125106197Y-72069316D01*
X125082993Y-72063504D01*
X125060471Y-72055446D01*
X125038847Y-72045218D01*
X125018330Y-72032921D01*
X124999117Y-72018671D01*
X124981393Y-72002607D01*
X124965329Y-71984883D01*
X124951079Y-71965670D01*
X124938782Y-71945153D01*
X124928554Y-71923529D01*
X124920496Y-71901007D01*
X124914684Y-71877803D01*
X124911174Y-71854142D01*
X124910000Y-71830250D01*
X124910000Y-70917750D01*
X124911174Y-70893858D01*
X124914684Y-70870197D01*
X124920496Y-70846993D01*
X124928554Y-70824471D01*
X124938782Y-70802847D01*
X124951079Y-70782330D01*
X124965329Y-70763117D01*
X124981393Y-70745393D01*
X124999117Y-70729329D01*
X125018330Y-70715079D01*
X125038847Y-70702782D01*
X125060471Y-70692554D01*
X125082993Y-70684496D01*
X125106197Y-70678684D01*
X125129858Y-70675174D01*
X125153750Y-70674000D01*
X125641250Y-70674000D01*
X125665142Y-70675174D01*
X125665142Y-70675174D01*
G37*
D11*
X125397500Y-71374000D03*
D10*
G36*
X113092142Y-77914174D02*
G01*
X113115803Y-77917684D01*
X113139007Y-77923496D01*
X113161529Y-77931554D01*
X113183153Y-77941782D01*
X113203670Y-77954079D01*
X113222883Y-77968329D01*
X113240607Y-77984393D01*
X113256671Y-78002117D01*
X113270921Y-78021330D01*
X113283218Y-78041847D01*
X113293446Y-78063471D01*
X113301504Y-78085993D01*
X113307316Y-78109197D01*
X113310826Y-78132858D01*
X113312000Y-78156750D01*
X113312000Y-79069250D01*
X113310826Y-79093142D01*
X113307316Y-79116803D01*
X113301504Y-79140007D01*
X113293446Y-79162529D01*
X113283218Y-79184153D01*
X113270921Y-79204670D01*
X113256671Y-79223883D01*
X113240607Y-79241607D01*
X113222883Y-79257671D01*
X113203670Y-79271921D01*
X113183153Y-79284218D01*
X113161529Y-79294446D01*
X113139007Y-79302504D01*
X113115803Y-79308316D01*
X113092142Y-79311826D01*
X113068250Y-79313000D01*
X112580750Y-79313000D01*
X112556858Y-79311826D01*
X112533197Y-79308316D01*
X112509993Y-79302504D01*
X112487471Y-79294446D01*
X112465847Y-79284218D01*
X112445330Y-79271921D01*
X112426117Y-79257671D01*
X112408393Y-79241607D01*
X112392329Y-79223883D01*
X112378079Y-79204670D01*
X112365782Y-79184153D01*
X112355554Y-79162529D01*
X112347496Y-79140007D01*
X112341684Y-79116803D01*
X112338174Y-79093142D01*
X112337000Y-79069250D01*
X112337000Y-78156750D01*
X112338174Y-78132858D01*
X112341684Y-78109197D01*
X112347496Y-78085993D01*
X112355554Y-78063471D01*
X112365782Y-78041847D01*
X112378079Y-78021330D01*
X112392329Y-78002117D01*
X112408393Y-77984393D01*
X112426117Y-77968329D01*
X112445330Y-77954079D01*
X112465847Y-77941782D01*
X112487471Y-77931554D01*
X112509993Y-77923496D01*
X112533197Y-77917684D01*
X112556858Y-77914174D01*
X112580750Y-77913000D01*
X113068250Y-77913000D01*
X113092142Y-77914174D01*
X113092142Y-77914174D01*
G37*
D11*
X112824500Y-78613000D03*
D10*
G36*
X111217142Y-77914174D02*
G01*
X111240803Y-77917684D01*
X111264007Y-77923496D01*
X111286529Y-77931554D01*
X111308153Y-77941782D01*
X111328670Y-77954079D01*
X111347883Y-77968329D01*
X111365607Y-77984393D01*
X111381671Y-78002117D01*
X111395921Y-78021330D01*
X111408218Y-78041847D01*
X111418446Y-78063471D01*
X111426504Y-78085993D01*
X111432316Y-78109197D01*
X111435826Y-78132858D01*
X111437000Y-78156750D01*
X111437000Y-79069250D01*
X111435826Y-79093142D01*
X111432316Y-79116803D01*
X111426504Y-79140007D01*
X111418446Y-79162529D01*
X111408218Y-79184153D01*
X111395921Y-79204670D01*
X111381671Y-79223883D01*
X111365607Y-79241607D01*
X111347883Y-79257671D01*
X111328670Y-79271921D01*
X111308153Y-79284218D01*
X111286529Y-79294446D01*
X111264007Y-79302504D01*
X111240803Y-79308316D01*
X111217142Y-79311826D01*
X111193250Y-79313000D01*
X110705750Y-79313000D01*
X110681858Y-79311826D01*
X110658197Y-79308316D01*
X110634993Y-79302504D01*
X110612471Y-79294446D01*
X110590847Y-79284218D01*
X110570330Y-79271921D01*
X110551117Y-79257671D01*
X110533393Y-79241607D01*
X110517329Y-79223883D01*
X110503079Y-79204670D01*
X110490782Y-79184153D01*
X110480554Y-79162529D01*
X110472496Y-79140007D01*
X110466684Y-79116803D01*
X110463174Y-79093142D01*
X110462000Y-79069250D01*
X110462000Y-78156750D01*
X110463174Y-78132858D01*
X110466684Y-78109197D01*
X110472496Y-78085993D01*
X110480554Y-78063471D01*
X110490782Y-78041847D01*
X110503079Y-78021330D01*
X110517329Y-78002117D01*
X110533393Y-77984393D01*
X110551117Y-77968329D01*
X110570330Y-77954079D01*
X110590847Y-77941782D01*
X110612471Y-77931554D01*
X110634993Y-77923496D01*
X110658197Y-77917684D01*
X110681858Y-77914174D01*
X110705750Y-77913000D01*
X111193250Y-77913000D01*
X111217142Y-77914174D01*
X111217142Y-77914174D01*
G37*
D11*
X110949500Y-78613000D03*
D10*
G36*
X123790142Y-74231174D02*
G01*
X123813803Y-74234684D01*
X123837007Y-74240496D01*
X123859529Y-74248554D01*
X123881153Y-74258782D01*
X123901670Y-74271079D01*
X123920883Y-74285329D01*
X123938607Y-74301393D01*
X123954671Y-74319117D01*
X123968921Y-74338330D01*
X123981218Y-74358847D01*
X123991446Y-74380471D01*
X123999504Y-74402993D01*
X124005316Y-74426197D01*
X124008826Y-74449858D01*
X124010000Y-74473750D01*
X124010000Y-75386250D01*
X124008826Y-75410142D01*
X124005316Y-75433803D01*
X123999504Y-75457007D01*
X123991446Y-75479529D01*
X123981218Y-75501153D01*
X123968921Y-75521670D01*
X123954671Y-75540883D01*
X123938607Y-75558607D01*
X123920883Y-75574671D01*
X123901670Y-75588921D01*
X123881153Y-75601218D01*
X123859529Y-75611446D01*
X123837007Y-75619504D01*
X123813803Y-75625316D01*
X123790142Y-75628826D01*
X123766250Y-75630000D01*
X123278750Y-75630000D01*
X123254858Y-75628826D01*
X123231197Y-75625316D01*
X123207993Y-75619504D01*
X123185471Y-75611446D01*
X123163847Y-75601218D01*
X123143330Y-75588921D01*
X123124117Y-75574671D01*
X123106393Y-75558607D01*
X123090329Y-75540883D01*
X123076079Y-75521670D01*
X123063782Y-75501153D01*
X123053554Y-75479529D01*
X123045496Y-75457007D01*
X123039684Y-75433803D01*
X123036174Y-75410142D01*
X123035000Y-75386250D01*
X123035000Y-74473750D01*
X123036174Y-74449858D01*
X123039684Y-74426197D01*
X123045496Y-74402993D01*
X123053554Y-74380471D01*
X123063782Y-74358847D01*
X123076079Y-74338330D01*
X123090329Y-74319117D01*
X123106393Y-74301393D01*
X123124117Y-74285329D01*
X123143330Y-74271079D01*
X123163847Y-74258782D01*
X123185471Y-74248554D01*
X123207993Y-74240496D01*
X123231197Y-74234684D01*
X123254858Y-74231174D01*
X123278750Y-74230000D01*
X123766250Y-74230000D01*
X123790142Y-74231174D01*
X123790142Y-74231174D01*
G37*
D11*
X123522500Y-74930000D03*
D10*
G36*
X125665142Y-74231174D02*
G01*
X125688803Y-74234684D01*
X125712007Y-74240496D01*
X125734529Y-74248554D01*
X125756153Y-74258782D01*
X125776670Y-74271079D01*
X125795883Y-74285329D01*
X125813607Y-74301393D01*
X125829671Y-74319117D01*
X125843921Y-74338330D01*
X125856218Y-74358847D01*
X125866446Y-74380471D01*
X125874504Y-74402993D01*
X125880316Y-74426197D01*
X125883826Y-74449858D01*
X125885000Y-74473750D01*
X125885000Y-75386250D01*
X125883826Y-75410142D01*
X125880316Y-75433803D01*
X125874504Y-75457007D01*
X125866446Y-75479529D01*
X125856218Y-75501153D01*
X125843921Y-75521670D01*
X125829671Y-75540883D01*
X125813607Y-75558607D01*
X125795883Y-75574671D01*
X125776670Y-75588921D01*
X125756153Y-75601218D01*
X125734529Y-75611446D01*
X125712007Y-75619504D01*
X125688803Y-75625316D01*
X125665142Y-75628826D01*
X125641250Y-75630000D01*
X125153750Y-75630000D01*
X125129858Y-75628826D01*
X125106197Y-75625316D01*
X125082993Y-75619504D01*
X125060471Y-75611446D01*
X125038847Y-75601218D01*
X125018330Y-75588921D01*
X124999117Y-75574671D01*
X124981393Y-75558607D01*
X124965329Y-75540883D01*
X124951079Y-75521670D01*
X124938782Y-75501153D01*
X124928554Y-75479529D01*
X124920496Y-75457007D01*
X124914684Y-75433803D01*
X124911174Y-75410142D01*
X124910000Y-75386250D01*
X124910000Y-74473750D01*
X124911174Y-74449858D01*
X124914684Y-74426197D01*
X124920496Y-74402993D01*
X124928554Y-74380471D01*
X124938782Y-74358847D01*
X124951079Y-74338330D01*
X124965329Y-74319117D01*
X124981393Y-74301393D01*
X124999117Y-74285329D01*
X125018330Y-74271079D01*
X125038847Y-74258782D01*
X125060471Y-74248554D01*
X125082993Y-74240496D01*
X125106197Y-74234684D01*
X125129858Y-74231174D01*
X125153750Y-74230000D01*
X125641250Y-74230000D01*
X125665142Y-74231174D01*
X125665142Y-74231174D01*
G37*
D11*
X125397500Y-74930000D03*
D10*
G36*
X113600142Y-72961174D02*
G01*
X113623803Y-72964684D01*
X113647007Y-72970496D01*
X113669529Y-72978554D01*
X113691153Y-72988782D01*
X113711670Y-73001079D01*
X113730883Y-73015329D01*
X113748607Y-73031393D01*
X113764671Y-73049117D01*
X113778921Y-73068330D01*
X113791218Y-73088847D01*
X113801446Y-73110471D01*
X113809504Y-73132993D01*
X113815316Y-73156197D01*
X113818826Y-73179858D01*
X113820000Y-73203750D01*
X113820000Y-74116250D01*
X113818826Y-74140142D01*
X113815316Y-74163803D01*
X113809504Y-74187007D01*
X113801446Y-74209529D01*
X113791218Y-74231153D01*
X113778921Y-74251670D01*
X113764671Y-74270883D01*
X113748607Y-74288607D01*
X113730883Y-74304671D01*
X113711670Y-74318921D01*
X113691153Y-74331218D01*
X113669529Y-74341446D01*
X113647007Y-74349504D01*
X113623803Y-74355316D01*
X113600142Y-74358826D01*
X113576250Y-74360000D01*
X113088750Y-74360000D01*
X113064858Y-74358826D01*
X113041197Y-74355316D01*
X113017993Y-74349504D01*
X112995471Y-74341446D01*
X112973847Y-74331218D01*
X112953330Y-74318921D01*
X112934117Y-74304671D01*
X112916393Y-74288607D01*
X112900329Y-74270883D01*
X112886079Y-74251670D01*
X112873782Y-74231153D01*
X112863554Y-74209529D01*
X112855496Y-74187007D01*
X112849684Y-74163803D01*
X112846174Y-74140142D01*
X112845000Y-74116250D01*
X112845000Y-73203750D01*
X112846174Y-73179858D01*
X112849684Y-73156197D01*
X112855496Y-73132993D01*
X112863554Y-73110471D01*
X112873782Y-73088847D01*
X112886079Y-73068330D01*
X112900329Y-73049117D01*
X112916393Y-73031393D01*
X112934117Y-73015329D01*
X112953330Y-73001079D01*
X112973847Y-72988782D01*
X112995471Y-72978554D01*
X113017993Y-72970496D01*
X113041197Y-72964684D01*
X113064858Y-72961174D01*
X113088750Y-72960000D01*
X113576250Y-72960000D01*
X113600142Y-72961174D01*
X113600142Y-72961174D01*
G37*
D11*
X113332500Y-73660000D03*
D10*
G36*
X111725142Y-72961174D02*
G01*
X111748803Y-72964684D01*
X111772007Y-72970496D01*
X111794529Y-72978554D01*
X111816153Y-72988782D01*
X111836670Y-73001079D01*
X111855883Y-73015329D01*
X111873607Y-73031393D01*
X111889671Y-73049117D01*
X111903921Y-73068330D01*
X111916218Y-73088847D01*
X111926446Y-73110471D01*
X111934504Y-73132993D01*
X111940316Y-73156197D01*
X111943826Y-73179858D01*
X111945000Y-73203750D01*
X111945000Y-74116250D01*
X111943826Y-74140142D01*
X111940316Y-74163803D01*
X111934504Y-74187007D01*
X111926446Y-74209529D01*
X111916218Y-74231153D01*
X111903921Y-74251670D01*
X111889671Y-74270883D01*
X111873607Y-74288607D01*
X111855883Y-74304671D01*
X111836670Y-74318921D01*
X111816153Y-74331218D01*
X111794529Y-74341446D01*
X111772007Y-74349504D01*
X111748803Y-74355316D01*
X111725142Y-74358826D01*
X111701250Y-74360000D01*
X111213750Y-74360000D01*
X111189858Y-74358826D01*
X111166197Y-74355316D01*
X111142993Y-74349504D01*
X111120471Y-74341446D01*
X111098847Y-74331218D01*
X111078330Y-74318921D01*
X111059117Y-74304671D01*
X111041393Y-74288607D01*
X111025329Y-74270883D01*
X111011079Y-74251670D01*
X110998782Y-74231153D01*
X110988554Y-74209529D01*
X110980496Y-74187007D01*
X110974684Y-74163803D01*
X110971174Y-74140142D01*
X110970000Y-74116250D01*
X110970000Y-73203750D01*
X110971174Y-73179858D01*
X110974684Y-73156197D01*
X110980496Y-73132993D01*
X110988554Y-73110471D01*
X110998782Y-73088847D01*
X111011079Y-73068330D01*
X111025329Y-73049117D01*
X111041393Y-73031393D01*
X111059117Y-73015329D01*
X111078330Y-73001079D01*
X111098847Y-72988782D01*
X111120471Y-72978554D01*
X111142993Y-72970496D01*
X111166197Y-72964684D01*
X111189858Y-72961174D01*
X111213750Y-72960000D01*
X111701250Y-72960000D01*
X111725142Y-72961174D01*
X111725142Y-72961174D01*
G37*
D11*
X111457500Y-73660000D03*
D10*
G36*
X111822142Y-67754174D02*
G01*
X111845803Y-67757684D01*
X111869007Y-67763496D01*
X111891529Y-67771554D01*
X111913153Y-67781782D01*
X111933670Y-67794079D01*
X111952883Y-67808329D01*
X111970607Y-67824393D01*
X111986671Y-67842117D01*
X112000921Y-67861330D01*
X112013218Y-67881847D01*
X112023446Y-67903471D01*
X112031504Y-67925993D01*
X112037316Y-67949197D01*
X112040826Y-67972858D01*
X112042000Y-67996750D01*
X112042000Y-68909250D01*
X112040826Y-68933142D01*
X112037316Y-68956803D01*
X112031504Y-68980007D01*
X112023446Y-69002529D01*
X112013218Y-69024153D01*
X112000921Y-69044670D01*
X111986671Y-69063883D01*
X111970607Y-69081607D01*
X111952883Y-69097671D01*
X111933670Y-69111921D01*
X111913153Y-69124218D01*
X111891529Y-69134446D01*
X111869007Y-69142504D01*
X111845803Y-69148316D01*
X111822142Y-69151826D01*
X111798250Y-69153000D01*
X111310750Y-69153000D01*
X111286858Y-69151826D01*
X111263197Y-69148316D01*
X111239993Y-69142504D01*
X111217471Y-69134446D01*
X111195847Y-69124218D01*
X111175330Y-69111921D01*
X111156117Y-69097671D01*
X111138393Y-69081607D01*
X111122329Y-69063883D01*
X111108079Y-69044670D01*
X111095782Y-69024153D01*
X111085554Y-69002529D01*
X111077496Y-68980007D01*
X111071684Y-68956803D01*
X111068174Y-68933142D01*
X111067000Y-68909250D01*
X111067000Y-67996750D01*
X111068174Y-67972858D01*
X111071684Y-67949197D01*
X111077496Y-67925993D01*
X111085554Y-67903471D01*
X111095782Y-67881847D01*
X111108079Y-67861330D01*
X111122329Y-67842117D01*
X111138393Y-67824393D01*
X111156117Y-67808329D01*
X111175330Y-67794079D01*
X111195847Y-67781782D01*
X111217471Y-67771554D01*
X111239993Y-67763496D01*
X111263197Y-67757684D01*
X111286858Y-67754174D01*
X111310750Y-67753000D01*
X111798250Y-67753000D01*
X111822142Y-67754174D01*
X111822142Y-67754174D01*
G37*
D11*
X111554500Y-68453000D03*
D10*
G36*
X109947142Y-67754174D02*
G01*
X109970803Y-67757684D01*
X109994007Y-67763496D01*
X110016529Y-67771554D01*
X110038153Y-67781782D01*
X110058670Y-67794079D01*
X110077883Y-67808329D01*
X110095607Y-67824393D01*
X110111671Y-67842117D01*
X110125921Y-67861330D01*
X110138218Y-67881847D01*
X110148446Y-67903471D01*
X110156504Y-67925993D01*
X110162316Y-67949197D01*
X110165826Y-67972858D01*
X110167000Y-67996750D01*
X110167000Y-68909250D01*
X110165826Y-68933142D01*
X110162316Y-68956803D01*
X110156504Y-68980007D01*
X110148446Y-69002529D01*
X110138218Y-69024153D01*
X110125921Y-69044670D01*
X110111671Y-69063883D01*
X110095607Y-69081607D01*
X110077883Y-69097671D01*
X110058670Y-69111921D01*
X110038153Y-69124218D01*
X110016529Y-69134446D01*
X109994007Y-69142504D01*
X109970803Y-69148316D01*
X109947142Y-69151826D01*
X109923250Y-69153000D01*
X109435750Y-69153000D01*
X109411858Y-69151826D01*
X109388197Y-69148316D01*
X109364993Y-69142504D01*
X109342471Y-69134446D01*
X109320847Y-69124218D01*
X109300330Y-69111921D01*
X109281117Y-69097671D01*
X109263393Y-69081607D01*
X109247329Y-69063883D01*
X109233079Y-69044670D01*
X109220782Y-69024153D01*
X109210554Y-69002529D01*
X109202496Y-68980007D01*
X109196684Y-68956803D01*
X109193174Y-68933142D01*
X109192000Y-68909250D01*
X109192000Y-67996750D01*
X109193174Y-67972858D01*
X109196684Y-67949197D01*
X109202496Y-67925993D01*
X109210554Y-67903471D01*
X109220782Y-67881847D01*
X109233079Y-67861330D01*
X109247329Y-67842117D01*
X109263393Y-67824393D01*
X109281117Y-67808329D01*
X109300330Y-67794079D01*
X109320847Y-67781782D01*
X109342471Y-67771554D01*
X109364993Y-67763496D01*
X109388197Y-67757684D01*
X109411858Y-67754174D01*
X109435750Y-67753000D01*
X109923250Y-67753000D01*
X109947142Y-67754174D01*
X109947142Y-67754174D01*
G37*
D11*
X109679500Y-68453000D03*
D10*
G36*
X81540779Y-64260144D02*
G01*
X81563834Y-64263563D01*
X81586443Y-64269227D01*
X81608387Y-64277079D01*
X81629457Y-64287044D01*
X81649448Y-64299026D01*
X81668168Y-64312910D01*
X81685438Y-64328562D01*
X81701090Y-64345832D01*
X81714974Y-64364552D01*
X81726956Y-64384543D01*
X81736921Y-64405613D01*
X81744773Y-64427557D01*
X81750437Y-64450166D01*
X81753856Y-64473221D01*
X81755000Y-64496500D01*
X81755000Y-65071500D01*
X81753856Y-65094779D01*
X81750437Y-65117834D01*
X81744773Y-65140443D01*
X81736921Y-65162387D01*
X81726956Y-65183457D01*
X81714974Y-65203448D01*
X81701090Y-65222168D01*
X81685438Y-65239438D01*
X81668168Y-65255090D01*
X81649448Y-65268974D01*
X81629457Y-65280956D01*
X81608387Y-65290921D01*
X81586443Y-65298773D01*
X81563834Y-65304437D01*
X81540779Y-65307856D01*
X81517500Y-65309000D01*
X81042500Y-65309000D01*
X81019221Y-65307856D01*
X80996166Y-65304437D01*
X80973557Y-65298773D01*
X80951613Y-65290921D01*
X80930543Y-65280956D01*
X80910552Y-65268974D01*
X80891832Y-65255090D01*
X80874562Y-65239438D01*
X80858910Y-65222168D01*
X80845026Y-65203448D01*
X80833044Y-65183457D01*
X80823079Y-65162387D01*
X80815227Y-65140443D01*
X80809563Y-65117834D01*
X80806144Y-65094779D01*
X80805000Y-65071500D01*
X80805000Y-64496500D01*
X80806144Y-64473221D01*
X80809563Y-64450166D01*
X80815227Y-64427557D01*
X80823079Y-64405613D01*
X80833044Y-64384543D01*
X80845026Y-64364552D01*
X80858910Y-64345832D01*
X80874562Y-64328562D01*
X80891832Y-64312910D01*
X80910552Y-64299026D01*
X80930543Y-64287044D01*
X80951613Y-64277079D01*
X80973557Y-64269227D01*
X80996166Y-64263563D01*
X81019221Y-64260144D01*
X81042500Y-64259000D01*
X81517500Y-64259000D01*
X81540779Y-64260144D01*
X81540779Y-64260144D01*
G37*
D12*
X81280000Y-64784000D03*
D10*
G36*
X81540779Y-66010144D02*
G01*
X81563834Y-66013563D01*
X81586443Y-66019227D01*
X81608387Y-66027079D01*
X81629457Y-66037044D01*
X81649448Y-66049026D01*
X81668168Y-66062910D01*
X81685438Y-66078562D01*
X81701090Y-66095832D01*
X81714974Y-66114552D01*
X81726956Y-66134543D01*
X81736921Y-66155613D01*
X81744773Y-66177557D01*
X81750437Y-66200166D01*
X81753856Y-66223221D01*
X81755000Y-66246500D01*
X81755000Y-66821500D01*
X81753856Y-66844779D01*
X81750437Y-66867834D01*
X81744773Y-66890443D01*
X81736921Y-66912387D01*
X81726956Y-66933457D01*
X81714974Y-66953448D01*
X81701090Y-66972168D01*
X81685438Y-66989438D01*
X81668168Y-67005090D01*
X81649448Y-67018974D01*
X81629457Y-67030956D01*
X81608387Y-67040921D01*
X81586443Y-67048773D01*
X81563834Y-67054437D01*
X81540779Y-67057856D01*
X81517500Y-67059000D01*
X81042500Y-67059000D01*
X81019221Y-67057856D01*
X80996166Y-67054437D01*
X80973557Y-67048773D01*
X80951613Y-67040921D01*
X80930543Y-67030956D01*
X80910552Y-67018974D01*
X80891832Y-67005090D01*
X80874562Y-66989438D01*
X80858910Y-66972168D01*
X80845026Y-66953448D01*
X80833044Y-66933457D01*
X80823079Y-66912387D01*
X80815227Y-66890443D01*
X80809563Y-66867834D01*
X80806144Y-66844779D01*
X80805000Y-66821500D01*
X80805000Y-66246500D01*
X80806144Y-66223221D01*
X80809563Y-66200166D01*
X80815227Y-66177557D01*
X80823079Y-66155613D01*
X80833044Y-66134543D01*
X80845026Y-66114552D01*
X80858910Y-66095832D01*
X80874562Y-66078562D01*
X80891832Y-66062910D01*
X80910552Y-66049026D01*
X80930543Y-66037044D01*
X80951613Y-66027079D01*
X80973557Y-66019227D01*
X80996166Y-66013563D01*
X81019221Y-66010144D01*
X81042500Y-66009000D01*
X81517500Y-66009000D01*
X81540779Y-66010144D01*
X81540779Y-66010144D01*
G37*
D12*
X81280000Y-66534000D03*
D10*
G36*
X83227779Y-60994144D02*
G01*
X83250834Y-60997563D01*
X83273443Y-61003227D01*
X83295387Y-61011079D01*
X83316457Y-61021044D01*
X83336448Y-61033026D01*
X83355168Y-61046910D01*
X83372438Y-61062562D01*
X83388090Y-61079832D01*
X83401974Y-61098552D01*
X83413956Y-61118543D01*
X83423921Y-61139613D01*
X83431773Y-61161557D01*
X83437437Y-61184166D01*
X83440856Y-61207221D01*
X83442000Y-61230500D01*
X83442000Y-61705500D01*
X83440856Y-61728779D01*
X83437437Y-61751834D01*
X83431773Y-61774443D01*
X83423921Y-61796387D01*
X83413956Y-61817457D01*
X83401974Y-61837448D01*
X83388090Y-61856168D01*
X83372438Y-61873438D01*
X83355168Y-61889090D01*
X83336448Y-61902974D01*
X83316457Y-61914956D01*
X83295387Y-61924921D01*
X83273443Y-61932773D01*
X83250834Y-61938437D01*
X83227779Y-61941856D01*
X83204500Y-61943000D01*
X82629500Y-61943000D01*
X82606221Y-61941856D01*
X82583166Y-61938437D01*
X82560557Y-61932773D01*
X82538613Y-61924921D01*
X82517543Y-61914956D01*
X82497552Y-61902974D01*
X82478832Y-61889090D01*
X82461562Y-61873438D01*
X82445910Y-61856168D01*
X82432026Y-61837448D01*
X82420044Y-61817457D01*
X82410079Y-61796387D01*
X82402227Y-61774443D01*
X82396563Y-61751834D01*
X82393144Y-61728779D01*
X82392000Y-61705500D01*
X82392000Y-61230500D01*
X82393144Y-61207221D01*
X82396563Y-61184166D01*
X82402227Y-61161557D01*
X82410079Y-61139613D01*
X82420044Y-61118543D01*
X82432026Y-61098552D01*
X82445910Y-61079832D01*
X82461562Y-61062562D01*
X82478832Y-61046910D01*
X82497552Y-61033026D01*
X82517543Y-61021044D01*
X82538613Y-61011079D01*
X82560557Y-61003227D01*
X82583166Y-60997563D01*
X82606221Y-60994144D01*
X82629500Y-60993000D01*
X83204500Y-60993000D01*
X83227779Y-60994144D01*
X83227779Y-60994144D01*
G37*
D12*
X82917000Y-61468000D03*
D10*
G36*
X81477779Y-60994144D02*
G01*
X81500834Y-60997563D01*
X81523443Y-61003227D01*
X81545387Y-61011079D01*
X81566457Y-61021044D01*
X81586448Y-61033026D01*
X81605168Y-61046910D01*
X81622438Y-61062562D01*
X81638090Y-61079832D01*
X81651974Y-61098552D01*
X81663956Y-61118543D01*
X81673921Y-61139613D01*
X81681773Y-61161557D01*
X81687437Y-61184166D01*
X81690856Y-61207221D01*
X81692000Y-61230500D01*
X81692000Y-61705500D01*
X81690856Y-61728779D01*
X81687437Y-61751834D01*
X81681773Y-61774443D01*
X81673921Y-61796387D01*
X81663956Y-61817457D01*
X81651974Y-61837448D01*
X81638090Y-61856168D01*
X81622438Y-61873438D01*
X81605168Y-61889090D01*
X81586448Y-61902974D01*
X81566457Y-61914956D01*
X81545387Y-61924921D01*
X81523443Y-61932773D01*
X81500834Y-61938437D01*
X81477779Y-61941856D01*
X81454500Y-61943000D01*
X80879500Y-61943000D01*
X80856221Y-61941856D01*
X80833166Y-61938437D01*
X80810557Y-61932773D01*
X80788613Y-61924921D01*
X80767543Y-61914956D01*
X80747552Y-61902974D01*
X80728832Y-61889090D01*
X80711562Y-61873438D01*
X80695910Y-61856168D01*
X80682026Y-61837448D01*
X80670044Y-61817457D01*
X80660079Y-61796387D01*
X80652227Y-61774443D01*
X80646563Y-61751834D01*
X80643144Y-61728779D01*
X80642000Y-61705500D01*
X80642000Y-61230500D01*
X80643144Y-61207221D01*
X80646563Y-61184166D01*
X80652227Y-61161557D01*
X80660079Y-61139613D01*
X80670044Y-61118543D01*
X80682026Y-61098552D01*
X80695910Y-61079832D01*
X80711562Y-61062562D01*
X80728832Y-61046910D01*
X80747552Y-61033026D01*
X80767543Y-61021044D01*
X80788613Y-61011079D01*
X80810557Y-61003227D01*
X80833166Y-60997563D01*
X80856221Y-60994144D01*
X80879500Y-60993000D01*
X81454500Y-60993000D01*
X81477779Y-60994144D01*
X81477779Y-60994144D01*
G37*
D12*
X81167000Y-61468000D03*
D10*
G36*
X83318779Y-64260144D02*
G01*
X83341834Y-64263563D01*
X83364443Y-64269227D01*
X83386387Y-64277079D01*
X83407457Y-64287044D01*
X83427448Y-64299026D01*
X83446168Y-64312910D01*
X83463438Y-64328562D01*
X83479090Y-64345832D01*
X83492974Y-64364552D01*
X83504956Y-64384543D01*
X83514921Y-64405613D01*
X83522773Y-64427557D01*
X83528437Y-64450166D01*
X83531856Y-64473221D01*
X83533000Y-64496500D01*
X83533000Y-65071500D01*
X83531856Y-65094779D01*
X83528437Y-65117834D01*
X83522773Y-65140443D01*
X83514921Y-65162387D01*
X83504956Y-65183457D01*
X83492974Y-65203448D01*
X83479090Y-65222168D01*
X83463438Y-65239438D01*
X83446168Y-65255090D01*
X83427448Y-65268974D01*
X83407457Y-65280956D01*
X83386387Y-65290921D01*
X83364443Y-65298773D01*
X83341834Y-65304437D01*
X83318779Y-65307856D01*
X83295500Y-65309000D01*
X82820500Y-65309000D01*
X82797221Y-65307856D01*
X82774166Y-65304437D01*
X82751557Y-65298773D01*
X82729613Y-65290921D01*
X82708543Y-65280956D01*
X82688552Y-65268974D01*
X82669832Y-65255090D01*
X82652562Y-65239438D01*
X82636910Y-65222168D01*
X82623026Y-65203448D01*
X82611044Y-65183457D01*
X82601079Y-65162387D01*
X82593227Y-65140443D01*
X82587563Y-65117834D01*
X82584144Y-65094779D01*
X82583000Y-65071500D01*
X82583000Y-64496500D01*
X82584144Y-64473221D01*
X82587563Y-64450166D01*
X82593227Y-64427557D01*
X82601079Y-64405613D01*
X82611044Y-64384543D01*
X82623026Y-64364552D01*
X82636910Y-64345832D01*
X82652562Y-64328562D01*
X82669832Y-64312910D01*
X82688552Y-64299026D01*
X82708543Y-64287044D01*
X82729613Y-64277079D01*
X82751557Y-64269227D01*
X82774166Y-64263563D01*
X82797221Y-64260144D01*
X82820500Y-64259000D01*
X83295500Y-64259000D01*
X83318779Y-64260144D01*
X83318779Y-64260144D01*
G37*
D12*
X83058000Y-64784000D03*
D10*
G36*
X83318779Y-66010144D02*
G01*
X83341834Y-66013563D01*
X83364443Y-66019227D01*
X83386387Y-66027079D01*
X83407457Y-66037044D01*
X83427448Y-66049026D01*
X83446168Y-66062910D01*
X83463438Y-66078562D01*
X83479090Y-66095832D01*
X83492974Y-66114552D01*
X83504956Y-66134543D01*
X83514921Y-66155613D01*
X83522773Y-66177557D01*
X83528437Y-66200166D01*
X83531856Y-66223221D01*
X83533000Y-66246500D01*
X83533000Y-66821500D01*
X83531856Y-66844779D01*
X83528437Y-66867834D01*
X83522773Y-66890443D01*
X83514921Y-66912387D01*
X83504956Y-66933457D01*
X83492974Y-66953448D01*
X83479090Y-66972168D01*
X83463438Y-66989438D01*
X83446168Y-67005090D01*
X83427448Y-67018974D01*
X83407457Y-67030956D01*
X83386387Y-67040921D01*
X83364443Y-67048773D01*
X83341834Y-67054437D01*
X83318779Y-67057856D01*
X83295500Y-67059000D01*
X82820500Y-67059000D01*
X82797221Y-67057856D01*
X82774166Y-67054437D01*
X82751557Y-67048773D01*
X82729613Y-67040921D01*
X82708543Y-67030956D01*
X82688552Y-67018974D01*
X82669832Y-67005090D01*
X82652562Y-66989438D01*
X82636910Y-66972168D01*
X82623026Y-66953448D01*
X82611044Y-66933457D01*
X82601079Y-66912387D01*
X82593227Y-66890443D01*
X82587563Y-66867834D01*
X82584144Y-66844779D01*
X82583000Y-66821500D01*
X82583000Y-66246500D01*
X82584144Y-66223221D01*
X82587563Y-66200166D01*
X82593227Y-66177557D01*
X82601079Y-66155613D01*
X82611044Y-66134543D01*
X82623026Y-66114552D01*
X82636910Y-66095832D01*
X82652562Y-66078562D01*
X82669832Y-66062910D01*
X82688552Y-66049026D01*
X82708543Y-66037044D01*
X82729613Y-66027079D01*
X82751557Y-66019227D01*
X82774166Y-66013563D01*
X82797221Y-66010144D01*
X82820500Y-66009000D01*
X83295500Y-66009000D01*
X83318779Y-66010144D01*
X83318779Y-66010144D01*
G37*
D12*
X83058000Y-66534000D03*
D10*
G36*
X88779779Y-64260144D02*
G01*
X88802834Y-64263563D01*
X88825443Y-64269227D01*
X88847387Y-64277079D01*
X88868457Y-64287044D01*
X88888448Y-64299026D01*
X88907168Y-64312910D01*
X88924438Y-64328562D01*
X88940090Y-64345832D01*
X88953974Y-64364552D01*
X88965956Y-64384543D01*
X88975921Y-64405613D01*
X88983773Y-64427557D01*
X88989437Y-64450166D01*
X88992856Y-64473221D01*
X88994000Y-64496500D01*
X88994000Y-65071500D01*
X88992856Y-65094779D01*
X88989437Y-65117834D01*
X88983773Y-65140443D01*
X88975921Y-65162387D01*
X88965956Y-65183457D01*
X88953974Y-65203448D01*
X88940090Y-65222168D01*
X88924438Y-65239438D01*
X88907168Y-65255090D01*
X88888448Y-65268974D01*
X88868457Y-65280956D01*
X88847387Y-65290921D01*
X88825443Y-65298773D01*
X88802834Y-65304437D01*
X88779779Y-65307856D01*
X88756500Y-65309000D01*
X88281500Y-65309000D01*
X88258221Y-65307856D01*
X88235166Y-65304437D01*
X88212557Y-65298773D01*
X88190613Y-65290921D01*
X88169543Y-65280956D01*
X88149552Y-65268974D01*
X88130832Y-65255090D01*
X88113562Y-65239438D01*
X88097910Y-65222168D01*
X88084026Y-65203448D01*
X88072044Y-65183457D01*
X88062079Y-65162387D01*
X88054227Y-65140443D01*
X88048563Y-65117834D01*
X88045144Y-65094779D01*
X88044000Y-65071500D01*
X88044000Y-64496500D01*
X88045144Y-64473221D01*
X88048563Y-64450166D01*
X88054227Y-64427557D01*
X88062079Y-64405613D01*
X88072044Y-64384543D01*
X88084026Y-64364552D01*
X88097910Y-64345832D01*
X88113562Y-64328562D01*
X88130832Y-64312910D01*
X88149552Y-64299026D01*
X88169543Y-64287044D01*
X88190613Y-64277079D01*
X88212557Y-64269227D01*
X88235166Y-64263563D01*
X88258221Y-64260144D01*
X88281500Y-64259000D01*
X88756500Y-64259000D01*
X88779779Y-64260144D01*
X88779779Y-64260144D01*
G37*
D12*
X88519000Y-64784000D03*
D10*
G36*
X88779779Y-66010144D02*
G01*
X88802834Y-66013563D01*
X88825443Y-66019227D01*
X88847387Y-66027079D01*
X88868457Y-66037044D01*
X88888448Y-66049026D01*
X88907168Y-66062910D01*
X88924438Y-66078562D01*
X88940090Y-66095832D01*
X88953974Y-66114552D01*
X88965956Y-66134543D01*
X88975921Y-66155613D01*
X88983773Y-66177557D01*
X88989437Y-66200166D01*
X88992856Y-66223221D01*
X88994000Y-66246500D01*
X88994000Y-66821500D01*
X88992856Y-66844779D01*
X88989437Y-66867834D01*
X88983773Y-66890443D01*
X88975921Y-66912387D01*
X88965956Y-66933457D01*
X88953974Y-66953448D01*
X88940090Y-66972168D01*
X88924438Y-66989438D01*
X88907168Y-67005090D01*
X88888448Y-67018974D01*
X88868457Y-67030956D01*
X88847387Y-67040921D01*
X88825443Y-67048773D01*
X88802834Y-67054437D01*
X88779779Y-67057856D01*
X88756500Y-67059000D01*
X88281500Y-67059000D01*
X88258221Y-67057856D01*
X88235166Y-67054437D01*
X88212557Y-67048773D01*
X88190613Y-67040921D01*
X88169543Y-67030956D01*
X88149552Y-67018974D01*
X88130832Y-67005090D01*
X88113562Y-66989438D01*
X88097910Y-66972168D01*
X88084026Y-66953448D01*
X88072044Y-66933457D01*
X88062079Y-66912387D01*
X88054227Y-66890443D01*
X88048563Y-66867834D01*
X88045144Y-66844779D01*
X88044000Y-66821500D01*
X88044000Y-66246500D01*
X88045144Y-66223221D01*
X88048563Y-66200166D01*
X88054227Y-66177557D01*
X88062079Y-66155613D01*
X88072044Y-66134543D01*
X88084026Y-66114552D01*
X88097910Y-66095832D01*
X88113562Y-66078562D01*
X88130832Y-66062910D01*
X88149552Y-66049026D01*
X88169543Y-66037044D01*
X88190613Y-66027079D01*
X88212557Y-66019227D01*
X88235166Y-66013563D01*
X88258221Y-66010144D01*
X88281500Y-66009000D01*
X88756500Y-66009000D01*
X88779779Y-66010144D01*
X88779779Y-66010144D01*
G37*
D12*
X88519000Y-66534000D03*
D10*
G36*
X83227779Y-57692144D02*
G01*
X83250834Y-57695563D01*
X83273443Y-57701227D01*
X83295387Y-57709079D01*
X83316457Y-57719044D01*
X83336448Y-57731026D01*
X83355168Y-57744910D01*
X83372438Y-57760562D01*
X83388090Y-57777832D01*
X83401974Y-57796552D01*
X83413956Y-57816543D01*
X83423921Y-57837613D01*
X83431773Y-57859557D01*
X83437437Y-57882166D01*
X83440856Y-57905221D01*
X83442000Y-57928500D01*
X83442000Y-58403500D01*
X83440856Y-58426779D01*
X83437437Y-58449834D01*
X83431773Y-58472443D01*
X83423921Y-58494387D01*
X83413956Y-58515457D01*
X83401974Y-58535448D01*
X83388090Y-58554168D01*
X83372438Y-58571438D01*
X83355168Y-58587090D01*
X83336448Y-58600974D01*
X83316457Y-58612956D01*
X83295387Y-58622921D01*
X83273443Y-58630773D01*
X83250834Y-58636437D01*
X83227779Y-58639856D01*
X83204500Y-58641000D01*
X82629500Y-58641000D01*
X82606221Y-58639856D01*
X82583166Y-58636437D01*
X82560557Y-58630773D01*
X82538613Y-58622921D01*
X82517543Y-58612956D01*
X82497552Y-58600974D01*
X82478832Y-58587090D01*
X82461562Y-58571438D01*
X82445910Y-58554168D01*
X82432026Y-58535448D01*
X82420044Y-58515457D01*
X82410079Y-58494387D01*
X82402227Y-58472443D01*
X82396563Y-58449834D01*
X82393144Y-58426779D01*
X82392000Y-58403500D01*
X82392000Y-57928500D01*
X82393144Y-57905221D01*
X82396563Y-57882166D01*
X82402227Y-57859557D01*
X82410079Y-57837613D01*
X82420044Y-57816543D01*
X82432026Y-57796552D01*
X82445910Y-57777832D01*
X82461562Y-57760562D01*
X82478832Y-57744910D01*
X82497552Y-57731026D01*
X82517543Y-57719044D01*
X82538613Y-57709079D01*
X82560557Y-57701227D01*
X82583166Y-57695563D01*
X82606221Y-57692144D01*
X82629500Y-57691000D01*
X83204500Y-57691000D01*
X83227779Y-57692144D01*
X83227779Y-57692144D01*
G37*
D12*
X82917000Y-58166000D03*
D10*
G36*
X81477779Y-57692144D02*
G01*
X81500834Y-57695563D01*
X81523443Y-57701227D01*
X81545387Y-57709079D01*
X81566457Y-57719044D01*
X81586448Y-57731026D01*
X81605168Y-57744910D01*
X81622438Y-57760562D01*
X81638090Y-57777832D01*
X81651974Y-57796552D01*
X81663956Y-57816543D01*
X81673921Y-57837613D01*
X81681773Y-57859557D01*
X81687437Y-57882166D01*
X81690856Y-57905221D01*
X81692000Y-57928500D01*
X81692000Y-58403500D01*
X81690856Y-58426779D01*
X81687437Y-58449834D01*
X81681773Y-58472443D01*
X81673921Y-58494387D01*
X81663956Y-58515457D01*
X81651974Y-58535448D01*
X81638090Y-58554168D01*
X81622438Y-58571438D01*
X81605168Y-58587090D01*
X81586448Y-58600974D01*
X81566457Y-58612956D01*
X81545387Y-58622921D01*
X81523443Y-58630773D01*
X81500834Y-58636437D01*
X81477779Y-58639856D01*
X81454500Y-58641000D01*
X80879500Y-58641000D01*
X80856221Y-58639856D01*
X80833166Y-58636437D01*
X80810557Y-58630773D01*
X80788613Y-58622921D01*
X80767543Y-58612956D01*
X80747552Y-58600974D01*
X80728832Y-58587090D01*
X80711562Y-58571438D01*
X80695910Y-58554168D01*
X80682026Y-58535448D01*
X80670044Y-58515457D01*
X80660079Y-58494387D01*
X80652227Y-58472443D01*
X80646563Y-58449834D01*
X80643144Y-58426779D01*
X80642000Y-58403500D01*
X80642000Y-57928500D01*
X80643144Y-57905221D01*
X80646563Y-57882166D01*
X80652227Y-57859557D01*
X80660079Y-57837613D01*
X80670044Y-57816543D01*
X80682026Y-57796552D01*
X80695910Y-57777832D01*
X80711562Y-57760562D01*
X80728832Y-57744910D01*
X80747552Y-57731026D01*
X80767543Y-57719044D01*
X80788613Y-57709079D01*
X80810557Y-57701227D01*
X80833166Y-57695563D01*
X80856221Y-57692144D01*
X80879500Y-57691000D01*
X81454500Y-57691000D01*
X81477779Y-57692144D01*
X81477779Y-57692144D01*
G37*
D12*
X81167000Y-58166000D03*
D10*
G36*
X91573779Y-55977144D02*
G01*
X91596834Y-55980563D01*
X91619443Y-55986227D01*
X91641387Y-55994079D01*
X91662457Y-56004044D01*
X91682448Y-56016026D01*
X91701168Y-56029910D01*
X91718438Y-56045562D01*
X91734090Y-56062832D01*
X91747974Y-56081552D01*
X91759956Y-56101543D01*
X91769921Y-56122613D01*
X91777773Y-56144557D01*
X91783437Y-56167166D01*
X91786856Y-56190221D01*
X91788000Y-56213500D01*
X91788000Y-56788500D01*
X91786856Y-56811779D01*
X91783437Y-56834834D01*
X91777773Y-56857443D01*
X91769921Y-56879387D01*
X91759956Y-56900457D01*
X91747974Y-56920448D01*
X91734090Y-56939168D01*
X91718438Y-56956438D01*
X91701168Y-56972090D01*
X91682448Y-56985974D01*
X91662457Y-56997956D01*
X91641387Y-57007921D01*
X91619443Y-57015773D01*
X91596834Y-57021437D01*
X91573779Y-57024856D01*
X91550500Y-57026000D01*
X91075500Y-57026000D01*
X91052221Y-57024856D01*
X91029166Y-57021437D01*
X91006557Y-57015773D01*
X90984613Y-57007921D01*
X90963543Y-56997956D01*
X90943552Y-56985974D01*
X90924832Y-56972090D01*
X90907562Y-56956438D01*
X90891910Y-56939168D01*
X90878026Y-56920448D01*
X90866044Y-56900457D01*
X90856079Y-56879387D01*
X90848227Y-56857443D01*
X90842563Y-56834834D01*
X90839144Y-56811779D01*
X90838000Y-56788500D01*
X90838000Y-56213500D01*
X90839144Y-56190221D01*
X90842563Y-56167166D01*
X90848227Y-56144557D01*
X90856079Y-56122613D01*
X90866044Y-56101543D01*
X90878026Y-56081552D01*
X90891910Y-56062832D01*
X90907562Y-56045562D01*
X90924832Y-56029910D01*
X90943552Y-56016026D01*
X90963543Y-56004044D01*
X90984613Y-55994079D01*
X91006557Y-55986227D01*
X91029166Y-55980563D01*
X91052221Y-55977144D01*
X91075500Y-55976000D01*
X91550500Y-55976000D01*
X91573779Y-55977144D01*
X91573779Y-55977144D01*
G37*
D12*
X91313000Y-56501000D03*
D10*
G36*
X91573779Y-54227144D02*
G01*
X91596834Y-54230563D01*
X91619443Y-54236227D01*
X91641387Y-54244079D01*
X91662457Y-54254044D01*
X91682448Y-54266026D01*
X91701168Y-54279910D01*
X91718438Y-54295562D01*
X91734090Y-54312832D01*
X91747974Y-54331552D01*
X91759956Y-54351543D01*
X91769921Y-54372613D01*
X91777773Y-54394557D01*
X91783437Y-54417166D01*
X91786856Y-54440221D01*
X91788000Y-54463500D01*
X91788000Y-55038500D01*
X91786856Y-55061779D01*
X91783437Y-55084834D01*
X91777773Y-55107443D01*
X91769921Y-55129387D01*
X91759956Y-55150457D01*
X91747974Y-55170448D01*
X91734090Y-55189168D01*
X91718438Y-55206438D01*
X91701168Y-55222090D01*
X91682448Y-55235974D01*
X91662457Y-55247956D01*
X91641387Y-55257921D01*
X91619443Y-55265773D01*
X91596834Y-55271437D01*
X91573779Y-55274856D01*
X91550500Y-55276000D01*
X91075500Y-55276000D01*
X91052221Y-55274856D01*
X91029166Y-55271437D01*
X91006557Y-55265773D01*
X90984613Y-55257921D01*
X90963543Y-55247956D01*
X90943552Y-55235974D01*
X90924832Y-55222090D01*
X90907562Y-55206438D01*
X90891910Y-55189168D01*
X90878026Y-55170448D01*
X90866044Y-55150457D01*
X90856079Y-55129387D01*
X90848227Y-55107443D01*
X90842563Y-55084834D01*
X90839144Y-55061779D01*
X90838000Y-55038500D01*
X90838000Y-54463500D01*
X90839144Y-54440221D01*
X90842563Y-54417166D01*
X90848227Y-54394557D01*
X90856079Y-54372613D01*
X90866044Y-54351543D01*
X90878026Y-54331552D01*
X90891910Y-54312832D01*
X90907562Y-54295562D01*
X90924832Y-54279910D01*
X90943552Y-54266026D01*
X90963543Y-54254044D01*
X90984613Y-54244079D01*
X91006557Y-54236227D01*
X91029166Y-54230563D01*
X91052221Y-54227144D01*
X91075500Y-54226000D01*
X91550500Y-54226000D01*
X91573779Y-54227144D01*
X91573779Y-54227144D01*
G37*
D12*
X91313000Y-54751000D03*
D10*
G36*
X93224779Y-55977144D02*
G01*
X93247834Y-55980563D01*
X93270443Y-55986227D01*
X93292387Y-55994079D01*
X93313457Y-56004044D01*
X93333448Y-56016026D01*
X93352168Y-56029910D01*
X93369438Y-56045562D01*
X93385090Y-56062832D01*
X93398974Y-56081552D01*
X93410956Y-56101543D01*
X93420921Y-56122613D01*
X93428773Y-56144557D01*
X93434437Y-56167166D01*
X93437856Y-56190221D01*
X93439000Y-56213500D01*
X93439000Y-56788500D01*
X93437856Y-56811779D01*
X93434437Y-56834834D01*
X93428773Y-56857443D01*
X93420921Y-56879387D01*
X93410956Y-56900457D01*
X93398974Y-56920448D01*
X93385090Y-56939168D01*
X93369438Y-56956438D01*
X93352168Y-56972090D01*
X93333448Y-56985974D01*
X93313457Y-56997956D01*
X93292387Y-57007921D01*
X93270443Y-57015773D01*
X93247834Y-57021437D01*
X93224779Y-57024856D01*
X93201500Y-57026000D01*
X92726500Y-57026000D01*
X92703221Y-57024856D01*
X92680166Y-57021437D01*
X92657557Y-57015773D01*
X92635613Y-57007921D01*
X92614543Y-56997956D01*
X92594552Y-56985974D01*
X92575832Y-56972090D01*
X92558562Y-56956438D01*
X92542910Y-56939168D01*
X92529026Y-56920448D01*
X92517044Y-56900457D01*
X92507079Y-56879387D01*
X92499227Y-56857443D01*
X92493563Y-56834834D01*
X92490144Y-56811779D01*
X92489000Y-56788500D01*
X92489000Y-56213500D01*
X92490144Y-56190221D01*
X92493563Y-56167166D01*
X92499227Y-56144557D01*
X92507079Y-56122613D01*
X92517044Y-56101543D01*
X92529026Y-56081552D01*
X92542910Y-56062832D01*
X92558562Y-56045562D01*
X92575832Y-56029910D01*
X92594552Y-56016026D01*
X92614543Y-56004044D01*
X92635613Y-55994079D01*
X92657557Y-55986227D01*
X92680166Y-55980563D01*
X92703221Y-55977144D01*
X92726500Y-55976000D01*
X93201500Y-55976000D01*
X93224779Y-55977144D01*
X93224779Y-55977144D01*
G37*
D12*
X92964000Y-56501000D03*
D10*
G36*
X93224779Y-54227144D02*
G01*
X93247834Y-54230563D01*
X93270443Y-54236227D01*
X93292387Y-54244079D01*
X93313457Y-54254044D01*
X93333448Y-54266026D01*
X93352168Y-54279910D01*
X93369438Y-54295562D01*
X93385090Y-54312832D01*
X93398974Y-54331552D01*
X93410956Y-54351543D01*
X93420921Y-54372613D01*
X93428773Y-54394557D01*
X93434437Y-54417166D01*
X93437856Y-54440221D01*
X93439000Y-54463500D01*
X93439000Y-55038500D01*
X93437856Y-55061779D01*
X93434437Y-55084834D01*
X93428773Y-55107443D01*
X93420921Y-55129387D01*
X93410956Y-55150457D01*
X93398974Y-55170448D01*
X93385090Y-55189168D01*
X93369438Y-55206438D01*
X93352168Y-55222090D01*
X93333448Y-55235974D01*
X93313457Y-55247956D01*
X93292387Y-55257921D01*
X93270443Y-55265773D01*
X93247834Y-55271437D01*
X93224779Y-55274856D01*
X93201500Y-55276000D01*
X92726500Y-55276000D01*
X92703221Y-55274856D01*
X92680166Y-55271437D01*
X92657557Y-55265773D01*
X92635613Y-55257921D01*
X92614543Y-55247956D01*
X92594552Y-55235974D01*
X92575832Y-55222090D01*
X92558562Y-55206438D01*
X92542910Y-55189168D01*
X92529026Y-55170448D01*
X92517044Y-55150457D01*
X92507079Y-55129387D01*
X92499227Y-55107443D01*
X92493563Y-55084834D01*
X92490144Y-55061779D01*
X92489000Y-55038500D01*
X92489000Y-54463500D01*
X92490144Y-54440221D01*
X92493563Y-54417166D01*
X92499227Y-54394557D01*
X92507079Y-54372613D01*
X92517044Y-54351543D01*
X92529026Y-54331552D01*
X92542910Y-54312832D01*
X92558562Y-54295562D01*
X92575832Y-54279910D01*
X92594552Y-54266026D01*
X92614543Y-54254044D01*
X92635613Y-54244079D01*
X92657557Y-54236227D01*
X92680166Y-54230563D01*
X92703221Y-54227144D01*
X92726500Y-54226000D01*
X93201500Y-54226000D01*
X93224779Y-54227144D01*
X93224779Y-54227144D01*
G37*
D12*
X92964000Y-54751000D03*
D10*
G36*
X91510779Y-58454144D02*
G01*
X91533834Y-58457563D01*
X91556443Y-58463227D01*
X91578387Y-58471079D01*
X91599457Y-58481044D01*
X91619448Y-58493026D01*
X91638168Y-58506910D01*
X91655438Y-58522562D01*
X91671090Y-58539832D01*
X91684974Y-58558552D01*
X91696956Y-58578543D01*
X91706921Y-58599613D01*
X91714773Y-58621557D01*
X91720437Y-58644166D01*
X91723856Y-58667221D01*
X91725000Y-58690500D01*
X91725000Y-59165500D01*
X91723856Y-59188779D01*
X91720437Y-59211834D01*
X91714773Y-59234443D01*
X91706921Y-59256387D01*
X91696956Y-59277457D01*
X91684974Y-59297448D01*
X91671090Y-59316168D01*
X91655438Y-59333438D01*
X91638168Y-59349090D01*
X91619448Y-59362974D01*
X91599457Y-59374956D01*
X91578387Y-59384921D01*
X91556443Y-59392773D01*
X91533834Y-59398437D01*
X91510779Y-59401856D01*
X91487500Y-59403000D01*
X90912500Y-59403000D01*
X90889221Y-59401856D01*
X90866166Y-59398437D01*
X90843557Y-59392773D01*
X90821613Y-59384921D01*
X90800543Y-59374956D01*
X90780552Y-59362974D01*
X90761832Y-59349090D01*
X90744562Y-59333438D01*
X90728910Y-59316168D01*
X90715026Y-59297448D01*
X90703044Y-59277457D01*
X90693079Y-59256387D01*
X90685227Y-59234443D01*
X90679563Y-59211834D01*
X90676144Y-59188779D01*
X90675000Y-59165500D01*
X90675000Y-58690500D01*
X90676144Y-58667221D01*
X90679563Y-58644166D01*
X90685227Y-58621557D01*
X90693079Y-58599613D01*
X90703044Y-58578543D01*
X90715026Y-58558552D01*
X90728910Y-58539832D01*
X90744562Y-58522562D01*
X90761832Y-58506910D01*
X90780552Y-58493026D01*
X90800543Y-58481044D01*
X90821613Y-58471079D01*
X90843557Y-58463227D01*
X90866166Y-58457563D01*
X90889221Y-58454144D01*
X90912500Y-58453000D01*
X91487500Y-58453000D01*
X91510779Y-58454144D01*
X91510779Y-58454144D01*
G37*
D12*
X91200000Y-58928000D03*
D10*
G36*
X93260779Y-58454144D02*
G01*
X93283834Y-58457563D01*
X93306443Y-58463227D01*
X93328387Y-58471079D01*
X93349457Y-58481044D01*
X93369448Y-58493026D01*
X93388168Y-58506910D01*
X93405438Y-58522562D01*
X93421090Y-58539832D01*
X93434974Y-58558552D01*
X93446956Y-58578543D01*
X93456921Y-58599613D01*
X93464773Y-58621557D01*
X93470437Y-58644166D01*
X93473856Y-58667221D01*
X93475000Y-58690500D01*
X93475000Y-59165500D01*
X93473856Y-59188779D01*
X93470437Y-59211834D01*
X93464773Y-59234443D01*
X93456921Y-59256387D01*
X93446956Y-59277457D01*
X93434974Y-59297448D01*
X93421090Y-59316168D01*
X93405438Y-59333438D01*
X93388168Y-59349090D01*
X93369448Y-59362974D01*
X93349457Y-59374956D01*
X93328387Y-59384921D01*
X93306443Y-59392773D01*
X93283834Y-59398437D01*
X93260779Y-59401856D01*
X93237500Y-59403000D01*
X92662500Y-59403000D01*
X92639221Y-59401856D01*
X92616166Y-59398437D01*
X92593557Y-59392773D01*
X92571613Y-59384921D01*
X92550543Y-59374956D01*
X92530552Y-59362974D01*
X92511832Y-59349090D01*
X92494562Y-59333438D01*
X92478910Y-59316168D01*
X92465026Y-59297448D01*
X92453044Y-59277457D01*
X92443079Y-59256387D01*
X92435227Y-59234443D01*
X92429563Y-59211834D01*
X92426144Y-59188779D01*
X92425000Y-59165500D01*
X92425000Y-58690500D01*
X92426144Y-58667221D01*
X92429563Y-58644166D01*
X92435227Y-58621557D01*
X92443079Y-58599613D01*
X92453044Y-58578543D01*
X92465026Y-58558552D01*
X92478910Y-58539832D01*
X92494562Y-58522562D01*
X92511832Y-58506910D01*
X92530552Y-58493026D01*
X92550543Y-58481044D01*
X92571613Y-58471079D01*
X92593557Y-58463227D01*
X92616166Y-58457563D01*
X92639221Y-58454144D01*
X92662500Y-58453000D01*
X93237500Y-58453000D01*
X93260779Y-58454144D01*
X93260779Y-58454144D01*
G37*
D12*
X92950000Y-58928000D03*
D10*
G36*
X85985779Y-55977144D02*
G01*
X86008834Y-55980563D01*
X86031443Y-55986227D01*
X86053387Y-55994079D01*
X86074457Y-56004044D01*
X86094448Y-56016026D01*
X86113168Y-56029910D01*
X86130438Y-56045562D01*
X86146090Y-56062832D01*
X86159974Y-56081552D01*
X86171956Y-56101543D01*
X86181921Y-56122613D01*
X86189773Y-56144557D01*
X86195437Y-56167166D01*
X86198856Y-56190221D01*
X86200000Y-56213500D01*
X86200000Y-56788500D01*
X86198856Y-56811779D01*
X86195437Y-56834834D01*
X86189773Y-56857443D01*
X86181921Y-56879387D01*
X86171956Y-56900457D01*
X86159974Y-56920448D01*
X86146090Y-56939168D01*
X86130438Y-56956438D01*
X86113168Y-56972090D01*
X86094448Y-56985974D01*
X86074457Y-56997956D01*
X86053387Y-57007921D01*
X86031443Y-57015773D01*
X86008834Y-57021437D01*
X85985779Y-57024856D01*
X85962500Y-57026000D01*
X85487500Y-57026000D01*
X85464221Y-57024856D01*
X85441166Y-57021437D01*
X85418557Y-57015773D01*
X85396613Y-57007921D01*
X85375543Y-56997956D01*
X85355552Y-56985974D01*
X85336832Y-56972090D01*
X85319562Y-56956438D01*
X85303910Y-56939168D01*
X85290026Y-56920448D01*
X85278044Y-56900457D01*
X85268079Y-56879387D01*
X85260227Y-56857443D01*
X85254563Y-56834834D01*
X85251144Y-56811779D01*
X85250000Y-56788500D01*
X85250000Y-56213500D01*
X85251144Y-56190221D01*
X85254563Y-56167166D01*
X85260227Y-56144557D01*
X85268079Y-56122613D01*
X85278044Y-56101543D01*
X85290026Y-56081552D01*
X85303910Y-56062832D01*
X85319562Y-56045562D01*
X85336832Y-56029910D01*
X85355552Y-56016026D01*
X85375543Y-56004044D01*
X85396613Y-55994079D01*
X85418557Y-55986227D01*
X85441166Y-55980563D01*
X85464221Y-55977144D01*
X85487500Y-55976000D01*
X85962500Y-55976000D01*
X85985779Y-55977144D01*
X85985779Y-55977144D01*
G37*
D12*
X85725000Y-56501000D03*
D10*
G36*
X85985779Y-54227144D02*
G01*
X86008834Y-54230563D01*
X86031443Y-54236227D01*
X86053387Y-54244079D01*
X86074457Y-54254044D01*
X86094448Y-54266026D01*
X86113168Y-54279910D01*
X86130438Y-54295562D01*
X86146090Y-54312832D01*
X86159974Y-54331552D01*
X86171956Y-54351543D01*
X86181921Y-54372613D01*
X86189773Y-54394557D01*
X86195437Y-54417166D01*
X86198856Y-54440221D01*
X86200000Y-54463500D01*
X86200000Y-55038500D01*
X86198856Y-55061779D01*
X86195437Y-55084834D01*
X86189773Y-55107443D01*
X86181921Y-55129387D01*
X86171956Y-55150457D01*
X86159974Y-55170448D01*
X86146090Y-55189168D01*
X86130438Y-55206438D01*
X86113168Y-55222090D01*
X86094448Y-55235974D01*
X86074457Y-55247956D01*
X86053387Y-55257921D01*
X86031443Y-55265773D01*
X86008834Y-55271437D01*
X85985779Y-55274856D01*
X85962500Y-55276000D01*
X85487500Y-55276000D01*
X85464221Y-55274856D01*
X85441166Y-55271437D01*
X85418557Y-55265773D01*
X85396613Y-55257921D01*
X85375543Y-55247956D01*
X85355552Y-55235974D01*
X85336832Y-55222090D01*
X85319562Y-55206438D01*
X85303910Y-55189168D01*
X85290026Y-55170448D01*
X85278044Y-55150457D01*
X85268079Y-55129387D01*
X85260227Y-55107443D01*
X85254563Y-55084834D01*
X85251144Y-55061779D01*
X85250000Y-55038500D01*
X85250000Y-54463500D01*
X85251144Y-54440221D01*
X85254563Y-54417166D01*
X85260227Y-54394557D01*
X85268079Y-54372613D01*
X85278044Y-54351543D01*
X85290026Y-54331552D01*
X85303910Y-54312832D01*
X85319562Y-54295562D01*
X85336832Y-54279910D01*
X85355552Y-54266026D01*
X85375543Y-54254044D01*
X85396613Y-54244079D01*
X85418557Y-54236227D01*
X85441166Y-54230563D01*
X85464221Y-54227144D01*
X85487500Y-54226000D01*
X85962500Y-54226000D01*
X85985779Y-54227144D01*
X85985779Y-54227144D01*
G37*
D12*
X85725000Y-54751000D03*
D10*
G36*
X90684779Y-64260144D02*
G01*
X90707834Y-64263563D01*
X90730443Y-64269227D01*
X90752387Y-64277079D01*
X90773457Y-64287044D01*
X90793448Y-64299026D01*
X90812168Y-64312910D01*
X90829438Y-64328562D01*
X90845090Y-64345832D01*
X90858974Y-64364552D01*
X90870956Y-64384543D01*
X90880921Y-64405613D01*
X90888773Y-64427557D01*
X90894437Y-64450166D01*
X90897856Y-64473221D01*
X90899000Y-64496500D01*
X90899000Y-65071500D01*
X90897856Y-65094779D01*
X90894437Y-65117834D01*
X90888773Y-65140443D01*
X90880921Y-65162387D01*
X90870956Y-65183457D01*
X90858974Y-65203448D01*
X90845090Y-65222168D01*
X90829438Y-65239438D01*
X90812168Y-65255090D01*
X90793448Y-65268974D01*
X90773457Y-65280956D01*
X90752387Y-65290921D01*
X90730443Y-65298773D01*
X90707834Y-65304437D01*
X90684779Y-65307856D01*
X90661500Y-65309000D01*
X90186500Y-65309000D01*
X90163221Y-65307856D01*
X90140166Y-65304437D01*
X90117557Y-65298773D01*
X90095613Y-65290921D01*
X90074543Y-65280956D01*
X90054552Y-65268974D01*
X90035832Y-65255090D01*
X90018562Y-65239438D01*
X90002910Y-65222168D01*
X89989026Y-65203448D01*
X89977044Y-65183457D01*
X89967079Y-65162387D01*
X89959227Y-65140443D01*
X89953563Y-65117834D01*
X89950144Y-65094779D01*
X89949000Y-65071500D01*
X89949000Y-64496500D01*
X89950144Y-64473221D01*
X89953563Y-64450166D01*
X89959227Y-64427557D01*
X89967079Y-64405613D01*
X89977044Y-64384543D01*
X89989026Y-64364552D01*
X90002910Y-64345832D01*
X90018562Y-64328562D01*
X90035832Y-64312910D01*
X90054552Y-64299026D01*
X90074543Y-64287044D01*
X90095613Y-64277079D01*
X90117557Y-64269227D01*
X90140166Y-64263563D01*
X90163221Y-64260144D01*
X90186500Y-64259000D01*
X90661500Y-64259000D01*
X90684779Y-64260144D01*
X90684779Y-64260144D01*
G37*
D12*
X90424000Y-64784000D03*
D10*
G36*
X90684779Y-66010144D02*
G01*
X90707834Y-66013563D01*
X90730443Y-66019227D01*
X90752387Y-66027079D01*
X90773457Y-66037044D01*
X90793448Y-66049026D01*
X90812168Y-66062910D01*
X90829438Y-66078562D01*
X90845090Y-66095832D01*
X90858974Y-66114552D01*
X90870956Y-66134543D01*
X90880921Y-66155613D01*
X90888773Y-66177557D01*
X90894437Y-66200166D01*
X90897856Y-66223221D01*
X90899000Y-66246500D01*
X90899000Y-66821500D01*
X90897856Y-66844779D01*
X90894437Y-66867834D01*
X90888773Y-66890443D01*
X90880921Y-66912387D01*
X90870956Y-66933457D01*
X90858974Y-66953448D01*
X90845090Y-66972168D01*
X90829438Y-66989438D01*
X90812168Y-67005090D01*
X90793448Y-67018974D01*
X90773457Y-67030956D01*
X90752387Y-67040921D01*
X90730443Y-67048773D01*
X90707834Y-67054437D01*
X90684779Y-67057856D01*
X90661500Y-67059000D01*
X90186500Y-67059000D01*
X90163221Y-67057856D01*
X90140166Y-67054437D01*
X90117557Y-67048773D01*
X90095613Y-67040921D01*
X90074543Y-67030956D01*
X90054552Y-67018974D01*
X90035832Y-67005090D01*
X90018562Y-66989438D01*
X90002910Y-66972168D01*
X89989026Y-66953448D01*
X89977044Y-66933457D01*
X89967079Y-66912387D01*
X89959227Y-66890443D01*
X89953563Y-66867834D01*
X89950144Y-66844779D01*
X89949000Y-66821500D01*
X89949000Y-66246500D01*
X89950144Y-66223221D01*
X89953563Y-66200166D01*
X89959227Y-66177557D01*
X89967079Y-66155613D01*
X89977044Y-66134543D01*
X89989026Y-66114552D01*
X90002910Y-66095832D01*
X90018562Y-66078562D01*
X90035832Y-66062910D01*
X90054552Y-66049026D01*
X90074543Y-66037044D01*
X90095613Y-66027079D01*
X90117557Y-66019227D01*
X90140166Y-66013563D01*
X90163221Y-66010144D01*
X90186500Y-66009000D01*
X90661500Y-66009000D01*
X90684779Y-66010144D01*
X90684779Y-66010144D01*
G37*
D12*
X90424000Y-66534000D03*
D10*
G36*
X91510779Y-62137144D02*
G01*
X91533834Y-62140563D01*
X91556443Y-62146227D01*
X91578387Y-62154079D01*
X91599457Y-62164044D01*
X91619448Y-62176026D01*
X91638168Y-62189910D01*
X91655438Y-62205562D01*
X91671090Y-62222832D01*
X91684974Y-62241552D01*
X91696956Y-62261543D01*
X91706921Y-62282613D01*
X91714773Y-62304557D01*
X91720437Y-62327166D01*
X91723856Y-62350221D01*
X91725000Y-62373500D01*
X91725000Y-62848500D01*
X91723856Y-62871779D01*
X91720437Y-62894834D01*
X91714773Y-62917443D01*
X91706921Y-62939387D01*
X91696956Y-62960457D01*
X91684974Y-62980448D01*
X91671090Y-62999168D01*
X91655438Y-63016438D01*
X91638168Y-63032090D01*
X91619448Y-63045974D01*
X91599457Y-63057956D01*
X91578387Y-63067921D01*
X91556443Y-63075773D01*
X91533834Y-63081437D01*
X91510779Y-63084856D01*
X91487500Y-63086000D01*
X90912500Y-63086000D01*
X90889221Y-63084856D01*
X90866166Y-63081437D01*
X90843557Y-63075773D01*
X90821613Y-63067921D01*
X90800543Y-63057956D01*
X90780552Y-63045974D01*
X90761832Y-63032090D01*
X90744562Y-63016438D01*
X90728910Y-62999168D01*
X90715026Y-62980448D01*
X90703044Y-62960457D01*
X90693079Y-62939387D01*
X90685227Y-62917443D01*
X90679563Y-62894834D01*
X90676144Y-62871779D01*
X90675000Y-62848500D01*
X90675000Y-62373500D01*
X90676144Y-62350221D01*
X90679563Y-62327166D01*
X90685227Y-62304557D01*
X90693079Y-62282613D01*
X90703044Y-62261543D01*
X90715026Y-62241552D01*
X90728910Y-62222832D01*
X90744562Y-62205562D01*
X90761832Y-62189910D01*
X90780552Y-62176026D01*
X90800543Y-62164044D01*
X90821613Y-62154079D01*
X90843557Y-62146227D01*
X90866166Y-62140563D01*
X90889221Y-62137144D01*
X90912500Y-62136000D01*
X91487500Y-62136000D01*
X91510779Y-62137144D01*
X91510779Y-62137144D01*
G37*
D12*
X91200000Y-62611000D03*
D10*
G36*
X93260779Y-62137144D02*
G01*
X93283834Y-62140563D01*
X93306443Y-62146227D01*
X93328387Y-62154079D01*
X93349457Y-62164044D01*
X93369448Y-62176026D01*
X93388168Y-62189910D01*
X93405438Y-62205562D01*
X93421090Y-62222832D01*
X93434974Y-62241552D01*
X93446956Y-62261543D01*
X93456921Y-62282613D01*
X93464773Y-62304557D01*
X93470437Y-62327166D01*
X93473856Y-62350221D01*
X93475000Y-62373500D01*
X93475000Y-62848500D01*
X93473856Y-62871779D01*
X93470437Y-62894834D01*
X93464773Y-62917443D01*
X93456921Y-62939387D01*
X93446956Y-62960457D01*
X93434974Y-62980448D01*
X93421090Y-62999168D01*
X93405438Y-63016438D01*
X93388168Y-63032090D01*
X93369448Y-63045974D01*
X93349457Y-63057956D01*
X93328387Y-63067921D01*
X93306443Y-63075773D01*
X93283834Y-63081437D01*
X93260779Y-63084856D01*
X93237500Y-63086000D01*
X92662500Y-63086000D01*
X92639221Y-63084856D01*
X92616166Y-63081437D01*
X92593557Y-63075773D01*
X92571613Y-63067921D01*
X92550543Y-63057956D01*
X92530552Y-63045974D01*
X92511832Y-63032090D01*
X92494562Y-63016438D01*
X92478910Y-62999168D01*
X92465026Y-62980448D01*
X92453044Y-62960457D01*
X92443079Y-62939387D01*
X92435227Y-62917443D01*
X92429563Y-62894834D01*
X92426144Y-62871779D01*
X92425000Y-62848500D01*
X92425000Y-62373500D01*
X92426144Y-62350221D01*
X92429563Y-62327166D01*
X92435227Y-62304557D01*
X92443079Y-62282613D01*
X92453044Y-62261543D01*
X92465026Y-62241552D01*
X92478910Y-62222832D01*
X92494562Y-62205562D01*
X92511832Y-62189910D01*
X92530552Y-62176026D01*
X92550543Y-62164044D01*
X92571613Y-62154079D01*
X92593557Y-62146227D01*
X92616166Y-62140563D01*
X92639221Y-62137144D01*
X92662500Y-62136000D01*
X93237500Y-62136000D01*
X93260779Y-62137144D01*
X93260779Y-62137144D01*
G37*
D12*
X92950000Y-62611000D03*
D10*
G36*
X83227779Y-54644144D02*
G01*
X83250834Y-54647563D01*
X83273443Y-54653227D01*
X83295387Y-54661079D01*
X83316457Y-54671044D01*
X83336448Y-54683026D01*
X83355168Y-54696910D01*
X83372438Y-54712562D01*
X83388090Y-54729832D01*
X83401974Y-54748552D01*
X83413956Y-54768543D01*
X83423921Y-54789613D01*
X83431773Y-54811557D01*
X83437437Y-54834166D01*
X83440856Y-54857221D01*
X83442000Y-54880500D01*
X83442000Y-55355500D01*
X83440856Y-55378779D01*
X83437437Y-55401834D01*
X83431773Y-55424443D01*
X83423921Y-55446387D01*
X83413956Y-55467457D01*
X83401974Y-55487448D01*
X83388090Y-55506168D01*
X83372438Y-55523438D01*
X83355168Y-55539090D01*
X83336448Y-55552974D01*
X83316457Y-55564956D01*
X83295387Y-55574921D01*
X83273443Y-55582773D01*
X83250834Y-55588437D01*
X83227779Y-55591856D01*
X83204500Y-55593000D01*
X82629500Y-55593000D01*
X82606221Y-55591856D01*
X82583166Y-55588437D01*
X82560557Y-55582773D01*
X82538613Y-55574921D01*
X82517543Y-55564956D01*
X82497552Y-55552974D01*
X82478832Y-55539090D01*
X82461562Y-55523438D01*
X82445910Y-55506168D01*
X82432026Y-55487448D01*
X82420044Y-55467457D01*
X82410079Y-55446387D01*
X82402227Y-55424443D01*
X82396563Y-55401834D01*
X82393144Y-55378779D01*
X82392000Y-55355500D01*
X82392000Y-54880500D01*
X82393144Y-54857221D01*
X82396563Y-54834166D01*
X82402227Y-54811557D01*
X82410079Y-54789613D01*
X82420044Y-54768543D01*
X82432026Y-54748552D01*
X82445910Y-54729832D01*
X82461562Y-54712562D01*
X82478832Y-54696910D01*
X82497552Y-54683026D01*
X82517543Y-54671044D01*
X82538613Y-54661079D01*
X82560557Y-54653227D01*
X82583166Y-54647563D01*
X82606221Y-54644144D01*
X82629500Y-54643000D01*
X83204500Y-54643000D01*
X83227779Y-54644144D01*
X83227779Y-54644144D01*
G37*
D12*
X82917000Y-55118000D03*
D10*
G36*
X81477779Y-54644144D02*
G01*
X81500834Y-54647563D01*
X81523443Y-54653227D01*
X81545387Y-54661079D01*
X81566457Y-54671044D01*
X81586448Y-54683026D01*
X81605168Y-54696910D01*
X81622438Y-54712562D01*
X81638090Y-54729832D01*
X81651974Y-54748552D01*
X81663956Y-54768543D01*
X81673921Y-54789613D01*
X81681773Y-54811557D01*
X81687437Y-54834166D01*
X81690856Y-54857221D01*
X81692000Y-54880500D01*
X81692000Y-55355500D01*
X81690856Y-55378779D01*
X81687437Y-55401834D01*
X81681773Y-55424443D01*
X81673921Y-55446387D01*
X81663956Y-55467457D01*
X81651974Y-55487448D01*
X81638090Y-55506168D01*
X81622438Y-55523438D01*
X81605168Y-55539090D01*
X81586448Y-55552974D01*
X81566457Y-55564956D01*
X81545387Y-55574921D01*
X81523443Y-55582773D01*
X81500834Y-55588437D01*
X81477779Y-55591856D01*
X81454500Y-55593000D01*
X80879500Y-55593000D01*
X80856221Y-55591856D01*
X80833166Y-55588437D01*
X80810557Y-55582773D01*
X80788613Y-55574921D01*
X80767543Y-55564956D01*
X80747552Y-55552974D01*
X80728832Y-55539090D01*
X80711562Y-55523438D01*
X80695910Y-55506168D01*
X80682026Y-55487448D01*
X80670044Y-55467457D01*
X80660079Y-55446387D01*
X80652227Y-55424443D01*
X80646563Y-55401834D01*
X80643144Y-55378779D01*
X80642000Y-55355500D01*
X80642000Y-54880500D01*
X80643144Y-54857221D01*
X80646563Y-54834166D01*
X80652227Y-54811557D01*
X80660079Y-54789613D01*
X80670044Y-54768543D01*
X80682026Y-54748552D01*
X80695910Y-54729832D01*
X80711562Y-54712562D01*
X80728832Y-54696910D01*
X80747552Y-54683026D01*
X80767543Y-54671044D01*
X80788613Y-54661079D01*
X80810557Y-54653227D01*
X80833166Y-54647563D01*
X80856221Y-54644144D01*
X80879500Y-54643000D01*
X81454500Y-54643000D01*
X81477779Y-54644144D01*
X81477779Y-54644144D01*
G37*
D12*
X81167000Y-55118000D03*
D10*
G36*
X114723779Y-76361144D02*
G01*
X114746834Y-76364563D01*
X114769443Y-76370227D01*
X114791387Y-76378079D01*
X114812457Y-76388044D01*
X114832448Y-76400026D01*
X114851168Y-76413910D01*
X114868438Y-76429562D01*
X114884090Y-76446832D01*
X114897974Y-76465552D01*
X114909956Y-76485543D01*
X114919921Y-76506613D01*
X114927773Y-76528557D01*
X114933437Y-76551166D01*
X114936856Y-76574221D01*
X114938000Y-76597500D01*
X114938000Y-77072500D01*
X114936856Y-77095779D01*
X114933437Y-77118834D01*
X114927773Y-77141443D01*
X114919921Y-77163387D01*
X114909956Y-77184457D01*
X114897974Y-77204448D01*
X114884090Y-77223168D01*
X114868438Y-77240438D01*
X114851168Y-77256090D01*
X114832448Y-77269974D01*
X114812457Y-77281956D01*
X114791387Y-77291921D01*
X114769443Y-77299773D01*
X114746834Y-77305437D01*
X114723779Y-77308856D01*
X114700500Y-77310000D01*
X114125500Y-77310000D01*
X114102221Y-77308856D01*
X114079166Y-77305437D01*
X114056557Y-77299773D01*
X114034613Y-77291921D01*
X114013543Y-77281956D01*
X113993552Y-77269974D01*
X113974832Y-77256090D01*
X113957562Y-77240438D01*
X113941910Y-77223168D01*
X113928026Y-77204448D01*
X113916044Y-77184457D01*
X113906079Y-77163387D01*
X113898227Y-77141443D01*
X113892563Y-77118834D01*
X113889144Y-77095779D01*
X113888000Y-77072500D01*
X113888000Y-76597500D01*
X113889144Y-76574221D01*
X113892563Y-76551166D01*
X113898227Y-76528557D01*
X113906079Y-76506613D01*
X113916044Y-76485543D01*
X113928026Y-76465552D01*
X113941910Y-76446832D01*
X113957562Y-76429562D01*
X113974832Y-76413910D01*
X113993552Y-76400026D01*
X114013543Y-76388044D01*
X114034613Y-76378079D01*
X114056557Y-76370227D01*
X114079166Y-76364563D01*
X114102221Y-76361144D01*
X114125500Y-76360000D01*
X114700500Y-76360000D01*
X114723779Y-76361144D01*
X114723779Y-76361144D01*
G37*
D12*
X114413000Y-76835000D03*
D10*
G36*
X112973779Y-76361144D02*
G01*
X112996834Y-76364563D01*
X113019443Y-76370227D01*
X113041387Y-76378079D01*
X113062457Y-76388044D01*
X113082448Y-76400026D01*
X113101168Y-76413910D01*
X113118438Y-76429562D01*
X113134090Y-76446832D01*
X113147974Y-76465552D01*
X113159956Y-76485543D01*
X113169921Y-76506613D01*
X113177773Y-76528557D01*
X113183437Y-76551166D01*
X113186856Y-76574221D01*
X113188000Y-76597500D01*
X113188000Y-77072500D01*
X113186856Y-77095779D01*
X113183437Y-77118834D01*
X113177773Y-77141443D01*
X113169921Y-77163387D01*
X113159956Y-77184457D01*
X113147974Y-77204448D01*
X113134090Y-77223168D01*
X113118438Y-77240438D01*
X113101168Y-77256090D01*
X113082448Y-77269974D01*
X113062457Y-77281956D01*
X113041387Y-77291921D01*
X113019443Y-77299773D01*
X112996834Y-77305437D01*
X112973779Y-77308856D01*
X112950500Y-77310000D01*
X112375500Y-77310000D01*
X112352221Y-77308856D01*
X112329166Y-77305437D01*
X112306557Y-77299773D01*
X112284613Y-77291921D01*
X112263543Y-77281956D01*
X112243552Y-77269974D01*
X112224832Y-77256090D01*
X112207562Y-77240438D01*
X112191910Y-77223168D01*
X112178026Y-77204448D01*
X112166044Y-77184457D01*
X112156079Y-77163387D01*
X112148227Y-77141443D01*
X112142563Y-77118834D01*
X112139144Y-77095779D01*
X112138000Y-77072500D01*
X112138000Y-76597500D01*
X112139144Y-76574221D01*
X112142563Y-76551166D01*
X112148227Y-76528557D01*
X112156079Y-76506613D01*
X112166044Y-76485543D01*
X112178026Y-76465552D01*
X112191910Y-76446832D01*
X112207562Y-76429562D01*
X112224832Y-76413910D01*
X112243552Y-76400026D01*
X112263543Y-76388044D01*
X112284613Y-76378079D01*
X112306557Y-76370227D01*
X112329166Y-76364563D01*
X112352221Y-76361144D01*
X112375500Y-76360000D01*
X112950500Y-76360000D01*
X112973779Y-76361144D01*
X112973779Y-76361144D01*
G37*
D12*
X112663000Y-76835000D03*
D10*
G36*
X121863779Y-66201144D02*
G01*
X121886834Y-66204563D01*
X121909443Y-66210227D01*
X121931387Y-66218079D01*
X121952457Y-66228044D01*
X121972448Y-66240026D01*
X121991168Y-66253910D01*
X122008438Y-66269562D01*
X122024090Y-66286832D01*
X122037974Y-66305552D01*
X122049956Y-66325543D01*
X122059921Y-66346613D01*
X122067773Y-66368557D01*
X122073437Y-66391166D01*
X122076856Y-66414221D01*
X122078000Y-66437500D01*
X122078000Y-66912500D01*
X122076856Y-66935779D01*
X122073437Y-66958834D01*
X122067773Y-66981443D01*
X122059921Y-67003387D01*
X122049956Y-67024457D01*
X122037974Y-67044448D01*
X122024090Y-67063168D01*
X122008438Y-67080438D01*
X121991168Y-67096090D01*
X121972448Y-67109974D01*
X121952457Y-67121956D01*
X121931387Y-67131921D01*
X121909443Y-67139773D01*
X121886834Y-67145437D01*
X121863779Y-67148856D01*
X121840500Y-67150000D01*
X121265500Y-67150000D01*
X121242221Y-67148856D01*
X121219166Y-67145437D01*
X121196557Y-67139773D01*
X121174613Y-67131921D01*
X121153543Y-67121956D01*
X121133552Y-67109974D01*
X121114832Y-67096090D01*
X121097562Y-67080438D01*
X121081910Y-67063168D01*
X121068026Y-67044448D01*
X121056044Y-67024457D01*
X121046079Y-67003387D01*
X121038227Y-66981443D01*
X121032563Y-66958834D01*
X121029144Y-66935779D01*
X121028000Y-66912500D01*
X121028000Y-66437500D01*
X121029144Y-66414221D01*
X121032563Y-66391166D01*
X121038227Y-66368557D01*
X121046079Y-66346613D01*
X121056044Y-66325543D01*
X121068026Y-66305552D01*
X121081910Y-66286832D01*
X121097562Y-66269562D01*
X121114832Y-66253910D01*
X121133552Y-66240026D01*
X121153543Y-66228044D01*
X121174613Y-66218079D01*
X121196557Y-66210227D01*
X121219166Y-66204563D01*
X121242221Y-66201144D01*
X121265500Y-66200000D01*
X121840500Y-66200000D01*
X121863779Y-66201144D01*
X121863779Y-66201144D01*
G37*
D12*
X121553000Y-66675000D03*
D10*
G36*
X123613779Y-66201144D02*
G01*
X123636834Y-66204563D01*
X123659443Y-66210227D01*
X123681387Y-66218079D01*
X123702457Y-66228044D01*
X123722448Y-66240026D01*
X123741168Y-66253910D01*
X123758438Y-66269562D01*
X123774090Y-66286832D01*
X123787974Y-66305552D01*
X123799956Y-66325543D01*
X123809921Y-66346613D01*
X123817773Y-66368557D01*
X123823437Y-66391166D01*
X123826856Y-66414221D01*
X123828000Y-66437500D01*
X123828000Y-66912500D01*
X123826856Y-66935779D01*
X123823437Y-66958834D01*
X123817773Y-66981443D01*
X123809921Y-67003387D01*
X123799956Y-67024457D01*
X123787974Y-67044448D01*
X123774090Y-67063168D01*
X123758438Y-67080438D01*
X123741168Y-67096090D01*
X123722448Y-67109974D01*
X123702457Y-67121956D01*
X123681387Y-67131921D01*
X123659443Y-67139773D01*
X123636834Y-67145437D01*
X123613779Y-67148856D01*
X123590500Y-67150000D01*
X123015500Y-67150000D01*
X122992221Y-67148856D01*
X122969166Y-67145437D01*
X122946557Y-67139773D01*
X122924613Y-67131921D01*
X122903543Y-67121956D01*
X122883552Y-67109974D01*
X122864832Y-67096090D01*
X122847562Y-67080438D01*
X122831910Y-67063168D01*
X122818026Y-67044448D01*
X122806044Y-67024457D01*
X122796079Y-67003387D01*
X122788227Y-66981443D01*
X122782563Y-66958834D01*
X122779144Y-66935779D01*
X122778000Y-66912500D01*
X122778000Y-66437500D01*
X122779144Y-66414221D01*
X122782563Y-66391166D01*
X122788227Y-66368557D01*
X122796079Y-66346613D01*
X122806044Y-66325543D01*
X122818026Y-66305552D01*
X122831910Y-66286832D01*
X122847562Y-66269562D01*
X122864832Y-66253910D01*
X122883552Y-66240026D01*
X122903543Y-66228044D01*
X122924613Y-66218079D01*
X122946557Y-66210227D01*
X122969166Y-66204563D01*
X122992221Y-66201144D01*
X123015500Y-66200000D01*
X123590500Y-66200000D01*
X123613779Y-66201144D01*
X123613779Y-66201144D01*
G37*
D12*
X123303000Y-66675000D03*
D10*
G36*
X121863779Y-68233144D02*
G01*
X121886834Y-68236563D01*
X121909443Y-68242227D01*
X121931387Y-68250079D01*
X121952457Y-68260044D01*
X121972448Y-68272026D01*
X121991168Y-68285910D01*
X122008438Y-68301562D01*
X122024090Y-68318832D01*
X122037974Y-68337552D01*
X122049956Y-68357543D01*
X122059921Y-68378613D01*
X122067773Y-68400557D01*
X122073437Y-68423166D01*
X122076856Y-68446221D01*
X122078000Y-68469500D01*
X122078000Y-68944500D01*
X122076856Y-68967779D01*
X122073437Y-68990834D01*
X122067773Y-69013443D01*
X122059921Y-69035387D01*
X122049956Y-69056457D01*
X122037974Y-69076448D01*
X122024090Y-69095168D01*
X122008438Y-69112438D01*
X121991168Y-69128090D01*
X121972448Y-69141974D01*
X121952457Y-69153956D01*
X121931387Y-69163921D01*
X121909443Y-69171773D01*
X121886834Y-69177437D01*
X121863779Y-69180856D01*
X121840500Y-69182000D01*
X121265500Y-69182000D01*
X121242221Y-69180856D01*
X121219166Y-69177437D01*
X121196557Y-69171773D01*
X121174613Y-69163921D01*
X121153543Y-69153956D01*
X121133552Y-69141974D01*
X121114832Y-69128090D01*
X121097562Y-69112438D01*
X121081910Y-69095168D01*
X121068026Y-69076448D01*
X121056044Y-69056457D01*
X121046079Y-69035387D01*
X121038227Y-69013443D01*
X121032563Y-68990834D01*
X121029144Y-68967779D01*
X121028000Y-68944500D01*
X121028000Y-68469500D01*
X121029144Y-68446221D01*
X121032563Y-68423166D01*
X121038227Y-68400557D01*
X121046079Y-68378613D01*
X121056044Y-68357543D01*
X121068026Y-68337552D01*
X121081910Y-68318832D01*
X121097562Y-68301562D01*
X121114832Y-68285910D01*
X121133552Y-68272026D01*
X121153543Y-68260044D01*
X121174613Y-68250079D01*
X121196557Y-68242227D01*
X121219166Y-68236563D01*
X121242221Y-68233144D01*
X121265500Y-68232000D01*
X121840500Y-68232000D01*
X121863779Y-68233144D01*
X121863779Y-68233144D01*
G37*
D12*
X121553000Y-68707000D03*
D10*
G36*
X123613779Y-68233144D02*
G01*
X123636834Y-68236563D01*
X123659443Y-68242227D01*
X123681387Y-68250079D01*
X123702457Y-68260044D01*
X123722448Y-68272026D01*
X123741168Y-68285910D01*
X123758438Y-68301562D01*
X123774090Y-68318832D01*
X123787974Y-68337552D01*
X123799956Y-68357543D01*
X123809921Y-68378613D01*
X123817773Y-68400557D01*
X123823437Y-68423166D01*
X123826856Y-68446221D01*
X123828000Y-68469500D01*
X123828000Y-68944500D01*
X123826856Y-68967779D01*
X123823437Y-68990834D01*
X123817773Y-69013443D01*
X123809921Y-69035387D01*
X123799956Y-69056457D01*
X123787974Y-69076448D01*
X123774090Y-69095168D01*
X123758438Y-69112438D01*
X123741168Y-69128090D01*
X123722448Y-69141974D01*
X123702457Y-69153956D01*
X123681387Y-69163921D01*
X123659443Y-69171773D01*
X123636834Y-69177437D01*
X123613779Y-69180856D01*
X123590500Y-69182000D01*
X123015500Y-69182000D01*
X122992221Y-69180856D01*
X122969166Y-69177437D01*
X122946557Y-69171773D01*
X122924613Y-69163921D01*
X122903543Y-69153956D01*
X122883552Y-69141974D01*
X122864832Y-69128090D01*
X122847562Y-69112438D01*
X122831910Y-69095168D01*
X122818026Y-69076448D01*
X122806044Y-69056457D01*
X122796079Y-69035387D01*
X122788227Y-69013443D01*
X122782563Y-68990834D01*
X122779144Y-68967779D01*
X122778000Y-68944500D01*
X122778000Y-68469500D01*
X122779144Y-68446221D01*
X122782563Y-68423166D01*
X122788227Y-68400557D01*
X122796079Y-68378613D01*
X122806044Y-68357543D01*
X122818026Y-68337552D01*
X122831910Y-68318832D01*
X122847562Y-68301562D01*
X122864832Y-68285910D01*
X122883552Y-68272026D01*
X122903543Y-68260044D01*
X122924613Y-68250079D01*
X122946557Y-68242227D01*
X122969166Y-68236563D01*
X122992221Y-68233144D01*
X123015500Y-68232000D01*
X123590500Y-68232000D01*
X123613779Y-68233144D01*
X123613779Y-68233144D01*
G37*
D12*
X123303000Y-68707000D03*
D10*
G36*
X113707779Y-70392144D02*
G01*
X113730834Y-70395563D01*
X113753443Y-70401227D01*
X113775387Y-70409079D01*
X113796457Y-70419044D01*
X113816448Y-70431026D01*
X113835168Y-70444910D01*
X113852438Y-70460562D01*
X113868090Y-70477832D01*
X113881974Y-70496552D01*
X113893956Y-70516543D01*
X113903921Y-70537613D01*
X113911773Y-70559557D01*
X113917437Y-70582166D01*
X113920856Y-70605221D01*
X113922000Y-70628500D01*
X113922000Y-71103500D01*
X113920856Y-71126779D01*
X113917437Y-71149834D01*
X113911773Y-71172443D01*
X113903921Y-71194387D01*
X113893956Y-71215457D01*
X113881974Y-71235448D01*
X113868090Y-71254168D01*
X113852438Y-71271438D01*
X113835168Y-71287090D01*
X113816448Y-71300974D01*
X113796457Y-71312956D01*
X113775387Y-71322921D01*
X113753443Y-71330773D01*
X113730834Y-71336437D01*
X113707779Y-71339856D01*
X113684500Y-71341000D01*
X113109500Y-71341000D01*
X113086221Y-71339856D01*
X113063166Y-71336437D01*
X113040557Y-71330773D01*
X113018613Y-71322921D01*
X112997543Y-71312956D01*
X112977552Y-71300974D01*
X112958832Y-71287090D01*
X112941562Y-71271438D01*
X112925910Y-71254168D01*
X112912026Y-71235448D01*
X112900044Y-71215457D01*
X112890079Y-71194387D01*
X112882227Y-71172443D01*
X112876563Y-71149834D01*
X112873144Y-71126779D01*
X112872000Y-71103500D01*
X112872000Y-70628500D01*
X112873144Y-70605221D01*
X112876563Y-70582166D01*
X112882227Y-70559557D01*
X112890079Y-70537613D01*
X112900044Y-70516543D01*
X112912026Y-70496552D01*
X112925910Y-70477832D01*
X112941562Y-70460562D01*
X112958832Y-70444910D01*
X112977552Y-70431026D01*
X112997543Y-70419044D01*
X113018613Y-70409079D01*
X113040557Y-70401227D01*
X113063166Y-70395563D01*
X113086221Y-70392144D01*
X113109500Y-70391000D01*
X113684500Y-70391000D01*
X113707779Y-70392144D01*
X113707779Y-70392144D01*
G37*
D12*
X113397000Y-70866000D03*
D10*
G36*
X111957779Y-70392144D02*
G01*
X111980834Y-70395563D01*
X112003443Y-70401227D01*
X112025387Y-70409079D01*
X112046457Y-70419044D01*
X112066448Y-70431026D01*
X112085168Y-70444910D01*
X112102438Y-70460562D01*
X112118090Y-70477832D01*
X112131974Y-70496552D01*
X112143956Y-70516543D01*
X112153921Y-70537613D01*
X112161773Y-70559557D01*
X112167437Y-70582166D01*
X112170856Y-70605221D01*
X112172000Y-70628500D01*
X112172000Y-71103500D01*
X112170856Y-71126779D01*
X112167437Y-71149834D01*
X112161773Y-71172443D01*
X112153921Y-71194387D01*
X112143956Y-71215457D01*
X112131974Y-71235448D01*
X112118090Y-71254168D01*
X112102438Y-71271438D01*
X112085168Y-71287090D01*
X112066448Y-71300974D01*
X112046457Y-71312956D01*
X112025387Y-71322921D01*
X112003443Y-71330773D01*
X111980834Y-71336437D01*
X111957779Y-71339856D01*
X111934500Y-71341000D01*
X111359500Y-71341000D01*
X111336221Y-71339856D01*
X111313166Y-71336437D01*
X111290557Y-71330773D01*
X111268613Y-71322921D01*
X111247543Y-71312956D01*
X111227552Y-71300974D01*
X111208832Y-71287090D01*
X111191562Y-71271438D01*
X111175910Y-71254168D01*
X111162026Y-71235448D01*
X111150044Y-71215457D01*
X111140079Y-71194387D01*
X111132227Y-71172443D01*
X111126563Y-71149834D01*
X111123144Y-71126779D01*
X111122000Y-71103500D01*
X111122000Y-70628500D01*
X111123144Y-70605221D01*
X111126563Y-70582166D01*
X111132227Y-70559557D01*
X111140079Y-70537613D01*
X111150044Y-70516543D01*
X111162026Y-70496552D01*
X111175910Y-70477832D01*
X111191562Y-70460562D01*
X111208832Y-70444910D01*
X111227552Y-70431026D01*
X111247543Y-70419044D01*
X111268613Y-70409079D01*
X111290557Y-70401227D01*
X111313166Y-70395563D01*
X111336221Y-70392144D01*
X111359500Y-70391000D01*
X111934500Y-70391000D01*
X111957779Y-70392144D01*
X111957779Y-70392144D01*
G37*
D12*
X111647000Y-70866000D03*
D10*
G36*
X118370779Y-65276144D02*
G01*
X118393834Y-65279563D01*
X118416443Y-65285227D01*
X118438387Y-65293079D01*
X118459457Y-65303044D01*
X118479448Y-65315026D01*
X118498168Y-65328910D01*
X118515438Y-65344562D01*
X118531090Y-65361832D01*
X118544974Y-65380552D01*
X118556956Y-65400543D01*
X118566921Y-65421613D01*
X118574773Y-65443557D01*
X118580437Y-65466166D01*
X118583856Y-65489221D01*
X118585000Y-65512500D01*
X118585000Y-66087500D01*
X118583856Y-66110779D01*
X118580437Y-66133834D01*
X118574773Y-66156443D01*
X118566921Y-66178387D01*
X118556956Y-66199457D01*
X118544974Y-66219448D01*
X118531090Y-66238168D01*
X118515438Y-66255438D01*
X118498168Y-66271090D01*
X118479448Y-66284974D01*
X118459457Y-66296956D01*
X118438387Y-66306921D01*
X118416443Y-66314773D01*
X118393834Y-66320437D01*
X118370779Y-66323856D01*
X118347500Y-66325000D01*
X117872500Y-66325000D01*
X117849221Y-66323856D01*
X117826166Y-66320437D01*
X117803557Y-66314773D01*
X117781613Y-66306921D01*
X117760543Y-66296956D01*
X117740552Y-66284974D01*
X117721832Y-66271090D01*
X117704562Y-66255438D01*
X117688910Y-66238168D01*
X117675026Y-66219448D01*
X117663044Y-66199457D01*
X117653079Y-66178387D01*
X117645227Y-66156443D01*
X117639563Y-66133834D01*
X117636144Y-66110779D01*
X117635000Y-66087500D01*
X117635000Y-65512500D01*
X117636144Y-65489221D01*
X117639563Y-65466166D01*
X117645227Y-65443557D01*
X117653079Y-65421613D01*
X117663044Y-65400543D01*
X117675026Y-65380552D01*
X117688910Y-65361832D01*
X117704562Y-65344562D01*
X117721832Y-65328910D01*
X117740552Y-65315026D01*
X117760543Y-65303044D01*
X117781613Y-65293079D01*
X117803557Y-65285227D01*
X117826166Y-65279563D01*
X117849221Y-65276144D01*
X117872500Y-65275000D01*
X118347500Y-65275000D01*
X118370779Y-65276144D01*
X118370779Y-65276144D01*
G37*
D12*
X118110000Y-65800000D03*
D10*
G36*
X118370779Y-67026144D02*
G01*
X118393834Y-67029563D01*
X118416443Y-67035227D01*
X118438387Y-67043079D01*
X118459457Y-67053044D01*
X118479448Y-67065026D01*
X118498168Y-67078910D01*
X118515438Y-67094562D01*
X118531090Y-67111832D01*
X118544974Y-67130552D01*
X118556956Y-67150543D01*
X118566921Y-67171613D01*
X118574773Y-67193557D01*
X118580437Y-67216166D01*
X118583856Y-67239221D01*
X118585000Y-67262500D01*
X118585000Y-67837500D01*
X118583856Y-67860779D01*
X118580437Y-67883834D01*
X118574773Y-67906443D01*
X118566921Y-67928387D01*
X118556956Y-67949457D01*
X118544974Y-67969448D01*
X118531090Y-67988168D01*
X118515438Y-68005438D01*
X118498168Y-68021090D01*
X118479448Y-68034974D01*
X118459457Y-68046956D01*
X118438387Y-68056921D01*
X118416443Y-68064773D01*
X118393834Y-68070437D01*
X118370779Y-68073856D01*
X118347500Y-68075000D01*
X117872500Y-68075000D01*
X117849221Y-68073856D01*
X117826166Y-68070437D01*
X117803557Y-68064773D01*
X117781613Y-68056921D01*
X117760543Y-68046956D01*
X117740552Y-68034974D01*
X117721832Y-68021090D01*
X117704562Y-68005438D01*
X117688910Y-67988168D01*
X117675026Y-67969448D01*
X117663044Y-67949457D01*
X117653079Y-67928387D01*
X117645227Y-67906443D01*
X117639563Y-67883834D01*
X117636144Y-67860779D01*
X117635000Y-67837500D01*
X117635000Y-67262500D01*
X117636144Y-67239221D01*
X117639563Y-67216166D01*
X117645227Y-67193557D01*
X117653079Y-67171613D01*
X117663044Y-67150543D01*
X117675026Y-67130552D01*
X117688910Y-67111832D01*
X117704562Y-67094562D01*
X117721832Y-67078910D01*
X117740552Y-67065026D01*
X117760543Y-67053044D01*
X117781613Y-67043079D01*
X117803557Y-67035227D01*
X117826166Y-67029563D01*
X117849221Y-67026144D01*
X117872500Y-67025000D01*
X118347500Y-67025000D01*
X118370779Y-67026144D01*
X118370779Y-67026144D01*
G37*
D12*
X118110000Y-67550000D03*
D10*
G36*
X113707779Y-66201144D02*
G01*
X113730834Y-66204563D01*
X113753443Y-66210227D01*
X113775387Y-66218079D01*
X113796457Y-66228044D01*
X113816448Y-66240026D01*
X113835168Y-66253910D01*
X113852438Y-66269562D01*
X113868090Y-66286832D01*
X113881974Y-66305552D01*
X113893956Y-66325543D01*
X113903921Y-66346613D01*
X113911773Y-66368557D01*
X113917437Y-66391166D01*
X113920856Y-66414221D01*
X113922000Y-66437500D01*
X113922000Y-66912500D01*
X113920856Y-66935779D01*
X113917437Y-66958834D01*
X113911773Y-66981443D01*
X113903921Y-67003387D01*
X113893956Y-67024457D01*
X113881974Y-67044448D01*
X113868090Y-67063168D01*
X113852438Y-67080438D01*
X113835168Y-67096090D01*
X113816448Y-67109974D01*
X113796457Y-67121956D01*
X113775387Y-67131921D01*
X113753443Y-67139773D01*
X113730834Y-67145437D01*
X113707779Y-67148856D01*
X113684500Y-67150000D01*
X113109500Y-67150000D01*
X113086221Y-67148856D01*
X113063166Y-67145437D01*
X113040557Y-67139773D01*
X113018613Y-67131921D01*
X112997543Y-67121956D01*
X112977552Y-67109974D01*
X112958832Y-67096090D01*
X112941562Y-67080438D01*
X112925910Y-67063168D01*
X112912026Y-67044448D01*
X112900044Y-67024457D01*
X112890079Y-67003387D01*
X112882227Y-66981443D01*
X112876563Y-66958834D01*
X112873144Y-66935779D01*
X112872000Y-66912500D01*
X112872000Y-66437500D01*
X112873144Y-66414221D01*
X112876563Y-66391166D01*
X112882227Y-66368557D01*
X112890079Y-66346613D01*
X112900044Y-66325543D01*
X112912026Y-66305552D01*
X112925910Y-66286832D01*
X112941562Y-66269562D01*
X112958832Y-66253910D01*
X112977552Y-66240026D01*
X112997543Y-66228044D01*
X113018613Y-66218079D01*
X113040557Y-66210227D01*
X113063166Y-66204563D01*
X113086221Y-66201144D01*
X113109500Y-66200000D01*
X113684500Y-66200000D01*
X113707779Y-66201144D01*
X113707779Y-66201144D01*
G37*
D12*
X113397000Y-66675000D03*
D10*
G36*
X111957779Y-66201144D02*
G01*
X111980834Y-66204563D01*
X112003443Y-66210227D01*
X112025387Y-66218079D01*
X112046457Y-66228044D01*
X112066448Y-66240026D01*
X112085168Y-66253910D01*
X112102438Y-66269562D01*
X112118090Y-66286832D01*
X112131974Y-66305552D01*
X112143956Y-66325543D01*
X112153921Y-66346613D01*
X112161773Y-66368557D01*
X112167437Y-66391166D01*
X112170856Y-66414221D01*
X112172000Y-66437500D01*
X112172000Y-66912500D01*
X112170856Y-66935779D01*
X112167437Y-66958834D01*
X112161773Y-66981443D01*
X112153921Y-67003387D01*
X112143956Y-67024457D01*
X112131974Y-67044448D01*
X112118090Y-67063168D01*
X112102438Y-67080438D01*
X112085168Y-67096090D01*
X112066448Y-67109974D01*
X112046457Y-67121956D01*
X112025387Y-67131921D01*
X112003443Y-67139773D01*
X111980834Y-67145437D01*
X111957779Y-67148856D01*
X111934500Y-67150000D01*
X111359500Y-67150000D01*
X111336221Y-67148856D01*
X111313166Y-67145437D01*
X111290557Y-67139773D01*
X111268613Y-67131921D01*
X111247543Y-67121956D01*
X111227552Y-67109974D01*
X111208832Y-67096090D01*
X111191562Y-67080438D01*
X111175910Y-67063168D01*
X111162026Y-67044448D01*
X111150044Y-67024457D01*
X111140079Y-67003387D01*
X111132227Y-66981443D01*
X111126563Y-66958834D01*
X111123144Y-66935779D01*
X111122000Y-66912500D01*
X111122000Y-66437500D01*
X111123144Y-66414221D01*
X111126563Y-66391166D01*
X111132227Y-66368557D01*
X111140079Y-66346613D01*
X111150044Y-66325543D01*
X111162026Y-66305552D01*
X111175910Y-66286832D01*
X111191562Y-66269562D01*
X111208832Y-66253910D01*
X111227552Y-66240026D01*
X111247543Y-66228044D01*
X111268613Y-66218079D01*
X111290557Y-66210227D01*
X111313166Y-66204563D01*
X111336221Y-66201144D01*
X111359500Y-66200000D01*
X111934500Y-66200000D01*
X111957779Y-66201144D01*
X111957779Y-66201144D01*
G37*
D12*
X111647000Y-66675000D03*
D10*
G36*
X121990779Y-76361144D02*
G01*
X122013834Y-76364563D01*
X122036443Y-76370227D01*
X122058387Y-76378079D01*
X122079457Y-76388044D01*
X122099448Y-76400026D01*
X122118168Y-76413910D01*
X122135438Y-76429562D01*
X122151090Y-76446832D01*
X122164974Y-76465552D01*
X122176956Y-76485543D01*
X122186921Y-76506613D01*
X122194773Y-76528557D01*
X122200437Y-76551166D01*
X122203856Y-76574221D01*
X122205000Y-76597500D01*
X122205000Y-77072500D01*
X122203856Y-77095779D01*
X122200437Y-77118834D01*
X122194773Y-77141443D01*
X122186921Y-77163387D01*
X122176956Y-77184457D01*
X122164974Y-77204448D01*
X122151090Y-77223168D01*
X122135438Y-77240438D01*
X122118168Y-77256090D01*
X122099448Y-77269974D01*
X122079457Y-77281956D01*
X122058387Y-77291921D01*
X122036443Y-77299773D01*
X122013834Y-77305437D01*
X121990779Y-77308856D01*
X121967500Y-77310000D01*
X121392500Y-77310000D01*
X121369221Y-77308856D01*
X121346166Y-77305437D01*
X121323557Y-77299773D01*
X121301613Y-77291921D01*
X121280543Y-77281956D01*
X121260552Y-77269974D01*
X121241832Y-77256090D01*
X121224562Y-77240438D01*
X121208910Y-77223168D01*
X121195026Y-77204448D01*
X121183044Y-77184457D01*
X121173079Y-77163387D01*
X121165227Y-77141443D01*
X121159563Y-77118834D01*
X121156144Y-77095779D01*
X121155000Y-77072500D01*
X121155000Y-76597500D01*
X121156144Y-76574221D01*
X121159563Y-76551166D01*
X121165227Y-76528557D01*
X121173079Y-76506613D01*
X121183044Y-76485543D01*
X121195026Y-76465552D01*
X121208910Y-76446832D01*
X121224562Y-76429562D01*
X121241832Y-76413910D01*
X121260552Y-76400026D01*
X121280543Y-76388044D01*
X121301613Y-76378079D01*
X121323557Y-76370227D01*
X121346166Y-76364563D01*
X121369221Y-76361144D01*
X121392500Y-76360000D01*
X121967500Y-76360000D01*
X121990779Y-76361144D01*
X121990779Y-76361144D01*
G37*
D12*
X121680000Y-76835000D03*
D10*
G36*
X123740779Y-76361144D02*
G01*
X123763834Y-76364563D01*
X123786443Y-76370227D01*
X123808387Y-76378079D01*
X123829457Y-76388044D01*
X123849448Y-76400026D01*
X123868168Y-76413910D01*
X123885438Y-76429562D01*
X123901090Y-76446832D01*
X123914974Y-76465552D01*
X123926956Y-76485543D01*
X123936921Y-76506613D01*
X123944773Y-76528557D01*
X123950437Y-76551166D01*
X123953856Y-76574221D01*
X123955000Y-76597500D01*
X123955000Y-77072500D01*
X123953856Y-77095779D01*
X123950437Y-77118834D01*
X123944773Y-77141443D01*
X123936921Y-77163387D01*
X123926956Y-77184457D01*
X123914974Y-77204448D01*
X123901090Y-77223168D01*
X123885438Y-77240438D01*
X123868168Y-77256090D01*
X123849448Y-77269974D01*
X123829457Y-77281956D01*
X123808387Y-77291921D01*
X123786443Y-77299773D01*
X123763834Y-77305437D01*
X123740779Y-77308856D01*
X123717500Y-77310000D01*
X123142500Y-77310000D01*
X123119221Y-77308856D01*
X123096166Y-77305437D01*
X123073557Y-77299773D01*
X123051613Y-77291921D01*
X123030543Y-77281956D01*
X123010552Y-77269974D01*
X122991832Y-77256090D01*
X122974562Y-77240438D01*
X122958910Y-77223168D01*
X122945026Y-77204448D01*
X122933044Y-77184457D01*
X122923079Y-77163387D01*
X122915227Y-77141443D01*
X122909563Y-77118834D01*
X122906144Y-77095779D01*
X122905000Y-77072500D01*
X122905000Y-76597500D01*
X122906144Y-76574221D01*
X122909563Y-76551166D01*
X122915227Y-76528557D01*
X122923079Y-76506613D01*
X122933044Y-76485543D01*
X122945026Y-76465552D01*
X122958910Y-76446832D01*
X122974562Y-76429562D01*
X122991832Y-76413910D01*
X123010552Y-76400026D01*
X123030543Y-76388044D01*
X123051613Y-76378079D01*
X123073557Y-76370227D01*
X123096166Y-76364563D01*
X123119221Y-76361144D01*
X123142500Y-76360000D01*
X123717500Y-76360000D01*
X123740779Y-76361144D01*
X123740779Y-76361144D01*
G37*
D12*
X123430000Y-76835000D03*
D10*
G36*
X112020779Y-55751144D02*
G01*
X112043834Y-55754563D01*
X112066443Y-55760227D01*
X112088387Y-55768079D01*
X112109457Y-55778044D01*
X112129448Y-55790026D01*
X112148168Y-55803910D01*
X112165438Y-55819562D01*
X112181090Y-55836832D01*
X112194974Y-55855552D01*
X112206956Y-55875543D01*
X112216921Y-55896613D01*
X112224773Y-55918557D01*
X112230437Y-55941166D01*
X112233856Y-55964221D01*
X112235000Y-55987500D01*
X112235000Y-56562500D01*
X112233856Y-56585779D01*
X112230437Y-56608834D01*
X112224773Y-56631443D01*
X112216921Y-56653387D01*
X112206956Y-56674457D01*
X112194974Y-56694448D01*
X112181090Y-56713168D01*
X112165438Y-56730438D01*
X112148168Y-56746090D01*
X112129448Y-56759974D01*
X112109457Y-56771956D01*
X112088387Y-56781921D01*
X112066443Y-56789773D01*
X112043834Y-56795437D01*
X112020779Y-56798856D01*
X111997500Y-56800000D01*
X111522500Y-56800000D01*
X111499221Y-56798856D01*
X111476166Y-56795437D01*
X111453557Y-56789773D01*
X111431613Y-56781921D01*
X111410543Y-56771956D01*
X111390552Y-56759974D01*
X111371832Y-56746090D01*
X111354562Y-56730438D01*
X111338910Y-56713168D01*
X111325026Y-56694448D01*
X111313044Y-56674457D01*
X111303079Y-56653387D01*
X111295227Y-56631443D01*
X111289563Y-56608834D01*
X111286144Y-56585779D01*
X111285000Y-56562500D01*
X111285000Y-55987500D01*
X111286144Y-55964221D01*
X111289563Y-55941166D01*
X111295227Y-55918557D01*
X111303079Y-55896613D01*
X111313044Y-55875543D01*
X111325026Y-55855552D01*
X111338910Y-55836832D01*
X111354562Y-55819562D01*
X111371832Y-55803910D01*
X111390552Y-55790026D01*
X111410543Y-55778044D01*
X111431613Y-55768079D01*
X111453557Y-55760227D01*
X111476166Y-55754563D01*
X111499221Y-55751144D01*
X111522500Y-55750000D01*
X111997500Y-55750000D01*
X112020779Y-55751144D01*
X112020779Y-55751144D01*
G37*
D12*
X111760000Y-56275000D03*
D10*
G36*
X112020779Y-57501144D02*
G01*
X112043834Y-57504563D01*
X112066443Y-57510227D01*
X112088387Y-57518079D01*
X112109457Y-57528044D01*
X112129448Y-57540026D01*
X112148168Y-57553910D01*
X112165438Y-57569562D01*
X112181090Y-57586832D01*
X112194974Y-57605552D01*
X112206956Y-57625543D01*
X112216921Y-57646613D01*
X112224773Y-57668557D01*
X112230437Y-57691166D01*
X112233856Y-57714221D01*
X112235000Y-57737500D01*
X112235000Y-58312500D01*
X112233856Y-58335779D01*
X112230437Y-58358834D01*
X112224773Y-58381443D01*
X112216921Y-58403387D01*
X112206956Y-58424457D01*
X112194974Y-58444448D01*
X112181090Y-58463168D01*
X112165438Y-58480438D01*
X112148168Y-58496090D01*
X112129448Y-58509974D01*
X112109457Y-58521956D01*
X112088387Y-58531921D01*
X112066443Y-58539773D01*
X112043834Y-58545437D01*
X112020779Y-58548856D01*
X111997500Y-58550000D01*
X111522500Y-58550000D01*
X111499221Y-58548856D01*
X111476166Y-58545437D01*
X111453557Y-58539773D01*
X111431613Y-58531921D01*
X111410543Y-58521956D01*
X111390552Y-58509974D01*
X111371832Y-58496090D01*
X111354562Y-58480438D01*
X111338910Y-58463168D01*
X111325026Y-58444448D01*
X111313044Y-58424457D01*
X111303079Y-58403387D01*
X111295227Y-58381443D01*
X111289563Y-58358834D01*
X111286144Y-58335779D01*
X111285000Y-58312500D01*
X111285000Y-57737500D01*
X111286144Y-57714221D01*
X111289563Y-57691166D01*
X111295227Y-57668557D01*
X111303079Y-57646613D01*
X111313044Y-57625543D01*
X111325026Y-57605552D01*
X111338910Y-57586832D01*
X111354562Y-57569562D01*
X111371832Y-57553910D01*
X111390552Y-57540026D01*
X111410543Y-57528044D01*
X111431613Y-57518079D01*
X111453557Y-57510227D01*
X111476166Y-57504563D01*
X111499221Y-57501144D01*
X111522500Y-57500000D01*
X111997500Y-57500000D01*
X112020779Y-57501144D01*
X112020779Y-57501144D01*
G37*
D12*
X111760000Y-58025000D03*
D10*
G36*
X109988779Y-87854144D02*
G01*
X110011834Y-87857563D01*
X110034443Y-87863227D01*
X110056387Y-87871079D01*
X110077457Y-87881044D01*
X110097448Y-87893026D01*
X110116168Y-87906910D01*
X110133438Y-87922562D01*
X110149090Y-87939832D01*
X110162974Y-87958552D01*
X110174956Y-87978543D01*
X110184921Y-87999613D01*
X110192773Y-88021557D01*
X110198437Y-88044166D01*
X110201856Y-88067221D01*
X110203000Y-88090500D01*
X110203000Y-88665500D01*
X110201856Y-88688779D01*
X110198437Y-88711834D01*
X110192773Y-88734443D01*
X110184921Y-88756387D01*
X110174956Y-88777457D01*
X110162974Y-88797448D01*
X110149090Y-88816168D01*
X110133438Y-88833438D01*
X110116168Y-88849090D01*
X110097448Y-88862974D01*
X110077457Y-88874956D01*
X110056387Y-88884921D01*
X110034443Y-88892773D01*
X110011834Y-88898437D01*
X109988779Y-88901856D01*
X109965500Y-88903000D01*
X109490500Y-88903000D01*
X109467221Y-88901856D01*
X109444166Y-88898437D01*
X109421557Y-88892773D01*
X109399613Y-88884921D01*
X109378543Y-88874956D01*
X109358552Y-88862974D01*
X109339832Y-88849090D01*
X109322562Y-88833438D01*
X109306910Y-88816168D01*
X109293026Y-88797448D01*
X109281044Y-88777457D01*
X109271079Y-88756387D01*
X109263227Y-88734443D01*
X109257563Y-88711834D01*
X109254144Y-88688779D01*
X109253000Y-88665500D01*
X109253000Y-88090500D01*
X109254144Y-88067221D01*
X109257563Y-88044166D01*
X109263227Y-88021557D01*
X109271079Y-87999613D01*
X109281044Y-87978543D01*
X109293026Y-87958552D01*
X109306910Y-87939832D01*
X109322562Y-87922562D01*
X109339832Y-87906910D01*
X109358552Y-87893026D01*
X109378543Y-87881044D01*
X109399613Y-87871079D01*
X109421557Y-87863227D01*
X109444166Y-87857563D01*
X109467221Y-87854144D01*
X109490500Y-87853000D01*
X109965500Y-87853000D01*
X109988779Y-87854144D01*
X109988779Y-87854144D01*
G37*
D12*
X109728000Y-88378000D03*
D10*
G36*
X109988779Y-86104144D02*
G01*
X110011834Y-86107563D01*
X110034443Y-86113227D01*
X110056387Y-86121079D01*
X110077457Y-86131044D01*
X110097448Y-86143026D01*
X110116168Y-86156910D01*
X110133438Y-86172562D01*
X110149090Y-86189832D01*
X110162974Y-86208552D01*
X110174956Y-86228543D01*
X110184921Y-86249613D01*
X110192773Y-86271557D01*
X110198437Y-86294166D01*
X110201856Y-86317221D01*
X110203000Y-86340500D01*
X110203000Y-86915500D01*
X110201856Y-86938779D01*
X110198437Y-86961834D01*
X110192773Y-86984443D01*
X110184921Y-87006387D01*
X110174956Y-87027457D01*
X110162974Y-87047448D01*
X110149090Y-87066168D01*
X110133438Y-87083438D01*
X110116168Y-87099090D01*
X110097448Y-87112974D01*
X110077457Y-87124956D01*
X110056387Y-87134921D01*
X110034443Y-87142773D01*
X110011834Y-87148437D01*
X109988779Y-87151856D01*
X109965500Y-87153000D01*
X109490500Y-87153000D01*
X109467221Y-87151856D01*
X109444166Y-87148437D01*
X109421557Y-87142773D01*
X109399613Y-87134921D01*
X109378543Y-87124956D01*
X109358552Y-87112974D01*
X109339832Y-87099090D01*
X109322562Y-87083438D01*
X109306910Y-87066168D01*
X109293026Y-87047448D01*
X109281044Y-87027457D01*
X109271079Y-87006387D01*
X109263227Y-86984443D01*
X109257563Y-86961834D01*
X109254144Y-86938779D01*
X109253000Y-86915500D01*
X109253000Y-86340500D01*
X109254144Y-86317221D01*
X109257563Y-86294166D01*
X109263227Y-86271557D01*
X109271079Y-86249613D01*
X109281044Y-86228543D01*
X109293026Y-86208552D01*
X109306910Y-86189832D01*
X109322562Y-86172562D01*
X109339832Y-86156910D01*
X109358552Y-86143026D01*
X109378543Y-86131044D01*
X109399613Y-86121079D01*
X109421557Y-86113227D01*
X109444166Y-86107563D01*
X109467221Y-86104144D01*
X109490500Y-86103000D01*
X109965500Y-86103000D01*
X109988779Y-86104144D01*
X109988779Y-86104144D01*
G37*
D12*
X109728000Y-86628000D03*
D10*
G36*
X126117779Y-87854144D02*
G01*
X126140834Y-87857563D01*
X126163443Y-87863227D01*
X126185387Y-87871079D01*
X126206457Y-87881044D01*
X126226448Y-87893026D01*
X126245168Y-87906910D01*
X126262438Y-87922562D01*
X126278090Y-87939832D01*
X126291974Y-87958552D01*
X126303956Y-87978543D01*
X126313921Y-87999613D01*
X126321773Y-88021557D01*
X126327437Y-88044166D01*
X126330856Y-88067221D01*
X126332000Y-88090500D01*
X126332000Y-88665500D01*
X126330856Y-88688779D01*
X126327437Y-88711834D01*
X126321773Y-88734443D01*
X126313921Y-88756387D01*
X126303956Y-88777457D01*
X126291974Y-88797448D01*
X126278090Y-88816168D01*
X126262438Y-88833438D01*
X126245168Y-88849090D01*
X126226448Y-88862974D01*
X126206457Y-88874956D01*
X126185387Y-88884921D01*
X126163443Y-88892773D01*
X126140834Y-88898437D01*
X126117779Y-88901856D01*
X126094500Y-88903000D01*
X125619500Y-88903000D01*
X125596221Y-88901856D01*
X125573166Y-88898437D01*
X125550557Y-88892773D01*
X125528613Y-88884921D01*
X125507543Y-88874956D01*
X125487552Y-88862974D01*
X125468832Y-88849090D01*
X125451562Y-88833438D01*
X125435910Y-88816168D01*
X125422026Y-88797448D01*
X125410044Y-88777457D01*
X125400079Y-88756387D01*
X125392227Y-88734443D01*
X125386563Y-88711834D01*
X125383144Y-88688779D01*
X125382000Y-88665500D01*
X125382000Y-88090500D01*
X125383144Y-88067221D01*
X125386563Y-88044166D01*
X125392227Y-88021557D01*
X125400079Y-87999613D01*
X125410044Y-87978543D01*
X125422026Y-87958552D01*
X125435910Y-87939832D01*
X125451562Y-87922562D01*
X125468832Y-87906910D01*
X125487552Y-87893026D01*
X125507543Y-87881044D01*
X125528613Y-87871079D01*
X125550557Y-87863227D01*
X125573166Y-87857563D01*
X125596221Y-87854144D01*
X125619500Y-87853000D01*
X126094500Y-87853000D01*
X126117779Y-87854144D01*
X126117779Y-87854144D01*
G37*
D12*
X125857000Y-88378000D03*
D10*
G36*
X126117779Y-86104144D02*
G01*
X126140834Y-86107563D01*
X126163443Y-86113227D01*
X126185387Y-86121079D01*
X126206457Y-86131044D01*
X126226448Y-86143026D01*
X126245168Y-86156910D01*
X126262438Y-86172562D01*
X126278090Y-86189832D01*
X126291974Y-86208552D01*
X126303956Y-86228543D01*
X126313921Y-86249613D01*
X126321773Y-86271557D01*
X126327437Y-86294166D01*
X126330856Y-86317221D01*
X126332000Y-86340500D01*
X126332000Y-86915500D01*
X126330856Y-86938779D01*
X126327437Y-86961834D01*
X126321773Y-86984443D01*
X126313921Y-87006387D01*
X126303956Y-87027457D01*
X126291974Y-87047448D01*
X126278090Y-87066168D01*
X126262438Y-87083438D01*
X126245168Y-87099090D01*
X126226448Y-87112974D01*
X126206457Y-87124956D01*
X126185387Y-87134921D01*
X126163443Y-87142773D01*
X126140834Y-87148437D01*
X126117779Y-87151856D01*
X126094500Y-87153000D01*
X125619500Y-87153000D01*
X125596221Y-87151856D01*
X125573166Y-87148437D01*
X125550557Y-87142773D01*
X125528613Y-87134921D01*
X125507543Y-87124956D01*
X125487552Y-87112974D01*
X125468832Y-87099090D01*
X125451562Y-87083438D01*
X125435910Y-87066168D01*
X125422026Y-87047448D01*
X125410044Y-87027457D01*
X125400079Y-87006387D01*
X125392227Y-86984443D01*
X125386563Y-86961834D01*
X125383144Y-86938779D01*
X125382000Y-86915500D01*
X125382000Y-86340500D01*
X125383144Y-86317221D01*
X125386563Y-86294166D01*
X125392227Y-86271557D01*
X125400079Y-86249613D01*
X125410044Y-86228543D01*
X125422026Y-86208552D01*
X125435910Y-86189832D01*
X125451562Y-86172562D01*
X125468832Y-86156910D01*
X125487552Y-86143026D01*
X125507543Y-86131044D01*
X125528613Y-86121079D01*
X125550557Y-86113227D01*
X125573166Y-86107563D01*
X125596221Y-86104144D01*
X125619500Y-86103000D01*
X126094500Y-86103000D01*
X126117779Y-86104144D01*
X126117779Y-86104144D01*
G37*
D12*
X125857000Y-86628000D03*
D10*
G36*
X122815779Y-55751144D02*
G01*
X122838834Y-55754563D01*
X122861443Y-55760227D01*
X122883387Y-55768079D01*
X122904457Y-55778044D01*
X122924448Y-55790026D01*
X122943168Y-55803910D01*
X122960438Y-55819562D01*
X122976090Y-55836832D01*
X122989974Y-55855552D01*
X123001956Y-55875543D01*
X123011921Y-55896613D01*
X123019773Y-55918557D01*
X123025437Y-55941166D01*
X123028856Y-55964221D01*
X123030000Y-55987500D01*
X123030000Y-56562500D01*
X123028856Y-56585779D01*
X123025437Y-56608834D01*
X123019773Y-56631443D01*
X123011921Y-56653387D01*
X123001956Y-56674457D01*
X122989974Y-56694448D01*
X122976090Y-56713168D01*
X122960438Y-56730438D01*
X122943168Y-56746090D01*
X122924448Y-56759974D01*
X122904457Y-56771956D01*
X122883387Y-56781921D01*
X122861443Y-56789773D01*
X122838834Y-56795437D01*
X122815779Y-56798856D01*
X122792500Y-56800000D01*
X122317500Y-56800000D01*
X122294221Y-56798856D01*
X122271166Y-56795437D01*
X122248557Y-56789773D01*
X122226613Y-56781921D01*
X122205543Y-56771956D01*
X122185552Y-56759974D01*
X122166832Y-56746090D01*
X122149562Y-56730438D01*
X122133910Y-56713168D01*
X122120026Y-56694448D01*
X122108044Y-56674457D01*
X122098079Y-56653387D01*
X122090227Y-56631443D01*
X122084563Y-56608834D01*
X122081144Y-56585779D01*
X122080000Y-56562500D01*
X122080000Y-55987500D01*
X122081144Y-55964221D01*
X122084563Y-55941166D01*
X122090227Y-55918557D01*
X122098079Y-55896613D01*
X122108044Y-55875543D01*
X122120026Y-55855552D01*
X122133910Y-55836832D01*
X122149562Y-55819562D01*
X122166832Y-55803910D01*
X122185552Y-55790026D01*
X122205543Y-55778044D01*
X122226613Y-55768079D01*
X122248557Y-55760227D01*
X122271166Y-55754563D01*
X122294221Y-55751144D01*
X122317500Y-55750000D01*
X122792500Y-55750000D01*
X122815779Y-55751144D01*
X122815779Y-55751144D01*
G37*
D12*
X122555000Y-56275000D03*
D10*
G36*
X122815779Y-57501144D02*
G01*
X122838834Y-57504563D01*
X122861443Y-57510227D01*
X122883387Y-57518079D01*
X122904457Y-57528044D01*
X122924448Y-57540026D01*
X122943168Y-57553910D01*
X122960438Y-57569562D01*
X122976090Y-57586832D01*
X122989974Y-57605552D01*
X123001956Y-57625543D01*
X123011921Y-57646613D01*
X123019773Y-57668557D01*
X123025437Y-57691166D01*
X123028856Y-57714221D01*
X123030000Y-57737500D01*
X123030000Y-58312500D01*
X123028856Y-58335779D01*
X123025437Y-58358834D01*
X123019773Y-58381443D01*
X123011921Y-58403387D01*
X123001956Y-58424457D01*
X122989974Y-58444448D01*
X122976090Y-58463168D01*
X122960438Y-58480438D01*
X122943168Y-58496090D01*
X122924448Y-58509974D01*
X122904457Y-58521956D01*
X122883387Y-58531921D01*
X122861443Y-58539773D01*
X122838834Y-58545437D01*
X122815779Y-58548856D01*
X122792500Y-58550000D01*
X122317500Y-58550000D01*
X122294221Y-58548856D01*
X122271166Y-58545437D01*
X122248557Y-58539773D01*
X122226613Y-58531921D01*
X122205543Y-58521956D01*
X122185552Y-58509974D01*
X122166832Y-58496090D01*
X122149562Y-58480438D01*
X122133910Y-58463168D01*
X122120026Y-58444448D01*
X122108044Y-58424457D01*
X122098079Y-58403387D01*
X122090227Y-58381443D01*
X122084563Y-58358834D01*
X122081144Y-58335779D01*
X122080000Y-58312500D01*
X122080000Y-57737500D01*
X122081144Y-57714221D01*
X122084563Y-57691166D01*
X122090227Y-57668557D01*
X122098079Y-57646613D01*
X122108044Y-57625543D01*
X122120026Y-57605552D01*
X122133910Y-57586832D01*
X122149562Y-57569562D01*
X122166832Y-57553910D01*
X122185552Y-57540026D01*
X122205543Y-57528044D01*
X122226613Y-57518079D01*
X122248557Y-57510227D01*
X122271166Y-57504563D01*
X122294221Y-57501144D01*
X122317500Y-57500000D01*
X122792500Y-57500000D01*
X122815779Y-57501144D01*
X122815779Y-57501144D01*
G37*
D12*
X122555000Y-58025000D03*
M02*
