G04 #@! TF.GenerationSoftware,KiCad,Pcbnew,(5.1.2-1)-1*
G04 #@! TF.CreationDate,2020-07-07T12:37:09+01:00*
G04 #@! TF.ProjectId,MZ80-80CLR,4d5a3830-2d38-4304-934c-522e6b696361,rev?*
G04 #@! TF.SameCoordinates,Original*
G04 #@! TF.FileFunction,Legend,Bot*
G04 #@! TF.FilePolarity,Positive*
%FSLAX46Y46*%
G04 Gerber Fmt 4.6, Leading zero omitted, Abs format (unit mm)*
G04 Created by KiCad (PCBNEW (5.1.2-1)-1) date 2020-07-07 12:37:09*
%MOMM*%
%LPD*%
G04 APERTURE LIST*
%ADD10C,0.120000*%
%ADD11C,0.150000*%
%ADD12C,0.100000*%
G04 APERTURE END LIST*
D10*
X70612000Y-132842000D02*
X70612000Y-33147000D01*
X141859000Y-132842000D02*
X70612000Y-132842000D01*
X141859000Y-62357000D02*
X141859000Y-132842000D01*
X133858000Y-62357000D02*
X141859000Y-62357000D01*
X133858000Y-33147000D02*
X133858000Y-62357000D01*
X70612000Y-33147000D02*
X133858000Y-33147000D01*
D11*
X105545380Y-117523285D02*
X104545380Y-117523285D01*
X105450142Y-118570904D02*
X105497761Y-118523285D01*
X105545380Y-118380428D01*
X105545380Y-118285190D01*
X105497761Y-118142333D01*
X105402523Y-118047095D01*
X105307285Y-117999476D01*
X105116809Y-117951857D01*
X104973952Y-117951857D01*
X104783476Y-117999476D01*
X104688238Y-118047095D01*
X104593000Y-118142333D01*
X104545380Y-118285190D01*
X104545380Y-118380428D01*
X104593000Y-118523285D01*
X104640619Y-118570904D01*
X104640619Y-118951857D02*
X104593000Y-118999476D01*
X104545380Y-119094714D01*
X104545380Y-119332809D01*
X104593000Y-119428047D01*
X104640619Y-119475666D01*
X104735857Y-119523285D01*
X104831095Y-119523285D01*
X104973952Y-119475666D01*
X105545380Y-118904238D01*
X105545380Y-119523285D01*
X104545380Y-120142333D02*
X104545380Y-120237571D01*
X104593000Y-120332809D01*
X104640619Y-120380428D01*
X104735857Y-120428047D01*
X104926333Y-120475666D01*
X105164428Y-120475666D01*
X105354904Y-120428047D01*
X105450142Y-120380428D01*
X105497761Y-120332809D01*
X105545380Y-120237571D01*
X105545380Y-120142333D01*
X105497761Y-120047095D01*
X105450142Y-119999476D01*
X105354904Y-119951857D01*
X105164428Y-119904238D01*
X104926333Y-119904238D01*
X104735857Y-119951857D01*
X104640619Y-119999476D01*
X104593000Y-120047095D01*
X104545380Y-120142333D01*
X105545380Y-121666142D02*
X104545380Y-121666142D01*
X105259666Y-121999476D01*
X104545380Y-122332809D01*
X105545380Y-122332809D01*
X105450142Y-123380428D02*
X105497761Y-123332809D01*
X105545380Y-123189952D01*
X105545380Y-123094714D01*
X105497761Y-122951857D01*
X105402523Y-122856619D01*
X105307285Y-122809000D01*
X105116809Y-122761380D01*
X104973952Y-122761380D01*
X104783476Y-122809000D01*
X104688238Y-122856619D01*
X104593000Y-122951857D01*
X104545380Y-123094714D01*
X104545380Y-123189952D01*
X104593000Y-123332809D01*
X104640619Y-123380428D01*
X105545380Y-124332809D02*
X105545380Y-123761380D01*
X105545380Y-124047095D02*
X104545380Y-124047095D01*
X104688238Y-123951857D01*
X104783476Y-123856619D01*
X104831095Y-123761380D01*
X104878714Y-125189952D02*
X105545380Y-125189952D01*
X104497761Y-124951857D02*
X105212047Y-124713761D01*
X105212047Y-125332809D01*
X104640619Y-125666142D02*
X104593000Y-125713761D01*
X104545380Y-125809000D01*
X104545380Y-126047095D01*
X104593000Y-126142333D01*
X104640619Y-126189952D01*
X104735857Y-126237571D01*
X104831095Y-126237571D01*
X104973952Y-126189952D01*
X105545380Y-125618523D01*
X105545380Y-126237571D01*
X105545380Y-126713761D02*
X105545380Y-126904238D01*
X105497761Y-126999476D01*
X105450142Y-127047095D01*
X105307285Y-127142333D01*
X105116809Y-127189952D01*
X104735857Y-127189952D01*
X104640619Y-127142333D01*
X104593000Y-127094714D01*
X104545380Y-126999476D01*
X104545380Y-126809000D01*
X104593000Y-126713761D01*
X104640619Y-126666142D01*
X104735857Y-126618523D01*
X104973952Y-126618523D01*
X105069190Y-126666142D01*
X105116809Y-126713761D01*
X105164428Y-126809000D01*
X105164428Y-126999476D01*
X105116809Y-127094714D01*
X105069190Y-127142333D01*
X104973952Y-127189952D01*
X104973952Y-127761380D02*
X104926333Y-127666142D01*
X104878714Y-127618523D01*
X104783476Y-127570904D01*
X104735857Y-127570904D01*
X104640619Y-127618523D01*
X104593000Y-127666142D01*
X104545380Y-127761380D01*
X104545380Y-127951857D01*
X104593000Y-128047095D01*
X104640619Y-128094714D01*
X104735857Y-128142333D01*
X104783476Y-128142333D01*
X104878714Y-128094714D01*
X104926333Y-128047095D01*
X104973952Y-127951857D01*
X104973952Y-127761380D01*
X105021571Y-127666142D01*
X105069190Y-127618523D01*
X105164428Y-127570904D01*
X105354904Y-127570904D01*
X105450142Y-127618523D01*
X105497761Y-127666142D01*
X105545380Y-127761380D01*
X105545380Y-127951857D01*
X105497761Y-128047095D01*
X105450142Y-128094714D01*
X105354904Y-128142333D01*
X105164428Y-128142333D01*
X105069190Y-128094714D01*
X105021571Y-128047095D01*
X104973952Y-127951857D01*
X106671571Y-120070904D02*
X106671571Y-120404238D01*
X107195380Y-120547095D02*
X107195380Y-120070904D01*
X106195380Y-120070904D01*
X106195380Y-120547095D01*
X106195380Y-120880428D02*
X107195380Y-121547095D01*
X106195380Y-121547095D02*
X107195380Y-120880428D01*
X106195380Y-121785190D02*
X106195380Y-122356619D01*
X107195380Y-122070904D02*
X106195380Y-122070904D01*
X106671571Y-122689952D02*
X106671571Y-123023285D01*
X107195380Y-123166142D02*
X107195380Y-122689952D01*
X106195380Y-122689952D01*
X106195380Y-123166142D01*
X107195380Y-123594714D02*
X106195380Y-123594714D01*
X107195380Y-124166142D01*
X106195380Y-124166142D01*
X107195380Y-124642333D02*
X106195380Y-124642333D01*
X106195380Y-124880428D01*
X106243000Y-125023285D01*
X106338238Y-125118523D01*
X106433476Y-125166142D01*
X106623952Y-125213761D01*
X106766809Y-125213761D01*
X106957285Y-125166142D01*
X107052523Y-125118523D01*
X107147761Y-125023285D01*
X107195380Y-124880428D01*
X107195380Y-124642333D01*
X106671571Y-125642333D02*
X106671571Y-125975666D01*
X107195380Y-126118523D02*
X107195380Y-125642333D01*
X106195380Y-125642333D01*
X106195380Y-126118523D01*
X107195380Y-127118523D02*
X106719190Y-126785190D01*
X107195380Y-126547095D02*
X106195380Y-126547095D01*
X106195380Y-126928047D01*
X106243000Y-127023285D01*
X106290619Y-127070904D01*
X106385857Y-127118523D01*
X106528714Y-127118523D01*
X106623952Y-127070904D01*
X106671571Y-127023285D01*
X106719190Y-126928047D01*
X106719190Y-126547095D01*
D10*
X127254000Y-40386000D02*
X127254000Y-34544000D01*
X83312000Y-40386000D02*
X127254000Y-40386000D01*
X83312000Y-34544000D02*
X83312000Y-40386000D01*
X127254000Y-34544000D02*
X83312000Y-34544000D01*
D11*
X82653142Y-36901523D02*
X82700761Y-36853904D01*
X82748380Y-36711047D01*
X82748380Y-36615809D01*
X82700761Y-36472952D01*
X82605523Y-36377714D01*
X82510285Y-36330095D01*
X82319809Y-36282476D01*
X82176952Y-36282476D01*
X81986476Y-36330095D01*
X81891238Y-36377714D01*
X81796000Y-36472952D01*
X81748380Y-36615809D01*
X81748380Y-36711047D01*
X81796000Y-36853904D01*
X81843619Y-36901523D01*
X82748380Y-37330095D02*
X81748380Y-37330095D01*
X82748380Y-37901523D01*
X81748380Y-37901523D01*
X82748380Y-38901523D02*
X82748380Y-38330095D01*
X82748380Y-38615809D02*
X81748380Y-38615809D01*
X81891238Y-38520571D01*
X81986476Y-38425333D01*
X82034095Y-38330095D01*
X89797380Y-77105333D02*
X88797380Y-77105333D01*
X89702142Y-78152952D02*
X89749761Y-78105333D01*
X89797380Y-77962476D01*
X89797380Y-77867238D01*
X89749761Y-77724380D01*
X89654523Y-77629142D01*
X89559285Y-77581523D01*
X89368809Y-77533904D01*
X89225952Y-77533904D01*
X89035476Y-77581523D01*
X88940238Y-77629142D01*
X88845000Y-77724380D01*
X88797380Y-77867238D01*
X88797380Y-77962476D01*
X88845000Y-78105333D01*
X88892619Y-78152952D01*
X89225952Y-78724380D02*
X89178333Y-78629142D01*
X89130714Y-78581523D01*
X89035476Y-78533904D01*
X88987857Y-78533904D01*
X88892619Y-78581523D01*
X88845000Y-78629142D01*
X88797380Y-78724380D01*
X88797380Y-78914857D01*
X88845000Y-79010095D01*
X88892619Y-79057714D01*
X88987857Y-79105333D01*
X89035476Y-79105333D01*
X89130714Y-79057714D01*
X89178333Y-79010095D01*
X89225952Y-78914857D01*
X89225952Y-78724380D01*
X89273571Y-78629142D01*
X89321190Y-78581523D01*
X89416428Y-78533904D01*
X89606904Y-78533904D01*
X89702142Y-78581523D01*
X89749761Y-78629142D01*
X89797380Y-78724380D01*
X89797380Y-78914857D01*
X89749761Y-79010095D01*
X89702142Y-79057714D01*
X89606904Y-79105333D01*
X89416428Y-79105333D01*
X89321190Y-79057714D01*
X89273571Y-79010095D01*
X89225952Y-78914857D01*
X89797380Y-80772000D02*
X89797380Y-80295809D01*
X88797380Y-80295809D01*
X89749761Y-81057714D02*
X89797380Y-81200571D01*
X89797380Y-81438666D01*
X89749761Y-81533904D01*
X89702142Y-81581523D01*
X89606904Y-81629142D01*
X89511666Y-81629142D01*
X89416428Y-81581523D01*
X89368809Y-81533904D01*
X89321190Y-81438666D01*
X89273571Y-81248190D01*
X89225952Y-81152952D01*
X89178333Y-81105333D01*
X89083095Y-81057714D01*
X88987857Y-81057714D01*
X88892619Y-81105333D01*
X88845000Y-81152952D01*
X88797380Y-81248190D01*
X88797380Y-81486285D01*
X88845000Y-81629142D01*
X89797380Y-82581523D02*
X89797380Y-82010095D01*
X89797380Y-82295809D02*
X88797380Y-82295809D01*
X88940238Y-82200571D01*
X89035476Y-82105333D01*
X89083095Y-82010095D01*
X88797380Y-83438666D02*
X88797380Y-83248190D01*
X88845000Y-83152952D01*
X88892619Y-83105333D01*
X89035476Y-83010095D01*
X89225952Y-82962476D01*
X89606904Y-82962476D01*
X89702142Y-83010095D01*
X89749761Y-83057714D01*
X89797380Y-83152952D01*
X89797380Y-83343428D01*
X89749761Y-83438666D01*
X89702142Y-83486285D01*
X89606904Y-83533904D01*
X89368809Y-83533904D01*
X89273571Y-83486285D01*
X89225952Y-83438666D01*
X89178333Y-83343428D01*
X89178333Y-83152952D01*
X89225952Y-83057714D01*
X89273571Y-83010095D01*
X89368809Y-82962476D01*
X88797380Y-84438666D02*
X88797380Y-83962476D01*
X89273571Y-83914857D01*
X89225952Y-83962476D01*
X89178333Y-84057714D01*
X89178333Y-84295809D01*
X89225952Y-84391047D01*
X89273571Y-84438666D01*
X89368809Y-84486285D01*
X89606904Y-84486285D01*
X89702142Y-84438666D01*
X89749761Y-84391047D01*
X89797380Y-84295809D01*
X89797380Y-84057714D01*
X89749761Y-83962476D01*
X89702142Y-83914857D01*
X90923571Y-77272000D02*
X90923571Y-77605333D01*
X91447380Y-77748190D02*
X91447380Y-77272000D01*
X90447380Y-77272000D01*
X90447380Y-77748190D01*
X90447380Y-78081523D02*
X91447380Y-78748190D01*
X90447380Y-78748190D02*
X91447380Y-78081523D01*
X90447380Y-78986285D02*
X90447380Y-79557714D01*
X91447380Y-79272000D02*
X90447380Y-79272000D01*
X90923571Y-79891047D02*
X90923571Y-80224380D01*
X91447380Y-80367238D02*
X91447380Y-79891047D01*
X90447380Y-79891047D01*
X90447380Y-80367238D01*
X91447380Y-80795809D02*
X90447380Y-80795809D01*
X91447380Y-81367238D01*
X90447380Y-81367238D01*
X91447380Y-81843428D02*
X90447380Y-81843428D01*
X90447380Y-82081523D01*
X90495000Y-82224380D01*
X90590238Y-82319619D01*
X90685476Y-82367238D01*
X90875952Y-82414857D01*
X91018809Y-82414857D01*
X91209285Y-82367238D01*
X91304523Y-82319619D01*
X91399761Y-82224380D01*
X91447380Y-82081523D01*
X91447380Y-81843428D01*
X90923571Y-82843428D02*
X90923571Y-83176761D01*
X91447380Y-83319619D02*
X91447380Y-82843428D01*
X90447380Y-82843428D01*
X90447380Y-83319619D01*
X91447380Y-84319619D02*
X90971190Y-83986285D01*
X91447380Y-83748190D02*
X90447380Y-83748190D01*
X90447380Y-84129142D01*
X90495000Y-84224380D01*
X90542619Y-84272000D01*
X90637857Y-84319619D01*
X90780714Y-84319619D01*
X90875952Y-84272000D01*
X90923571Y-84224380D01*
X90971190Y-84129142D01*
X90971190Y-83748190D01*
X134120380Y-95575904D02*
X133120380Y-95575904D01*
X134025142Y-96623523D02*
X134072761Y-96575904D01*
X134120380Y-96433047D01*
X134120380Y-96337809D01*
X134072761Y-96194952D01*
X133977523Y-96099714D01*
X133882285Y-96052095D01*
X133691809Y-96004476D01*
X133548952Y-96004476D01*
X133358476Y-96052095D01*
X133263238Y-96099714D01*
X133168000Y-96194952D01*
X133120380Y-96337809D01*
X133120380Y-96433047D01*
X133168000Y-96575904D01*
X133215619Y-96623523D01*
X134120380Y-97575904D02*
X134120380Y-97004476D01*
X134120380Y-97290190D02*
X133120380Y-97290190D01*
X133263238Y-97194952D01*
X133358476Y-97099714D01*
X133406095Y-97004476D01*
X133120380Y-98480666D02*
X133120380Y-98004476D01*
X133596571Y-97956857D01*
X133548952Y-98004476D01*
X133501333Y-98099714D01*
X133501333Y-98337809D01*
X133548952Y-98433047D01*
X133596571Y-98480666D01*
X133691809Y-98528285D01*
X133929904Y-98528285D01*
X134025142Y-98480666D01*
X134072761Y-98433047D01*
X134120380Y-98337809D01*
X134120380Y-98099714D01*
X134072761Y-98004476D01*
X134025142Y-97956857D01*
X133215619Y-99671142D02*
X133168000Y-99718761D01*
X133120380Y-99814000D01*
X133120380Y-100052095D01*
X133168000Y-100147333D01*
X133215619Y-100194952D01*
X133310857Y-100242571D01*
X133406095Y-100242571D01*
X133548952Y-100194952D01*
X134120380Y-99623523D01*
X134120380Y-100242571D01*
X133120380Y-100861619D02*
X133120380Y-100956857D01*
X133168000Y-101052095D01*
X133215619Y-101099714D01*
X133310857Y-101147333D01*
X133501333Y-101194952D01*
X133739428Y-101194952D01*
X133929904Y-101147333D01*
X134025142Y-101099714D01*
X134072761Y-101052095D01*
X134120380Y-100956857D01*
X134120380Y-100861619D01*
X134072761Y-100766380D01*
X134025142Y-100718761D01*
X133929904Y-100671142D01*
X133739428Y-100623523D01*
X133501333Y-100623523D01*
X133310857Y-100671142D01*
X133215619Y-100718761D01*
X133168000Y-100766380D01*
X133120380Y-100861619D01*
X134120380Y-102147333D02*
X134120380Y-101575904D01*
X134120380Y-101861619D02*
X133120380Y-101861619D01*
X133263238Y-101766380D01*
X133358476Y-101671142D01*
X133406095Y-101575904D01*
X133120380Y-103004476D02*
X133120380Y-102814000D01*
X133168000Y-102718761D01*
X133215619Y-102671142D01*
X133358476Y-102575904D01*
X133548952Y-102528285D01*
X133929904Y-102528285D01*
X134025142Y-102575904D01*
X134072761Y-102623523D01*
X134120380Y-102718761D01*
X134120380Y-102909238D01*
X134072761Y-103004476D01*
X134025142Y-103052095D01*
X133929904Y-103099714D01*
X133691809Y-103099714D01*
X133596571Y-103052095D01*
X133548952Y-103004476D01*
X133501333Y-102909238D01*
X133501333Y-102718761D01*
X133548952Y-102623523D01*
X133596571Y-102575904D01*
X133691809Y-102528285D01*
X135246571Y-95814000D02*
X135246571Y-96147333D01*
X135770380Y-96290190D02*
X135770380Y-95814000D01*
X134770380Y-95814000D01*
X134770380Y-96290190D01*
X134770380Y-96623523D02*
X135770380Y-97290190D01*
X134770380Y-97290190D02*
X135770380Y-96623523D01*
X134770380Y-97528285D02*
X134770380Y-98099714D01*
X135770380Y-97814000D02*
X134770380Y-97814000D01*
X135246571Y-98433047D02*
X135246571Y-98766380D01*
X135770380Y-98909238D02*
X135770380Y-98433047D01*
X134770380Y-98433047D01*
X134770380Y-98909238D01*
X135770380Y-99337809D02*
X134770380Y-99337809D01*
X135770380Y-99909238D01*
X134770380Y-99909238D01*
X135770380Y-100385428D02*
X134770380Y-100385428D01*
X134770380Y-100623523D01*
X134818000Y-100766380D01*
X134913238Y-100861619D01*
X135008476Y-100909238D01*
X135198952Y-100956857D01*
X135341809Y-100956857D01*
X135532285Y-100909238D01*
X135627523Y-100861619D01*
X135722761Y-100766380D01*
X135770380Y-100623523D01*
X135770380Y-100385428D01*
X135246571Y-101385428D02*
X135246571Y-101718761D01*
X135770380Y-101861619D02*
X135770380Y-101385428D01*
X134770380Y-101385428D01*
X134770380Y-101861619D01*
X135770380Y-102861619D02*
X135294190Y-102528285D01*
X135770380Y-102290190D02*
X134770380Y-102290190D01*
X134770380Y-102671142D01*
X134818000Y-102766380D01*
X134865619Y-102814000D01*
X134960857Y-102861619D01*
X135103714Y-102861619D01*
X135198952Y-102814000D01*
X135246571Y-102766380D01*
X135294190Y-102671142D01*
X135294190Y-102290190D01*
D10*
X94488000Y-86106000D02*
X94488000Y-75692000D01*
X73660000Y-86106000D02*
X94488000Y-86106000D01*
X73660000Y-75692000D02*
X73660000Y-86106000D01*
X94488000Y-75692000D02*
X73660000Y-75692000D01*
X139573000Y-108331000D02*
X139573000Y-90170000D01*
X108585000Y-108331000D02*
X139573000Y-108331000D01*
X108585000Y-90170000D02*
X108585000Y-108331000D01*
X139573000Y-90170000D02*
X108585000Y-90170000D01*
X110998000Y-131699000D02*
X110998000Y-113538000D01*
X74930000Y-131699000D02*
X110998000Y-131699000D01*
X74930000Y-113538000D02*
X74930000Y-131699000D01*
X110998000Y-113538000D02*
X74930000Y-113538000D01*
X113336000Y-79252578D02*
X113336000Y-78735422D01*
X114756000Y-79252578D02*
X114756000Y-78735422D01*
X116765000Y-79252578D02*
X116765000Y-78735422D01*
X118185000Y-79252578D02*
X118185000Y-78735422D01*
X121924578Y-72084000D02*
X121407422Y-72084000D01*
X121924578Y-70664000D02*
X121407422Y-70664000D01*
X108834422Y-77903000D02*
X109351578Y-77903000D01*
X108834422Y-79323000D02*
X109351578Y-79323000D01*
X121924578Y-75640000D02*
X121407422Y-75640000D01*
X121924578Y-74220000D02*
X121407422Y-74220000D01*
X109342422Y-72950000D02*
X109859578Y-72950000D01*
X109342422Y-74370000D02*
X109859578Y-74370000D01*
X107564422Y-67743000D02*
X108081578Y-67743000D01*
X107564422Y-69163000D02*
X108081578Y-69163000D01*
X114606000Y-63380252D02*
X114606000Y-62857748D01*
X116026000Y-63380252D02*
X116026000Y-62857748D01*
X80770000Y-66084267D02*
X80770000Y-65741733D01*
X81790000Y-66084267D02*
X81790000Y-65741733D01*
X81870733Y-61212000D02*
X82213267Y-61212000D01*
X81870733Y-62232000D02*
X82213267Y-62232000D01*
X82548000Y-66084267D02*
X82548000Y-65741733D01*
X83568000Y-66084267D02*
X83568000Y-65741733D01*
X88009000Y-66084267D02*
X88009000Y-65741733D01*
X89029000Y-66084267D02*
X89029000Y-65741733D01*
X81870733Y-57910000D02*
X82213267Y-57910000D01*
X81870733Y-58930000D02*
X82213267Y-58930000D01*
X91823000Y-55708733D02*
X91823000Y-56051267D01*
X90803000Y-55708733D02*
X90803000Y-56051267D01*
X93474000Y-55708733D02*
X93474000Y-56051267D01*
X92454000Y-55708733D02*
X92454000Y-56051267D01*
X92246267Y-59692000D02*
X91903733Y-59692000D01*
X92246267Y-58672000D02*
X91903733Y-58672000D01*
X86235000Y-55708733D02*
X86235000Y-56051267D01*
X85215000Y-55708733D02*
X85215000Y-56051267D01*
X89914000Y-66084267D02*
X89914000Y-65741733D01*
X90934000Y-66084267D02*
X90934000Y-65741733D01*
X92246267Y-63375000D02*
X91903733Y-63375000D01*
X92246267Y-62355000D02*
X91903733Y-62355000D01*
X81870733Y-54862000D02*
X82213267Y-54862000D01*
X81870733Y-55882000D02*
X82213267Y-55882000D01*
X110572733Y-76325000D02*
X110915267Y-76325000D01*
X110572733Y-77345000D02*
X110915267Y-77345000D01*
X119805267Y-67185000D02*
X119462733Y-67185000D01*
X119805267Y-66165000D02*
X119462733Y-66165000D01*
X119805267Y-69217000D02*
X119462733Y-69217000D01*
X119805267Y-68197000D02*
X119462733Y-68197000D01*
X109556733Y-70356000D02*
X109899267Y-70356000D01*
X109556733Y-71376000D02*
X109899267Y-71376000D01*
X114806000Y-66503733D02*
X114806000Y-66846267D01*
X115826000Y-66503733D02*
X115826000Y-66846267D01*
X109556733Y-66165000D02*
X109899267Y-66165000D01*
X109556733Y-67185000D02*
X109899267Y-67185000D01*
X119932267Y-77345000D02*
X119589733Y-77345000D01*
X119932267Y-76325000D02*
X119589733Y-76325000D01*
X108583000Y-58083267D02*
X108583000Y-57740733D01*
X109603000Y-58083267D02*
X109603000Y-57740733D01*
X107444000Y-87331733D02*
X107444000Y-87674267D01*
X106424000Y-87331733D02*
X106424000Y-87674267D01*
X122303000Y-87077733D02*
X122303000Y-87420267D01*
X121283000Y-87077733D02*
X121283000Y-87420267D01*
X122045000Y-58083267D02*
X122045000Y-57740733D01*
X123065000Y-58083267D02*
X123065000Y-57740733D01*
D12*
X112954571Y-78672571D02*
X112978380Y-78648761D01*
X113002190Y-78577333D01*
X113002190Y-78529714D01*
X112978380Y-78458285D01*
X112930761Y-78410666D01*
X112883142Y-78386857D01*
X112787904Y-78363047D01*
X112716476Y-78363047D01*
X112621238Y-78386857D01*
X112573619Y-78410666D01*
X112526000Y-78458285D01*
X112502190Y-78529714D01*
X112502190Y-78577333D01*
X112526000Y-78648761D01*
X112549809Y-78672571D01*
X112549809Y-78863047D02*
X112526000Y-78886857D01*
X112502190Y-78934476D01*
X112502190Y-79053523D01*
X112526000Y-79101142D01*
X112549809Y-79124952D01*
X112597428Y-79148761D01*
X112645047Y-79148761D01*
X112716476Y-79124952D01*
X113002190Y-78839238D01*
X113002190Y-79148761D01*
X112668857Y-79577333D02*
X113002190Y-79577333D01*
X112478380Y-79458285D02*
X112835523Y-79339238D01*
X112835523Y-79648761D01*
X116383571Y-78672571D02*
X116407380Y-78648761D01*
X116431190Y-78577333D01*
X116431190Y-78529714D01*
X116407380Y-78458285D01*
X116359761Y-78410666D01*
X116312142Y-78386857D01*
X116216904Y-78363047D01*
X116145476Y-78363047D01*
X116050238Y-78386857D01*
X116002619Y-78410666D01*
X115955000Y-78458285D01*
X115931190Y-78529714D01*
X115931190Y-78577333D01*
X115955000Y-78648761D01*
X115978809Y-78672571D01*
X115978809Y-78863047D02*
X115955000Y-78886857D01*
X115931190Y-78934476D01*
X115931190Y-79053523D01*
X115955000Y-79101142D01*
X115978809Y-79124952D01*
X116026428Y-79148761D01*
X116074047Y-79148761D01*
X116145476Y-79124952D01*
X116431190Y-78839238D01*
X116431190Y-79148761D01*
X115931190Y-79315428D02*
X115931190Y-79624952D01*
X116121666Y-79458285D01*
X116121666Y-79529714D01*
X116145476Y-79577333D01*
X116169285Y-79601142D01*
X116216904Y-79624952D01*
X116335952Y-79624952D01*
X116383571Y-79601142D01*
X116407380Y-79577333D01*
X116431190Y-79529714D01*
X116431190Y-79386857D01*
X116407380Y-79339238D01*
X116383571Y-79315428D01*
X119812571Y-70925571D02*
X119836380Y-70901761D01*
X119860190Y-70830333D01*
X119860190Y-70782714D01*
X119836380Y-70711285D01*
X119788761Y-70663666D01*
X119741142Y-70639857D01*
X119645904Y-70616047D01*
X119574476Y-70616047D01*
X119479238Y-70639857D01*
X119431619Y-70663666D01*
X119384000Y-70711285D01*
X119360190Y-70782714D01*
X119360190Y-70830333D01*
X119384000Y-70901761D01*
X119407809Y-70925571D01*
X119407809Y-71116047D02*
X119384000Y-71139857D01*
X119360190Y-71187476D01*
X119360190Y-71306523D01*
X119384000Y-71354142D01*
X119407809Y-71377952D01*
X119455428Y-71401761D01*
X119503047Y-71401761D01*
X119574476Y-71377952D01*
X119860190Y-71092238D01*
X119860190Y-71401761D01*
X119407809Y-71592238D02*
X119384000Y-71616047D01*
X119360190Y-71663666D01*
X119360190Y-71782714D01*
X119384000Y-71830333D01*
X119407809Y-71854142D01*
X119455428Y-71877952D01*
X119503047Y-71877952D01*
X119574476Y-71854142D01*
X119860190Y-71568428D01*
X119860190Y-71877952D01*
X107239571Y-78291571D02*
X107263380Y-78267761D01*
X107287190Y-78196333D01*
X107287190Y-78148714D01*
X107263380Y-78077285D01*
X107215761Y-78029666D01*
X107168142Y-78005857D01*
X107072904Y-77982047D01*
X107001476Y-77982047D01*
X106906238Y-78005857D01*
X106858619Y-78029666D01*
X106811000Y-78077285D01*
X106787190Y-78148714D01*
X106787190Y-78196333D01*
X106811000Y-78267761D01*
X106834809Y-78291571D01*
X106834809Y-78482047D02*
X106811000Y-78505857D01*
X106787190Y-78553476D01*
X106787190Y-78672523D01*
X106811000Y-78720142D01*
X106834809Y-78743952D01*
X106882428Y-78767761D01*
X106930047Y-78767761D01*
X107001476Y-78743952D01*
X107287190Y-78458238D01*
X107287190Y-78767761D01*
X107287190Y-79243952D02*
X107287190Y-78958238D01*
X107287190Y-79101095D02*
X106787190Y-79101095D01*
X106858619Y-79053476D01*
X106906238Y-79005857D01*
X106930047Y-78958238D01*
X119812571Y-74608571D02*
X119836380Y-74584761D01*
X119860190Y-74513333D01*
X119860190Y-74465714D01*
X119836380Y-74394285D01*
X119788761Y-74346666D01*
X119741142Y-74322857D01*
X119645904Y-74299047D01*
X119574476Y-74299047D01*
X119479238Y-74322857D01*
X119431619Y-74346666D01*
X119384000Y-74394285D01*
X119360190Y-74465714D01*
X119360190Y-74513333D01*
X119384000Y-74584761D01*
X119407809Y-74608571D01*
X119860190Y-75084761D02*
X119860190Y-74799047D01*
X119860190Y-74941904D02*
X119360190Y-74941904D01*
X119431619Y-74894285D01*
X119479238Y-74846666D01*
X119503047Y-74799047D01*
X119574476Y-75370476D02*
X119550666Y-75322857D01*
X119526857Y-75299047D01*
X119479238Y-75275238D01*
X119455428Y-75275238D01*
X119407809Y-75299047D01*
X119384000Y-75322857D01*
X119360190Y-75370476D01*
X119360190Y-75465714D01*
X119384000Y-75513333D01*
X119407809Y-75537142D01*
X119455428Y-75560952D01*
X119479238Y-75560952D01*
X119526857Y-75537142D01*
X119550666Y-75513333D01*
X119574476Y-75465714D01*
X119574476Y-75370476D01*
X119598285Y-75322857D01*
X119622095Y-75299047D01*
X119669714Y-75275238D01*
X119764952Y-75275238D01*
X119812571Y-75299047D01*
X119836380Y-75322857D01*
X119860190Y-75370476D01*
X119860190Y-75465714D01*
X119836380Y-75513333D01*
X119812571Y-75537142D01*
X119764952Y-75560952D01*
X119669714Y-75560952D01*
X119622095Y-75537142D01*
X119598285Y-75513333D01*
X119574476Y-75465714D01*
X107747571Y-73211571D02*
X107771380Y-73187761D01*
X107795190Y-73116333D01*
X107795190Y-73068714D01*
X107771380Y-72997285D01*
X107723761Y-72949666D01*
X107676142Y-72925857D01*
X107580904Y-72902047D01*
X107509476Y-72902047D01*
X107414238Y-72925857D01*
X107366619Y-72949666D01*
X107319000Y-72997285D01*
X107295190Y-73068714D01*
X107295190Y-73116333D01*
X107319000Y-73187761D01*
X107342809Y-73211571D01*
X107795190Y-73687761D02*
X107795190Y-73402047D01*
X107795190Y-73544904D02*
X107295190Y-73544904D01*
X107366619Y-73497285D01*
X107414238Y-73449666D01*
X107438047Y-73402047D01*
X107795190Y-73925857D02*
X107795190Y-74021095D01*
X107771380Y-74068714D01*
X107747571Y-74092523D01*
X107676142Y-74140142D01*
X107580904Y-74163952D01*
X107390428Y-74163952D01*
X107342809Y-74140142D01*
X107319000Y-74116333D01*
X107295190Y-74068714D01*
X107295190Y-73973476D01*
X107319000Y-73925857D01*
X107342809Y-73902047D01*
X107390428Y-73878238D01*
X107509476Y-73878238D01*
X107557095Y-73902047D01*
X107580904Y-73925857D01*
X107604714Y-73973476D01*
X107604714Y-74068714D01*
X107580904Y-74116333D01*
X107557095Y-74140142D01*
X107509476Y-74163952D01*
X105969571Y-68004571D02*
X105993380Y-67980761D01*
X106017190Y-67909333D01*
X106017190Y-67861714D01*
X105993380Y-67790285D01*
X105945761Y-67742666D01*
X105898142Y-67718857D01*
X105802904Y-67695047D01*
X105731476Y-67695047D01*
X105636238Y-67718857D01*
X105588619Y-67742666D01*
X105541000Y-67790285D01*
X105517190Y-67861714D01*
X105517190Y-67909333D01*
X105541000Y-67980761D01*
X105564809Y-68004571D01*
X106017190Y-68480761D02*
X106017190Y-68195047D01*
X106017190Y-68337904D02*
X105517190Y-68337904D01*
X105588619Y-68290285D01*
X105636238Y-68242666D01*
X105660047Y-68195047D01*
X105517190Y-68647428D02*
X105517190Y-68980761D01*
X106017190Y-68766476D01*
X114272190Y-63035666D02*
X114034095Y-62869000D01*
X114272190Y-62749952D02*
X113772190Y-62749952D01*
X113772190Y-62940428D01*
X113796000Y-62988047D01*
X113819809Y-63011857D01*
X113867428Y-63035666D01*
X113938857Y-63035666D01*
X113986476Y-63011857D01*
X114010285Y-62988047D01*
X114034095Y-62940428D01*
X114034095Y-62749952D01*
X113772190Y-63202333D02*
X113772190Y-63511857D01*
X113962666Y-63345190D01*
X113962666Y-63416619D01*
X113986476Y-63464238D01*
X114010285Y-63488047D01*
X114057904Y-63511857D01*
X114176952Y-63511857D01*
X114224571Y-63488047D01*
X114248380Y-63464238D01*
X114272190Y-63416619D01*
X114272190Y-63273761D01*
X114248380Y-63226142D01*
X114224571Y-63202333D01*
X80315571Y-65591571D02*
X80339380Y-65567761D01*
X80363190Y-65496333D01*
X80363190Y-65448714D01*
X80339380Y-65377285D01*
X80291761Y-65329666D01*
X80244142Y-65305857D01*
X80148904Y-65282047D01*
X80077476Y-65282047D01*
X79982238Y-65305857D01*
X79934619Y-65329666D01*
X79887000Y-65377285D01*
X79863190Y-65448714D01*
X79863190Y-65496333D01*
X79887000Y-65567761D01*
X79910809Y-65591571D01*
X79863190Y-65758238D02*
X79863190Y-66067761D01*
X80053666Y-65901095D01*
X80053666Y-65972523D01*
X80077476Y-66020142D01*
X80101285Y-66043952D01*
X80148904Y-66067761D01*
X80267952Y-66067761D01*
X80315571Y-66043952D01*
X80339380Y-66020142D01*
X80363190Y-65972523D01*
X80363190Y-65829666D01*
X80339380Y-65782047D01*
X80315571Y-65758238D01*
X79863190Y-66520142D02*
X79863190Y-66282047D01*
X80101285Y-66258238D01*
X80077476Y-66282047D01*
X80053666Y-66329666D01*
X80053666Y-66448714D01*
X80077476Y-66496333D01*
X80101285Y-66520142D01*
X80148904Y-66543952D01*
X80267952Y-66543952D01*
X80315571Y-66520142D01*
X80339380Y-66496333D01*
X80363190Y-66448714D01*
X80363190Y-66329666D01*
X80339380Y-66282047D01*
X80315571Y-66258238D01*
X80188571Y-61400571D02*
X80212380Y-61376761D01*
X80236190Y-61305333D01*
X80236190Y-61257714D01*
X80212380Y-61186285D01*
X80164761Y-61138666D01*
X80117142Y-61114857D01*
X80021904Y-61091047D01*
X79950476Y-61091047D01*
X79855238Y-61114857D01*
X79807619Y-61138666D01*
X79760000Y-61186285D01*
X79736190Y-61257714D01*
X79736190Y-61305333D01*
X79760000Y-61376761D01*
X79783809Y-61400571D01*
X79736190Y-61567238D02*
X79736190Y-61876761D01*
X79926666Y-61710095D01*
X79926666Y-61781523D01*
X79950476Y-61829142D01*
X79974285Y-61852952D01*
X80021904Y-61876761D01*
X80140952Y-61876761D01*
X80188571Y-61852952D01*
X80212380Y-61829142D01*
X80236190Y-61781523D01*
X80236190Y-61638666D01*
X80212380Y-61591047D01*
X80188571Y-61567238D01*
X79902857Y-62305333D02*
X80236190Y-62305333D01*
X79712380Y-62186285D02*
X80069523Y-62067238D01*
X80069523Y-62376761D01*
X82474571Y-65591571D02*
X82498380Y-65567761D01*
X82522190Y-65496333D01*
X82522190Y-65448714D01*
X82498380Y-65377285D01*
X82450761Y-65329666D01*
X82403142Y-65305857D01*
X82307904Y-65282047D01*
X82236476Y-65282047D01*
X82141238Y-65305857D01*
X82093619Y-65329666D01*
X82046000Y-65377285D01*
X82022190Y-65448714D01*
X82022190Y-65496333D01*
X82046000Y-65567761D01*
X82069809Y-65591571D01*
X82022190Y-65758238D02*
X82022190Y-66067761D01*
X82212666Y-65901095D01*
X82212666Y-65972523D01*
X82236476Y-66020142D01*
X82260285Y-66043952D01*
X82307904Y-66067761D01*
X82426952Y-66067761D01*
X82474571Y-66043952D01*
X82498380Y-66020142D01*
X82522190Y-65972523D01*
X82522190Y-65829666D01*
X82498380Y-65782047D01*
X82474571Y-65758238D01*
X82022190Y-66234428D02*
X82022190Y-66543952D01*
X82212666Y-66377285D01*
X82212666Y-66448714D01*
X82236476Y-66496333D01*
X82260285Y-66520142D01*
X82307904Y-66543952D01*
X82426952Y-66543952D01*
X82474571Y-66520142D01*
X82498380Y-66496333D01*
X82522190Y-66448714D01*
X82522190Y-66305857D01*
X82498380Y-66258238D01*
X82474571Y-66234428D01*
X87554571Y-65464571D02*
X87578380Y-65440761D01*
X87602190Y-65369333D01*
X87602190Y-65321714D01*
X87578380Y-65250285D01*
X87530761Y-65202666D01*
X87483142Y-65178857D01*
X87387904Y-65155047D01*
X87316476Y-65155047D01*
X87221238Y-65178857D01*
X87173619Y-65202666D01*
X87126000Y-65250285D01*
X87102190Y-65321714D01*
X87102190Y-65369333D01*
X87126000Y-65440761D01*
X87149809Y-65464571D01*
X87102190Y-65631238D02*
X87102190Y-65940761D01*
X87292666Y-65774095D01*
X87292666Y-65845523D01*
X87316476Y-65893142D01*
X87340285Y-65916952D01*
X87387904Y-65940761D01*
X87506952Y-65940761D01*
X87554571Y-65916952D01*
X87578380Y-65893142D01*
X87602190Y-65845523D01*
X87602190Y-65702666D01*
X87578380Y-65655047D01*
X87554571Y-65631238D01*
X87149809Y-66131238D02*
X87126000Y-66155047D01*
X87102190Y-66202666D01*
X87102190Y-66321714D01*
X87126000Y-66369333D01*
X87149809Y-66393142D01*
X87197428Y-66416952D01*
X87245047Y-66416952D01*
X87316476Y-66393142D01*
X87602190Y-66107428D01*
X87602190Y-66416952D01*
X80188571Y-58098571D02*
X80212380Y-58074761D01*
X80236190Y-58003333D01*
X80236190Y-57955714D01*
X80212380Y-57884285D01*
X80164761Y-57836666D01*
X80117142Y-57812857D01*
X80021904Y-57789047D01*
X79950476Y-57789047D01*
X79855238Y-57812857D01*
X79807619Y-57836666D01*
X79760000Y-57884285D01*
X79736190Y-57955714D01*
X79736190Y-58003333D01*
X79760000Y-58074761D01*
X79783809Y-58098571D01*
X79736190Y-58265238D02*
X79736190Y-58574761D01*
X79926666Y-58408095D01*
X79926666Y-58479523D01*
X79950476Y-58527142D01*
X79974285Y-58550952D01*
X80021904Y-58574761D01*
X80140952Y-58574761D01*
X80188571Y-58550952D01*
X80212380Y-58527142D01*
X80236190Y-58479523D01*
X80236190Y-58336666D01*
X80212380Y-58289047D01*
X80188571Y-58265238D01*
X80236190Y-59050952D02*
X80236190Y-58765238D01*
X80236190Y-58908095D02*
X79736190Y-58908095D01*
X79807619Y-58860476D01*
X79855238Y-58812857D01*
X79879047Y-58765238D01*
X90348571Y-55558571D02*
X90372380Y-55534761D01*
X90396190Y-55463333D01*
X90396190Y-55415714D01*
X90372380Y-55344285D01*
X90324761Y-55296666D01*
X90277142Y-55272857D01*
X90181904Y-55249047D01*
X90110476Y-55249047D01*
X90015238Y-55272857D01*
X89967619Y-55296666D01*
X89920000Y-55344285D01*
X89896190Y-55415714D01*
X89896190Y-55463333D01*
X89920000Y-55534761D01*
X89943809Y-55558571D01*
X89896190Y-55725238D02*
X89896190Y-56034761D01*
X90086666Y-55868095D01*
X90086666Y-55939523D01*
X90110476Y-55987142D01*
X90134285Y-56010952D01*
X90181904Y-56034761D01*
X90300952Y-56034761D01*
X90348571Y-56010952D01*
X90372380Y-55987142D01*
X90396190Y-55939523D01*
X90396190Y-55796666D01*
X90372380Y-55749047D01*
X90348571Y-55725238D01*
X89896190Y-56344285D02*
X89896190Y-56391904D01*
X89920000Y-56439523D01*
X89943809Y-56463333D01*
X89991428Y-56487142D01*
X90086666Y-56510952D01*
X90205714Y-56510952D01*
X90300952Y-56487142D01*
X90348571Y-56463333D01*
X90372380Y-56439523D01*
X90396190Y-56391904D01*
X90396190Y-56344285D01*
X90372380Y-56296666D01*
X90348571Y-56272857D01*
X90300952Y-56249047D01*
X90205714Y-56225238D01*
X90086666Y-56225238D01*
X89991428Y-56249047D01*
X89943809Y-56272857D01*
X89920000Y-56296666D01*
X89896190Y-56344285D01*
X92380571Y-55558571D02*
X92404380Y-55534761D01*
X92428190Y-55463333D01*
X92428190Y-55415714D01*
X92404380Y-55344285D01*
X92356761Y-55296666D01*
X92309142Y-55272857D01*
X92213904Y-55249047D01*
X92142476Y-55249047D01*
X92047238Y-55272857D01*
X91999619Y-55296666D01*
X91952000Y-55344285D01*
X91928190Y-55415714D01*
X91928190Y-55463333D01*
X91952000Y-55534761D01*
X91975809Y-55558571D01*
X91975809Y-55749047D02*
X91952000Y-55772857D01*
X91928190Y-55820476D01*
X91928190Y-55939523D01*
X91952000Y-55987142D01*
X91975809Y-56010952D01*
X92023428Y-56034761D01*
X92071047Y-56034761D01*
X92142476Y-56010952D01*
X92428190Y-55725238D01*
X92428190Y-56034761D01*
X92428190Y-56272857D02*
X92428190Y-56368095D01*
X92404380Y-56415714D01*
X92380571Y-56439523D01*
X92309142Y-56487142D01*
X92213904Y-56510952D01*
X92023428Y-56510952D01*
X91975809Y-56487142D01*
X91952000Y-56463333D01*
X91928190Y-56415714D01*
X91928190Y-56320476D01*
X91952000Y-56272857D01*
X91975809Y-56249047D01*
X92023428Y-56225238D01*
X92142476Y-56225238D01*
X92190095Y-56249047D01*
X92213904Y-56272857D01*
X92237714Y-56320476D01*
X92237714Y-56415714D01*
X92213904Y-56463333D01*
X92190095Y-56487142D01*
X92142476Y-56510952D01*
X90221571Y-58860571D02*
X90245380Y-58836761D01*
X90269190Y-58765333D01*
X90269190Y-58717714D01*
X90245380Y-58646285D01*
X90197761Y-58598666D01*
X90150142Y-58574857D01*
X90054904Y-58551047D01*
X89983476Y-58551047D01*
X89888238Y-58574857D01*
X89840619Y-58598666D01*
X89793000Y-58646285D01*
X89769190Y-58717714D01*
X89769190Y-58765333D01*
X89793000Y-58836761D01*
X89816809Y-58860571D01*
X89816809Y-59051047D02*
X89793000Y-59074857D01*
X89769190Y-59122476D01*
X89769190Y-59241523D01*
X89793000Y-59289142D01*
X89816809Y-59312952D01*
X89864428Y-59336761D01*
X89912047Y-59336761D01*
X89983476Y-59312952D01*
X90269190Y-59027238D01*
X90269190Y-59336761D01*
X89983476Y-59622476D02*
X89959666Y-59574857D01*
X89935857Y-59551047D01*
X89888238Y-59527238D01*
X89864428Y-59527238D01*
X89816809Y-59551047D01*
X89793000Y-59574857D01*
X89769190Y-59622476D01*
X89769190Y-59717714D01*
X89793000Y-59765333D01*
X89816809Y-59789142D01*
X89864428Y-59812952D01*
X89888238Y-59812952D01*
X89935857Y-59789142D01*
X89959666Y-59765333D01*
X89983476Y-59717714D01*
X89983476Y-59622476D01*
X90007285Y-59574857D01*
X90031095Y-59551047D01*
X90078714Y-59527238D01*
X90173952Y-59527238D01*
X90221571Y-59551047D01*
X90245380Y-59574857D01*
X90269190Y-59622476D01*
X90269190Y-59717714D01*
X90245380Y-59765333D01*
X90221571Y-59789142D01*
X90173952Y-59812952D01*
X90078714Y-59812952D01*
X90031095Y-59789142D01*
X90007285Y-59765333D01*
X89983476Y-59717714D01*
X84760571Y-55431571D02*
X84784380Y-55407761D01*
X84808190Y-55336333D01*
X84808190Y-55288714D01*
X84784380Y-55217285D01*
X84736761Y-55169666D01*
X84689142Y-55145857D01*
X84593904Y-55122047D01*
X84522476Y-55122047D01*
X84427238Y-55145857D01*
X84379619Y-55169666D01*
X84332000Y-55217285D01*
X84308190Y-55288714D01*
X84308190Y-55336333D01*
X84332000Y-55407761D01*
X84355809Y-55431571D01*
X84355809Y-55622047D02*
X84332000Y-55645857D01*
X84308190Y-55693476D01*
X84308190Y-55812523D01*
X84332000Y-55860142D01*
X84355809Y-55883952D01*
X84403428Y-55907761D01*
X84451047Y-55907761D01*
X84522476Y-55883952D01*
X84808190Y-55598238D01*
X84808190Y-55907761D01*
X84308190Y-56074428D02*
X84308190Y-56407761D01*
X84808190Y-56193476D01*
X89586571Y-65591571D02*
X89610380Y-65567761D01*
X89634190Y-65496333D01*
X89634190Y-65448714D01*
X89610380Y-65377285D01*
X89562761Y-65329666D01*
X89515142Y-65305857D01*
X89419904Y-65282047D01*
X89348476Y-65282047D01*
X89253238Y-65305857D01*
X89205619Y-65329666D01*
X89158000Y-65377285D01*
X89134190Y-65448714D01*
X89134190Y-65496333D01*
X89158000Y-65567761D01*
X89181809Y-65591571D01*
X89181809Y-65782047D02*
X89158000Y-65805857D01*
X89134190Y-65853476D01*
X89134190Y-65972523D01*
X89158000Y-66020142D01*
X89181809Y-66043952D01*
X89229428Y-66067761D01*
X89277047Y-66067761D01*
X89348476Y-66043952D01*
X89634190Y-65758238D01*
X89634190Y-66067761D01*
X89134190Y-66496333D02*
X89134190Y-66401095D01*
X89158000Y-66353476D01*
X89181809Y-66329666D01*
X89253238Y-66282047D01*
X89348476Y-66258238D01*
X89538952Y-66258238D01*
X89586571Y-66282047D01*
X89610380Y-66305857D01*
X89634190Y-66353476D01*
X89634190Y-66448714D01*
X89610380Y-66496333D01*
X89586571Y-66520142D01*
X89538952Y-66543952D01*
X89419904Y-66543952D01*
X89372285Y-66520142D01*
X89348476Y-66496333D01*
X89324666Y-66448714D01*
X89324666Y-66353476D01*
X89348476Y-66305857D01*
X89372285Y-66282047D01*
X89419904Y-66258238D01*
X90221571Y-62543571D02*
X90245380Y-62519761D01*
X90269190Y-62448333D01*
X90269190Y-62400714D01*
X90245380Y-62329285D01*
X90197761Y-62281666D01*
X90150142Y-62257857D01*
X90054904Y-62234047D01*
X89983476Y-62234047D01*
X89888238Y-62257857D01*
X89840619Y-62281666D01*
X89793000Y-62329285D01*
X89769190Y-62400714D01*
X89769190Y-62448333D01*
X89793000Y-62519761D01*
X89816809Y-62543571D01*
X89816809Y-62734047D02*
X89793000Y-62757857D01*
X89769190Y-62805476D01*
X89769190Y-62924523D01*
X89793000Y-62972142D01*
X89816809Y-62995952D01*
X89864428Y-63019761D01*
X89912047Y-63019761D01*
X89983476Y-62995952D01*
X90269190Y-62710238D01*
X90269190Y-63019761D01*
X89769190Y-63472142D02*
X89769190Y-63234047D01*
X90007285Y-63210238D01*
X89983476Y-63234047D01*
X89959666Y-63281666D01*
X89959666Y-63400714D01*
X89983476Y-63448333D01*
X90007285Y-63472142D01*
X90054904Y-63495952D01*
X90173952Y-63495952D01*
X90221571Y-63472142D01*
X90245380Y-63448333D01*
X90269190Y-63400714D01*
X90269190Y-63281666D01*
X90245380Y-63234047D01*
X90221571Y-63210238D01*
X80188571Y-55050571D02*
X80212380Y-55026761D01*
X80236190Y-54955333D01*
X80236190Y-54907714D01*
X80212380Y-54836285D01*
X80164761Y-54788666D01*
X80117142Y-54764857D01*
X80021904Y-54741047D01*
X79950476Y-54741047D01*
X79855238Y-54764857D01*
X79807619Y-54788666D01*
X79760000Y-54836285D01*
X79736190Y-54907714D01*
X79736190Y-54955333D01*
X79760000Y-55026761D01*
X79783809Y-55050571D01*
X79783809Y-55241047D02*
X79760000Y-55264857D01*
X79736190Y-55312476D01*
X79736190Y-55431523D01*
X79760000Y-55479142D01*
X79783809Y-55502952D01*
X79831428Y-55526761D01*
X79879047Y-55526761D01*
X79950476Y-55502952D01*
X80236190Y-55217238D01*
X80236190Y-55526761D01*
X79736190Y-55836285D02*
X79736190Y-55883904D01*
X79760000Y-55931523D01*
X79783809Y-55955333D01*
X79831428Y-55979142D01*
X79926666Y-56002952D01*
X80045714Y-56002952D01*
X80140952Y-55979142D01*
X80188571Y-55955333D01*
X80212380Y-55931523D01*
X80236190Y-55883904D01*
X80236190Y-55836285D01*
X80212380Y-55788666D01*
X80188571Y-55764857D01*
X80140952Y-55741047D01*
X80045714Y-55717238D01*
X79926666Y-55717238D01*
X79831428Y-55741047D01*
X79783809Y-55764857D01*
X79760000Y-55788666D01*
X79736190Y-55836285D01*
X108890571Y-76513571D02*
X108914380Y-76489761D01*
X108938190Y-76418333D01*
X108938190Y-76370714D01*
X108914380Y-76299285D01*
X108866761Y-76251666D01*
X108819142Y-76227857D01*
X108723904Y-76204047D01*
X108652476Y-76204047D01*
X108557238Y-76227857D01*
X108509619Y-76251666D01*
X108462000Y-76299285D01*
X108438190Y-76370714D01*
X108438190Y-76418333D01*
X108462000Y-76489761D01*
X108485809Y-76513571D01*
X108938190Y-76989761D02*
X108938190Y-76704047D01*
X108938190Y-76846904D02*
X108438190Y-76846904D01*
X108509619Y-76799285D01*
X108557238Y-76751666D01*
X108581047Y-76704047D01*
X108438190Y-77418333D02*
X108438190Y-77323095D01*
X108462000Y-77275476D01*
X108485809Y-77251666D01*
X108557238Y-77204047D01*
X108652476Y-77180238D01*
X108842952Y-77180238D01*
X108890571Y-77204047D01*
X108914380Y-77227857D01*
X108938190Y-77275476D01*
X108938190Y-77370714D01*
X108914380Y-77418333D01*
X108890571Y-77442142D01*
X108842952Y-77465952D01*
X108723904Y-77465952D01*
X108676285Y-77442142D01*
X108652476Y-77418333D01*
X108628666Y-77370714D01*
X108628666Y-77275476D01*
X108652476Y-77227857D01*
X108676285Y-77204047D01*
X108723904Y-77180238D01*
X117780571Y-66226571D02*
X117804380Y-66202761D01*
X117828190Y-66131333D01*
X117828190Y-66083714D01*
X117804380Y-66012285D01*
X117756761Y-65964666D01*
X117709142Y-65940857D01*
X117613904Y-65917047D01*
X117542476Y-65917047D01*
X117447238Y-65940857D01*
X117399619Y-65964666D01*
X117352000Y-66012285D01*
X117328190Y-66083714D01*
X117328190Y-66131333D01*
X117352000Y-66202761D01*
X117375809Y-66226571D01*
X117828190Y-66702761D02*
X117828190Y-66417047D01*
X117828190Y-66559904D02*
X117328190Y-66559904D01*
X117399619Y-66512285D01*
X117447238Y-66464666D01*
X117471047Y-66417047D01*
X117328190Y-67155142D02*
X117328190Y-66917047D01*
X117566285Y-66893238D01*
X117542476Y-66917047D01*
X117518666Y-66964666D01*
X117518666Y-67083714D01*
X117542476Y-67131333D01*
X117566285Y-67155142D01*
X117613904Y-67178952D01*
X117732952Y-67178952D01*
X117780571Y-67155142D01*
X117804380Y-67131333D01*
X117828190Y-67083714D01*
X117828190Y-66964666D01*
X117804380Y-66917047D01*
X117780571Y-66893238D01*
X117780571Y-68258571D02*
X117804380Y-68234761D01*
X117828190Y-68163333D01*
X117828190Y-68115714D01*
X117804380Y-68044285D01*
X117756761Y-67996666D01*
X117709142Y-67972857D01*
X117613904Y-67949047D01*
X117542476Y-67949047D01*
X117447238Y-67972857D01*
X117399619Y-67996666D01*
X117352000Y-68044285D01*
X117328190Y-68115714D01*
X117328190Y-68163333D01*
X117352000Y-68234761D01*
X117375809Y-68258571D01*
X117828190Y-68734761D02*
X117828190Y-68449047D01*
X117828190Y-68591904D02*
X117328190Y-68591904D01*
X117399619Y-68544285D01*
X117447238Y-68496666D01*
X117471047Y-68449047D01*
X117494857Y-69163333D02*
X117828190Y-69163333D01*
X117304380Y-69044285D02*
X117661523Y-68925238D01*
X117661523Y-69234761D01*
X107874571Y-70544571D02*
X107898380Y-70520761D01*
X107922190Y-70449333D01*
X107922190Y-70401714D01*
X107898380Y-70330285D01*
X107850761Y-70282666D01*
X107803142Y-70258857D01*
X107707904Y-70235047D01*
X107636476Y-70235047D01*
X107541238Y-70258857D01*
X107493619Y-70282666D01*
X107446000Y-70330285D01*
X107422190Y-70401714D01*
X107422190Y-70449333D01*
X107446000Y-70520761D01*
X107469809Y-70544571D01*
X107922190Y-71020761D02*
X107922190Y-70735047D01*
X107922190Y-70877904D02*
X107422190Y-70877904D01*
X107493619Y-70830285D01*
X107541238Y-70782666D01*
X107565047Y-70735047D01*
X107422190Y-71187428D02*
X107422190Y-71496952D01*
X107612666Y-71330285D01*
X107612666Y-71401714D01*
X107636476Y-71449333D01*
X107660285Y-71473142D01*
X107707904Y-71496952D01*
X107826952Y-71496952D01*
X107874571Y-71473142D01*
X107898380Y-71449333D01*
X107922190Y-71401714D01*
X107922190Y-71258857D01*
X107898380Y-71211238D01*
X107874571Y-71187428D01*
X114351571Y-66226571D02*
X114375380Y-66202761D01*
X114399190Y-66131333D01*
X114399190Y-66083714D01*
X114375380Y-66012285D01*
X114327761Y-65964666D01*
X114280142Y-65940857D01*
X114184904Y-65917047D01*
X114113476Y-65917047D01*
X114018238Y-65940857D01*
X113970619Y-65964666D01*
X113923000Y-66012285D01*
X113899190Y-66083714D01*
X113899190Y-66131333D01*
X113923000Y-66202761D01*
X113946809Y-66226571D01*
X114399190Y-66702761D02*
X114399190Y-66417047D01*
X114399190Y-66559904D02*
X113899190Y-66559904D01*
X113970619Y-66512285D01*
X114018238Y-66464666D01*
X114042047Y-66417047D01*
X113946809Y-66893238D02*
X113923000Y-66917047D01*
X113899190Y-66964666D01*
X113899190Y-67083714D01*
X113923000Y-67131333D01*
X113946809Y-67155142D01*
X113994428Y-67178952D01*
X114042047Y-67178952D01*
X114113476Y-67155142D01*
X114399190Y-66869428D01*
X114399190Y-67178952D01*
X107874571Y-66353571D02*
X107898380Y-66329761D01*
X107922190Y-66258333D01*
X107922190Y-66210714D01*
X107898380Y-66139285D01*
X107850761Y-66091666D01*
X107803142Y-66067857D01*
X107707904Y-66044047D01*
X107636476Y-66044047D01*
X107541238Y-66067857D01*
X107493619Y-66091666D01*
X107446000Y-66139285D01*
X107422190Y-66210714D01*
X107422190Y-66258333D01*
X107446000Y-66329761D01*
X107469809Y-66353571D01*
X107922190Y-66829761D02*
X107922190Y-66544047D01*
X107922190Y-66686904D02*
X107422190Y-66686904D01*
X107493619Y-66639285D01*
X107541238Y-66591666D01*
X107565047Y-66544047D01*
X107922190Y-67305952D02*
X107922190Y-67020238D01*
X107922190Y-67163095D02*
X107422190Y-67163095D01*
X107493619Y-67115476D01*
X107541238Y-67067857D01*
X107565047Y-67020238D01*
X117907571Y-76751666D02*
X117931380Y-76727857D01*
X117955190Y-76656428D01*
X117955190Y-76608809D01*
X117931380Y-76537380D01*
X117883761Y-76489761D01*
X117836142Y-76465952D01*
X117740904Y-76442142D01*
X117669476Y-76442142D01*
X117574238Y-76465952D01*
X117526619Y-76489761D01*
X117479000Y-76537380D01*
X117455190Y-76608809D01*
X117455190Y-76656428D01*
X117479000Y-76727857D01*
X117502809Y-76751666D01*
X117955190Y-76989761D02*
X117955190Y-77085000D01*
X117931380Y-77132619D01*
X117907571Y-77156428D01*
X117836142Y-77204047D01*
X117740904Y-77227857D01*
X117550428Y-77227857D01*
X117502809Y-77204047D01*
X117479000Y-77180238D01*
X117455190Y-77132619D01*
X117455190Y-77037380D01*
X117479000Y-76989761D01*
X117502809Y-76965952D01*
X117550428Y-76942142D01*
X117669476Y-76942142D01*
X117717095Y-76965952D01*
X117740904Y-76989761D01*
X117764714Y-77037380D01*
X117764714Y-77132619D01*
X117740904Y-77180238D01*
X117717095Y-77204047D01*
X117669476Y-77227857D01*
X108255571Y-57828666D02*
X108279380Y-57804857D01*
X108303190Y-57733428D01*
X108303190Y-57685809D01*
X108279380Y-57614380D01*
X108231761Y-57566761D01*
X108184142Y-57542952D01*
X108088904Y-57519142D01*
X108017476Y-57519142D01*
X107922238Y-57542952D01*
X107874619Y-57566761D01*
X107827000Y-57614380D01*
X107803190Y-57685809D01*
X107803190Y-57733428D01*
X107827000Y-57804857D01*
X107850809Y-57828666D01*
X108017476Y-58114380D02*
X107993666Y-58066761D01*
X107969857Y-58042952D01*
X107922238Y-58019142D01*
X107898428Y-58019142D01*
X107850809Y-58042952D01*
X107827000Y-58066761D01*
X107803190Y-58114380D01*
X107803190Y-58209619D01*
X107827000Y-58257238D01*
X107850809Y-58281047D01*
X107898428Y-58304857D01*
X107922238Y-58304857D01*
X107969857Y-58281047D01*
X107993666Y-58257238D01*
X108017476Y-58209619D01*
X108017476Y-58114380D01*
X108041285Y-58066761D01*
X108065095Y-58042952D01*
X108112714Y-58019142D01*
X108207952Y-58019142D01*
X108255571Y-58042952D01*
X108279380Y-58066761D01*
X108303190Y-58114380D01*
X108303190Y-58209619D01*
X108279380Y-58257238D01*
X108255571Y-58281047D01*
X108207952Y-58304857D01*
X108112714Y-58304857D01*
X108065095Y-58281047D01*
X108041285Y-58257238D01*
X108017476Y-58209619D01*
X106096571Y-87419666D02*
X106120380Y-87395857D01*
X106144190Y-87324428D01*
X106144190Y-87276809D01*
X106120380Y-87205380D01*
X106072761Y-87157761D01*
X106025142Y-87133952D01*
X105929904Y-87110142D01*
X105858476Y-87110142D01*
X105763238Y-87133952D01*
X105715619Y-87157761D01*
X105668000Y-87205380D01*
X105644190Y-87276809D01*
X105644190Y-87324428D01*
X105668000Y-87395857D01*
X105691809Y-87419666D01*
X105644190Y-87586333D02*
X105644190Y-87919666D01*
X106144190Y-87705380D01*
X120955571Y-87165666D02*
X120979380Y-87141857D01*
X121003190Y-87070428D01*
X121003190Y-87022809D01*
X120979380Y-86951380D01*
X120931761Y-86903761D01*
X120884142Y-86879952D01*
X120788904Y-86856142D01*
X120717476Y-86856142D01*
X120622238Y-86879952D01*
X120574619Y-86903761D01*
X120527000Y-86951380D01*
X120503190Y-87022809D01*
X120503190Y-87070428D01*
X120527000Y-87141857D01*
X120550809Y-87165666D01*
X120503190Y-87594238D02*
X120503190Y-87499000D01*
X120527000Y-87451380D01*
X120550809Y-87427571D01*
X120622238Y-87379952D01*
X120717476Y-87356142D01*
X120907952Y-87356142D01*
X120955571Y-87379952D01*
X120979380Y-87403761D01*
X121003190Y-87451380D01*
X121003190Y-87546619D01*
X120979380Y-87594238D01*
X120955571Y-87618047D01*
X120907952Y-87641857D01*
X120788904Y-87641857D01*
X120741285Y-87618047D01*
X120717476Y-87594238D01*
X120693666Y-87546619D01*
X120693666Y-87451380D01*
X120717476Y-87403761D01*
X120741285Y-87379952D01*
X120788904Y-87356142D01*
X121717571Y-57828666D02*
X121741380Y-57804857D01*
X121765190Y-57733428D01*
X121765190Y-57685809D01*
X121741380Y-57614380D01*
X121693761Y-57566761D01*
X121646142Y-57542952D01*
X121550904Y-57519142D01*
X121479476Y-57519142D01*
X121384238Y-57542952D01*
X121336619Y-57566761D01*
X121289000Y-57614380D01*
X121265190Y-57685809D01*
X121265190Y-57733428D01*
X121289000Y-57804857D01*
X121312809Y-57828666D01*
X121265190Y-58281047D02*
X121265190Y-58042952D01*
X121503285Y-58019142D01*
X121479476Y-58042952D01*
X121455666Y-58090571D01*
X121455666Y-58209619D01*
X121479476Y-58257238D01*
X121503285Y-58281047D01*
X121550904Y-58304857D01*
X121669952Y-58304857D01*
X121717571Y-58281047D01*
X121741380Y-58257238D01*
X121765190Y-58209619D01*
X121765190Y-58090571D01*
X121741380Y-58042952D01*
X121717571Y-58019142D01*
M02*
