G04 #@! TF.GenerationSoftware,KiCad,Pcbnew,(5.1.2-1)-1*
G04 #@! TF.CreationDate,2020-07-07T12:37:09+01:00*
G04 #@! TF.ProjectId,MZ80-80CLR,4d5a3830-2d38-4304-934c-522e6b696361,rev?*
G04 #@! TF.SameCoordinates,Original*
G04 #@! TF.FileFunction,Other,Fab,Top*
%FSLAX46Y46*%
G04 Gerber Fmt 4.6, Leading zero omitted, Abs format (unit mm)*
G04 Created by KiCad (PCBNEW (5.1.2-1)-1) date 2020-07-07 12:37:09*
%MOMM*%
%LPD*%
G04 APERTURE LIST*
%ADD10C,0.100000*%
%ADD11C,0.150000*%
G04 APERTURE END LIST*
D10*
X123797714Y-126873000D02*
G75*
G03X123797714Y-126873000I-1750714J0D01*
G01*
X119047000Y-123873000D02*
X119047000Y-129873000D01*
X125047000Y-123873000D02*
X119047000Y-123873000D01*
X125047000Y-129873000D02*
X125047000Y-123873000D01*
X119047000Y-129873000D02*
X125047000Y-129873000D01*
X128274000Y-98487000D02*
X128274000Y-99887000D01*
X131314000Y-99887000D02*
X128274000Y-99887000D01*
X130744000Y-98487000D02*
X131314000Y-99037000D01*
X131314000Y-99037000D02*
X131314000Y-99887000D01*
X130744000Y-98487000D02*
X128294000Y-98487000D01*
X107315000Y-45212000D02*
X106680000Y-44577000D01*
X132080000Y-45212000D02*
X107315000Y-45212000D01*
X132080000Y-42672000D02*
X132080000Y-45212000D01*
X106680000Y-42672000D02*
X132080000Y-42672000D01*
X106680000Y-44577000D02*
X106680000Y-42672000D01*
X120650000Y-52959000D02*
X119380000Y-51689000D01*
X132080000Y-52959000D02*
X120650000Y-52959000D01*
X132080000Y-47879000D02*
X132080000Y-52959000D01*
X119380000Y-47879000D02*
X132080000Y-47879000D01*
X119380000Y-51689000D02*
X119380000Y-47879000D01*
X84963000Y-40005000D02*
X83693000Y-38735000D01*
X126873000Y-40005000D02*
X84963000Y-40005000D01*
X126873000Y-34925000D02*
X126873000Y-40005000D01*
X83693000Y-34925000D02*
X126873000Y-34925000D01*
X83693000Y-38735000D02*
X83693000Y-34925000D01*
X107950000Y-52959000D02*
X106680000Y-51689000D01*
X114300000Y-52959000D02*
X107950000Y-52959000D01*
X114300000Y-47879000D02*
X114300000Y-52959000D01*
X106680000Y-47879000D02*
X114300000Y-47879000D01*
X106680000Y-51689000D02*
X106680000Y-47879000D01*
X104804000Y-81014500D02*
X104804000Y-62014500D01*
X104804000Y-62014500D02*
X124804000Y-62014500D01*
X124804000Y-62014500D02*
X124804000Y-82014500D01*
X124804000Y-82014500D02*
X105804000Y-82014500D01*
X105804000Y-82014500D02*
X104804000Y-81014500D01*
X77051000Y-102978000D02*
X78651000Y-102978000D01*
X77051000Y-103778000D02*
X77051000Y-102978000D01*
X78651000Y-103778000D02*
X77051000Y-103778000D01*
X78651000Y-102978000D02*
X78651000Y-103778000D01*
X74501000Y-94162000D02*
X81201000Y-94162000D01*
X81201000Y-97862000D02*
X81201000Y-94162000D01*
X74501000Y-96862000D02*
X74501000Y-94162000D01*
X75501000Y-97862000D02*
X81201000Y-97862000D01*
X75501000Y-97862000D02*
X74501000Y-96862000D01*
X76210000Y-130015000D02*
X75210000Y-129015000D01*
X78630000Y-70960000D02*
X77630000Y-69960000D01*
X97630000Y-70960000D02*
X78630000Y-70960000D01*
X97630000Y-50960000D02*
X97630000Y-70960000D01*
X77630000Y-50960000D02*
X97630000Y-50960000D01*
X77630000Y-69960000D02*
X77630000Y-50960000D01*
X118979000Y-85368000D02*
X118979000Y-88368000D01*
X118979000Y-88368000D02*
X118879000Y-88468000D01*
X118879000Y-88468000D02*
X116579000Y-88468000D01*
X116579000Y-88468000D02*
X116479000Y-88368000D01*
X116479000Y-88368000D02*
X116479000Y-85368000D01*
X116479000Y-85368000D02*
X116579000Y-85268000D01*
X116579000Y-85268000D02*
X118879000Y-85268000D01*
X118879000Y-85268000D02*
X118979000Y-85368000D01*
X117479000Y-85268000D02*
X116479000Y-86268000D01*
X75037000Y-36092000D02*
X75037000Y-39092000D01*
X75037000Y-39092000D02*
X74937000Y-39192000D01*
X74937000Y-39192000D02*
X72637000Y-39192000D01*
X72637000Y-39192000D02*
X72537000Y-39092000D01*
X72537000Y-39092000D02*
X72537000Y-36092000D01*
X72537000Y-36092000D02*
X72637000Y-35992000D01*
X72637000Y-35992000D02*
X74937000Y-35992000D01*
X74937000Y-35992000D02*
X75037000Y-36092000D01*
X73537000Y-35992000D02*
X72537000Y-36992000D01*
X111047000Y-100756000D02*
X110072000Y-99781000D01*
X114972000Y-100756000D02*
X111047000Y-100756000D01*
X114972000Y-96856000D02*
X114972000Y-100756000D01*
X110072000Y-96856000D02*
X114972000Y-96856000D01*
X110072000Y-99781000D02*
X110072000Y-96856000D01*
X136541000Y-67726000D02*
X138541000Y-67726000D01*
X136541000Y-68926000D02*
X136541000Y-67726000D01*
X138541000Y-68926000D02*
X136541000Y-68926000D01*
X138541000Y-67726000D02*
X138541000Y-68926000D01*
X123282000Y-98187000D02*
X123282000Y-100187000D01*
X122082000Y-98187000D02*
X123282000Y-98187000D01*
X122082000Y-100187000D02*
X122082000Y-98187000D01*
X123282000Y-100187000D02*
X122082000Y-100187000D01*
X126146000Y-100187000D02*
X126146000Y-98187000D01*
X127346000Y-100187000D02*
X126146000Y-100187000D01*
X127346000Y-98187000D02*
X127346000Y-100187000D01*
X126146000Y-98187000D02*
X127346000Y-98187000D01*
X121250000Y-98187000D02*
X121250000Y-100187000D01*
X120050000Y-98187000D02*
X121250000Y-98187000D01*
X120050000Y-100187000D02*
X120050000Y-98187000D01*
X121250000Y-100187000D02*
X120050000Y-100187000D01*
X125314000Y-98187000D02*
X125314000Y-100187000D01*
X124114000Y-98187000D02*
X125314000Y-98187000D01*
X124114000Y-100187000D02*
X124114000Y-98187000D01*
X125314000Y-100187000D02*
X124114000Y-100187000D01*
X135474000Y-98187000D02*
X135474000Y-100187000D01*
X134274000Y-98187000D02*
X135474000Y-98187000D01*
X134274000Y-100187000D02*
X134274000Y-98187000D01*
X135474000Y-100187000D02*
X134274000Y-100187000D01*
X137506000Y-98187000D02*
X137506000Y-100187000D01*
X136306000Y-98187000D02*
X137506000Y-98187000D01*
X136306000Y-100187000D02*
X136306000Y-98187000D01*
X137506000Y-100187000D02*
X136306000Y-100187000D01*
X133442000Y-98187000D02*
X133442000Y-100187000D01*
X132242000Y-98187000D02*
X133442000Y-98187000D01*
X132242000Y-100187000D02*
X132242000Y-98187000D01*
X133442000Y-100187000D02*
X132242000Y-100187000D01*
X136541000Y-71790000D02*
X138541000Y-71790000D01*
X136541000Y-72990000D02*
X136541000Y-71790000D01*
X138541000Y-72990000D02*
X136541000Y-72990000D01*
X138541000Y-71790000D02*
X138541000Y-72990000D01*
X136541000Y-69758000D02*
X138541000Y-69758000D01*
X136541000Y-70958000D02*
X136541000Y-69758000D01*
X138541000Y-70958000D02*
X136541000Y-70958000D01*
X138541000Y-69758000D02*
X138541000Y-70958000D01*
X136541000Y-88046000D02*
X138541000Y-88046000D01*
X136541000Y-89246000D02*
X136541000Y-88046000D01*
X138541000Y-89246000D02*
X136541000Y-89246000D01*
X138541000Y-88046000D02*
X138541000Y-89246000D01*
X136541000Y-86014000D02*
X138541000Y-86014000D01*
X136541000Y-87214000D02*
X136541000Y-86014000D01*
X138541000Y-87214000D02*
X136541000Y-87214000D01*
X138541000Y-86014000D02*
X138541000Y-87214000D01*
X136541000Y-83982000D02*
X138541000Y-83982000D01*
X136541000Y-85182000D02*
X136541000Y-83982000D01*
X138541000Y-85182000D02*
X136541000Y-85182000D01*
X138541000Y-83982000D02*
X138541000Y-85182000D01*
X136541000Y-81950000D02*
X138541000Y-81950000D01*
X136541000Y-83150000D02*
X136541000Y-81950000D01*
X138541000Y-83150000D02*
X136541000Y-83150000D01*
X138541000Y-81950000D02*
X138541000Y-83150000D01*
X136541000Y-79918000D02*
X138541000Y-79918000D01*
X136541000Y-81118000D02*
X136541000Y-79918000D01*
X138541000Y-81118000D02*
X136541000Y-81118000D01*
X138541000Y-79918000D02*
X138541000Y-81118000D01*
X136541000Y-77886000D02*
X138541000Y-77886000D01*
X136541000Y-79086000D02*
X136541000Y-77886000D01*
X138541000Y-79086000D02*
X136541000Y-79086000D01*
X138541000Y-77886000D02*
X138541000Y-79086000D01*
X136541000Y-75854000D02*
X138541000Y-75854000D01*
X136541000Y-77054000D02*
X136541000Y-75854000D01*
X138541000Y-77054000D02*
X136541000Y-77054000D01*
X138541000Y-75854000D02*
X138541000Y-77054000D01*
X136541000Y-73822000D02*
X138541000Y-73822000D01*
X136541000Y-75022000D02*
X136541000Y-73822000D01*
X138541000Y-75022000D02*
X136541000Y-75022000D01*
X138541000Y-73822000D02*
X138541000Y-75022000D01*
X131588000Y-88046000D02*
X133588000Y-88046000D01*
X131588000Y-89246000D02*
X131588000Y-88046000D01*
X133588000Y-89246000D02*
X131588000Y-89246000D01*
X133588000Y-88046000D02*
X133588000Y-89246000D01*
X131588000Y-86014000D02*
X133588000Y-86014000D01*
X131588000Y-87214000D02*
X131588000Y-86014000D01*
X133588000Y-87214000D02*
X131588000Y-87214000D01*
X133588000Y-86014000D02*
X133588000Y-87214000D01*
X131588000Y-83982000D02*
X133588000Y-83982000D01*
X131588000Y-85182000D02*
X131588000Y-83982000D01*
X133588000Y-85182000D02*
X131588000Y-85182000D01*
X133588000Y-83982000D02*
X133588000Y-85182000D01*
X131588000Y-81950000D02*
X133588000Y-81950000D01*
X131588000Y-83150000D02*
X131588000Y-81950000D01*
X133588000Y-83150000D02*
X131588000Y-83150000D01*
X133588000Y-81950000D02*
X133588000Y-83150000D01*
X98441000Y-50003000D02*
X98441000Y-48803000D01*
X98441000Y-48803000D02*
X100441000Y-48803000D01*
X100441000Y-48803000D02*
X100441000Y-50003000D01*
X100441000Y-50003000D02*
X98441000Y-50003000D01*
X117129000Y-49419000D02*
X118329000Y-49419000D01*
X118329000Y-49419000D02*
X118329000Y-51419000D01*
X118329000Y-51419000D02*
X117129000Y-51419000D01*
X117129000Y-51419000D02*
X117129000Y-49419000D01*
X119218000Y-98178000D02*
X119218000Y-100178000D01*
X118018000Y-98178000D02*
X119218000Y-98178000D01*
X118018000Y-100178000D02*
X118018000Y-98178000D01*
X119218000Y-100178000D02*
X118018000Y-100178000D01*
X117186000Y-98187000D02*
X117186000Y-100187000D01*
X115986000Y-98187000D02*
X117186000Y-98187000D01*
X115986000Y-100187000D02*
X115986000Y-98187000D01*
X117186000Y-100187000D02*
X115986000Y-100187000D01*
X132064000Y-39997000D02*
X131564000Y-40497000D01*
X132064000Y-34497000D02*
X132064000Y-39997000D01*
X130064000Y-34497000D02*
X132064000Y-34497000D01*
X130064000Y-40497000D02*
X130064000Y-34497000D01*
X131564000Y-40497000D02*
X130064000Y-40497000D01*
X74314000Y-121882000D02*
X74314000Y-123482000D01*
X73514000Y-121882000D02*
X74314000Y-121882000D01*
X73514000Y-123482000D02*
X73514000Y-121882000D01*
X74314000Y-123482000D02*
X73514000Y-123482000D01*
X114338000Y-103778000D02*
X112738000Y-103778000D01*
X114338000Y-102978000D02*
X114338000Y-103778000D01*
X112738000Y-102978000D02*
X114338000Y-102978000D01*
X112738000Y-103778000D02*
X112738000Y-102978000D01*
X119869000Y-86449000D02*
X120669000Y-86449000D01*
X120669000Y-86449000D02*
X120669000Y-88049000D01*
X120669000Y-88049000D02*
X119869000Y-88049000D01*
X119869000Y-88049000D02*
X119869000Y-86449000D01*
X74587000Y-34271000D02*
X74587000Y-35071000D01*
X74587000Y-35071000D02*
X72987000Y-35071000D01*
X72987000Y-35071000D02*
X72987000Y-34271000D01*
X72987000Y-34271000D02*
X74587000Y-34271000D01*
X92281000Y-94289000D02*
X98981000Y-94289000D01*
X98981000Y-97989000D02*
X98981000Y-94289000D01*
X92281000Y-96989000D02*
X92281000Y-94289000D01*
X93281000Y-97989000D02*
X98981000Y-97989000D01*
X93281000Y-97989000D02*
X92281000Y-96989000D01*
X83518000Y-94289000D02*
X90218000Y-94289000D01*
X90218000Y-97989000D02*
X90218000Y-94289000D01*
X83518000Y-96989000D02*
X83518000Y-94289000D01*
X84518000Y-97989000D02*
X90218000Y-97989000D01*
X84518000Y-97989000D02*
X83518000Y-96989000D01*
X93942000Y-101073000D02*
X95542000Y-101073000D01*
X93942000Y-101873000D02*
X93942000Y-101073000D01*
X95542000Y-101873000D02*
X93942000Y-101873000D01*
X95542000Y-101073000D02*
X95542000Y-101873000D01*
X73368000Y-90151000D02*
X74968000Y-90151000D01*
X73368000Y-90951000D02*
X73368000Y-90151000D01*
X74968000Y-90951000D02*
X73368000Y-90951000D01*
X74968000Y-90151000D02*
X74968000Y-90951000D01*
X84925000Y-100946000D02*
X86525000Y-100946000D01*
X84925000Y-101746000D02*
X84925000Y-100946000D01*
X86525000Y-101746000D02*
X84925000Y-101746000D01*
X86525000Y-100946000D02*
X86525000Y-101746000D01*
X77051000Y-101327000D02*
X78651000Y-101327000D01*
X77051000Y-102127000D02*
X77051000Y-101327000D01*
X78651000Y-102127000D02*
X77051000Y-102127000D01*
X78651000Y-101327000D02*
X78651000Y-102127000D01*
D11*
X118401761Y-128206333D02*
X118449380Y-128063476D01*
X118449380Y-127825380D01*
X118401761Y-127730142D01*
X118354142Y-127682523D01*
X118258904Y-127634904D01*
X118163666Y-127634904D01*
X118068428Y-127682523D01*
X118020809Y-127730142D01*
X117973190Y-127825380D01*
X117925571Y-128015857D01*
X117877952Y-128111095D01*
X117830333Y-128158714D01*
X117735095Y-128206333D01*
X117639857Y-128206333D01*
X117544619Y-128158714D01*
X117497000Y-128111095D01*
X117449380Y-128015857D01*
X117449380Y-127777761D01*
X117497000Y-127634904D01*
X117449380Y-127301571D02*
X118449380Y-127063476D01*
X117735095Y-126873000D01*
X118449380Y-126682523D01*
X117449380Y-126444428D01*
X118449380Y-125539666D02*
X118449380Y-126111095D01*
X118449380Y-125825380D02*
X117449380Y-125825380D01*
X117592238Y-125920619D01*
X117687476Y-126015857D01*
X117735095Y-126111095D01*
X125396666Y-49871380D02*
X125396666Y-50585666D01*
X125349047Y-50728523D01*
X125253809Y-50823761D01*
X125110952Y-50871380D01*
X125015714Y-50871380D01*
X125777619Y-49871380D02*
X126396666Y-49871380D01*
X126063333Y-50252333D01*
X126206190Y-50252333D01*
X126301428Y-50299952D01*
X126349047Y-50347571D01*
X126396666Y-50442809D01*
X126396666Y-50680904D01*
X126349047Y-50776142D01*
X126301428Y-50823761D01*
X126206190Y-50871380D01*
X125920476Y-50871380D01*
X125825238Y-50823761D01*
X125777619Y-50776142D01*
X114256380Y-72776404D02*
X115065904Y-72776404D01*
X115161142Y-72728785D01*
X115208761Y-72681166D01*
X115256380Y-72585928D01*
X115256380Y-72395452D01*
X115208761Y-72300214D01*
X115161142Y-72252595D01*
X115065904Y-72204976D01*
X114256380Y-72204976D01*
X114256380Y-71824023D02*
X114256380Y-71204976D01*
X114637333Y-71538309D01*
X114637333Y-71395452D01*
X114684952Y-71300214D01*
X114732571Y-71252595D01*
X114827809Y-71204976D01*
X115065904Y-71204976D01*
X115161142Y-71252595D01*
X115208761Y-71300214D01*
X115256380Y-71395452D01*
X115256380Y-71681166D01*
X115208761Y-71776404D01*
X115161142Y-71824023D01*
X87082380Y-61721904D02*
X87891904Y-61721904D01*
X87987142Y-61674285D01*
X88034761Y-61626666D01*
X88082380Y-61531428D01*
X88082380Y-61340952D01*
X88034761Y-61245714D01*
X87987142Y-61198095D01*
X87891904Y-61150476D01*
X87082380Y-61150476D01*
X87082380Y-60198095D02*
X87082380Y-60674285D01*
X87558571Y-60721904D01*
X87510952Y-60674285D01*
X87463333Y-60579047D01*
X87463333Y-60340952D01*
X87510952Y-60245714D01*
X87558571Y-60198095D01*
X87653809Y-60150476D01*
X87891904Y-60150476D01*
X87987142Y-60198095D01*
X88034761Y-60245714D01*
X88082380Y-60340952D01*
X88082380Y-60579047D01*
X88034761Y-60674285D01*
X87987142Y-60721904D01*
X130516380Y-38330333D02*
X131230666Y-38330333D01*
X131373523Y-38377952D01*
X131468761Y-38473190D01*
X131516380Y-38616047D01*
X131516380Y-38711285D01*
X131516380Y-37854142D02*
X130516380Y-37854142D01*
X130516380Y-37473190D01*
X130564000Y-37377952D01*
X130611619Y-37330333D01*
X130706857Y-37282714D01*
X130849714Y-37282714D01*
X130944952Y-37330333D01*
X130992571Y-37377952D01*
X131040190Y-37473190D01*
X131040190Y-37854142D01*
X131516380Y-36330333D02*
X131516380Y-36901761D01*
X131516380Y-36616047D02*
X130516380Y-36616047D01*
X130659238Y-36711285D01*
X130754476Y-36806523D01*
X130802095Y-36901761D01*
M02*
