G04 #@! TF.GenerationSoftware,KiCad,Pcbnew,(5.1.2-1)-1*
G04 #@! TF.CreationDate,2020-07-07T12:37:09+01:00*
G04 #@! TF.ProjectId,MZ80-80CLR,4d5a3830-2d38-4304-934c-522e6b696361,rev?*
G04 #@! TF.SameCoordinates,Original*
G04 #@! TF.FileFunction,Other,Fab,Bot*
%FSLAX46Y46*%
G04 Gerber Fmt 4.6, Leading zero omitted, Abs format (unit mm)*
G04 Created by KiCad (PCBNEW (5.1.2-1)-1) date 2020-07-07 12:37:09*
%MOMM*%
%LPD*%
G04 APERTURE LIST*
%ADD10C,0.100000*%
G04 APERTURE END LIST*
D10*
X113446000Y-77994000D02*
X113446000Y-79994000D01*
X114646000Y-77994000D02*
X113446000Y-77994000D01*
X114646000Y-79994000D02*
X114646000Y-77994000D01*
X113446000Y-79994000D02*
X114646000Y-79994000D01*
X116875000Y-77994000D02*
X116875000Y-79994000D01*
X118075000Y-77994000D02*
X116875000Y-77994000D01*
X118075000Y-79994000D02*
X118075000Y-77994000D01*
X116875000Y-79994000D02*
X118075000Y-79994000D01*
X120666000Y-71974000D02*
X122666000Y-71974000D01*
X120666000Y-70774000D02*
X120666000Y-71974000D01*
X122666000Y-70774000D02*
X120666000Y-70774000D01*
X122666000Y-71974000D02*
X122666000Y-70774000D01*
X110093000Y-78013000D02*
X108093000Y-78013000D01*
X110093000Y-79213000D02*
X110093000Y-78013000D01*
X108093000Y-79213000D02*
X110093000Y-79213000D01*
X108093000Y-78013000D02*
X108093000Y-79213000D01*
X120666000Y-75530000D02*
X122666000Y-75530000D01*
X120666000Y-74330000D02*
X120666000Y-75530000D01*
X122666000Y-74330000D02*
X120666000Y-74330000D01*
X122666000Y-75530000D02*
X122666000Y-74330000D01*
X110601000Y-73060000D02*
X108601000Y-73060000D01*
X110601000Y-74260000D02*
X110601000Y-73060000D01*
X108601000Y-74260000D02*
X110601000Y-74260000D01*
X108601000Y-73060000D02*
X108601000Y-74260000D01*
X108823000Y-67853000D02*
X106823000Y-67853000D01*
X108823000Y-69053000D02*
X108823000Y-67853000D01*
X106823000Y-69053000D02*
X108823000Y-69053000D01*
X106823000Y-67853000D02*
X106823000Y-69053000D01*
X114716000Y-62119000D02*
X114716000Y-64119000D01*
X115916000Y-62119000D02*
X114716000Y-62119000D01*
X115916000Y-64119000D02*
X115916000Y-62119000D01*
X114716000Y-64119000D02*
X115916000Y-64119000D01*
X80880000Y-65113000D02*
X80880000Y-66713000D01*
X81680000Y-65113000D02*
X80880000Y-65113000D01*
X81680000Y-66713000D02*
X81680000Y-65113000D01*
X80880000Y-66713000D02*
X81680000Y-66713000D01*
X82842000Y-61322000D02*
X81242000Y-61322000D01*
X82842000Y-62122000D02*
X82842000Y-61322000D01*
X81242000Y-62122000D02*
X82842000Y-62122000D01*
X81242000Y-61322000D02*
X81242000Y-62122000D01*
X82658000Y-65113000D02*
X82658000Y-66713000D01*
X83458000Y-65113000D02*
X82658000Y-65113000D01*
X83458000Y-66713000D02*
X83458000Y-65113000D01*
X82658000Y-66713000D02*
X83458000Y-66713000D01*
X88119000Y-65113000D02*
X88119000Y-66713000D01*
X88919000Y-65113000D02*
X88119000Y-65113000D01*
X88919000Y-66713000D02*
X88919000Y-65113000D01*
X88119000Y-66713000D02*
X88919000Y-66713000D01*
X82842000Y-58020000D02*
X81242000Y-58020000D01*
X82842000Y-58820000D02*
X82842000Y-58020000D01*
X81242000Y-58820000D02*
X82842000Y-58820000D01*
X81242000Y-58020000D02*
X81242000Y-58820000D01*
X91713000Y-56680000D02*
X91713000Y-55080000D01*
X90913000Y-56680000D02*
X91713000Y-56680000D01*
X90913000Y-55080000D02*
X90913000Y-56680000D01*
X91713000Y-55080000D02*
X90913000Y-55080000D01*
X93364000Y-56680000D02*
X93364000Y-55080000D01*
X92564000Y-56680000D02*
X93364000Y-56680000D01*
X92564000Y-55080000D02*
X92564000Y-56680000D01*
X93364000Y-55080000D02*
X92564000Y-55080000D01*
X91275000Y-59582000D02*
X92875000Y-59582000D01*
X91275000Y-58782000D02*
X91275000Y-59582000D01*
X92875000Y-58782000D02*
X91275000Y-58782000D01*
X92875000Y-59582000D02*
X92875000Y-58782000D01*
X86125000Y-56680000D02*
X86125000Y-55080000D01*
X85325000Y-56680000D02*
X86125000Y-56680000D01*
X85325000Y-55080000D02*
X85325000Y-56680000D01*
X86125000Y-55080000D02*
X85325000Y-55080000D01*
X90024000Y-65113000D02*
X90024000Y-66713000D01*
X90824000Y-65113000D02*
X90024000Y-65113000D01*
X90824000Y-66713000D02*
X90824000Y-65113000D01*
X90024000Y-66713000D02*
X90824000Y-66713000D01*
X91275000Y-63265000D02*
X92875000Y-63265000D01*
X91275000Y-62465000D02*
X91275000Y-63265000D01*
X92875000Y-62465000D02*
X91275000Y-62465000D01*
X92875000Y-63265000D02*
X92875000Y-62465000D01*
X82842000Y-54972000D02*
X81242000Y-54972000D01*
X82842000Y-55772000D02*
X82842000Y-54972000D01*
X81242000Y-55772000D02*
X82842000Y-55772000D01*
X81242000Y-54972000D02*
X81242000Y-55772000D01*
X111544000Y-76435000D02*
X109944000Y-76435000D01*
X111544000Y-77235000D02*
X111544000Y-76435000D01*
X109944000Y-77235000D02*
X111544000Y-77235000D01*
X109944000Y-76435000D02*
X109944000Y-77235000D01*
X118834000Y-67075000D02*
X120434000Y-67075000D01*
X118834000Y-66275000D02*
X118834000Y-67075000D01*
X120434000Y-66275000D02*
X118834000Y-66275000D01*
X120434000Y-67075000D02*
X120434000Y-66275000D01*
X118834000Y-69107000D02*
X120434000Y-69107000D01*
X118834000Y-68307000D02*
X118834000Y-69107000D01*
X120434000Y-68307000D02*
X118834000Y-68307000D01*
X120434000Y-69107000D02*
X120434000Y-68307000D01*
X110528000Y-70466000D02*
X108928000Y-70466000D01*
X110528000Y-71266000D02*
X110528000Y-70466000D01*
X108928000Y-71266000D02*
X110528000Y-71266000D01*
X108928000Y-70466000D02*
X108928000Y-71266000D01*
X115716000Y-65875000D02*
X114916000Y-65875000D01*
X114916000Y-65875000D02*
X114916000Y-67475000D01*
X114916000Y-67475000D02*
X115716000Y-67475000D01*
X115716000Y-67475000D02*
X115716000Y-65875000D01*
X110528000Y-66275000D02*
X108928000Y-66275000D01*
X110528000Y-67075000D02*
X110528000Y-66275000D01*
X108928000Y-67075000D02*
X110528000Y-67075000D01*
X108928000Y-66275000D02*
X108928000Y-67075000D01*
X118961000Y-77235000D02*
X120561000Y-77235000D01*
X118961000Y-76435000D02*
X118961000Y-77235000D01*
X120561000Y-76435000D02*
X118961000Y-76435000D01*
X120561000Y-77235000D02*
X120561000Y-76435000D01*
X108693000Y-57112000D02*
X108693000Y-58712000D01*
X109493000Y-57112000D02*
X108693000Y-57112000D01*
X109493000Y-58712000D02*
X109493000Y-57112000D01*
X108693000Y-58712000D02*
X109493000Y-58712000D01*
X107334000Y-88303000D02*
X107334000Y-86703000D01*
X106534000Y-88303000D02*
X107334000Y-88303000D01*
X106534000Y-86703000D02*
X106534000Y-88303000D01*
X107334000Y-86703000D02*
X106534000Y-86703000D01*
X122193000Y-88049000D02*
X122193000Y-86449000D01*
X121393000Y-88049000D02*
X122193000Y-88049000D01*
X121393000Y-86449000D02*
X121393000Y-88049000D01*
X122193000Y-86449000D02*
X121393000Y-86449000D01*
X122155000Y-57112000D02*
X122155000Y-58712000D01*
X122955000Y-57112000D02*
X122155000Y-57112000D01*
X122955000Y-58712000D02*
X122955000Y-57112000D01*
X122155000Y-58712000D02*
X122955000Y-58712000D01*
M02*
