G04 #@! TF.GenerationSoftware,KiCad,Pcbnew,(5.1.2-1)-1*
G04 #@! TF.CreationDate,2020-07-07T12:37:09+01:00*
G04 #@! TF.ProjectId,MZ80-80CLR,4d5a3830-2d38-4304-934c-522e6b696361,rev?*
G04 #@! TF.SameCoordinates,Original*
G04 #@! TF.FileFunction,Other,User*
%FSLAX46Y46*%
G04 Gerber Fmt 4.6, Leading zero omitted, Abs format (unit mm)*
G04 Created by KiCad (PCBNEW (5.1.2-1)-1) date 2020-07-07 12:37:09*
%MOMM*%
%LPD*%
G04 APERTURE LIST*
%ADD10C,0.050000*%
G04 APERTURE END LIST*
D10*
X113096000Y-77314000D02*
X113096000Y-80674000D01*
X114996000Y-77314000D02*
X113096000Y-77314000D01*
X114996000Y-80674000D02*
X114996000Y-77314000D01*
X113096000Y-80674000D02*
X114996000Y-80674000D01*
X116525000Y-77314000D02*
X116525000Y-80674000D01*
X118425000Y-77314000D02*
X116525000Y-77314000D01*
X118425000Y-80674000D02*
X118425000Y-77314000D01*
X116525000Y-80674000D02*
X118425000Y-80674000D01*
X119986000Y-72324000D02*
X123346000Y-72324000D01*
X119986000Y-70424000D02*
X119986000Y-72324000D01*
X123346000Y-70424000D02*
X119986000Y-70424000D01*
X123346000Y-72324000D02*
X123346000Y-70424000D01*
X110773000Y-77663000D02*
X107413000Y-77663000D01*
X110773000Y-79563000D02*
X110773000Y-77663000D01*
X107413000Y-79563000D02*
X110773000Y-79563000D01*
X107413000Y-77663000D02*
X107413000Y-79563000D01*
X119986000Y-75880000D02*
X123346000Y-75880000D01*
X119986000Y-73980000D02*
X119986000Y-75880000D01*
X123346000Y-73980000D02*
X119986000Y-73980000D01*
X123346000Y-75880000D02*
X123346000Y-73980000D01*
X111281000Y-72710000D02*
X107921000Y-72710000D01*
X111281000Y-74610000D02*
X111281000Y-72710000D01*
X107921000Y-74610000D02*
X111281000Y-74610000D01*
X107921000Y-72710000D02*
X107921000Y-74610000D01*
X109503000Y-67503000D02*
X106143000Y-67503000D01*
X109503000Y-69403000D02*
X109503000Y-67503000D01*
X106143000Y-69403000D02*
X109503000Y-69403000D01*
X106143000Y-67503000D02*
X106143000Y-69403000D01*
X114366000Y-61269000D02*
X114366000Y-64969000D01*
X116266000Y-61269000D02*
X114366000Y-61269000D01*
X116266000Y-64969000D02*
X116266000Y-61269000D01*
X114366000Y-64969000D02*
X116266000Y-64969000D01*
X80550000Y-64263000D02*
X80550000Y-67563000D01*
X82010000Y-64263000D02*
X80550000Y-64263000D01*
X82010000Y-67563000D02*
X82010000Y-64263000D01*
X80550000Y-67563000D02*
X82010000Y-67563000D01*
X83692000Y-60992000D02*
X80392000Y-60992000D01*
X83692000Y-62452000D02*
X83692000Y-60992000D01*
X80392000Y-62452000D02*
X83692000Y-62452000D01*
X80392000Y-60992000D02*
X80392000Y-62452000D01*
X82328000Y-64263000D02*
X82328000Y-67563000D01*
X83788000Y-64263000D02*
X82328000Y-64263000D01*
X83788000Y-67563000D02*
X83788000Y-64263000D01*
X82328000Y-67563000D02*
X83788000Y-67563000D01*
X87789000Y-64263000D02*
X87789000Y-67563000D01*
X89249000Y-64263000D02*
X87789000Y-64263000D01*
X89249000Y-67563000D02*
X89249000Y-64263000D01*
X87789000Y-67563000D02*
X89249000Y-67563000D01*
X83692000Y-57690000D02*
X80392000Y-57690000D01*
X83692000Y-59150000D02*
X83692000Y-57690000D01*
X80392000Y-59150000D02*
X83692000Y-59150000D01*
X80392000Y-57690000D02*
X80392000Y-59150000D01*
X92043000Y-57530000D02*
X92043000Y-54230000D01*
X90583000Y-57530000D02*
X92043000Y-57530000D01*
X90583000Y-54230000D02*
X90583000Y-57530000D01*
X92043000Y-54230000D02*
X90583000Y-54230000D01*
X93694000Y-57530000D02*
X93694000Y-54230000D01*
X92234000Y-57530000D02*
X93694000Y-57530000D01*
X92234000Y-54230000D02*
X92234000Y-57530000D01*
X93694000Y-54230000D02*
X92234000Y-54230000D01*
X90425000Y-59912000D02*
X93725000Y-59912000D01*
X90425000Y-58452000D02*
X90425000Y-59912000D01*
X93725000Y-58452000D02*
X90425000Y-58452000D01*
X93725000Y-59912000D02*
X93725000Y-58452000D01*
X86455000Y-57530000D02*
X86455000Y-54230000D01*
X84995000Y-57530000D02*
X86455000Y-57530000D01*
X84995000Y-54230000D02*
X84995000Y-57530000D01*
X86455000Y-54230000D02*
X84995000Y-54230000D01*
X89694000Y-64263000D02*
X89694000Y-67563000D01*
X91154000Y-64263000D02*
X89694000Y-64263000D01*
X91154000Y-67563000D02*
X91154000Y-64263000D01*
X89694000Y-67563000D02*
X91154000Y-67563000D01*
X90425000Y-63595000D02*
X93725000Y-63595000D01*
X90425000Y-62135000D02*
X90425000Y-63595000D01*
X93725000Y-62135000D02*
X90425000Y-62135000D01*
X93725000Y-63595000D02*
X93725000Y-62135000D01*
X83692000Y-54642000D02*
X80392000Y-54642000D01*
X83692000Y-56102000D02*
X83692000Y-54642000D01*
X80392000Y-56102000D02*
X83692000Y-56102000D01*
X80392000Y-54642000D02*
X80392000Y-56102000D01*
X112394000Y-76105000D02*
X109094000Y-76105000D01*
X112394000Y-77565000D02*
X112394000Y-76105000D01*
X109094000Y-77565000D02*
X112394000Y-77565000D01*
X109094000Y-76105000D02*
X109094000Y-77565000D01*
X117984000Y-67405000D02*
X121284000Y-67405000D01*
X117984000Y-65945000D02*
X117984000Y-67405000D01*
X121284000Y-65945000D02*
X117984000Y-65945000D01*
X121284000Y-67405000D02*
X121284000Y-65945000D01*
X117984000Y-69437000D02*
X121284000Y-69437000D01*
X117984000Y-67977000D02*
X117984000Y-69437000D01*
X121284000Y-67977000D02*
X117984000Y-67977000D01*
X121284000Y-69437000D02*
X121284000Y-67977000D01*
X111378000Y-70136000D02*
X108078000Y-70136000D01*
X111378000Y-71596000D02*
X111378000Y-70136000D01*
X108078000Y-71596000D02*
X111378000Y-71596000D01*
X108078000Y-70136000D02*
X108078000Y-71596000D01*
X116046000Y-65025000D02*
X114586000Y-65025000D01*
X114586000Y-65025000D02*
X114586000Y-68325000D01*
X114586000Y-68325000D02*
X116046000Y-68325000D01*
X116046000Y-68325000D02*
X116046000Y-65025000D01*
X111378000Y-65945000D02*
X108078000Y-65945000D01*
X111378000Y-67405000D02*
X111378000Y-65945000D01*
X108078000Y-67405000D02*
X111378000Y-67405000D01*
X108078000Y-65945000D02*
X108078000Y-67405000D01*
X118111000Y-77565000D02*
X121411000Y-77565000D01*
X118111000Y-76105000D02*
X118111000Y-77565000D01*
X121411000Y-76105000D02*
X118111000Y-76105000D01*
X121411000Y-77565000D02*
X121411000Y-76105000D01*
X108363000Y-56262000D02*
X108363000Y-59562000D01*
X109823000Y-56262000D02*
X108363000Y-56262000D01*
X109823000Y-59562000D02*
X109823000Y-56262000D01*
X108363000Y-59562000D02*
X109823000Y-59562000D01*
X107664000Y-89153000D02*
X107664000Y-85853000D01*
X106204000Y-89153000D02*
X107664000Y-89153000D01*
X106204000Y-85853000D02*
X106204000Y-89153000D01*
X107664000Y-85853000D02*
X106204000Y-85853000D01*
X122523000Y-88899000D02*
X122523000Y-85599000D01*
X121063000Y-88899000D02*
X122523000Y-88899000D01*
X121063000Y-85599000D02*
X121063000Y-88899000D01*
X122523000Y-85599000D02*
X121063000Y-85599000D01*
X121825000Y-56262000D02*
X121825000Y-59562000D01*
X123285000Y-56262000D02*
X121825000Y-56262000D01*
X123285000Y-59562000D02*
X123285000Y-56262000D01*
X121825000Y-59562000D02*
X123285000Y-59562000D01*
M02*
