G04 #@! TF.GenerationSoftware,KiCad,Pcbnew,(5.1.2-1)-1*
G04 #@! TF.CreationDate,2020-07-07T12:37:09+01:00*
G04 #@! TF.ProjectId,MZ80-80CLR,4d5a3830-2d38-4304-934c-522e6b696361,rev?*
G04 #@! TF.SameCoordinates,Original*
G04 #@! TF.FileFunction,Paste,Bot*
G04 #@! TF.FilePolarity,Positive*
%FSLAX46Y46*%
G04 Gerber Fmt 4.6, Leading zero omitted, Abs format (unit mm)*
G04 Created by KiCad (PCBNEW (5.1.2-1)-1) date 2020-07-07 12:37:09*
%MOMM*%
%LPD*%
G04 APERTURE LIST*
%ADD10C,0.100000*%
%ADD11C,0.975000*%
%ADD12C,1.150000*%
%ADD13C,0.950000*%
G04 APERTURE END LIST*
D10*
G36*
X114526142Y-77570174D02*
G01*
X114549803Y-77573684D01*
X114573007Y-77579496D01*
X114595529Y-77587554D01*
X114617153Y-77597782D01*
X114637670Y-77610079D01*
X114656883Y-77624329D01*
X114674607Y-77640393D01*
X114690671Y-77658117D01*
X114704921Y-77677330D01*
X114717218Y-77697847D01*
X114727446Y-77719471D01*
X114735504Y-77741993D01*
X114741316Y-77765197D01*
X114744826Y-77788858D01*
X114746000Y-77812750D01*
X114746000Y-78300250D01*
X114744826Y-78324142D01*
X114741316Y-78347803D01*
X114735504Y-78371007D01*
X114727446Y-78393529D01*
X114717218Y-78415153D01*
X114704921Y-78435670D01*
X114690671Y-78454883D01*
X114674607Y-78472607D01*
X114656883Y-78488671D01*
X114637670Y-78502921D01*
X114617153Y-78515218D01*
X114595529Y-78525446D01*
X114573007Y-78533504D01*
X114549803Y-78539316D01*
X114526142Y-78542826D01*
X114502250Y-78544000D01*
X113589750Y-78544000D01*
X113565858Y-78542826D01*
X113542197Y-78539316D01*
X113518993Y-78533504D01*
X113496471Y-78525446D01*
X113474847Y-78515218D01*
X113454330Y-78502921D01*
X113435117Y-78488671D01*
X113417393Y-78472607D01*
X113401329Y-78454883D01*
X113387079Y-78435670D01*
X113374782Y-78415153D01*
X113364554Y-78393529D01*
X113356496Y-78371007D01*
X113350684Y-78347803D01*
X113347174Y-78324142D01*
X113346000Y-78300250D01*
X113346000Y-77812750D01*
X113347174Y-77788858D01*
X113350684Y-77765197D01*
X113356496Y-77741993D01*
X113364554Y-77719471D01*
X113374782Y-77697847D01*
X113387079Y-77677330D01*
X113401329Y-77658117D01*
X113417393Y-77640393D01*
X113435117Y-77624329D01*
X113454330Y-77610079D01*
X113474847Y-77597782D01*
X113496471Y-77587554D01*
X113518993Y-77579496D01*
X113542197Y-77573684D01*
X113565858Y-77570174D01*
X113589750Y-77569000D01*
X114502250Y-77569000D01*
X114526142Y-77570174D01*
X114526142Y-77570174D01*
G37*
D11*
X114046000Y-78056500D03*
D10*
G36*
X114526142Y-79445174D02*
G01*
X114549803Y-79448684D01*
X114573007Y-79454496D01*
X114595529Y-79462554D01*
X114617153Y-79472782D01*
X114637670Y-79485079D01*
X114656883Y-79499329D01*
X114674607Y-79515393D01*
X114690671Y-79533117D01*
X114704921Y-79552330D01*
X114717218Y-79572847D01*
X114727446Y-79594471D01*
X114735504Y-79616993D01*
X114741316Y-79640197D01*
X114744826Y-79663858D01*
X114746000Y-79687750D01*
X114746000Y-80175250D01*
X114744826Y-80199142D01*
X114741316Y-80222803D01*
X114735504Y-80246007D01*
X114727446Y-80268529D01*
X114717218Y-80290153D01*
X114704921Y-80310670D01*
X114690671Y-80329883D01*
X114674607Y-80347607D01*
X114656883Y-80363671D01*
X114637670Y-80377921D01*
X114617153Y-80390218D01*
X114595529Y-80400446D01*
X114573007Y-80408504D01*
X114549803Y-80414316D01*
X114526142Y-80417826D01*
X114502250Y-80419000D01*
X113589750Y-80419000D01*
X113565858Y-80417826D01*
X113542197Y-80414316D01*
X113518993Y-80408504D01*
X113496471Y-80400446D01*
X113474847Y-80390218D01*
X113454330Y-80377921D01*
X113435117Y-80363671D01*
X113417393Y-80347607D01*
X113401329Y-80329883D01*
X113387079Y-80310670D01*
X113374782Y-80290153D01*
X113364554Y-80268529D01*
X113356496Y-80246007D01*
X113350684Y-80222803D01*
X113347174Y-80199142D01*
X113346000Y-80175250D01*
X113346000Y-79687750D01*
X113347174Y-79663858D01*
X113350684Y-79640197D01*
X113356496Y-79616993D01*
X113364554Y-79594471D01*
X113374782Y-79572847D01*
X113387079Y-79552330D01*
X113401329Y-79533117D01*
X113417393Y-79515393D01*
X113435117Y-79499329D01*
X113454330Y-79485079D01*
X113474847Y-79472782D01*
X113496471Y-79462554D01*
X113518993Y-79454496D01*
X113542197Y-79448684D01*
X113565858Y-79445174D01*
X113589750Y-79444000D01*
X114502250Y-79444000D01*
X114526142Y-79445174D01*
X114526142Y-79445174D01*
G37*
D11*
X114046000Y-79931500D03*
D10*
G36*
X117955142Y-77570174D02*
G01*
X117978803Y-77573684D01*
X118002007Y-77579496D01*
X118024529Y-77587554D01*
X118046153Y-77597782D01*
X118066670Y-77610079D01*
X118085883Y-77624329D01*
X118103607Y-77640393D01*
X118119671Y-77658117D01*
X118133921Y-77677330D01*
X118146218Y-77697847D01*
X118156446Y-77719471D01*
X118164504Y-77741993D01*
X118170316Y-77765197D01*
X118173826Y-77788858D01*
X118175000Y-77812750D01*
X118175000Y-78300250D01*
X118173826Y-78324142D01*
X118170316Y-78347803D01*
X118164504Y-78371007D01*
X118156446Y-78393529D01*
X118146218Y-78415153D01*
X118133921Y-78435670D01*
X118119671Y-78454883D01*
X118103607Y-78472607D01*
X118085883Y-78488671D01*
X118066670Y-78502921D01*
X118046153Y-78515218D01*
X118024529Y-78525446D01*
X118002007Y-78533504D01*
X117978803Y-78539316D01*
X117955142Y-78542826D01*
X117931250Y-78544000D01*
X117018750Y-78544000D01*
X116994858Y-78542826D01*
X116971197Y-78539316D01*
X116947993Y-78533504D01*
X116925471Y-78525446D01*
X116903847Y-78515218D01*
X116883330Y-78502921D01*
X116864117Y-78488671D01*
X116846393Y-78472607D01*
X116830329Y-78454883D01*
X116816079Y-78435670D01*
X116803782Y-78415153D01*
X116793554Y-78393529D01*
X116785496Y-78371007D01*
X116779684Y-78347803D01*
X116776174Y-78324142D01*
X116775000Y-78300250D01*
X116775000Y-77812750D01*
X116776174Y-77788858D01*
X116779684Y-77765197D01*
X116785496Y-77741993D01*
X116793554Y-77719471D01*
X116803782Y-77697847D01*
X116816079Y-77677330D01*
X116830329Y-77658117D01*
X116846393Y-77640393D01*
X116864117Y-77624329D01*
X116883330Y-77610079D01*
X116903847Y-77597782D01*
X116925471Y-77587554D01*
X116947993Y-77579496D01*
X116971197Y-77573684D01*
X116994858Y-77570174D01*
X117018750Y-77569000D01*
X117931250Y-77569000D01*
X117955142Y-77570174D01*
X117955142Y-77570174D01*
G37*
D11*
X117475000Y-78056500D03*
D10*
G36*
X117955142Y-79445174D02*
G01*
X117978803Y-79448684D01*
X118002007Y-79454496D01*
X118024529Y-79462554D01*
X118046153Y-79472782D01*
X118066670Y-79485079D01*
X118085883Y-79499329D01*
X118103607Y-79515393D01*
X118119671Y-79533117D01*
X118133921Y-79552330D01*
X118146218Y-79572847D01*
X118156446Y-79594471D01*
X118164504Y-79616993D01*
X118170316Y-79640197D01*
X118173826Y-79663858D01*
X118175000Y-79687750D01*
X118175000Y-80175250D01*
X118173826Y-80199142D01*
X118170316Y-80222803D01*
X118164504Y-80246007D01*
X118156446Y-80268529D01*
X118146218Y-80290153D01*
X118133921Y-80310670D01*
X118119671Y-80329883D01*
X118103607Y-80347607D01*
X118085883Y-80363671D01*
X118066670Y-80377921D01*
X118046153Y-80390218D01*
X118024529Y-80400446D01*
X118002007Y-80408504D01*
X117978803Y-80414316D01*
X117955142Y-80417826D01*
X117931250Y-80419000D01*
X117018750Y-80419000D01*
X116994858Y-80417826D01*
X116971197Y-80414316D01*
X116947993Y-80408504D01*
X116925471Y-80400446D01*
X116903847Y-80390218D01*
X116883330Y-80377921D01*
X116864117Y-80363671D01*
X116846393Y-80347607D01*
X116830329Y-80329883D01*
X116816079Y-80310670D01*
X116803782Y-80290153D01*
X116793554Y-80268529D01*
X116785496Y-80246007D01*
X116779684Y-80222803D01*
X116776174Y-80199142D01*
X116775000Y-80175250D01*
X116775000Y-79687750D01*
X116776174Y-79663858D01*
X116779684Y-79640197D01*
X116785496Y-79616993D01*
X116793554Y-79594471D01*
X116803782Y-79572847D01*
X116816079Y-79552330D01*
X116830329Y-79533117D01*
X116846393Y-79515393D01*
X116864117Y-79499329D01*
X116883330Y-79485079D01*
X116903847Y-79472782D01*
X116925471Y-79462554D01*
X116947993Y-79454496D01*
X116971197Y-79448684D01*
X116994858Y-79445174D01*
X117018750Y-79444000D01*
X117931250Y-79444000D01*
X117955142Y-79445174D01*
X117955142Y-79445174D01*
G37*
D11*
X117475000Y-79931500D03*
D10*
G36*
X120996142Y-70675174D02*
G01*
X121019803Y-70678684D01*
X121043007Y-70684496D01*
X121065529Y-70692554D01*
X121087153Y-70702782D01*
X121107670Y-70715079D01*
X121126883Y-70729329D01*
X121144607Y-70745393D01*
X121160671Y-70763117D01*
X121174921Y-70782330D01*
X121187218Y-70802847D01*
X121197446Y-70824471D01*
X121205504Y-70846993D01*
X121211316Y-70870197D01*
X121214826Y-70893858D01*
X121216000Y-70917750D01*
X121216000Y-71830250D01*
X121214826Y-71854142D01*
X121211316Y-71877803D01*
X121205504Y-71901007D01*
X121197446Y-71923529D01*
X121187218Y-71945153D01*
X121174921Y-71965670D01*
X121160671Y-71984883D01*
X121144607Y-72002607D01*
X121126883Y-72018671D01*
X121107670Y-72032921D01*
X121087153Y-72045218D01*
X121065529Y-72055446D01*
X121043007Y-72063504D01*
X121019803Y-72069316D01*
X120996142Y-72072826D01*
X120972250Y-72074000D01*
X120484750Y-72074000D01*
X120460858Y-72072826D01*
X120437197Y-72069316D01*
X120413993Y-72063504D01*
X120391471Y-72055446D01*
X120369847Y-72045218D01*
X120349330Y-72032921D01*
X120330117Y-72018671D01*
X120312393Y-72002607D01*
X120296329Y-71984883D01*
X120282079Y-71965670D01*
X120269782Y-71945153D01*
X120259554Y-71923529D01*
X120251496Y-71901007D01*
X120245684Y-71877803D01*
X120242174Y-71854142D01*
X120241000Y-71830250D01*
X120241000Y-70917750D01*
X120242174Y-70893858D01*
X120245684Y-70870197D01*
X120251496Y-70846993D01*
X120259554Y-70824471D01*
X120269782Y-70802847D01*
X120282079Y-70782330D01*
X120296329Y-70763117D01*
X120312393Y-70745393D01*
X120330117Y-70729329D01*
X120349330Y-70715079D01*
X120369847Y-70702782D01*
X120391471Y-70692554D01*
X120413993Y-70684496D01*
X120437197Y-70678684D01*
X120460858Y-70675174D01*
X120484750Y-70674000D01*
X120972250Y-70674000D01*
X120996142Y-70675174D01*
X120996142Y-70675174D01*
G37*
D11*
X120728500Y-71374000D03*
D10*
G36*
X122871142Y-70675174D02*
G01*
X122894803Y-70678684D01*
X122918007Y-70684496D01*
X122940529Y-70692554D01*
X122962153Y-70702782D01*
X122982670Y-70715079D01*
X123001883Y-70729329D01*
X123019607Y-70745393D01*
X123035671Y-70763117D01*
X123049921Y-70782330D01*
X123062218Y-70802847D01*
X123072446Y-70824471D01*
X123080504Y-70846993D01*
X123086316Y-70870197D01*
X123089826Y-70893858D01*
X123091000Y-70917750D01*
X123091000Y-71830250D01*
X123089826Y-71854142D01*
X123086316Y-71877803D01*
X123080504Y-71901007D01*
X123072446Y-71923529D01*
X123062218Y-71945153D01*
X123049921Y-71965670D01*
X123035671Y-71984883D01*
X123019607Y-72002607D01*
X123001883Y-72018671D01*
X122982670Y-72032921D01*
X122962153Y-72045218D01*
X122940529Y-72055446D01*
X122918007Y-72063504D01*
X122894803Y-72069316D01*
X122871142Y-72072826D01*
X122847250Y-72074000D01*
X122359750Y-72074000D01*
X122335858Y-72072826D01*
X122312197Y-72069316D01*
X122288993Y-72063504D01*
X122266471Y-72055446D01*
X122244847Y-72045218D01*
X122224330Y-72032921D01*
X122205117Y-72018671D01*
X122187393Y-72002607D01*
X122171329Y-71984883D01*
X122157079Y-71965670D01*
X122144782Y-71945153D01*
X122134554Y-71923529D01*
X122126496Y-71901007D01*
X122120684Y-71877803D01*
X122117174Y-71854142D01*
X122116000Y-71830250D01*
X122116000Y-70917750D01*
X122117174Y-70893858D01*
X122120684Y-70870197D01*
X122126496Y-70846993D01*
X122134554Y-70824471D01*
X122144782Y-70802847D01*
X122157079Y-70782330D01*
X122171329Y-70763117D01*
X122187393Y-70745393D01*
X122205117Y-70729329D01*
X122224330Y-70715079D01*
X122244847Y-70702782D01*
X122266471Y-70692554D01*
X122288993Y-70684496D01*
X122312197Y-70678684D01*
X122335858Y-70675174D01*
X122359750Y-70674000D01*
X122847250Y-70674000D01*
X122871142Y-70675174D01*
X122871142Y-70675174D01*
G37*
D11*
X122603500Y-71374000D03*
D10*
G36*
X110298142Y-77914174D02*
G01*
X110321803Y-77917684D01*
X110345007Y-77923496D01*
X110367529Y-77931554D01*
X110389153Y-77941782D01*
X110409670Y-77954079D01*
X110428883Y-77968329D01*
X110446607Y-77984393D01*
X110462671Y-78002117D01*
X110476921Y-78021330D01*
X110489218Y-78041847D01*
X110499446Y-78063471D01*
X110507504Y-78085993D01*
X110513316Y-78109197D01*
X110516826Y-78132858D01*
X110518000Y-78156750D01*
X110518000Y-79069250D01*
X110516826Y-79093142D01*
X110513316Y-79116803D01*
X110507504Y-79140007D01*
X110499446Y-79162529D01*
X110489218Y-79184153D01*
X110476921Y-79204670D01*
X110462671Y-79223883D01*
X110446607Y-79241607D01*
X110428883Y-79257671D01*
X110409670Y-79271921D01*
X110389153Y-79284218D01*
X110367529Y-79294446D01*
X110345007Y-79302504D01*
X110321803Y-79308316D01*
X110298142Y-79311826D01*
X110274250Y-79313000D01*
X109786750Y-79313000D01*
X109762858Y-79311826D01*
X109739197Y-79308316D01*
X109715993Y-79302504D01*
X109693471Y-79294446D01*
X109671847Y-79284218D01*
X109651330Y-79271921D01*
X109632117Y-79257671D01*
X109614393Y-79241607D01*
X109598329Y-79223883D01*
X109584079Y-79204670D01*
X109571782Y-79184153D01*
X109561554Y-79162529D01*
X109553496Y-79140007D01*
X109547684Y-79116803D01*
X109544174Y-79093142D01*
X109543000Y-79069250D01*
X109543000Y-78156750D01*
X109544174Y-78132858D01*
X109547684Y-78109197D01*
X109553496Y-78085993D01*
X109561554Y-78063471D01*
X109571782Y-78041847D01*
X109584079Y-78021330D01*
X109598329Y-78002117D01*
X109614393Y-77984393D01*
X109632117Y-77968329D01*
X109651330Y-77954079D01*
X109671847Y-77941782D01*
X109693471Y-77931554D01*
X109715993Y-77923496D01*
X109739197Y-77917684D01*
X109762858Y-77914174D01*
X109786750Y-77913000D01*
X110274250Y-77913000D01*
X110298142Y-77914174D01*
X110298142Y-77914174D01*
G37*
D11*
X110030500Y-78613000D03*
D10*
G36*
X108423142Y-77914174D02*
G01*
X108446803Y-77917684D01*
X108470007Y-77923496D01*
X108492529Y-77931554D01*
X108514153Y-77941782D01*
X108534670Y-77954079D01*
X108553883Y-77968329D01*
X108571607Y-77984393D01*
X108587671Y-78002117D01*
X108601921Y-78021330D01*
X108614218Y-78041847D01*
X108624446Y-78063471D01*
X108632504Y-78085993D01*
X108638316Y-78109197D01*
X108641826Y-78132858D01*
X108643000Y-78156750D01*
X108643000Y-79069250D01*
X108641826Y-79093142D01*
X108638316Y-79116803D01*
X108632504Y-79140007D01*
X108624446Y-79162529D01*
X108614218Y-79184153D01*
X108601921Y-79204670D01*
X108587671Y-79223883D01*
X108571607Y-79241607D01*
X108553883Y-79257671D01*
X108534670Y-79271921D01*
X108514153Y-79284218D01*
X108492529Y-79294446D01*
X108470007Y-79302504D01*
X108446803Y-79308316D01*
X108423142Y-79311826D01*
X108399250Y-79313000D01*
X107911750Y-79313000D01*
X107887858Y-79311826D01*
X107864197Y-79308316D01*
X107840993Y-79302504D01*
X107818471Y-79294446D01*
X107796847Y-79284218D01*
X107776330Y-79271921D01*
X107757117Y-79257671D01*
X107739393Y-79241607D01*
X107723329Y-79223883D01*
X107709079Y-79204670D01*
X107696782Y-79184153D01*
X107686554Y-79162529D01*
X107678496Y-79140007D01*
X107672684Y-79116803D01*
X107669174Y-79093142D01*
X107668000Y-79069250D01*
X107668000Y-78156750D01*
X107669174Y-78132858D01*
X107672684Y-78109197D01*
X107678496Y-78085993D01*
X107686554Y-78063471D01*
X107696782Y-78041847D01*
X107709079Y-78021330D01*
X107723329Y-78002117D01*
X107739393Y-77984393D01*
X107757117Y-77968329D01*
X107776330Y-77954079D01*
X107796847Y-77941782D01*
X107818471Y-77931554D01*
X107840993Y-77923496D01*
X107864197Y-77917684D01*
X107887858Y-77914174D01*
X107911750Y-77913000D01*
X108399250Y-77913000D01*
X108423142Y-77914174D01*
X108423142Y-77914174D01*
G37*
D11*
X108155500Y-78613000D03*
D10*
G36*
X120996142Y-74231174D02*
G01*
X121019803Y-74234684D01*
X121043007Y-74240496D01*
X121065529Y-74248554D01*
X121087153Y-74258782D01*
X121107670Y-74271079D01*
X121126883Y-74285329D01*
X121144607Y-74301393D01*
X121160671Y-74319117D01*
X121174921Y-74338330D01*
X121187218Y-74358847D01*
X121197446Y-74380471D01*
X121205504Y-74402993D01*
X121211316Y-74426197D01*
X121214826Y-74449858D01*
X121216000Y-74473750D01*
X121216000Y-75386250D01*
X121214826Y-75410142D01*
X121211316Y-75433803D01*
X121205504Y-75457007D01*
X121197446Y-75479529D01*
X121187218Y-75501153D01*
X121174921Y-75521670D01*
X121160671Y-75540883D01*
X121144607Y-75558607D01*
X121126883Y-75574671D01*
X121107670Y-75588921D01*
X121087153Y-75601218D01*
X121065529Y-75611446D01*
X121043007Y-75619504D01*
X121019803Y-75625316D01*
X120996142Y-75628826D01*
X120972250Y-75630000D01*
X120484750Y-75630000D01*
X120460858Y-75628826D01*
X120437197Y-75625316D01*
X120413993Y-75619504D01*
X120391471Y-75611446D01*
X120369847Y-75601218D01*
X120349330Y-75588921D01*
X120330117Y-75574671D01*
X120312393Y-75558607D01*
X120296329Y-75540883D01*
X120282079Y-75521670D01*
X120269782Y-75501153D01*
X120259554Y-75479529D01*
X120251496Y-75457007D01*
X120245684Y-75433803D01*
X120242174Y-75410142D01*
X120241000Y-75386250D01*
X120241000Y-74473750D01*
X120242174Y-74449858D01*
X120245684Y-74426197D01*
X120251496Y-74402993D01*
X120259554Y-74380471D01*
X120269782Y-74358847D01*
X120282079Y-74338330D01*
X120296329Y-74319117D01*
X120312393Y-74301393D01*
X120330117Y-74285329D01*
X120349330Y-74271079D01*
X120369847Y-74258782D01*
X120391471Y-74248554D01*
X120413993Y-74240496D01*
X120437197Y-74234684D01*
X120460858Y-74231174D01*
X120484750Y-74230000D01*
X120972250Y-74230000D01*
X120996142Y-74231174D01*
X120996142Y-74231174D01*
G37*
D11*
X120728500Y-74930000D03*
D10*
G36*
X122871142Y-74231174D02*
G01*
X122894803Y-74234684D01*
X122918007Y-74240496D01*
X122940529Y-74248554D01*
X122962153Y-74258782D01*
X122982670Y-74271079D01*
X123001883Y-74285329D01*
X123019607Y-74301393D01*
X123035671Y-74319117D01*
X123049921Y-74338330D01*
X123062218Y-74358847D01*
X123072446Y-74380471D01*
X123080504Y-74402993D01*
X123086316Y-74426197D01*
X123089826Y-74449858D01*
X123091000Y-74473750D01*
X123091000Y-75386250D01*
X123089826Y-75410142D01*
X123086316Y-75433803D01*
X123080504Y-75457007D01*
X123072446Y-75479529D01*
X123062218Y-75501153D01*
X123049921Y-75521670D01*
X123035671Y-75540883D01*
X123019607Y-75558607D01*
X123001883Y-75574671D01*
X122982670Y-75588921D01*
X122962153Y-75601218D01*
X122940529Y-75611446D01*
X122918007Y-75619504D01*
X122894803Y-75625316D01*
X122871142Y-75628826D01*
X122847250Y-75630000D01*
X122359750Y-75630000D01*
X122335858Y-75628826D01*
X122312197Y-75625316D01*
X122288993Y-75619504D01*
X122266471Y-75611446D01*
X122244847Y-75601218D01*
X122224330Y-75588921D01*
X122205117Y-75574671D01*
X122187393Y-75558607D01*
X122171329Y-75540883D01*
X122157079Y-75521670D01*
X122144782Y-75501153D01*
X122134554Y-75479529D01*
X122126496Y-75457007D01*
X122120684Y-75433803D01*
X122117174Y-75410142D01*
X122116000Y-75386250D01*
X122116000Y-74473750D01*
X122117174Y-74449858D01*
X122120684Y-74426197D01*
X122126496Y-74402993D01*
X122134554Y-74380471D01*
X122144782Y-74358847D01*
X122157079Y-74338330D01*
X122171329Y-74319117D01*
X122187393Y-74301393D01*
X122205117Y-74285329D01*
X122224330Y-74271079D01*
X122244847Y-74258782D01*
X122266471Y-74248554D01*
X122288993Y-74240496D01*
X122312197Y-74234684D01*
X122335858Y-74231174D01*
X122359750Y-74230000D01*
X122847250Y-74230000D01*
X122871142Y-74231174D01*
X122871142Y-74231174D01*
G37*
D11*
X122603500Y-74930000D03*
D10*
G36*
X110806142Y-72961174D02*
G01*
X110829803Y-72964684D01*
X110853007Y-72970496D01*
X110875529Y-72978554D01*
X110897153Y-72988782D01*
X110917670Y-73001079D01*
X110936883Y-73015329D01*
X110954607Y-73031393D01*
X110970671Y-73049117D01*
X110984921Y-73068330D01*
X110997218Y-73088847D01*
X111007446Y-73110471D01*
X111015504Y-73132993D01*
X111021316Y-73156197D01*
X111024826Y-73179858D01*
X111026000Y-73203750D01*
X111026000Y-74116250D01*
X111024826Y-74140142D01*
X111021316Y-74163803D01*
X111015504Y-74187007D01*
X111007446Y-74209529D01*
X110997218Y-74231153D01*
X110984921Y-74251670D01*
X110970671Y-74270883D01*
X110954607Y-74288607D01*
X110936883Y-74304671D01*
X110917670Y-74318921D01*
X110897153Y-74331218D01*
X110875529Y-74341446D01*
X110853007Y-74349504D01*
X110829803Y-74355316D01*
X110806142Y-74358826D01*
X110782250Y-74360000D01*
X110294750Y-74360000D01*
X110270858Y-74358826D01*
X110247197Y-74355316D01*
X110223993Y-74349504D01*
X110201471Y-74341446D01*
X110179847Y-74331218D01*
X110159330Y-74318921D01*
X110140117Y-74304671D01*
X110122393Y-74288607D01*
X110106329Y-74270883D01*
X110092079Y-74251670D01*
X110079782Y-74231153D01*
X110069554Y-74209529D01*
X110061496Y-74187007D01*
X110055684Y-74163803D01*
X110052174Y-74140142D01*
X110051000Y-74116250D01*
X110051000Y-73203750D01*
X110052174Y-73179858D01*
X110055684Y-73156197D01*
X110061496Y-73132993D01*
X110069554Y-73110471D01*
X110079782Y-73088847D01*
X110092079Y-73068330D01*
X110106329Y-73049117D01*
X110122393Y-73031393D01*
X110140117Y-73015329D01*
X110159330Y-73001079D01*
X110179847Y-72988782D01*
X110201471Y-72978554D01*
X110223993Y-72970496D01*
X110247197Y-72964684D01*
X110270858Y-72961174D01*
X110294750Y-72960000D01*
X110782250Y-72960000D01*
X110806142Y-72961174D01*
X110806142Y-72961174D01*
G37*
D11*
X110538500Y-73660000D03*
D10*
G36*
X108931142Y-72961174D02*
G01*
X108954803Y-72964684D01*
X108978007Y-72970496D01*
X109000529Y-72978554D01*
X109022153Y-72988782D01*
X109042670Y-73001079D01*
X109061883Y-73015329D01*
X109079607Y-73031393D01*
X109095671Y-73049117D01*
X109109921Y-73068330D01*
X109122218Y-73088847D01*
X109132446Y-73110471D01*
X109140504Y-73132993D01*
X109146316Y-73156197D01*
X109149826Y-73179858D01*
X109151000Y-73203750D01*
X109151000Y-74116250D01*
X109149826Y-74140142D01*
X109146316Y-74163803D01*
X109140504Y-74187007D01*
X109132446Y-74209529D01*
X109122218Y-74231153D01*
X109109921Y-74251670D01*
X109095671Y-74270883D01*
X109079607Y-74288607D01*
X109061883Y-74304671D01*
X109042670Y-74318921D01*
X109022153Y-74331218D01*
X109000529Y-74341446D01*
X108978007Y-74349504D01*
X108954803Y-74355316D01*
X108931142Y-74358826D01*
X108907250Y-74360000D01*
X108419750Y-74360000D01*
X108395858Y-74358826D01*
X108372197Y-74355316D01*
X108348993Y-74349504D01*
X108326471Y-74341446D01*
X108304847Y-74331218D01*
X108284330Y-74318921D01*
X108265117Y-74304671D01*
X108247393Y-74288607D01*
X108231329Y-74270883D01*
X108217079Y-74251670D01*
X108204782Y-74231153D01*
X108194554Y-74209529D01*
X108186496Y-74187007D01*
X108180684Y-74163803D01*
X108177174Y-74140142D01*
X108176000Y-74116250D01*
X108176000Y-73203750D01*
X108177174Y-73179858D01*
X108180684Y-73156197D01*
X108186496Y-73132993D01*
X108194554Y-73110471D01*
X108204782Y-73088847D01*
X108217079Y-73068330D01*
X108231329Y-73049117D01*
X108247393Y-73031393D01*
X108265117Y-73015329D01*
X108284330Y-73001079D01*
X108304847Y-72988782D01*
X108326471Y-72978554D01*
X108348993Y-72970496D01*
X108372197Y-72964684D01*
X108395858Y-72961174D01*
X108419750Y-72960000D01*
X108907250Y-72960000D01*
X108931142Y-72961174D01*
X108931142Y-72961174D01*
G37*
D11*
X108663500Y-73660000D03*
D10*
G36*
X109028142Y-67754174D02*
G01*
X109051803Y-67757684D01*
X109075007Y-67763496D01*
X109097529Y-67771554D01*
X109119153Y-67781782D01*
X109139670Y-67794079D01*
X109158883Y-67808329D01*
X109176607Y-67824393D01*
X109192671Y-67842117D01*
X109206921Y-67861330D01*
X109219218Y-67881847D01*
X109229446Y-67903471D01*
X109237504Y-67925993D01*
X109243316Y-67949197D01*
X109246826Y-67972858D01*
X109248000Y-67996750D01*
X109248000Y-68909250D01*
X109246826Y-68933142D01*
X109243316Y-68956803D01*
X109237504Y-68980007D01*
X109229446Y-69002529D01*
X109219218Y-69024153D01*
X109206921Y-69044670D01*
X109192671Y-69063883D01*
X109176607Y-69081607D01*
X109158883Y-69097671D01*
X109139670Y-69111921D01*
X109119153Y-69124218D01*
X109097529Y-69134446D01*
X109075007Y-69142504D01*
X109051803Y-69148316D01*
X109028142Y-69151826D01*
X109004250Y-69153000D01*
X108516750Y-69153000D01*
X108492858Y-69151826D01*
X108469197Y-69148316D01*
X108445993Y-69142504D01*
X108423471Y-69134446D01*
X108401847Y-69124218D01*
X108381330Y-69111921D01*
X108362117Y-69097671D01*
X108344393Y-69081607D01*
X108328329Y-69063883D01*
X108314079Y-69044670D01*
X108301782Y-69024153D01*
X108291554Y-69002529D01*
X108283496Y-68980007D01*
X108277684Y-68956803D01*
X108274174Y-68933142D01*
X108273000Y-68909250D01*
X108273000Y-67996750D01*
X108274174Y-67972858D01*
X108277684Y-67949197D01*
X108283496Y-67925993D01*
X108291554Y-67903471D01*
X108301782Y-67881847D01*
X108314079Y-67861330D01*
X108328329Y-67842117D01*
X108344393Y-67824393D01*
X108362117Y-67808329D01*
X108381330Y-67794079D01*
X108401847Y-67781782D01*
X108423471Y-67771554D01*
X108445993Y-67763496D01*
X108469197Y-67757684D01*
X108492858Y-67754174D01*
X108516750Y-67753000D01*
X109004250Y-67753000D01*
X109028142Y-67754174D01*
X109028142Y-67754174D01*
G37*
D11*
X108760500Y-68453000D03*
D10*
G36*
X107153142Y-67754174D02*
G01*
X107176803Y-67757684D01*
X107200007Y-67763496D01*
X107222529Y-67771554D01*
X107244153Y-67781782D01*
X107264670Y-67794079D01*
X107283883Y-67808329D01*
X107301607Y-67824393D01*
X107317671Y-67842117D01*
X107331921Y-67861330D01*
X107344218Y-67881847D01*
X107354446Y-67903471D01*
X107362504Y-67925993D01*
X107368316Y-67949197D01*
X107371826Y-67972858D01*
X107373000Y-67996750D01*
X107373000Y-68909250D01*
X107371826Y-68933142D01*
X107368316Y-68956803D01*
X107362504Y-68980007D01*
X107354446Y-69002529D01*
X107344218Y-69024153D01*
X107331921Y-69044670D01*
X107317671Y-69063883D01*
X107301607Y-69081607D01*
X107283883Y-69097671D01*
X107264670Y-69111921D01*
X107244153Y-69124218D01*
X107222529Y-69134446D01*
X107200007Y-69142504D01*
X107176803Y-69148316D01*
X107153142Y-69151826D01*
X107129250Y-69153000D01*
X106641750Y-69153000D01*
X106617858Y-69151826D01*
X106594197Y-69148316D01*
X106570993Y-69142504D01*
X106548471Y-69134446D01*
X106526847Y-69124218D01*
X106506330Y-69111921D01*
X106487117Y-69097671D01*
X106469393Y-69081607D01*
X106453329Y-69063883D01*
X106439079Y-69044670D01*
X106426782Y-69024153D01*
X106416554Y-69002529D01*
X106408496Y-68980007D01*
X106402684Y-68956803D01*
X106399174Y-68933142D01*
X106398000Y-68909250D01*
X106398000Y-67996750D01*
X106399174Y-67972858D01*
X106402684Y-67949197D01*
X106408496Y-67925993D01*
X106416554Y-67903471D01*
X106426782Y-67881847D01*
X106439079Y-67861330D01*
X106453329Y-67842117D01*
X106469393Y-67824393D01*
X106487117Y-67808329D01*
X106506330Y-67794079D01*
X106526847Y-67781782D01*
X106548471Y-67771554D01*
X106570993Y-67763496D01*
X106594197Y-67757684D01*
X106617858Y-67754174D01*
X106641750Y-67753000D01*
X107129250Y-67753000D01*
X107153142Y-67754174D01*
X107153142Y-67754174D01*
G37*
D11*
X106885500Y-68453000D03*
D10*
G36*
X115790505Y-61520204D02*
G01*
X115814773Y-61523804D01*
X115838572Y-61529765D01*
X115861671Y-61538030D01*
X115883850Y-61548520D01*
X115904893Y-61561132D01*
X115924599Y-61575747D01*
X115942777Y-61592223D01*
X115959253Y-61610401D01*
X115973868Y-61630107D01*
X115986480Y-61651150D01*
X115996970Y-61673329D01*
X116005235Y-61696428D01*
X116011196Y-61720227D01*
X116014796Y-61744495D01*
X116016000Y-61768999D01*
X116016000Y-62419001D01*
X116014796Y-62443505D01*
X116011196Y-62467773D01*
X116005235Y-62491572D01*
X115996970Y-62514671D01*
X115986480Y-62536850D01*
X115973868Y-62557893D01*
X115959253Y-62577599D01*
X115942777Y-62595777D01*
X115924599Y-62612253D01*
X115904893Y-62626868D01*
X115883850Y-62639480D01*
X115861671Y-62649970D01*
X115838572Y-62658235D01*
X115814773Y-62664196D01*
X115790505Y-62667796D01*
X115766001Y-62669000D01*
X114865999Y-62669000D01*
X114841495Y-62667796D01*
X114817227Y-62664196D01*
X114793428Y-62658235D01*
X114770329Y-62649970D01*
X114748150Y-62639480D01*
X114727107Y-62626868D01*
X114707401Y-62612253D01*
X114689223Y-62595777D01*
X114672747Y-62577599D01*
X114658132Y-62557893D01*
X114645520Y-62536850D01*
X114635030Y-62514671D01*
X114626765Y-62491572D01*
X114620804Y-62467773D01*
X114617204Y-62443505D01*
X114616000Y-62419001D01*
X114616000Y-61768999D01*
X114617204Y-61744495D01*
X114620804Y-61720227D01*
X114626765Y-61696428D01*
X114635030Y-61673329D01*
X114645520Y-61651150D01*
X114658132Y-61630107D01*
X114672747Y-61610401D01*
X114689223Y-61592223D01*
X114707401Y-61575747D01*
X114727107Y-61561132D01*
X114748150Y-61548520D01*
X114770329Y-61538030D01*
X114793428Y-61529765D01*
X114817227Y-61523804D01*
X114841495Y-61520204D01*
X114865999Y-61519000D01*
X115766001Y-61519000D01*
X115790505Y-61520204D01*
X115790505Y-61520204D01*
G37*
D12*
X115316000Y-62094000D03*
D10*
G36*
X115790505Y-63570204D02*
G01*
X115814773Y-63573804D01*
X115838572Y-63579765D01*
X115861671Y-63588030D01*
X115883850Y-63598520D01*
X115904893Y-63611132D01*
X115924599Y-63625747D01*
X115942777Y-63642223D01*
X115959253Y-63660401D01*
X115973868Y-63680107D01*
X115986480Y-63701150D01*
X115996970Y-63723329D01*
X116005235Y-63746428D01*
X116011196Y-63770227D01*
X116014796Y-63794495D01*
X116016000Y-63818999D01*
X116016000Y-64469001D01*
X116014796Y-64493505D01*
X116011196Y-64517773D01*
X116005235Y-64541572D01*
X115996970Y-64564671D01*
X115986480Y-64586850D01*
X115973868Y-64607893D01*
X115959253Y-64627599D01*
X115942777Y-64645777D01*
X115924599Y-64662253D01*
X115904893Y-64676868D01*
X115883850Y-64689480D01*
X115861671Y-64699970D01*
X115838572Y-64708235D01*
X115814773Y-64714196D01*
X115790505Y-64717796D01*
X115766001Y-64719000D01*
X114865999Y-64719000D01*
X114841495Y-64717796D01*
X114817227Y-64714196D01*
X114793428Y-64708235D01*
X114770329Y-64699970D01*
X114748150Y-64689480D01*
X114727107Y-64676868D01*
X114707401Y-64662253D01*
X114689223Y-64645777D01*
X114672747Y-64627599D01*
X114658132Y-64607893D01*
X114645520Y-64586850D01*
X114635030Y-64564671D01*
X114626765Y-64541572D01*
X114620804Y-64517773D01*
X114617204Y-64493505D01*
X114616000Y-64469001D01*
X114616000Y-63818999D01*
X114617204Y-63794495D01*
X114620804Y-63770227D01*
X114626765Y-63746428D01*
X114635030Y-63723329D01*
X114645520Y-63701150D01*
X114658132Y-63680107D01*
X114672747Y-63660401D01*
X114689223Y-63642223D01*
X114707401Y-63625747D01*
X114727107Y-63611132D01*
X114748150Y-63598520D01*
X114770329Y-63588030D01*
X114793428Y-63579765D01*
X114817227Y-63573804D01*
X114841495Y-63570204D01*
X114865999Y-63569000D01*
X115766001Y-63569000D01*
X115790505Y-63570204D01*
X115790505Y-63570204D01*
G37*
D12*
X115316000Y-64144000D03*
D10*
G36*
X81540779Y-64514144D02*
G01*
X81563834Y-64517563D01*
X81586443Y-64523227D01*
X81608387Y-64531079D01*
X81629457Y-64541044D01*
X81649448Y-64553026D01*
X81668168Y-64566910D01*
X81685438Y-64582562D01*
X81701090Y-64599832D01*
X81714974Y-64618552D01*
X81726956Y-64638543D01*
X81736921Y-64659613D01*
X81744773Y-64681557D01*
X81750437Y-64704166D01*
X81753856Y-64727221D01*
X81755000Y-64750500D01*
X81755000Y-65325500D01*
X81753856Y-65348779D01*
X81750437Y-65371834D01*
X81744773Y-65394443D01*
X81736921Y-65416387D01*
X81726956Y-65437457D01*
X81714974Y-65457448D01*
X81701090Y-65476168D01*
X81685438Y-65493438D01*
X81668168Y-65509090D01*
X81649448Y-65522974D01*
X81629457Y-65534956D01*
X81608387Y-65544921D01*
X81586443Y-65552773D01*
X81563834Y-65558437D01*
X81540779Y-65561856D01*
X81517500Y-65563000D01*
X81042500Y-65563000D01*
X81019221Y-65561856D01*
X80996166Y-65558437D01*
X80973557Y-65552773D01*
X80951613Y-65544921D01*
X80930543Y-65534956D01*
X80910552Y-65522974D01*
X80891832Y-65509090D01*
X80874562Y-65493438D01*
X80858910Y-65476168D01*
X80845026Y-65457448D01*
X80833044Y-65437457D01*
X80823079Y-65416387D01*
X80815227Y-65394443D01*
X80809563Y-65371834D01*
X80806144Y-65348779D01*
X80805000Y-65325500D01*
X80805000Y-64750500D01*
X80806144Y-64727221D01*
X80809563Y-64704166D01*
X80815227Y-64681557D01*
X80823079Y-64659613D01*
X80833044Y-64638543D01*
X80845026Y-64618552D01*
X80858910Y-64599832D01*
X80874562Y-64582562D01*
X80891832Y-64566910D01*
X80910552Y-64553026D01*
X80930543Y-64541044D01*
X80951613Y-64531079D01*
X80973557Y-64523227D01*
X80996166Y-64517563D01*
X81019221Y-64514144D01*
X81042500Y-64513000D01*
X81517500Y-64513000D01*
X81540779Y-64514144D01*
X81540779Y-64514144D01*
G37*
D13*
X81280000Y-65038000D03*
D10*
G36*
X81540779Y-66264144D02*
G01*
X81563834Y-66267563D01*
X81586443Y-66273227D01*
X81608387Y-66281079D01*
X81629457Y-66291044D01*
X81649448Y-66303026D01*
X81668168Y-66316910D01*
X81685438Y-66332562D01*
X81701090Y-66349832D01*
X81714974Y-66368552D01*
X81726956Y-66388543D01*
X81736921Y-66409613D01*
X81744773Y-66431557D01*
X81750437Y-66454166D01*
X81753856Y-66477221D01*
X81755000Y-66500500D01*
X81755000Y-67075500D01*
X81753856Y-67098779D01*
X81750437Y-67121834D01*
X81744773Y-67144443D01*
X81736921Y-67166387D01*
X81726956Y-67187457D01*
X81714974Y-67207448D01*
X81701090Y-67226168D01*
X81685438Y-67243438D01*
X81668168Y-67259090D01*
X81649448Y-67272974D01*
X81629457Y-67284956D01*
X81608387Y-67294921D01*
X81586443Y-67302773D01*
X81563834Y-67308437D01*
X81540779Y-67311856D01*
X81517500Y-67313000D01*
X81042500Y-67313000D01*
X81019221Y-67311856D01*
X80996166Y-67308437D01*
X80973557Y-67302773D01*
X80951613Y-67294921D01*
X80930543Y-67284956D01*
X80910552Y-67272974D01*
X80891832Y-67259090D01*
X80874562Y-67243438D01*
X80858910Y-67226168D01*
X80845026Y-67207448D01*
X80833044Y-67187457D01*
X80823079Y-67166387D01*
X80815227Y-67144443D01*
X80809563Y-67121834D01*
X80806144Y-67098779D01*
X80805000Y-67075500D01*
X80805000Y-66500500D01*
X80806144Y-66477221D01*
X80809563Y-66454166D01*
X80815227Y-66431557D01*
X80823079Y-66409613D01*
X80833044Y-66388543D01*
X80845026Y-66368552D01*
X80858910Y-66349832D01*
X80874562Y-66332562D01*
X80891832Y-66316910D01*
X80910552Y-66303026D01*
X80930543Y-66291044D01*
X80951613Y-66281079D01*
X80973557Y-66273227D01*
X80996166Y-66267563D01*
X81019221Y-66264144D01*
X81042500Y-66263000D01*
X81517500Y-66263000D01*
X81540779Y-66264144D01*
X81540779Y-66264144D01*
G37*
D13*
X81280000Y-66788000D03*
D10*
G36*
X83227779Y-61248144D02*
G01*
X83250834Y-61251563D01*
X83273443Y-61257227D01*
X83295387Y-61265079D01*
X83316457Y-61275044D01*
X83336448Y-61287026D01*
X83355168Y-61300910D01*
X83372438Y-61316562D01*
X83388090Y-61333832D01*
X83401974Y-61352552D01*
X83413956Y-61372543D01*
X83423921Y-61393613D01*
X83431773Y-61415557D01*
X83437437Y-61438166D01*
X83440856Y-61461221D01*
X83442000Y-61484500D01*
X83442000Y-61959500D01*
X83440856Y-61982779D01*
X83437437Y-62005834D01*
X83431773Y-62028443D01*
X83423921Y-62050387D01*
X83413956Y-62071457D01*
X83401974Y-62091448D01*
X83388090Y-62110168D01*
X83372438Y-62127438D01*
X83355168Y-62143090D01*
X83336448Y-62156974D01*
X83316457Y-62168956D01*
X83295387Y-62178921D01*
X83273443Y-62186773D01*
X83250834Y-62192437D01*
X83227779Y-62195856D01*
X83204500Y-62197000D01*
X82629500Y-62197000D01*
X82606221Y-62195856D01*
X82583166Y-62192437D01*
X82560557Y-62186773D01*
X82538613Y-62178921D01*
X82517543Y-62168956D01*
X82497552Y-62156974D01*
X82478832Y-62143090D01*
X82461562Y-62127438D01*
X82445910Y-62110168D01*
X82432026Y-62091448D01*
X82420044Y-62071457D01*
X82410079Y-62050387D01*
X82402227Y-62028443D01*
X82396563Y-62005834D01*
X82393144Y-61982779D01*
X82392000Y-61959500D01*
X82392000Y-61484500D01*
X82393144Y-61461221D01*
X82396563Y-61438166D01*
X82402227Y-61415557D01*
X82410079Y-61393613D01*
X82420044Y-61372543D01*
X82432026Y-61352552D01*
X82445910Y-61333832D01*
X82461562Y-61316562D01*
X82478832Y-61300910D01*
X82497552Y-61287026D01*
X82517543Y-61275044D01*
X82538613Y-61265079D01*
X82560557Y-61257227D01*
X82583166Y-61251563D01*
X82606221Y-61248144D01*
X82629500Y-61247000D01*
X83204500Y-61247000D01*
X83227779Y-61248144D01*
X83227779Y-61248144D01*
G37*
D13*
X82917000Y-61722000D03*
D10*
G36*
X81477779Y-61248144D02*
G01*
X81500834Y-61251563D01*
X81523443Y-61257227D01*
X81545387Y-61265079D01*
X81566457Y-61275044D01*
X81586448Y-61287026D01*
X81605168Y-61300910D01*
X81622438Y-61316562D01*
X81638090Y-61333832D01*
X81651974Y-61352552D01*
X81663956Y-61372543D01*
X81673921Y-61393613D01*
X81681773Y-61415557D01*
X81687437Y-61438166D01*
X81690856Y-61461221D01*
X81692000Y-61484500D01*
X81692000Y-61959500D01*
X81690856Y-61982779D01*
X81687437Y-62005834D01*
X81681773Y-62028443D01*
X81673921Y-62050387D01*
X81663956Y-62071457D01*
X81651974Y-62091448D01*
X81638090Y-62110168D01*
X81622438Y-62127438D01*
X81605168Y-62143090D01*
X81586448Y-62156974D01*
X81566457Y-62168956D01*
X81545387Y-62178921D01*
X81523443Y-62186773D01*
X81500834Y-62192437D01*
X81477779Y-62195856D01*
X81454500Y-62197000D01*
X80879500Y-62197000D01*
X80856221Y-62195856D01*
X80833166Y-62192437D01*
X80810557Y-62186773D01*
X80788613Y-62178921D01*
X80767543Y-62168956D01*
X80747552Y-62156974D01*
X80728832Y-62143090D01*
X80711562Y-62127438D01*
X80695910Y-62110168D01*
X80682026Y-62091448D01*
X80670044Y-62071457D01*
X80660079Y-62050387D01*
X80652227Y-62028443D01*
X80646563Y-62005834D01*
X80643144Y-61982779D01*
X80642000Y-61959500D01*
X80642000Y-61484500D01*
X80643144Y-61461221D01*
X80646563Y-61438166D01*
X80652227Y-61415557D01*
X80660079Y-61393613D01*
X80670044Y-61372543D01*
X80682026Y-61352552D01*
X80695910Y-61333832D01*
X80711562Y-61316562D01*
X80728832Y-61300910D01*
X80747552Y-61287026D01*
X80767543Y-61275044D01*
X80788613Y-61265079D01*
X80810557Y-61257227D01*
X80833166Y-61251563D01*
X80856221Y-61248144D01*
X80879500Y-61247000D01*
X81454500Y-61247000D01*
X81477779Y-61248144D01*
X81477779Y-61248144D01*
G37*
D13*
X81167000Y-61722000D03*
D10*
G36*
X83318779Y-64514144D02*
G01*
X83341834Y-64517563D01*
X83364443Y-64523227D01*
X83386387Y-64531079D01*
X83407457Y-64541044D01*
X83427448Y-64553026D01*
X83446168Y-64566910D01*
X83463438Y-64582562D01*
X83479090Y-64599832D01*
X83492974Y-64618552D01*
X83504956Y-64638543D01*
X83514921Y-64659613D01*
X83522773Y-64681557D01*
X83528437Y-64704166D01*
X83531856Y-64727221D01*
X83533000Y-64750500D01*
X83533000Y-65325500D01*
X83531856Y-65348779D01*
X83528437Y-65371834D01*
X83522773Y-65394443D01*
X83514921Y-65416387D01*
X83504956Y-65437457D01*
X83492974Y-65457448D01*
X83479090Y-65476168D01*
X83463438Y-65493438D01*
X83446168Y-65509090D01*
X83427448Y-65522974D01*
X83407457Y-65534956D01*
X83386387Y-65544921D01*
X83364443Y-65552773D01*
X83341834Y-65558437D01*
X83318779Y-65561856D01*
X83295500Y-65563000D01*
X82820500Y-65563000D01*
X82797221Y-65561856D01*
X82774166Y-65558437D01*
X82751557Y-65552773D01*
X82729613Y-65544921D01*
X82708543Y-65534956D01*
X82688552Y-65522974D01*
X82669832Y-65509090D01*
X82652562Y-65493438D01*
X82636910Y-65476168D01*
X82623026Y-65457448D01*
X82611044Y-65437457D01*
X82601079Y-65416387D01*
X82593227Y-65394443D01*
X82587563Y-65371834D01*
X82584144Y-65348779D01*
X82583000Y-65325500D01*
X82583000Y-64750500D01*
X82584144Y-64727221D01*
X82587563Y-64704166D01*
X82593227Y-64681557D01*
X82601079Y-64659613D01*
X82611044Y-64638543D01*
X82623026Y-64618552D01*
X82636910Y-64599832D01*
X82652562Y-64582562D01*
X82669832Y-64566910D01*
X82688552Y-64553026D01*
X82708543Y-64541044D01*
X82729613Y-64531079D01*
X82751557Y-64523227D01*
X82774166Y-64517563D01*
X82797221Y-64514144D01*
X82820500Y-64513000D01*
X83295500Y-64513000D01*
X83318779Y-64514144D01*
X83318779Y-64514144D01*
G37*
D13*
X83058000Y-65038000D03*
D10*
G36*
X83318779Y-66264144D02*
G01*
X83341834Y-66267563D01*
X83364443Y-66273227D01*
X83386387Y-66281079D01*
X83407457Y-66291044D01*
X83427448Y-66303026D01*
X83446168Y-66316910D01*
X83463438Y-66332562D01*
X83479090Y-66349832D01*
X83492974Y-66368552D01*
X83504956Y-66388543D01*
X83514921Y-66409613D01*
X83522773Y-66431557D01*
X83528437Y-66454166D01*
X83531856Y-66477221D01*
X83533000Y-66500500D01*
X83533000Y-67075500D01*
X83531856Y-67098779D01*
X83528437Y-67121834D01*
X83522773Y-67144443D01*
X83514921Y-67166387D01*
X83504956Y-67187457D01*
X83492974Y-67207448D01*
X83479090Y-67226168D01*
X83463438Y-67243438D01*
X83446168Y-67259090D01*
X83427448Y-67272974D01*
X83407457Y-67284956D01*
X83386387Y-67294921D01*
X83364443Y-67302773D01*
X83341834Y-67308437D01*
X83318779Y-67311856D01*
X83295500Y-67313000D01*
X82820500Y-67313000D01*
X82797221Y-67311856D01*
X82774166Y-67308437D01*
X82751557Y-67302773D01*
X82729613Y-67294921D01*
X82708543Y-67284956D01*
X82688552Y-67272974D01*
X82669832Y-67259090D01*
X82652562Y-67243438D01*
X82636910Y-67226168D01*
X82623026Y-67207448D01*
X82611044Y-67187457D01*
X82601079Y-67166387D01*
X82593227Y-67144443D01*
X82587563Y-67121834D01*
X82584144Y-67098779D01*
X82583000Y-67075500D01*
X82583000Y-66500500D01*
X82584144Y-66477221D01*
X82587563Y-66454166D01*
X82593227Y-66431557D01*
X82601079Y-66409613D01*
X82611044Y-66388543D01*
X82623026Y-66368552D01*
X82636910Y-66349832D01*
X82652562Y-66332562D01*
X82669832Y-66316910D01*
X82688552Y-66303026D01*
X82708543Y-66291044D01*
X82729613Y-66281079D01*
X82751557Y-66273227D01*
X82774166Y-66267563D01*
X82797221Y-66264144D01*
X82820500Y-66263000D01*
X83295500Y-66263000D01*
X83318779Y-66264144D01*
X83318779Y-66264144D01*
G37*
D13*
X83058000Y-66788000D03*
D10*
G36*
X88779779Y-64514144D02*
G01*
X88802834Y-64517563D01*
X88825443Y-64523227D01*
X88847387Y-64531079D01*
X88868457Y-64541044D01*
X88888448Y-64553026D01*
X88907168Y-64566910D01*
X88924438Y-64582562D01*
X88940090Y-64599832D01*
X88953974Y-64618552D01*
X88965956Y-64638543D01*
X88975921Y-64659613D01*
X88983773Y-64681557D01*
X88989437Y-64704166D01*
X88992856Y-64727221D01*
X88994000Y-64750500D01*
X88994000Y-65325500D01*
X88992856Y-65348779D01*
X88989437Y-65371834D01*
X88983773Y-65394443D01*
X88975921Y-65416387D01*
X88965956Y-65437457D01*
X88953974Y-65457448D01*
X88940090Y-65476168D01*
X88924438Y-65493438D01*
X88907168Y-65509090D01*
X88888448Y-65522974D01*
X88868457Y-65534956D01*
X88847387Y-65544921D01*
X88825443Y-65552773D01*
X88802834Y-65558437D01*
X88779779Y-65561856D01*
X88756500Y-65563000D01*
X88281500Y-65563000D01*
X88258221Y-65561856D01*
X88235166Y-65558437D01*
X88212557Y-65552773D01*
X88190613Y-65544921D01*
X88169543Y-65534956D01*
X88149552Y-65522974D01*
X88130832Y-65509090D01*
X88113562Y-65493438D01*
X88097910Y-65476168D01*
X88084026Y-65457448D01*
X88072044Y-65437457D01*
X88062079Y-65416387D01*
X88054227Y-65394443D01*
X88048563Y-65371834D01*
X88045144Y-65348779D01*
X88044000Y-65325500D01*
X88044000Y-64750500D01*
X88045144Y-64727221D01*
X88048563Y-64704166D01*
X88054227Y-64681557D01*
X88062079Y-64659613D01*
X88072044Y-64638543D01*
X88084026Y-64618552D01*
X88097910Y-64599832D01*
X88113562Y-64582562D01*
X88130832Y-64566910D01*
X88149552Y-64553026D01*
X88169543Y-64541044D01*
X88190613Y-64531079D01*
X88212557Y-64523227D01*
X88235166Y-64517563D01*
X88258221Y-64514144D01*
X88281500Y-64513000D01*
X88756500Y-64513000D01*
X88779779Y-64514144D01*
X88779779Y-64514144D01*
G37*
D13*
X88519000Y-65038000D03*
D10*
G36*
X88779779Y-66264144D02*
G01*
X88802834Y-66267563D01*
X88825443Y-66273227D01*
X88847387Y-66281079D01*
X88868457Y-66291044D01*
X88888448Y-66303026D01*
X88907168Y-66316910D01*
X88924438Y-66332562D01*
X88940090Y-66349832D01*
X88953974Y-66368552D01*
X88965956Y-66388543D01*
X88975921Y-66409613D01*
X88983773Y-66431557D01*
X88989437Y-66454166D01*
X88992856Y-66477221D01*
X88994000Y-66500500D01*
X88994000Y-67075500D01*
X88992856Y-67098779D01*
X88989437Y-67121834D01*
X88983773Y-67144443D01*
X88975921Y-67166387D01*
X88965956Y-67187457D01*
X88953974Y-67207448D01*
X88940090Y-67226168D01*
X88924438Y-67243438D01*
X88907168Y-67259090D01*
X88888448Y-67272974D01*
X88868457Y-67284956D01*
X88847387Y-67294921D01*
X88825443Y-67302773D01*
X88802834Y-67308437D01*
X88779779Y-67311856D01*
X88756500Y-67313000D01*
X88281500Y-67313000D01*
X88258221Y-67311856D01*
X88235166Y-67308437D01*
X88212557Y-67302773D01*
X88190613Y-67294921D01*
X88169543Y-67284956D01*
X88149552Y-67272974D01*
X88130832Y-67259090D01*
X88113562Y-67243438D01*
X88097910Y-67226168D01*
X88084026Y-67207448D01*
X88072044Y-67187457D01*
X88062079Y-67166387D01*
X88054227Y-67144443D01*
X88048563Y-67121834D01*
X88045144Y-67098779D01*
X88044000Y-67075500D01*
X88044000Y-66500500D01*
X88045144Y-66477221D01*
X88048563Y-66454166D01*
X88054227Y-66431557D01*
X88062079Y-66409613D01*
X88072044Y-66388543D01*
X88084026Y-66368552D01*
X88097910Y-66349832D01*
X88113562Y-66332562D01*
X88130832Y-66316910D01*
X88149552Y-66303026D01*
X88169543Y-66291044D01*
X88190613Y-66281079D01*
X88212557Y-66273227D01*
X88235166Y-66267563D01*
X88258221Y-66264144D01*
X88281500Y-66263000D01*
X88756500Y-66263000D01*
X88779779Y-66264144D01*
X88779779Y-66264144D01*
G37*
D13*
X88519000Y-66788000D03*
D10*
G36*
X83227779Y-57946144D02*
G01*
X83250834Y-57949563D01*
X83273443Y-57955227D01*
X83295387Y-57963079D01*
X83316457Y-57973044D01*
X83336448Y-57985026D01*
X83355168Y-57998910D01*
X83372438Y-58014562D01*
X83388090Y-58031832D01*
X83401974Y-58050552D01*
X83413956Y-58070543D01*
X83423921Y-58091613D01*
X83431773Y-58113557D01*
X83437437Y-58136166D01*
X83440856Y-58159221D01*
X83442000Y-58182500D01*
X83442000Y-58657500D01*
X83440856Y-58680779D01*
X83437437Y-58703834D01*
X83431773Y-58726443D01*
X83423921Y-58748387D01*
X83413956Y-58769457D01*
X83401974Y-58789448D01*
X83388090Y-58808168D01*
X83372438Y-58825438D01*
X83355168Y-58841090D01*
X83336448Y-58854974D01*
X83316457Y-58866956D01*
X83295387Y-58876921D01*
X83273443Y-58884773D01*
X83250834Y-58890437D01*
X83227779Y-58893856D01*
X83204500Y-58895000D01*
X82629500Y-58895000D01*
X82606221Y-58893856D01*
X82583166Y-58890437D01*
X82560557Y-58884773D01*
X82538613Y-58876921D01*
X82517543Y-58866956D01*
X82497552Y-58854974D01*
X82478832Y-58841090D01*
X82461562Y-58825438D01*
X82445910Y-58808168D01*
X82432026Y-58789448D01*
X82420044Y-58769457D01*
X82410079Y-58748387D01*
X82402227Y-58726443D01*
X82396563Y-58703834D01*
X82393144Y-58680779D01*
X82392000Y-58657500D01*
X82392000Y-58182500D01*
X82393144Y-58159221D01*
X82396563Y-58136166D01*
X82402227Y-58113557D01*
X82410079Y-58091613D01*
X82420044Y-58070543D01*
X82432026Y-58050552D01*
X82445910Y-58031832D01*
X82461562Y-58014562D01*
X82478832Y-57998910D01*
X82497552Y-57985026D01*
X82517543Y-57973044D01*
X82538613Y-57963079D01*
X82560557Y-57955227D01*
X82583166Y-57949563D01*
X82606221Y-57946144D01*
X82629500Y-57945000D01*
X83204500Y-57945000D01*
X83227779Y-57946144D01*
X83227779Y-57946144D01*
G37*
D13*
X82917000Y-58420000D03*
D10*
G36*
X81477779Y-57946144D02*
G01*
X81500834Y-57949563D01*
X81523443Y-57955227D01*
X81545387Y-57963079D01*
X81566457Y-57973044D01*
X81586448Y-57985026D01*
X81605168Y-57998910D01*
X81622438Y-58014562D01*
X81638090Y-58031832D01*
X81651974Y-58050552D01*
X81663956Y-58070543D01*
X81673921Y-58091613D01*
X81681773Y-58113557D01*
X81687437Y-58136166D01*
X81690856Y-58159221D01*
X81692000Y-58182500D01*
X81692000Y-58657500D01*
X81690856Y-58680779D01*
X81687437Y-58703834D01*
X81681773Y-58726443D01*
X81673921Y-58748387D01*
X81663956Y-58769457D01*
X81651974Y-58789448D01*
X81638090Y-58808168D01*
X81622438Y-58825438D01*
X81605168Y-58841090D01*
X81586448Y-58854974D01*
X81566457Y-58866956D01*
X81545387Y-58876921D01*
X81523443Y-58884773D01*
X81500834Y-58890437D01*
X81477779Y-58893856D01*
X81454500Y-58895000D01*
X80879500Y-58895000D01*
X80856221Y-58893856D01*
X80833166Y-58890437D01*
X80810557Y-58884773D01*
X80788613Y-58876921D01*
X80767543Y-58866956D01*
X80747552Y-58854974D01*
X80728832Y-58841090D01*
X80711562Y-58825438D01*
X80695910Y-58808168D01*
X80682026Y-58789448D01*
X80670044Y-58769457D01*
X80660079Y-58748387D01*
X80652227Y-58726443D01*
X80646563Y-58703834D01*
X80643144Y-58680779D01*
X80642000Y-58657500D01*
X80642000Y-58182500D01*
X80643144Y-58159221D01*
X80646563Y-58136166D01*
X80652227Y-58113557D01*
X80660079Y-58091613D01*
X80670044Y-58070543D01*
X80682026Y-58050552D01*
X80695910Y-58031832D01*
X80711562Y-58014562D01*
X80728832Y-57998910D01*
X80747552Y-57985026D01*
X80767543Y-57973044D01*
X80788613Y-57963079D01*
X80810557Y-57955227D01*
X80833166Y-57949563D01*
X80856221Y-57946144D01*
X80879500Y-57945000D01*
X81454500Y-57945000D01*
X81477779Y-57946144D01*
X81477779Y-57946144D01*
G37*
D13*
X81167000Y-58420000D03*
D10*
G36*
X91573779Y-56231144D02*
G01*
X91596834Y-56234563D01*
X91619443Y-56240227D01*
X91641387Y-56248079D01*
X91662457Y-56258044D01*
X91682448Y-56270026D01*
X91701168Y-56283910D01*
X91718438Y-56299562D01*
X91734090Y-56316832D01*
X91747974Y-56335552D01*
X91759956Y-56355543D01*
X91769921Y-56376613D01*
X91777773Y-56398557D01*
X91783437Y-56421166D01*
X91786856Y-56444221D01*
X91788000Y-56467500D01*
X91788000Y-57042500D01*
X91786856Y-57065779D01*
X91783437Y-57088834D01*
X91777773Y-57111443D01*
X91769921Y-57133387D01*
X91759956Y-57154457D01*
X91747974Y-57174448D01*
X91734090Y-57193168D01*
X91718438Y-57210438D01*
X91701168Y-57226090D01*
X91682448Y-57239974D01*
X91662457Y-57251956D01*
X91641387Y-57261921D01*
X91619443Y-57269773D01*
X91596834Y-57275437D01*
X91573779Y-57278856D01*
X91550500Y-57280000D01*
X91075500Y-57280000D01*
X91052221Y-57278856D01*
X91029166Y-57275437D01*
X91006557Y-57269773D01*
X90984613Y-57261921D01*
X90963543Y-57251956D01*
X90943552Y-57239974D01*
X90924832Y-57226090D01*
X90907562Y-57210438D01*
X90891910Y-57193168D01*
X90878026Y-57174448D01*
X90866044Y-57154457D01*
X90856079Y-57133387D01*
X90848227Y-57111443D01*
X90842563Y-57088834D01*
X90839144Y-57065779D01*
X90838000Y-57042500D01*
X90838000Y-56467500D01*
X90839144Y-56444221D01*
X90842563Y-56421166D01*
X90848227Y-56398557D01*
X90856079Y-56376613D01*
X90866044Y-56355543D01*
X90878026Y-56335552D01*
X90891910Y-56316832D01*
X90907562Y-56299562D01*
X90924832Y-56283910D01*
X90943552Y-56270026D01*
X90963543Y-56258044D01*
X90984613Y-56248079D01*
X91006557Y-56240227D01*
X91029166Y-56234563D01*
X91052221Y-56231144D01*
X91075500Y-56230000D01*
X91550500Y-56230000D01*
X91573779Y-56231144D01*
X91573779Y-56231144D01*
G37*
D13*
X91313000Y-56755000D03*
D10*
G36*
X91573779Y-54481144D02*
G01*
X91596834Y-54484563D01*
X91619443Y-54490227D01*
X91641387Y-54498079D01*
X91662457Y-54508044D01*
X91682448Y-54520026D01*
X91701168Y-54533910D01*
X91718438Y-54549562D01*
X91734090Y-54566832D01*
X91747974Y-54585552D01*
X91759956Y-54605543D01*
X91769921Y-54626613D01*
X91777773Y-54648557D01*
X91783437Y-54671166D01*
X91786856Y-54694221D01*
X91788000Y-54717500D01*
X91788000Y-55292500D01*
X91786856Y-55315779D01*
X91783437Y-55338834D01*
X91777773Y-55361443D01*
X91769921Y-55383387D01*
X91759956Y-55404457D01*
X91747974Y-55424448D01*
X91734090Y-55443168D01*
X91718438Y-55460438D01*
X91701168Y-55476090D01*
X91682448Y-55489974D01*
X91662457Y-55501956D01*
X91641387Y-55511921D01*
X91619443Y-55519773D01*
X91596834Y-55525437D01*
X91573779Y-55528856D01*
X91550500Y-55530000D01*
X91075500Y-55530000D01*
X91052221Y-55528856D01*
X91029166Y-55525437D01*
X91006557Y-55519773D01*
X90984613Y-55511921D01*
X90963543Y-55501956D01*
X90943552Y-55489974D01*
X90924832Y-55476090D01*
X90907562Y-55460438D01*
X90891910Y-55443168D01*
X90878026Y-55424448D01*
X90866044Y-55404457D01*
X90856079Y-55383387D01*
X90848227Y-55361443D01*
X90842563Y-55338834D01*
X90839144Y-55315779D01*
X90838000Y-55292500D01*
X90838000Y-54717500D01*
X90839144Y-54694221D01*
X90842563Y-54671166D01*
X90848227Y-54648557D01*
X90856079Y-54626613D01*
X90866044Y-54605543D01*
X90878026Y-54585552D01*
X90891910Y-54566832D01*
X90907562Y-54549562D01*
X90924832Y-54533910D01*
X90943552Y-54520026D01*
X90963543Y-54508044D01*
X90984613Y-54498079D01*
X91006557Y-54490227D01*
X91029166Y-54484563D01*
X91052221Y-54481144D01*
X91075500Y-54480000D01*
X91550500Y-54480000D01*
X91573779Y-54481144D01*
X91573779Y-54481144D01*
G37*
D13*
X91313000Y-55005000D03*
D10*
G36*
X93224779Y-56231144D02*
G01*
X93247834Y-56234563D01*
X93270443Y-56240227D01*
X93292387Y-56248079D01*
X93313457Y-56258044D01*
X93333448Y-56270026D01*
X93352168Y-56283910D01*
X93369438Y-56299562D01*
X93385090Y-56316832D01*
X93398974Y-56335552D01*
X93410956Y-56355543D01*
X93420921Y-56376613D01*
X93428773Y-56398557D01*
X93434437Y-56421166D01*
X93437856Y-56444221D01*
X93439000Y-56467500D01*
X93439000Y-57042500D01*
X93437856Y-57065779D01*
X93434437Y-57088834D01*
X93428773Y-57111443D01*
X93420921Y-57133387D01*
X93410956Y-57154457D01*
X93398974Y-57174448D01*
X93385090Y-57193168D01*
X93369438Y-57210438D01*
X93352168Y-57226090D01*
X93333448Y-57239974D01*
X93313457Y-57251956D01*
X93292387Y-57261921D01*
X93270443Y-57269773D01*
X93247834Y-57275437D01*
X93224779Y-57278856D01*
X93201500Y-57280000D01*
X92726500Y-57280000D01*
X92703221Y-57278856D01*
X92680166Y-57275437D01*
X92657557Y-57269773D01*
X92635613Y-57261921D01*
X92614543Y-57251956D01*
X92594552Y-57239974D01*
X92575832Y-57226090D01*
X92558562Y-57210438D01*
X92542910Y-57193168D01*
X92529026Y-57174448D01*
X92517044Y-57154457D01*
X92507079Y-57133387D01*
X92499227Y-57111443D01*
X92493563Y-57088834D01*
X92490144Y-57065779D01*
X92489000Y-57042500D01*
X92489000Y-56467500D01*
X92490144Y-56444221D01*
X92493563Y-56421166D01*
X92499227Y-56398557D01*
X92507079Y-56376613D01*
X92517044Y-56355543D01*
X92529026Y-56335552D01*
X92542910Y-56316832D01*
X92558562Y-56299562D01*
X92575832Y-56283910D01*
X92594552Y-56270026D01*
X92614543Y-56258044D01*
X92635613Y-56248079D01*
X92657557Y-56240227D01*
X92680166Y-56234563D01*
X92703221Y-56231144D01*
X92726500Y-56230000D01*
X93201500Y-56230000D01*
X93224779Y-56231144D01*
X93224779Y-56231144D01*
G37*
D13*
X92964000Y-56755000D03*
D10*
G36*
X93224779Y-54481144D02*
G01*
X93247834Y-54484563D01*
X93270443Y-54490227D01*
X93292387Y-54498079D01*
X93313457Y-54508044D01*
X93333448Y-54520026D01*
X93352168Y-54533910D01*
X93369438Y-54549562D01*
X93385090Y-54566832D01*
X93398974Y-54585552D01*
X93410956Y-54605543D01*
X93420921Y-54626613D01*
X93428773Y-54648557D01*
X93434437Y-54671166D01*
X93437856Y-54694221D01*
X93439000Y-54717500D01*
X93439000Y-55292500D01*
X93437856Y-55315779D01*
X93434437Y-55338834D01*
X93428773Y-55361443D01*
X93420921Y-55383387D01*
X93410956Y-55404457D01*
X93398974Y-55424448D01*
X93385090Y-55443168D01*
X93369438Y-55460438D01*
X93352168Y-55476090D01*
X93333448Y-55489974D01*
X93313457Y-55501956D01*
X93292387Y-55511921D01*
X93270443Y-55519773D01*
X93247834Y-55525437D01*
X93224779Y-55528856D01*
X93201500Y-55530000D01*
X92726500Y-55530000D01*
X92703221Y-55528856D01*
X92680166Y-55525437D01*
X92657557Y-55519773D01*
X92635613Y-55511921D01*
X92614543Y-55501956D01*
X92594552Y-55489974D01*
X92575832Y-55476090D01*
X92558562Y-55460438D01*
X92542910Y-55443168D01*
X92529026Y-55424448D01*
X92517044Y-55404457D01*
X92507079Y-55383387D01*
X92499227Y-55361443D01*
X92493563Y-55338834D01*
X92490144Y-55315779D01*
X92489000Y-55292500D01*
X92489000Y-54717500D01*
X92490144Y-54694221D01*
X92493563Y-54671166D01*
X92499227Y-54648557D01*
X92507079Y-54626613D01*
X92517044Y-54605543D01*
X92529026Y-54585552D01*
X92542910Y-54566832D01*
X92558562Y-54549562D01*
X92575832Y-54533910D01*
X92594552Y-54520026D01*
X92614543Y-54508044D01*
X92635613Y-54498079D01*
X92657557Y-54490227D01*
X92680166Y-54484563D01*
X92703221Y-54481144D01*
X92726500Y-54480000D01*
X93201500Y-54480000D01*
X93224779Y-54481144D01*
X93224779Y-54481144D01*
G37*
D13*
X92964000Y-55005000D03*
D10*
G36*
X91510779Y-58708144D02*
G01*
X91533834Y-58711563D01*
X91556443Y-58717227D01*
X91578387Y-58725079D01*
X91599457Y-58735044D01*
X91619448Y-58747026D01*
X91638168Y-58760910D01*
X91655438Y-58776562D01*
X91671090Y-58793832D01*
X91684974Y-58812552D01*
X91696956Y-58832543D01*
X91706921Y-58853613D01*
X91714773Y-58875557D01*
X91720437Y-58898166D01*
X91723856Y-58921221D01*
X91725000Y-58944500D01*
X91725000Y-59419500D01*
X91723856Y-59442779D01*
X91720437Y-59465834D01*
X91714773Y-59488443D01*
X91706921Y-59510387D01*
X91696956Y-59531457D01*
X91684974Y-59551448D01*
X91671090Y-59570168D01*
X91655438Y-59587438D01*
X91638168Y-59603090D01*
X91619448Y-59616974D01*
X91599457Y-59628956D01*
X91578387Y-59638921D01*
X91556443Y-59646773D01*
X91533834Y-59652437D01*
X91510779Y-59655856D01*
X91487500Y-59657000D01*
X90912500Y-59657000D01*
X90889221Y-59655856D01*
X90866166Y-59652437D01*
X90843557Y-59646773D01*
X90821613Y-59638921D01*
X90800543Y-59628956D01*
X90780552Y-59616974D01*
X90761832Y-59603090D01*
X90744562Y-59587438D01*
X90728910Y-59570168D01*
X90715026Y-59551448D01*
X90703044Y-59531457D01*
X90693079Y-59510387D01*
X90685227Y-59488443D01*
X90679563Y-59465834D01*
X90676144Y-59442779D01*
X90675000Y-59419500D01*
X90675000Y-58944500D01*
X90676144Y-58921221D01*
X90679563Y-58898166D01*
X90685227Y-58875557D01*
X90693079Y-58853613D01*
X90703044Y-58832543D01*
X90715026Y-58812552D01*
X90728910Y-58793832D01*
X90744562Y-58776562D01*
X90761832Y-58760910D01*
X90780552Y-58747026D01*
X90800543Y-58735044D01*
X90821613Y-58725079D01*
X90843557Y-58717227D01*
X90866166Y-58711563D01*
X90889221Y-58708144D01*
X90912500Y-58707000D01*
X91487500Y-58707000D01*
X91510779Y-58708144D01*
X91510779Y-58708144D01*
G37*
D13*
X91200000Y-59182000D03*
D10*
G36*
X93260779Y-58708144D02*
G01*
X93283834Y-58711563D01*
X93306443Y-58717227D01*
X93328387Y-58725079D01*
X93349457Y-58735044D01*
X93369448Y-58747026D01*
X93388168Y-58760910D01*
X93405438Y-58776562D01*
X93421090Y-58793832D01*
X93434974Y-58812552D01*
X93446956Y-58832543D01*
X93456921Y-58853613D01*
X93464773Y-58875557D01*
X93470437Y-58898166D01*
X93473856Y-58921221D01*
X93475000Y-58944500D01*
X93475000Y-59419500D01*
X93473856Y-59442779D01*
X93470437Y-59465834D01*
X93464773Y-59488443D01*
X93456921Y-59510387D01*
X93446956Y-59531457D01*
X93434974Y-59551448D01*
X93421090Y-59570168D01*
X93405438Y-59587438D01*
X93388168Y-59603090D01*
X93369448Y-59616974D01*
X93349457Y-59628956D01*
X93328387Y-59638921D01*
X93306443Y-59646773D01*
X93283834Y-59652437D01*
X93260779Y-59655856D01*
X93237500Y-59657000D01*
X92662500Y-59657000D01*
X92639221Y-59655856D01*
X92616166Y-59652437D01*
X92593557Y-59646773D01*
X92571613Y-59638921D01*
X92550543Y-59628956D01*
X92530552Y-59616974D01*
X92511832Y-59603090D01*
X92494562Y-59587438D01*
X92478910Y-59570168D01*
X92465026Y-59551448D01*
X92453044Y-59531457D01*
X92443079Y-59510387D01*
X92435227Y-59488443D01*
X92429563Y-59465834D01*
X92426144Y-59442779D01*
X92425000Y-59419500D01*
X92425000Y-58944500D01*
X92426144Y-58921221D01*
X92429563Y-58898166D01*
X92435227Y-58875557D01*
X92443079Y-58853613D01*
X92453044Y-58832543D01*
X92465026Y-58812552D01*
X92478910Y-58793832D01*
X92494562Y-58776562D01*
X92511832Y-58760910D01*
X92530552Y-58747026D01*
X92550543Y-58735044D01*
X92571613Y-58725079D01*
X92593557Y-58717227D01*
X92616166Y-58711563D01*
X92639221Y-58708144D01*
X92662500Y-58707000D01*
X93237500Y-58707000D01*
X93260779Y-58708144D01*
X93260779Y-58708144D01*
G37*
D13*
X92950000Y-59182000D03*
D10*
G36*
X85985779Y-56231144D02*
G01*
X86008834Y-56234563D01*
X86031443Y-56240227D01*
X86053387Y-56248079D01*
X86074457Y-56258044D01*
X86094448Y-56270026D01*
X86113168Y-56283910D01*
X86130438Y-56299562D01*
X86146090Y-56316832D01*
X86159974Y-56335552D01*
X86171956Y-56355543D01*
X86181921Y-56376613D01*
X86189773Y-56398557D01*
X86195437Y-56421166D01*
X86198856Y-56444221D01*
X86200000Y-56467500D01*
X86200000Y-57042500D01*
X86198856Y-57065779D01*
X86195437Y-57088834D01*
X86189773Y-57111443D01*
X86181921Y-57133387D01*
X86171956Y-57154457D01*
X86159974Y-57174448D01*
X86146090Y-57193168D01*
X86130438Y-57210438D01*
X86113168Y-57226090D01*
X86094448Y-57239974D01*
X86074457Y-57251956D01*
X86053387Y-57261921D01*
X86031443Y-57269773D01*
X86008834Y-57275437D01*
X85985779Y-57278856D01*
X85962500Y-57280000D01*
X85487500Y-57280000D01*
X85464221Y-57278856D01*
X85441166Y-57275437D01*
X85418557Y-57269773D01*
X85396613Y-57261921D01*
X85375543Y-57251956D01*
X85355552Y-57239974D01*
X85336832Y-57226090D01*
X85319562Y-57210438D01*
X85303910Y-57193168D01*
X85290026Y-57174448D01*
X85278044Y-57154457D01*
X85268079Y-57133387D01*
X85260227Y-57111443D01*
X85254563Y-57088834D01*
X85251144Y-57065779D01*
X85250000Y-57042500D01*
X85250000Y-56467500D01*
X85251144Y-56444221D01*
X85254563Y-56421166D01*
X85260227Y-56398557D01*
X85268079Y-56376613D01*
X85278044Y-56355543D01*
X85290026Y-56335552D01*
X85303910Y-56316832D01*
X85319562Y-56299562D01*
X85336832Y-56283910D01*
X85355552Y-56270026D01*
X85375543Y-56258044D01*
X85396613Y-56248079D01*
X85418557Y-56240227D01*
X85441166Y-56234563D01*
X85464221Y-56231144D01*
X85487500Y-56230000D01*
X85962500Y-56230000D01*
X85985779Y-56231144D01*
X85985779Y-56231144D01*
G37*
D13*
X85725000Y-56755000D03*
D10*
G36*
X85985779Y-54481144D02*
G01*
X86008834Y-54484563D01*
X86031443Y-54490227D01*
X86053387Y-54498079D01*
X86074457Y-54508044D01*
X86094448Y-54520026D01*
X86113168Y-54533910D01*
X86130438Y-54549562D01*
X86146090Y-54566832D01*
X86159974Y-54585552D01*
X86171956Y-54605543D01*
X86181921Y-54626613D01*
X86189773Y-54648557D01*
X86195437Y-54671166D01*
X86198856Y-54694221D01*
X86200000Y-54717500D01*
X86200000Y-55292500D01*
X86198856Y-55315779D01*
X86195437Y-55338834D01*
X86189773Y-55361443D01*
X86181921Y-55383387D01*
X86171956Y-55404457D01*
X86159974Y-55424448D01*
X86146090Y-55443168D01*
X86130438Y-55460438D01*
X86113168Y-55476090D01*
X86094448Y-55489974D01*
X86074457Y-55501956D01*
X86053387Y-55511921D01*
X86031443Y-55519773D01*
X86008834Y-55525437D01*
X85985779Y-55528856D01*
X85962500Y-55530000D01*
X85487500Y-55530000D01*
X85464221Y-55528856D01*
X85441166Y-55525437D01*
X85418557Y-55519773D01*
X85396613Y-55511921D01*
X85375543Y-55501956D01*
X85355552Y-55489974D01*
X85336832Y-55476090D01*
X85319562Y-55460438D01*
X85303910Y-55443168D01*
X85290026Y-55424448D01*
X85278044Y-55404457D01*
X85268079Y-55383387D01*
X85260227Y-55361443D01*
X85254563Y-55338834D01*
X85251144Y-55315779D01*
X85250000Y-55292500D01*
X85250000Y-54717500D01*
X85251144Y-54694221D01*
X85254563Y-54671166D01*
X85260227Y-54648557D01*
X85268079Y-54626613D01*
X85278044Y-54605543D01*
X85290026Y-54585552D01*
X85303910Y-54566832D01*
X85319562Y-54549562D01*
X85336832Y-54533910D01*
X85355552Y-54520026D01*
X85375543Y-54508044D01*
X85396613Y-54498079D01*
X85418557Y-54490227D01*
X85441166Y-54484563D01*
X85464221Y-54481144D01*
X85487500Y-54480000D01*
X85962500Y-54480000D01*
X85985779Y-54481144D01*
X85985779Y-54481144D01*
G37*
D13*
X85725000Y-55005000D03*
D10*
G36*
X90684779Y-64514144D02*
G01*
X90707834Y-64517563D01*
X90730443Y-64523227D01*
X90752387Y-64531079D01*
X90773457Y-64541044D01*
X90793448Y-64553026D01*
X90812168Y-64566910D01*
X90829438Y-64582562D01*
X90845090Y-64599832D01*
X90858974Y-64618552D01*
X90870956Y-64638543D01*
X90880921Y-64659613D01*
X90888773Y-64681557D01*
X90894437Y-64704166D01*
X90897856Y-64727221D01*
X90899000Y-64750500D01*
X90899000Y-65325500D01*
X90897856Y-65348779D01*
X90894437Y-65371834D01*
X90888773Y-65394443D01*
X90880921Y-65416387D01*
X90870956Y-65437457D01*
X90858974Y-65457448D01*
X90845090Y-65476168D01*
X90829438Y-65493438D01*
X90812168Y-65509090D01*
X90793448Y-65522974D01*
X90773457Y-65534956D01*
X90752387Y-65544921D01*
X90730443Y-65552773D01*
X90707834Y-65558437D01*
X90684779Y-65561856D01*
X90661500Y-65563000D01*
X90186500Y-65563000D01*
X90163221Y-65561856D01*
X90140166Y-65558437D01*
X90117557Y-65552773D01*
X90095613Y-65544921D01*
X90074543Y-65534956D01*
X90054552Y-65522974D01*
X90035832Y-65509090D01*
X90018562Y-65493438D01*
X90002910Y-65476168D01*
X89989026Y-65457448D01*
X89977044Y-65437457D01*
X89967079Y-65416387D01*
X89959227Y-65394443D01*
X89953563Y-65371834D01*
X89950144Y-65348779D01*
X89949000Y-65325500D01*
X89949000Y-64750500D01*
X89950144Y-64727221D01*
X89953563Y-64704166D01*
X89959227Y-64681557D01*
X89967079Y-64659613D01*
X89977044Y-64638543D01*
X89989026Y-64618552D01*
X90002910Y-64599832D01*
X90018562Y-64582562D01*
X90035832Y-64566910D01*
X90054552Y-64553026D01*
X90074543Y-64541044D01*
X90095613Y-64531079D01*
X90117557Y-64523227D01*
X90140166Y-64517563D01*
X90163221Y-64514144D01*
X90186500Y-64513000D01*
X90661500Y-64513000D01*
X90684779Y-64514144D01*
X90684779Y-64514144D01*
G37*
D13*
X90424000Y-65038000D03*
D10*
G36*
X90684779Y-66264144D02*
G01*
X90707834Y-66267563D01*
X90730443Y-66273227D01*
X90752387Y-66281079D01*
X90773457Y-66291044D01*
X90793448Y-66303026D01*
X90812168Y-66316910D01*
X90829438Y-66332562D01*
X90845090Y-66349832D01*
X90858974Y-66368552D01*
X90870956Y-66388543D01*
X90880921Y-66409613D01*
X90888773Y-66431557D01*
X90894437Y-66454166D01*
X90897856Y-66477221D01*
X90899000Y-66500500D01*
X90899000Y-67075500D01*
X90897856Y-67098779D01*
X90894437Y-67121834D01*
X90888773Y-67144443D01*
X90880921Y-67166387D01*
X90870956Y-67187457D01*
X90858974Y-67207448D01*
X90845090Y-67226168D01*
X90829438Y-67243438D01*
X90812168Y-67259090D01*
X90793448Y-67272974D01*
X90773457Y-67284956D01*
X90752387Y-67294921D01*
X90730443Y-67302773D01*
X90707834Y-67308437D01*
X90684779Y-67311856D01*
X90661500Y-67313000D01*
X90186500Y-67313000D01*
X90163221Y-67311856D01*
X90140166Y-67308437D01*
X90117557Y-67302773D01*
X90095613Y-67294921D01*
X90074543Y-67284956D01*
X90054552Y-67272974D01*
X90035832Y-67259090D01*
X90018562Y-67243438D01*
X90002910Y-67226168D01*
X89989026Y-67207448D01*
X89977044Y-67187457D01*
X89967079Y-67166387D01*
X89959227Y-67144443D01*
X89953563Y-67121834D01*
X89950144Y-67098779D01*
X89949000Y-67075500D01*
X89949000Y-66500500D01*
X89950144Y-66477221D01*
X89953563Y-66454166D01*
X89959227Y-66431557D01*
X89967079Y-66409613D01*
X89977044Y-66388543D01*
X89989026Y-66368552D01*
X90002910Y-66349832D01*
X90018562Y-66332562D01*
X90035832Y-66316910D01*
X90054552Y-66303026D01*
X90074543Y-66291044D01*
X90095613Y-66281079D01*
X90117557Y-66273227D01*
X90140166Y-66267563D01*
X90163221Y-66264144D01*
X90186500Y-66263000D01*
X90661500Y-66263000D01*
X90684779Y-66264144D01*
X90684779Y-66264144D01*
G37*
D13*
X90424000Y-66788000D03*
D10*
G36*
X91510779Y-62391144D02*
G01*
X91533834Y-62394563D01*
X91556443Y-62400227D01*
X91578387Y-62408079D01*
X91599457Y-62418044D01*
X91619448Y-62430026D01*
X91638168Y-62443910D01*
X91655438Y-62459562D01*
X91671090Y-62476832D01*
X91684974Y-62495552D01*
X91696956Y-62515543D01*
X91706921Y-62536613D01*
X91714773Y-62558557D01*
X91720437Y-62581166D01*
X91723856Y-62604221D01*
X91725000Y-62627500D01*
X91725000Y-63102500D01*
X91723856Y-63125779D01*
X91720437Y-63148834D01*
X91714773Y-63171443D01*
X91706921Y-63193387D01*
X91696956Y-63214457D01*
X91684974Y-63234448D01*
X91671090Y-63253168D01*
X91655438Y-63270438D01*
X91638168Y-63286090D01*
X91619448Y-63299974D01*
X91599457Y-63311956D01*
X91578387Y-63321921D01*
X91556443Y-63329773D01*
X91533834Y-63335437D01*
X91510779Y-63338856D01*
X91487500Y-63340000D01*
X90912500Y-63340000D01*
X90889221Y-63338856D01*
X90866166Y-63335437D01*
X90843557Y-63329773D01*
X90821613Y-63321921D01*
X90800543Y-63311956D01*
X90780552Y-63299974D01*
X90761832Y-63286090D01*
X90744562Y-63270438D01*
X90728910Y-63253168D01*
X90715026Y-63234448D01*
X90703044Y-63214457D01*
X90693079Y-63193387D01*
X90685227Y-63171443D01*
X90679563Y-63148834D01*
X90676144Y-63125779D01*
X90675000Y-63102500D01*
X90675000Y-62627500D01*
X90676144Y-62604221D01*
X90679563Y-62581166D01*
X90685227Y-62558557D01*
X90693079Y-62536613D01*
X90703044Y-62515543D01*
X90715026Y-62495552D01*
X90728910Y-62476832D01*
X90744562Y-62459562D01*
X90761832Y-62443910D01*
X90780552Y-62430026D01*
X90800543Y-62418044D01*
X90821613Y-62408079D01*
X90843557Y-62400227D01*
X90866166Y-62394563D01*
X90889221Y-62391144D01*
X90912500Y-62390000D01*
X91487500Y-62390000D01*
X91510779Y-62391144D01*
X91510779Y-62391144D01*
G37*
D13*
X91200000Y-62865000D03*
D10*
G36*
X93260779Y-62391144D02*
G01*
X93283834Y-62394563D01*
X93306443Y-62400227D01*
X93328387Y-62408079D01*
X93349457Y-62418044D01*
X93369448Y-62430026D01*
X93388168Y-62443910D01*
X93405438Y-62459562D01*
X93421090Y-62476832D01*
X93434974Y-62495552D01*
X93446956Y-62515543D01*
X93456921Y-62536613D01*
X93464773Y-62558557D01*
X93470437Y-62581166D01*
X93473856Y-62604221D01*
X93475000Y-62627500D01*
X93475000Y-63102500D01*
X93473856Y-63125779D01*
X93470437Y-63148834D01*
X93464773Y-63171443D01*
X93456921Y-63193387D01*
X93446956Y-63214457D01*
X93434974Y-63234448D01*
X93421090Y-63253168D01*
X93405438Y-63270438D01*
X93388168Y-63286090D01*
X93369448Y-63299974D01*
X93349457Y-63311956D01*
X93328387Y-63321921D01*
X93306443Y-63329773D01*
X93283834Y-63335437D01*
X93260779Y-63338856D01*
X93237500Y-63340000D01*
X92662500Y-63340000D01*
X92639221Y-63338856D01*
X92616166Y-63335437D01*
X92593557Y-63329773D01*
X92571613Y-63321921D01*
X92550543Y-63311956D01*
X92530552Y-63299974D01*
X92511832Y-63286090D01*
X92494562Y-63270438D01*
X92478910Y-63253168D01*
X92465026Y-63234448D01*
X92453044Y-63214457D01*
X92443079Y-63193387D01*
X92435227Y-63171443D01*
X92429563Y-63148834D01*
X92426144Y-63125779D01*
X92425000Y-63102500D01*
X92425000Y-62627500D01*
X92426144Y-62604221D01*
X92429563Y-62581166D01*
X92435227Y-62558557D01*
X92443079Y-62536613D01*
X92453044Y-62515543D01*
X92465026Y-62495552D01*
X92478910Y-62476832D01*
X92494562Y-62459562D01*
X92511832Y-62443910D01*
X92530552Y-62430026D01*
X92550543Y-62418044D01*
X92571613Y-62408079D01*
X92593557Y-62400227D01*
X92616166Y-62394563D01*
X92639221Y-62391144D01*
X92662500Y-62390000D01*
X93237500Y-62390000D01*
X93260779Y-62391144D01*
X93260779Y-62391144D01*
G37*
D13*
X92950000Y-62865000D03*
D10*
G36*
X83227779Y-54898144D02*
G01*
X83250834Y-54901563D01*
X83273443Y-54907227D01*
X83295387Y-54915079D01*
X83316457Y-54925044D01*
X83336448Y-54937026D01*
X83355168Y-54950910D01*
X83372438Y-54966562D01*
X83388090Y-54983832D01*
X83401974Y-55002552D01*
X83413956Y-55022543D01*
X83423921Y-55043613D01*
X83431773Y-55065557D01*
X83437437Y-55088166D01*
X83440856Y-55111221D01*
X83442000Y-55134500D01*
X83442000Y-55609500D01*
X83440856Y-55632779D01*
X83437437Y-55655834D01*
X83431773Y-55678443D01*
X83423921Y-55700387D01*
X83413956Y-55721457D01*
X83401974Y-55741448D01*
X83388090Y-55760168D01*
X83372438Y-55777438D01*
X83355168Y-55793090D01*
X83336448Y-55806974D01*
X83316457Y-55818956D01*
X83295387Y-55828921D01*
X83273443Y-55836773D01*
X83250834Y-55842437D01*
X83227779Y-55845856D01*
X83204500Y-55847000D01*
X82629500Y-55847000D01*
X82606221Y-55845856D01*
X82583166Y-55842437D01*
X82560557Y-55836773D01*
X82538613Y-55828921D01*
X82517543Y-55818956D01*
X82497552Y-55806974D01*
X82478832Y-55793090D01*
X82461562Y-55777438D01*
X82445910Y-55760168D01*
X82432026Y-55741448D01*
X82420044Y-55721457D01*
X82410079Y-55700387D01*
X82402227Y-55678443D01*
X82396563Y-55655834D01*
X82393144Y-55632779D01*
X82392000Y-55609500D01*
X82392000Y-55134500D01*
X82393144Y-55111221D01*
X82396563Y-55088166D01*
X82402227Y-55065557D01*
X82410079Y-55043613D01*
X82420044Y-55022543D01*
X82432026Y-55002552D01*
X82445910Y-54983832D01*
X82461562Y-54966562D01*
X82478832Y-54950910D01*
X82497552Y-54937026D01*
X82517543Y-54925044D01*
X82538613Y-54915079D01*
X82560557Y-54907227D01*
X82583166Y-54901563D01*
X82606221Y-54898144D01*
X82629500Y-54897000D01*
X83204500Y-54897000D01*
X83227779Y-54898144D01*
X83227779Y-54898144D01*
G37*
D13*
X82917000Y-55372000D03*
D10*
G36*
X81477779Y-54898144D02*
G01*
X81500834Y-54901563D01*
X81523443Y-54907227D01*
X81545387Y-54915079D01*
X81566457Y-54925044D01*
X81586448Y-54937026D01*
X81605168Y-54950910D01*
X81622438Y-54966562D01*
X81638090Y-54983832D01*
X81651974Y-55002552D01*
X81663956Y-55022543D01*
X81673921Y-55043613D01*
X81681773Y-55065557D01*
X81687437Y-55088166D01*
X81690856Y-55111221D01*
X81692000Y-55134500D01*
X81692000Y-55609500D01*
X81690856Y-55632779D01*
X81687437Y-55655834D01*
X81681773Y-55678443D01*
X81673921Y-55700387D01*
X81663956Y-55721457D01*
X81651974Y-55741448D01*
X81638090Y-55760168D01*
X81622438Y-55777438D01*
X81605168Y-55793090D01*
X81586448Y-55806974D01*
X81566457Y-55818956D01*
X81545387Y-55828921D01*
X81523443Y-55836773D01*
X81500834Y-55842437D01*
X81477779Y-55845856D01*
X81454500Y-55847000D01*
X80879500Y-55847000D01*
X80856221Y-55845856D01*
X80833166Y-55842437D01*
X80810557Y-55836773D01*
X80788613Y-55828921D01*
X80767543Y-55818956D01*
X80747552Y-55806974D01*
X80728832Y-55793090D01*
X80711562Y-55777438D01*
X80695910Y-55760168D01*
X80682026Y-55741448D01*
X80670044Y-55721457D01*
X80660079Y-55700387D01*
X80652227Y-55678443D01*
X80646563Y-55655834D01*
X80643144Y-55632779D01*
X80642000Y-55609500D01*
X80642000Y-55134500D01*
X80643144Y-55111221D01*
X80646563Y-55088166D01*
X80652227Y-55065557D01*
X80660079Y-55043613D01*
X80670044Y-55022543D01*
X80682026Y-55002552D01*
X80695910Y-54983832D01*
X80711562Y-54966562D01*
X80728832Y-54950910D01*
X80747552Y-54937026D01*
X80767543Y-54925044D01*
X80788613Y-54915079D01*
X80810557Y-54907227D01*
X80833166Y-54901563D01*
X80856221Y-54898144D01*
X80879500Y-54897000D01*
X81454500Y-54897000D01*
X81477779Y-54898144D01*
X81477779Y-54898144D01*
G37*
D13*
X81167000Y-55372000D03*
D10*
G36*
X111929779Y-76361144D02*
G01*
X111952834Y-76364563D01*
X111975443Y-76370227D01*
X111997387Y-76378079D01*
X112018457Y-76388044D01*
X112038448Y-76400026D01*
X112057168Y-76413910D01*
X112074438Y-76429562D01*
X112090090Y-76446832D01*
X112103974Y-76465552D01*
X112115956Y-76485543D01*
X112125921Y-76506613D01*
X112133773Y-76528557D01*
X112139437Y-76551166D01*
X112142856Y-76574221D01*
X112144000Y-76597500D01*
X112144000Y-77072500D01*
X112142856Y-77095779D01*
X112139437Y-77118834D01*
X112133773Y-77141443D01*
X112125921Y-77163387D01*
X112115956Y-77184457D01*
X112103974Y-77204448D01*
X112090090Y-77223168D01*
X112074438Y-77240438D01*
X112057168Y-77256090D01*
X112038448Y-77269974D01*
X112018457Y-77281956D01*
X111997387Y-77291921D01*
X111975443Y-77299773D01*
X111952834Y-77305437D01*
X111929779Y-77308856D01*
X111906500Y-77310000D01*
X111331500Y-77310000D01*
X111308221Y-77308856D01*
X111285166Y-77305437D01*
X111262557Y-77299773D01*
X111240613Y-77291921D01*
X111219543Y-77281956D01*
X111199552Y-77269974D01*
X111180832Y-77256090D01*
X111163562Y-77240438D01*
X111147910Y-77223168D01*
X111134026Y-77204448D01*
X111122044Y-77184457D01*
X111112079Y-77163387D01*
X111104227Y-77141443D01*
X111098563Y-77118834D01*
X111095144Y-77095779D01*
X111094000Y-77072500D01*
X111094000Y-76597500D01*
X111095144Y-76574221D01*
X111098563Y-76551166D01*
X111104227Y-76528557D01*
X111112079Y-76506613D01*
X111122044Y-76485543D01*
X111134026Y-76465552D01*
X111147910Y-76446832D01*
X111163562Y-76429562D01*
X111180832Y-76413910D01*
X111199552Y-76400026D01*
X111219543Y-76388044D01*
X111240613Y-76378079D01*
X111262557Y-76370227D01*
X111285166Y-76364563D01*
X111308221Y-76361144D01*
X111331500Y-76360000D01*
X111906500Y-76360000D01*
X111929779Y-76361144D01*
X111929779Y-76361144D01*
G37*
D13*
X111619000Y-76835000D03*
D10*
G36*
X110179779Y-76361144D02*
G01*
X110202834Y-76364563D01*
X110225443Y-76370227D01*
X110247387Y-76378079D01*
X110268457Y-76388044D01*
X110288448Y-76400026D01*
X110307168Y-76413910D01*
X110324438Y-76429562D01*
X110340090Y-76446832D01*
X110353974Y-76465552D01*
X110365956Y-76485543D01*
X110375921Y-76506613D01*
X110383773Y-76528557D01*
X110389437Y-76551166D01*
X110392856Y-76574221D01*
X110394000Y-76597500D01*
X110394000Y-77072500D01*
X110392856Y-77095779D01*
X110389437Y-77118834D01*
X110383773Y-77141443D01*
X110375921Y-77163387D01*
X110365956Y-77184457D01*
X110353974Y-77204448D01*
X110340090Y-77223168D01*
X110324438Y-77240438D01*
X110307168Y-77256090D01*
X110288448Y-77269974D01*
X110268457Y-77281956D01*
X110247387Y-77291921D01*
X110225443Y-77299773D01*
X110202834Y-77305437D01*
X110179779Y-77308856D01*
X110156500Y-77310000D01*
X109581500Y-77310000D01*
X109558221Y-77308856D01*
X109535166Y-77305437D01*
X109512557Y-77299773D01*
X109490613Y-77291921D01*
X109469543Y-77281956D01*
X109449552Y-77269974D01*
X109430832Y-77256090D01*
X109413562Y-77240438D01*
X109397910Y-77223168D01*
X109384026Y-77204448D01*
X109372044Y-77184457D01*
X109362079Y-77163387D01*
X109354227Y-77141443D01*
X109348563Y-77118834D01*
X109345144Y-77095779D01*
X109344000Y-77072500D01*
X109344000Y-76597500D01*
X109345144Y-76574221D01*
X109348563Y-76551166D01*
X109354227Y-76528557D01*
X109362079Y-76506613D01*
X109372044Y-76485543D01*
X109384026Y-76465552D01*
X109397910Y-76446832D01*
X109413562Y-76429562D01*
X109430832Y-76413910D01*
X109449552Y-76400026D01*
X109469543Y-76388044D01*
X109490613Y-76378079D01*
X109512557Y-76370227D01*
X109535166Y-76364563D01*
X109558221Y-76361144D01*
X109581500Y-76360000D01*
X110156500Y-76360000D01*
X110179779Y-76361144D01*
X110179779Y-76361144D01*
G37*
D13*
X109869000Y-76835000D03*
D10*
G36*
X119069779Y-66201144D02*
G01*
X119092834Y-66204563D01*
X119115443Y-66210227D01*
X119137387Y-66218079D01*
X119158457Y-66228044D01*
X119178448Y-66240026D01*
X119197168Y-66253910D01*
X119214438Y-66269562D01*
X119230090Y-66286832D01*
X119243974Y-66305552D01*
X119255956Y-66325543D01*
X119265921Y-66346613D01*
X119273773Y-66368557D01*
X119279437Y-66391166D01*
X119282856Y-66414221D01*
X119284000Y-66437500D01*
X119284000Y-66912500D01*
X119282856Y-66935779D01*
X119279437Y-66958834D01*
X119273773Y-66981443D01*
X119265921Y-67003387D01*
X119255956Y-67024457D01*
X119243974Y-67044448D01*
X119230090Y-67063168D01*
X119214438Y-67080438D01*
X119197168Y-67096090D01*
X119178448Y-67109974D01*
X119158457Y-67121956D01*
X119137387Y-67131921D01*
X119115443Y-67139773D01*
X119092834Y-67145437D01*
X119069779Y-67148856D01*
X119046500Y-67150000D01*
X118471500Y-67150000D01*
X118448221Y-67148856D01*
X118425166Y-67145437D01*
X118402557Y-67139773D01*
X118380613Y-67131921D01*
X118359543Y-67121956D01*
X118339552Y-67109974D01*
X118320832Y-67096090D01*
X118303562Y-67080438D01*
X118287910Y-67063168D01*
X118274026Y-67044448D01*
X118262044Y-67024457D01*
X118252079Y-67003387D01*
X118244227Y-66981443D01*
X118238563Y-66958834D01*
X118235144Y-66935779D01*
X118234000Y-66912500D01*
X118234000Y-66437500D01*
X118235144Y-66414221D01*
X118238563Y-66391166D01*
X118244227Y-66368557D01*
X118252079Y-66346613D01*
X118262044Y-66325543D01*
X118274026Y-66305552D01*
X118287910Y-66286832D01*
X118303562Y-66269562D01*
X118320832Y-66253910D01*
X118339552Y-66240026D01*
X118359543Y-66228044D01*
X118380613Y-66218079D01*
X118402557Y-66210227D01*
X118425166Y-66204563D01*
X118448221Y-66201144D01*
X118471500Y-66200000D01*
X119046500Y-66200000D01*
X119069779Y-66201144D01*
X119069779Y-66201144D01*
G37*
D13*
X118759000Y-66675000D03*
D10*
G36*
X120819779Y-66201144D02*
G01*
X120842834Y-66204563D01*
X120865443Y-66210227D01*
X120887387Y-66218079D01*
X120908457Y-66228044D01*
X120928448Y-66240026D01*
X120947168Y-66253910D01*
X120964438Y-66269562D01*
X120980090Y-66286832D01*
X120993974Y-66305552D01*
X121005956Y-66325543D01*
X121015921Y-66346613D01*
X121023773Y-66368557D01*
X121029437Y-66391166D01*
X121032856Y-66414221D01*
X121034000Y-66437500D01*
X121034000Y-66912500D01*
X121032856Y-66935779D01*
X121029437Y-66958834D01*
X121023773Y-66981443D01*
X121015921Y-67003387D01*
X121005956Y-67024457D01*
X120993974Y-67044448D01*
X120980090Y-67063168D01*
X120964438Y-67080438D01*
X120947168Y-67096090D01*
X120928448Y-67109974D01*
X120908457Y-67121956D01*
X120887387Y-67131921D01*
X120865443Y-67139773D01*
X120842834Y-67145437D01*
X120819779Y-67148856D01*
X120796500Y-67150000D01*
X120221500Y-67150000D01*
X120198221Y-67148856D01*
X120175166Y-67145437D01*
X120152557Y-67139773D01*
X120130613Y-67131921D01*
X120109543Y-67121956D01*
X120089552Y-67109974D01*
X120070832Y-67096090D01*
X120053562Y-67080438D01*
X120037910Y-67063168D01*
X120024026Y-67044448D01*
X120012044Y-67024457D01*
X120002079Y-67003387D01*
X119994227Y-66981443D01*
X119988563Y-66958834D01*
X119985144Y-66935779D01*
X119984000Y-66912500D01*
X119984000Y-66437500D01*
X119985144Y-66414221D01*
X119988563Y-66391166D01*
X119994227Y-66368557D01*
X120002079Y-66346613D01*
X120012044Y-66325543D01*
X120024026Y-66305552D01*
X120037910Y-66286832D01*
X120053562Y-66269562D01*
X120070832Y-66253910D01*
X120089552Y-66240026D01*
X120109543Y-66228044D01*
X120130613Y-66218079D01*
X120152557Y-66210227D01*
X120175166Y-66204563D01*
X120198221Y-66201144D01*
X120221500Y-66200000D01*
X120796500Y-66200000D01*
X120819779Y-66201144D01*
X120819779Y-66201144D01*
G37*
D13*
X120509000Y-66675000D03*
D10*
G36*
X119069779Y-68233144D02*
G01*
X119092834Y-68236563D01*
X119115443Y-68242227D01*
X119137387Y-68250079D01*
X119158457Y-68260044D01*
X119178448Y-68272026D01*
X119197168Y-68285910D01*
X119214438Y-68301562D01*
X119230090Y-68318832D01*
X119243974Y-68337552D01*
X119255956Y-68357543D01*
X119265921Y-68378613D01*
X119273773Y-68400557D01*
X119279437Y-68423166D01*
X119282856Y-68446221D01*
X119284000Y-68469500D01*
X119284000Y-68944500D01*
X119282856Y-68967779D01*
X119279437Y-68990834D01*
X119273773Y-69013443D01*
X119265921Y-69035387D01*
X119255956Y-69056457D01*
X119243974Y-69076448D01*
X119230090Y-69095168D01*
X119214438Y-69112438D01*
X119197168Y-69128090D01*
X119178448Y-69141974D01*
X119158457Y-69153956D01*
X119137387Y-69163921D01*
X119115443Y-69171773D01*
X119092834Y-69177437D01*
X119069779Y-69180856D01*
X119046500Y-69182000D01*
X118471500Y-69182000D01*
X118448221Y-69180856D01*
X118425166Y-69177437D01*
X118402557Y-69171773D01*
X118380613Y-69163921D01*
X118359543Y-69153956D01*
X118339552Y-69141974D01*
X118320832Y-69128090D01*
X118303562Y-69112438D01*
X118287910Y-69095168D01*
X118274026Y-69076448D01*
X118262044Y-69056457D01*
X118252079Y-69035387D01*
X118244227Y-69013443D01*
X118238563Y-68990834D01*
X118235144Y-68967779D01*
X118234000Y-68944500D01*
X118234000Y-68469500D01*
X118235144Y-68446221D01*
X118238563Y-68423166D01*
X118244227Y-68400557D01*
X118252079Y-68378613D01*
X118262044Y-68357543D01*
X118274026Y-68337552D01*
X118287910Y-68318832D01*
X118303562Y-68301562D01*
X118320832Y-68285910D01*
X118339552Y-68272026D01*
X118359543Y-68260044D01*
X118380613Y-68250079D01*
X118402557Y-68242227D01*
X118425166Y-68236563D01*
X118448221Y-68233144D01*
X118471500Y-68232000D01*
X119046500Y-68232000D01*
X119069779Y-68233144D01*
X119069779Y-68233144D01*
G37*
D13*
X118759000Y-68707000D03*
D10*
G36*
X120819779Y-68233144D02*
G01*
X120842834Y-68236563D01*
X120865443Y-68242227D01*
X120887387Y-68250079D01*
X120908457Y-68260044D01*
X120928448Y-68272026D01*
X120947168Y-68285910D01*
X120964438Y-68301562D01*
X120980090Y-68318832D01*
X120993974Y-68337552D01*
X121005956Y-68357543D01*
X121015921Y-68378613D01*
X121023773Y-68400557D01*
X121029437Y-68423166D01*
X121032856Y-68446221D01*
X121034000Y-68469500D01*
X121034000Y-68944500D01*
X121032856Y-68967779D01*
X121029437Y-68990834D01*
X121023773Y-69013443D01*
X121015921Y-69035387D01*
X121005956Y-69056457D01*
X120993974Y-69076448D01*
X120980090Y-69095168D01*
X120964438Y-69112438D01*
X120947168Y-69128090D01*
X120928448Y-69141974D01*
X120908457Y-69153956D01*
X120887387Y-69163921D01*
X120865443Y-69171773D01*
X120842834Y-69177437D01*
X120819779Y-69180856D01*
X120796500Y-69182000D01*
X120221500Y-69182000D01*
X120198221Y-69180856D01*
X120175166Y-69177437D01*
X120152557Y-69171773D01*
X120130613Y-69163921D01*
X120109543Y-69153956D01*
X120089552Y-69141974D01*
X120070832Y-69128090D01*
X120053562Y-69112438D01*
X120037910Y-69095168D01*
X120024026Y-69076448D01*
X120012044Y-69056457D01*
X120002079Y-69035387D01*
X119994227Y-69013443D01*
X119988563Y-68990834D01*
X119985144Y-68967779D01*
X119984000Y-68944500D01*
X119984000Y-68469500D01*
X119985144Y-68446221D01*
X119988563Y-68423166D01*
X119994227Y-68400557D01*
X120002079Y-68378613D01*
X120012044Y-68357543D01*
X120024026Y-68337552D01*
X120037910Y-68318832D01*
X120053562Y-68301562D01*
X120070832Y-68285910D01*
X120089552Y-68272026D01*
X120109543Y-68260044D01*
X120130613Y-68250079D01*
X120152557Y-68242227D01*
X120175166Y-68236563D01*
X120198221Y-68233144D01*
X120221500Y-68232000D01*
X120796500Y-68232000D01*
X120819779Y-68233144D01*
X120819779Y-68233144D01*
G37*
D13*
X120509000Y-68707000D03*
D10*
G36*
X110913779Y-70392144D02*
G01*
X110936834Y-70395563D01*
X110959443Y-70401227D01*
X110981387Y-70409079D01*
X111002457Y-70419044D01*
X111022448Y-70431026D01*
X111041168Y-70444910D01*
X111058438Y-70460562D01*
X111074090Y-70477832D01*
X111087974Y-70496552D01*
X111099956Y-70516543D01*
X111109921Y-70537613D01*
X111117773Y-70559557D01*
X111123437Y-70582166D01*
X111126856Y-70605221D01*
X111128000Y-70628500D01*
X111128000Y-71103500D01*
X111126856Y-71126779D01*
X111123437Y-71149834D01*
X111117773Y-71172443D01*
X111109921Y-71194387D01*
X111099956Y-71215457D01*
X111087974Y-71235448D01*
X111074090Y-71254168D01*
X111058438Y-71271438D01*
X111041168Y-71287090D01*
X111022448Y-71300974D01*
X111002457Y-71312956D01*
X110981387Y-71322921D01*
X110959443Y-71330773D01*
X110936834Y-71336437D01*
X110913779Y-71339856D01*
X110890500Y-71341000D01*
X110315500Y-71341000D01*
X110292221Y-71339856D01*
X110269166Y-71336437D01*
X110246557Y-71330773D01*
X110224613Y-71322921D01*
X110203543Y-71312956D01*
X110183552Y-71300974D01*
X110164832Y-71287090D01*
X110147562Y-71271438D01*
X110131910Y-71254168D01*
X110118026Y-71235448D01*
X110106044Y-71215457D01*
X110096079Y-71194387D01*
X110088227Y-71172443D01*
X110082563Y-71149834D01*
X110079144Y-71126779D01*
X110078000Y-71103500D01*
X110078000Y-70628500D01*
X110079144Y-70605221D01*
X110082563Y-70582166D01*
X110088227Y-70559557D01*
X110096079Y-70537613D01*
X110106044Y-70516543D01*
X110118026Y-70496552D01*
X110131910Y-70477832D01*
X110147562Y-70460562D01*
X110164832Y-70444910D01*
X110183552Y-70431026D01*
X110203543Y-70419044D01*
X110224613Y-70409079D01*
X110246557Y-70401227D01*
X110269166Y-70395563D01*
X110292221Y-70392144D01*
X110315500Y-70391000D01*
X110890500Y-70391000D01*
X110913779Y-70392144D01*
X110913779Y-70392144D01*
G37*
D13*
X110603000Y-70866000D03*
D10*
G36*
X109163779Y-70392144D02*
G01*
X109186834Y-70395563D01*
X109209443Y-70401227D01*
X109231387Y-70409079D01*
X109252457Y-70419044D01*
X109272448Y-70431026D01*
X109291168Y-70444910D01*
X109308438Y-70460562D01*
X109324090Y-70477832D01*
X109337974Y-70496552D01*
X109349956Y-70516543D01*
X109359921Y-70537613D01*
X109367773Y-70559557D01*
X109373437Y-70582166D01*
X109376856Y-70605221D01*
X109378000Y-70628500D01*
X109378000Y-71103500D01*
X109376856Y-71126779D01*
X109373437Y-71149834D01*
X109367773Y-71172443D01*
X109359921Y-71194387D01*
X109349956Y-71215457D01*
X109337974Y-71235448D01*
X109324090Y-71254168D01*
X109308438Y-71271438D01*
X109291168Y-71287090D01*
X109272448Y-71300974D01*
X109252457Y-71312956D01*
X109231387Y-71322921D01*
X109209443Y-71330773D01*
X109186834Y-71336437D01*
X109163779Y-71339856D01*
X109140500Y-71341000D01*
X108565500Y-71341000D01*
X108542221Y-71339856D01*
X108519166Y-71336437D01*
X108496557Y-71330773D01*
X108474613Y-71322921D01*
X108453543Y-71312956D01*
X108433552Y-71300974D01*
X108414832Y-71287090D01*
X108397562Y-71271438D01*
X108381910Y-71254168D01*
X108368026Y-71235448D01*
X108356044Y-71215457D01*
X108346079Y-71194387D01*
X108338227Y-71172443D01*
X108332563Y-71149834D01*
X108329144Y-71126779D01*
X108328000Y-71103500D01*
X108328000Y-70628500D01*
X108329144Y-70605221D01*
X108332563Y-70582166D01*
X108338227Y-70559557D01*
X108346079Y-70537613D01*
X108356044Y-70516543D01*
X108368026Y-70496552D01*
X108381910Y-70477832D01*
X108397562Y-70460562D01*
X108414832Y-70444910D01*
X108433552Y-70431026D01*
X108453543Y-70419044D01*
X108474613Y-70409079D01*
X108496557Y-70401227D01*
X108519166Y-70395563D01*
X108542221Y-70392144D01*
X108565500Y-70391000D01*
X109140500Y-70391000D01*
X109163779Y-70392144D01*
X109163779Y-70392144D01*
G37*
D13*
X108853000Y-70866000D03*
D10*
G36*
X115576779Y-65276144D02*
G01*
X115599834Y-65279563D01*
X115622443Y-65285227D01*
X115644387Y-65293079D01*
X115665457Y-65303044D01*
X115685448Y-65315026D01*
X115704168Y-65328910D01*
X115721438Y-65344562D01*
X115737090Y-65361832D01*
X115750974Y-65380552D01*
X115762956Y-65400543D01*
X115772921Y-65421613D01*
X115780773Y-65443557D01*
X115786437Y-65466166D01*
X115789856Y-65489221D01*
X115791000Y-65512500D01*
X115791000Y-66087500D01*
X115789856Y-66110779D01*
X115786437Y-66133834D01*
X115780773Y-66156443D01*
X115772921Y-66178387D01*
X115762956Y-66199457D01*
X115750974Y-66219448D01*
X115737090Y-66238168D01*
X115721438Y-66255438D01*
X115704168Y-66271090D01*
X115685448Y-66284974D01*
X115665457Y-66296956D01*
X115644387Y-66306921D01*
X115622443Y-66314773D01*
X115599834Y-66320437D01*
X115576779Y-66323856D01*
X115553500Y-66325000D01*
X115078500Y-66325000D01*
X115055221Y-66323856D01*
X115032166Y-66320437D01*
X115009557Y-66314773D01*
X114987613Y-66306921D01*
X114966543Y-66296956D01*
X114946552Y-66284974D01*
X114927832Y-66271090D01*
X114910562Y-66255438D01*
X114894910Y-66238168D01*
X114881026Y-66219448D01*
X114869044Y-66199457D01*
X114859079Y-66178387D01*
X114851227Y-66156443D01*
X114845563Y-66133834D01*
X114842144Y-66110779D01*
X114841000Y-66087500D01*
X114841000Y-65512500D01*
X114842144Y-65489221D01*
X114845563Y-65466166D01*
X114851227Y-65443557D01*
X114859079Y-65421613D01*
X114869044Y-65400543D01*
X114881026Y-65380552D01*
X114894910Y-65361832D01*
X114910562Y-65344562D01*
X114927832Y-65328910D01*
X114946552Y-65315026D01*
X114966543Y-65303044D01*
X114987613Y-65293079D01*
X115009557Y-65285227D01*
X115032166Y-65279563D01*
X115055221Y-65276144D01*
X115078500Y-65275000D01*
X115553500Y-65275000D01*
X115576779Y-65276144D01*
X115576779Y-65276144D01*
G37*
D13*
X115316000Y-65800000D03*
D10*
G36*
X115576779Y-67026144D02*
G01*
X115599834Y-67029563D01*
X115622443Y-67035227D01*
X115644387Y-67043079D01*
X115665457Y-67053044D01*
X115685448Y-67065026D01*
X115704168Y-67078910D01*
X115721438Y-67094562D01*
X115737090Y-67111832D01*
X115750974Y-67130552D01*
X115762956Y-67150543D01*
X115772921Y-67171613D01*
X115780773Y-67193557D01*
X115786437Y-67216166D01*
X115789856Y-67239221D01*
X115791000Y-67262500D01*
X115791000Y-67837500D01*
X115789856Y-67860779D01*
X115786437Y-67883834D01*
X115780773Y-67906443D01*
X115772921Y-67928387D01*
X115762956Y-67949457D01*
X115750974Y-67969448D01*
X115737090Y-67988168D01*
X115721438Y-68005438D01*
X115704168Y-68021090D01*
X115685448Y-68034974D01*
X115665457Y-68046956D01*
X115644387Y-68056921D01*
X115622443Y-68064773D01*
X115599834Y-68070437D01*
X115576779Y-68073856D01*
X115553500Y-68075000D01*
X115078500Y-68075000D01*
X115055221Y-68073856D01*
X115032166Y-68070437D01*
X115009557Y-68064773D01*
X114987613Y-68056921D01*
X114966543Y-68046956D01*
X114946552Y-68034974D01*
X114927832Y-68021090D01*
X114910562Y-68005438D01*
X114894910Y-67988168D01*
X114881026Y-67969448D01*
X114869044Y-67949457D01*
X114859079Y-67928387D01*
X114851227Y-67906443D01*
X114845563Y-67883834D01*
X114842144Y-67860779D01*
X114841000Y-67837500D01*
X114841000Y-67262500D01*
X114842144Y-67239221D01*
X114845563Y-67216166D01*
X114851227Y-67193557D01*
X114859079Y-67171613D01*
X114869044Y-67150543D01*
X114881026Y-67130552D01*
X114894910Y-67111832D01*
X114910562Y-67094562D01*
X114927832Y-67078910D01*
X114946552Y-67065026D01*
X114966543Y-67053044D01*
X114987613Y-67043079D01*
X115009557Y-67035227D01*
X115032166Y-67029563D01*
X115055221Y-67026144D01*
X115078500Y-67025000D01*
X115553500Y-67025000D01*
X115576779Y-67026144D01*
X115576779Y-67026144D01*
G37*
D13*
X115316000Y-67550000D03*
D10*
G36*
X110913779Y-66201144D02*
G01*
X110936834Y-66204563D01*
X110959443Y-66210227D01*
X110981387Y-66218079D01*
X111002457Y-66228044D01*
X111022448Y-66240026D01*
X111041168Y-66253910D01*
X111058438Y-66269562D01*
X111074090Y-66286832D01*
X111087974Y-66305552D01*
X111099956Y-66325543D01*
X111109921Y-66346613D01*
X111117773Y-66368557D01*
X111123437Y-66391166D01*
X111126856Y-66414221D01*
X111128000Y-66437500D01*
X111128000Y-66912500D01*
X111126856Y-66935779D01*
X111123437Y-66958834D01*
X111117773Y-66981443D01*
X111109921Y-67003387D01*
X111099956Y-67024457D01*
X111087974Y-67044448D01*
X111074090Y-67063168D01*
X111058438Y-67080438D01*
X111041168Y-67096090D01*
X111022448Y-67109974D01*
X111002457Y-67121956D01*
X110981387Y-67131921D01*
X110959443Y-67139773D01*
X110936834Y-67145437D01*
X110913779Y-67148856D01*
X110890500Y-67150000D01*
X110315500Y-67150000D01*
X110292221Y-67148856D01*
X110269166Y-67145437D01*
X110246557Y-67139773D01*
X110224613Y-67131921D01*
X110203543Y-67121956D01*
X110183552Y-67109974D01*
X110164832Y-67096090D01*
X110147562Y-67080438D01*
X110131910Y-67063168D01*
X110118026Y-67044448D01*
X110106044Y-67024457D01*
X110096079Y-67003387D01*
X110088227Y-66981443D01*
X110082563Y-66958834D01*
X110079144Y-66935779D01*
X110078000Y-66912500D01*
X110078000Y-66437500D01*
X110079144Y-66414221D01*
X110082563Y-66391166D01*
X110088227Y-66368557D01*
X110096079Y-66346613D01*
X110106044Y-66325543D01*
X110118026Y-66305552D01*
X110131910Y-66286832D01*
X110147562Y-66269562D01*
X110164832Y-66253910D01*
X110183552Y-66240026D01*
X110203543Y-66228044D01*
X110224613Y-66218079D01*
X110246557Y-66210227D01*
X110269166Y-66204563D01*
X110292221Y-66201144D01*
X110315500Y-66200000D01*
X110890500Y-66200000D01*
X110913779Y-66201144D01*
X110913779Y-66201144D01*
G37*
D13*
X110603000Y-66675000D03*
D10*
G36*
X109163779Y-66201144D02*
G01*
X109186834Y-66204563D01*
X109209443Y-66210227D01*
X109231387Y-66218079D01*
X109252457Y-66228044D01*
X109272448Y-66240026D01*
X109291168Y-66253910D01*
X109308438Y-66269562D01*
X109324090Y-66286832D01*
X109337974Y-66305552D01*
X109349956Y-66325543D01*
X109359921Y-66346613D01*
X109367773Y-66368557D01*
X109373437Y-66391166D01*
X109376856Y-66414221D01*
X109378000Y-66437500D01*
X109378000Y-66912500D01*
X109376856Y-66935779D01*
X109373437Y-66958834D01*
X109367773Y-66981443D01*
X109359921Y-67003387D01*
X109349956Y-67024457D01*
X109337974Y-67044448D01*
X109324090Y-67063168D01*
X109308438Y-67080438D01*
X109291168Y-67096090D01*
X109272448Y-67109974D01*
X109252457Y-67121956D01*
X109231387Y-67131921D01*
X109209443Y-67139773D01*
X109186834Y-67145437D01*
X109163779Y-67148856D01*
X109140500Y-67150000D01*
X108565500Y-67150000D01*
X108542221Y-67148856D01*
X108519166Y-67145437D01*
X108496557Y-67139773D01*
X108474613Y-67131921D01*
X108453543Y-67121956D01*
X108433552Y-67109974D01*
X108414832Y-67096090D01*
X108397562Y-67080438D01*
X108381910Y-67063168D01*
X108368026Y-67044448D01*
X108356044Y-67024457D01*
X108346079Y-67003387D01*
X108338227Y-66981443D01*
X108332563Y-66958834D01*
X108329144Y-66935779D01*
X108328000Y-66912500D01*
X108328000Y-66437500D01*
X108329144Y-66414221D01*
X108332563Y-66391166D01*
X108338227Y-66368557D01*
X108346079Y-66346613D01*
X108356044Y-66325543D01*
X108368026Y-66305552D01*
X108381910Y-66286832D01*
X108397562Y-66269562D01*
X108414832Y-66253910D01*
X108433552Y-66240026D01*
X108453543Y-66228044D01*
X108474613Y-66218079D01*
X108496557Y-66210227D01*
X108519166Y-66204563D01*
X108542221Y-66201144D01*
X108565500Y-66200000D01*
X109140500Y-66200000D01*
X109163779Y-66201144D01*
X109163779Y-66201144D01*
G37*
D13*
X108853000Y-66675000D03*
D10*
G36*
X119196779Y-76361144D02*
G01*
X119219834Y-76364563D01*
X119242443Y-76370227D01*
X119264387Y-76378079D01*
X119285457Y-76388044D01*
X119305448Y-76400026D01*
X119324168Y-76413910D01*
X119341438Y-76429562D01*
X119357090Y-76446832D01*
X119370974Y-76465552D01*
X119382956Y-76485543D01*
X119392921Y-76506613D01*
X119400773Y-76528557D01*
X119406437Y-76551166D01*
X119409856Y-76574221D01*
X119411000Y-76597500D01*
X119411000Y-77072500D01*
X119409856Y-77095779D01*
X119406437Y-77118834D01*
X119400773Y-77141443D01*
X119392921Y-77163387D01*
X119382956Y-77184457D01*
X119370974Y-77204448D01*
X119357090Y-77223168D01*
X119341438Y-77240438D01*
X119324168Y-77256090D01*
X119305448Y-77269974D01*
X119285457Y-77281956D01*
X119264387Y-77291921D01*
X119242443Y-77299773D01*
X119219834Y-77305437D01*
X119196779Y-77308856D01*
X119173500Y-77310000D01*
X118598500Y-77310000D01*
X118575221Y-77308856D01*
X118552166Y-77305437D01*
X118529557Y-77299773D01*
X118507613Y-77291921D01*
X118486543Y-77281956D01*
X118466552Y-77269974D01*
X118447832Y-77256090D01*
X118430562Y-77240438D01*
X118414910Y-77223168D01*
X118401026Y-77204448D01*
X118389044Y-77184457D01*
X118379079Y-77163387D01*
X118371227Y-77141443D01*
X118365563Y-77118834D01*
X118362144Y-77095779D01*
X118361000Y-77072500D01*
X118361000Y-76597500D01*
X118362144Y-76574221D01*
X118365563Y-76551166D01*
X118371227Y-76528557D01*
X118379079Y-76506613D01*
X118389044Y-76485543D01*
X118401026Y-76465552D01*
X118414910Y-76446832D01*
X118430562Y-76429562D01*
X118447832Y-76413910D01*
X118466552Y-76400026D01*
X118486543Y-76388044D01*
X118507613Y-76378079D01*
X118529557Y-76370227D01*
X118552166Y-76364563D01*
X118575221Y-76361144D01*
X118598500Y-76360000D01*
X119173500Y-76360000D01*
X119196779Y-76361144D01*
X119196779Y-76361144D01*
G37*
D13*
X118886000Y-76835000D03*
D10*
G36*
X120946779Y-76361144D02*
G01*
X120969834Y-76364563D01*
X120992443Y-76370227D01*
X121014387Y-76378079D01*
X121035457Y-76388044D01*
X121055448Y-76400026D01*
X121074168Y-76413910D01*
X121091438Y-76429562D01*
X121107090Y-76446832D01*
X121120974Y-76465552D01*
X121132956Y-76485543D01*
X121142921Y-76506613D01*
X121150773Y-76528557D01*
X121156437Y-76551166D01*
X121159856Y-76574221D01*
X121161000Y-76597500D01*
X121161000Y-77072500D01*
X121159856Y-77095779D01*
X121156437Y-77118834D01*
X121150773Y-77141443D01*
X121142921Y-77163387D01*
X121132956Y-77184457D01*
X121120974Y-77204448D01*
X121107090Y-77223168D01*
X121091438Y-77240438D01*
X121074168Y-77256090D01*
X121055448Y-77269974D01*
X121035457Y-77281956D01*
X121014387Y-77291921D01*
X120992443Y-77299773D01*
X120969834Y-77305437D01*
X120946779Y-77308856D01*
X120923500Y-77310000D01*
X120348500Y-77310000D01*
X120325221Y-77308856D01*
X120302166Y-77305437D01*
X120279557Y-77299773D01*
X120257613Y-77291921D01*
X120236543Y-77281956D01*
X120216552Y-77269974D01*
X120197832Y-77256090D01*
X120180562Y-77240438D01*
X120164910Y-77223168D01*
X120151026Y-77204448D01*
X120139044Y-77184457D01*
X120129079Y-77163387D01*
X120121227Y-77141443D01*
X120115563Y-77118834D01*
X120112144Y-77095779D01*
X120111000Y-77072500D01*
X120111000Y-76597500D01*
X120112144Y-76574221D01*
X120115563Y-76551166D01*
X120121227Y-76528557D01*
X120129079Y-76506613D01*
X120139044Y-76485543D01*
X120151026Y-76465552D01*
X120164910Y-76446832D01*
X120180562Y-76429562D01*
X120197832Y-76413910D01*
X120216552Y-76400026D01*
X120236543Y-76388044D01*
X120257613Y-76378079D01*
X120279557Y-76370227D01*
X120302166Y-76364563D01*
X120325221Y-76361144D01*
X120348500Y-76360000D01*
X120923500Y-76360000D01*
X120946779Y-76361144D01*
X120946779Y-76361144D01*
G37*
D13*
X120636000Y-76835000D03*
D10*
G36*
X109353779Y-56513144D02*
G01*
X109376834Y-56516563D01*
X109399443Y-56522227D01*
X109421387Y-56530079D01*
X109442457Y-56540044D01*
X109462448Y-56552026D01*
X109481168Y-56565910D01*
X109498438Y-56581562D01*
X109514090Y-56598832D01*
X109527974Y-56617552D01*
X109539956Y-56637543D01*
X109549921Y-56658613D01*
X109557773Y-56680557D01*
X109563437Y-56703166D01*
X109566856Y-56726221D01*
X109568000Y-56749500D01*
X109568000Y-57324500D01*
X109566856Y-57347779D01*
X109563437Y-57370834D01*
X109557773Y-57393443D01*
X109549921Y-57415387D01*
X109539956Y-57436457D01*
X109527974Y-57456448D01*
X109514090Y-57475168D01*
X109498438Y-57492438D01*
X109481168Y-57508090D01*
X109462448Y-57521974D01*
X109442457Y-57533956D01*
X109421387Y-57543921D01*
X109399443Y-57551773D01*
X109376834Y-57557437D01*
X109353779Y-57560856D01*
X109330500Y-57562000D01*
X108855500Y-57562000D01*
X108832221Y-57560856D01*
X108809166Y-57557437D01*
X108786557Y-57551773D01*
X108764613Y-57543921D01*
X108743543Y-57533956D01*
X108723552Y-57521974D01*
X108704832Y-57508090D01*
X108687562Y-57492438D01*
X108671910Y-57475168D01*
X108658026Y-57456448D01*
X108646044Y-57436457D01*
X108636079Y-57415387D01*
X108628227Y-57393443D01*
X108622563Y-57370834D01*
X108619144Y-57347779D01*
X108618000Y-57324500D01*
X108618000Y-56749500D01*
X108619144Y-56726221D01*
X108622563Y-56703166D01*
X108628227Y-56680557D01*
X108636079Y-56658613D01*
X108646044Y-56637543D01*
X108658026Y-56617552D01*
X108671910Y-56598832D01*
X108687562Y-56581562D01*
X108704832Y-56565910D01*
X108723552Y-56552026D01*
X108743543Y-56540044D01*
X108764613Y-56530079D01*
X108786557Y-56522227D01*
X108809166Y-56516563D01*
X108832221Y-56513144D01*
X108855500Y-56512000D01*
X109330500Y-56512000D01*
X109353779Y-56513144D01*
X109353779Y-56513144D01*
G37*
D13*
X109093000Y-57037000D03*
D10*
G36*
X109353779Y-58263144D02*
G01*
X109376834Y-58266563D01*
X109399443Y-58272227D01*
X109421387Y-58280079D01*
X109442457Y-58290044D01*
X109462448Y-58302026D01*
X109481168Y-58315910D01*
X109498438Y-58331562D01*
X109514090Y-58348832D01*
X109527974Y-58367552D01*
X109539956Y-58387543D01*
X109549921Y-58408613D01*
X109557773Y-58430557D01*
X109563437Y-58453166D01*
X109566856Y-58476221D01*
X109568000Y-58499500D01*
X109568000Y-59074500D01*
X109566856Y-59097779D01*
X109563437Y-59120834D01*
X109557773Y-59143443D01*
X109549921Y-59165387D01*
X109539956Y-59186457D01*
X109527974Y-59206448D01*
X109514090Y-59225168D01*
X109498438Y-59242438D01*
X109481168Y-59258090D01*
X109462448Y-59271974D01*
X109442457Y-59283956D01*
X109421387Y-59293921D01*
X109399443Y-59301773D01*
X109376834Y-59307437D01*
X109353779Y-59310856D01*
X109330500Y-59312000D01*
X108855500Y-59312000D01*
X108832221Y-59310856D01*
X108809166Y-59307437D01*
X108786557Y-59301773D01*
X108764613Y-59293921D01*
X108743543Y-59283956D01*
X108723552Y-59271974D01*
X108704832Y-59258090D01*
X108687562Y-59242438D01*
X108671910Y-59225168D01*
X108658026Y-59206448D01*
X108646044Y-59186457D01*
X108636079Y-59165387D01*
X108628227Y-59143443D01*
X108622563Y-59120834D01*
X108619144Y-59097779D01*
X108618000Y-59074500D01*
X108618000Y-58499500D01*
X108619144Y-58476221D01*
X108622563Y-58453166D01*
X108628227Y-58430557D01*
X108636079Y-58408613D01*
X108646044Y-58387543D01*
X108658026Y-58367552D01*
X108671910Y-58348832D01*
X108687562Y-58331562D01*
X108704832Y-58315910D01*
X108723552Y-58302026D01*
X108743543Y-58290044D01*
X108764613Y-58280079D01*
X108786557Y-58272227D01*
X108809166Y-58266563D01*
X108832221Y-58263144D01*
X108855500Y-58262000D01*
X109330500Y-58262000D01*
X109353779Y-58263144D01*
X109353779Y-58263144D01*
G37*
D13*
X109093000Y-58787000D03*
D10*
G36*
X107194779Y-87854144D02*
G01*
X107217834Y-87857563D01*
X107240443Y-87863227D01*
X107262387Y-87871079D01*
X107283457Y-87881044D01*
X107303448Y-87893026D01*
X107322168Y-87906910D01*
X107339438Y-87922562D01*
X107355090Y-87939832D01*
X107368974Y-87958552D01*
X107380956Y-87978543D01*
X107390921Y-87999613D01*
X107398773Y-88021557D01*
X107404437Y-88044166D01*
X107407856Y-88067221D01*
X107409000Y-88090500D01*
X107409000Y-88665500D01*
X107407856Y-88688779D01*
X107404437Y-88711834D01*
X107398773Y-88734443D01*
X107390921Y-88756387D01*
X107380956Y-88777457D01*
X107368974Y-88797448D01*
X107355090Y-88816168D01*
X107339438Y-88833438D01*
X107322168Y-88849090D01*
X107303448Y-88862974D01*
X107283457Y-88874956D01*
X107262387Y-88884921D01*
X107240443Y-88892773D01*
X107217834Y-88898437D01*
X107194779Y-88901856D01*
X107171500Y-88903000D01*
X106696500Y-88903000D01*
X106673221Y-88901856D01*
X106650166Y-88898437D01*
X106627557Y-88892773D01*
X106605613Y-88884921D01*
X106584543Y-88874956D01*
X106564552Y-88862974D01*
X106545832Y-88849090D01*
X106528562Y-88833438D01*
X106512910Y-88816168D01*
X106499026Y-88797448D01*
X106487044Y-88777457D01*
X106477079Y-88756387D01*
X106469227Y-88734443D01*
X106463563Y-88711834D01*
X106460144Y-88688779D01*
X106459000Y-88665500D01*
X106459000Y-88090500D01*
X106460144Y-88067221D01*
X106463563Y-88044166D01*
X106469227Y-88021557D01*
X106477079Y-87999613D01*
X106487044Y-87978543D01*
X106499026Y-87958552D01*
X106512910Y-87939832D01*
X106528562Y-87922562D01*
X106545832Y-87906910D01*
X106564552Y-87893026D01*
X106584543Y-87881044D01*
X106605613Y-87871079D01*
X106627557Y-87863227D01*
X106650166Y-87857563D01*
X106673221Y-87854144D01*
X106696500Y-87853000D01*
X107171500Y-87853000D01*
X107194779Y-87854144D01*
X107194779Y-87854144D01*
G37*
D13*
X106934000Y-88378000D03*
D10*
G36*
X107194779Y-86104144D02*
G01*
X107217834Y-86107563D01*
X107240443Y-86113227D01*
X107262387Y-86121079D01*
X107283457Y-86131044D01*
X107303448Y-86143026D01*
X107322168Y-86156910D01*
X107339438Y-86172562D01*
X107355090Y-86189832D01*
X107368974Y-86208552D01*
X107380956Y-86228543D01*
X107390921Y-86249613D01*
X107398773Y-86271557D01*
X107404437Y-86294166D01*
X107407856Y-86317221D01*
X107409000Y-86340500D01*
X107409000Y-86915500D01*
X107407856Y-86938779D01*
X107404437Y-86961834D01*
X107398773Y-86984443D01*
X107390921Y-87006387D01*
X107380956Y-87027457D01*
X107368974Y-87047448D01*
X107355090Y-87066168D01*
X107339438Y-87083438D01*
X107322168Y-87099090D01*
X107303448Y-87112974D01*
X107283457Y-87124956D01*
X107262387Y-87134921D01*
X107240443Y-87142773D01*
X107217834Y-87148437D01*
X107194779Y-87151856D01*
X107171500Y-87153000D01*
X106696500Y-87153000D01*
X106673221Y-87151856D01*
X106650166Y-87148437D01*
X106627557Y-87142773D01*
X106605613Y-87134921D01*
X106584543Y-87124956D01*
X106564552Y-87112974D01*
X106545832Y-87099090D01*
X106528562Y-87083438D01*
X106512910Y-87066168D01*
X106499026Y-87047448D01*
X106487044Y-87027457D01*
X106477079Y-87006387D01*
X106469227Y-86984443D01*
X106463563Y-86961834D01*
X106460144Y-86938779D01*
X106459000Y-86915500D01*
X106459000Y-86340500D01*
X106460144Y-86317221D01*
X106463563Y-86294166D01*
X106469227Y-86271557D01*
X106477079Y-86249613D01*
X106487044Y-86228543D01*
X106499026Y-86208552D01*
X106512910Y-86189832D01*
X106528562Y-86172562D01*
X106545832Y-86156910D01*
X106564552Y-86143026D01*
X106584543Y-86131044D01*
X106605613Y-86121079D01*
X106627557Y-86113227D01*
X106650166Y-86107563D01*
X106673221Y-86104144D01*
X106696500Y-86103000D01*
X107171500Y-86103000D01*
X107194779Y-86104144D01*
X107194779Y-86104144D01*
G37*
D13*
X106934000Y-86628000D03*
D10*
G36*
X122053779Y-87600144D02*
G01*
X122076834Y-87603563D01*
X122099443Y-87609227D01*
X122121387Y-87617079D01*
X122142457Y-87627044D01*
X122162448Y-87639026D01*
X122181168Y-87652910D01*
X122198438Y-87668562D01*
X122214090Y-87685832D01*
X122227974Y-87704552D01*
X122239956Y-87724543D01*
X122249921Y-87745613D01*
X122257773Y-87767557D01*
X122263437Y-87790166D01*
X122266856Y-87813221D01*
X122268000Y-87836500D01*
X122268000Y-88411500D01*
X122266856Y-88434779D01*
X122263437Y-88457834D01*
X122257773Y-88480443D01*
X122249921Y-88502387D01*
X122239956Y-88523457D01*
X122227974Y-88543448D01*
X122214090Y-88562168D01*
X122198438Y-88579438D01*
X122181168Y-88595090D01*
X122162448Y-88608974D01*
X122142457Y-88620956D01*
X122121387Y-88630921D01*
X122099443Y-88638773D01*
X122076834Y-88644437D01*
X122053779Y-88647856D01*
X122030500Y-88649000D01*
X121555500Y-88649000D01*
X121532221Y-88647856D01*
X121509166Y-88644437D01*
X121486557Y-88638773D01*
X121464613Y-88630921D01*
X121443543Y-88620956D01*
X121423552Y-88608974D01*
X121404832Y-88595090D01*
X121387562Y-88579438D01*
X121371910Y-88562168D01*
X121358026Y-88543448D01*
X121346044Y-88523457D01*
X121336079Y-88502387D01*
X121328227Y-88480443D01*
X121322563Y-88457834D01*
X121319144Y-88434779D01*
X121318000Y-88411500D01*
X121318000Y-87836500D01*
X121319144Y-87813221D01*
X121322563Y-87790166D01*
X121328227Y-87767557D01*
X121336079Y-87745613D01*
X121346044Y-87724543D01*
X121358026Y-87704552D01*
X121371910Y-87685832D01*
X121387562Y-87668562D01*
X121404832Y-87652910D01*
X121423552Y-87639026D01*
X121443543Y-87627044D01*
X121464613Y-87617079D01*
X121486557Y-87609227D01*
X121509166Y-87603563D01*
X121532221Y-87600144D01*
X121555500Y-87599000D01*
X122030500Y-87599000D01*
X122053779Y-87600144D01*
X122053779Y-87600144D01*
G37*
D13*
X121793000Y-88124000D03*
D10*
G36*
X122053779Y-85850144D02*
G01*
X122076834Y-85853563D01*
X122099443Y-85859227D01*
X122121387Y-85867079D01*
X122142457Y-85877044D01*
X122162448Y-85889026D01*
X122181168Y-85902910D01*
X122198438Y-85918562D01*
X122214090Y-85935832D01*
X122227974Y-85954552D01*
X122239956Y-85974543D01*
X122249921Y-85995613D01*
X122257773Y-86017557D01*
X122263437Y-86040166D01*
X122266856Y-86063221D01*
X122268000Y-86086500D01*
X122268000Y-86661500D01*
X122266856Y-86684779D01*
X122263437Y-86707834D01*
X122257773Y-86730443D01*
X122249921Y-86752387D01*
X122239956Y-86773457D01*
X122227974Y-86793448D01*
X122214090Y-86812168D01*
X122198438Y-86829438D01*
X122181168Y-86845090D01*
X122162448Y-86858974D01*
X122142457Y-86870956D01*
X122121387Y-86880921D01*
X122099443Y-86888773D01*
X122076834Y-86894437D01*
X122053779Y-86897856D01*
X122030500Y-86899000D01*
X121555500Y-86899000D01*
X121532221Y-86897856D01*
X121509166Y-86894437D01*
X121486557Y-86888773D01*
X121464613Y-86880921D01*
X121443543Y-86870956D01*
X121423552Y-86858974D01*
X121404832Y-86845090D01*
X121387562Y-86829438D01*
X121371910Y-86812168D01*
X121358026Y-86793448D01*
X121346044Y-86773457D01*
X121336079Y-86752387D01*
X121328227Y-86730443D01*
X121322563Y-86707834D01*
X121319144Y-86684779D01*
X121318000Y-86661500D01*
X121318000Y-86086500D01*
X121319144Y-86063221D01*
X121322563Y-86040166D01*
X121328227Y-86017557D01*
X121336079Y-85995613D01*
X121346044Y-85974543D01*
X121358026Y-85954552D01*
X121371910Y-85935832D01*
X121387562Y-85918562D01*
X121404832Y-85902910D01*
X121423552Y-85889026D01*
X121443543Y-85877044D01*
X121464613Y-85867079D01*
X121486557Y-85859227D01*
X121509166Y-85853563D01*
X121532221Y-85850144D01*
X121555500Y-85849000D01*
X122030500Y-85849000D01*
X122053779Y-85850144D01*
X122053779Y-85850144D01*
G37*
D13*
X121793000Y-86374000D03*
D10*
G36*
X122815779Y-56513144D02*
G01*
X122838834Y-56516563D01*
X122861443Y-56522227D01*
X122883387Y-56530079D01*
X122904457Y-56540044D01*
X122924448Y-56552026D01*
X122943168Y-56565910D01*
X122960438Y-56581562D01*
X122976090Y-56598832D01*
X122989974Y-56617552D01*
X123001956Y-56637543D01*
X123011921Y-56658613D01*
X123019773Y-56680557D01*
X123025437Y-56703166D01*
X123028856Y-56726221D01*
X123030000Y-56749500D01*
X123030000Y-57324500D01*
X123028856Y-57347779D01*
X123025437Y-57370834D01*
X123019773Y-57393443D01*
X123011921Y-57415387D01*
X123001956Y-57436457D01*
X122989974Y-57456448D01*
X122976090Y-57475168D01*
X122960438Y-57492438D01*
X122943168Y-57508090D01*
X122924448Y-57521974D01*
X122904457Y-57533956D01*
X122883387Y-57543921D01*
X122861443Y-57551773D01*
X122838834Y-57557437D01*
X122815779Y-57560856D01*
X122792500Y-57562000D01*
X122317500Y-57562000D01*
X122294221Y-57560856D01*
X122271166Y-57557437D01*
X122248557Y-57551773D01*
X122226613Y-57543921D01*
X122205543Y-57533956D01*
X122185552Y-57521974D01*
X122166832Y-57508090D01*
X122149562Y-57492438D01*
X122133910Y-57475168D01*
X122120026Y-57456448D01*
X122108044Y-57436457D01*
X122098079Y-57415387D01*
X122090227Y-57393443D01*
X122084563Y-57370834D01*
X122081144Y-57347779D01*
X122080000Y-57324500D01*
X122080000Y-56749500D01*
X122081144Y-56726221D01*
X122084563Y-56703166D01*
X122090227Y-56680557D01*
X122098079Y-56658613D01*
X122108044Y-56637543D01*
X122120026Y-56617552D01*
X122133910Y-56598832D01*
X122149562Y-56581562D01*
X122166832Y-56565910D01*
X122185552Y-56552026D01*
X122205543Y-56540044D01*
X122226613Y-56530079D01*
X122248557Y-56522227D01*
X122271166Y-56516563D01*
X122294221Y-56513144D01*
X122317500Y-56512000D01*
X122792500Y-56512000D01*
X122815779Y-56513144D01*
X122815779Y-56513144D01*
G37*
D13*
X122555000Y-57037000D03*
D10*
G36*
X122815779Y-58263144D02*
G01*
X122838834Y-58266563D01*
X122861443Y-58272227D01*
X122883387Y-58280079D01*
X122904457Y-58290044D01*
X122924448Y-58302026D01*
X122943168Y-58315910D01*
X122960438Y-58331562D01*
X122976090Y-58348832D01*
X122989974Y-58367552D01*
X123001956Y-58387543D01*
X123011921Y-58408613D01*
X123019773Y-58430557D01*
X123025437Y-58453166D01*
X123028856Y-58476221D01*
X123030000Y-58499500D01*
X123030000Y-59074500D01*
X123028856Y-59097779D01*
X123025437Y-59120834D01*
X123019773Y-59143443D01*
X123011921Y-59165387D01*
X123001956Y-59186457D01*
X122989974Y-59206448D01*
X122976090Y-59225168D01*
X122960438Y-59242438D01*
X122943168Y-59258090D01*
X122924448Y-59271974D01*
X122904457Y-59283956D01*
X122883387Y-59293921D01*
X122861443Y-59301773D01*
X122838834Y-59307437D01*
X122815779Y-59310856D01*
X122792500Y-59312000D01*
X122317500Y-59312000D01*
X122294221Y-59310856D01*
X122271166Y-59307437D01*
X122248557Y-59301773D01*
X122226613Y-59293921D01*
X122205543Y-59283956D01*
X122185552Y-59271974D01*
X122166832Y-59258090D01*
X122149562Y-59242438D01*
X122133910Y-59225168D01*
X122120026Y-59206448D01*
X122108044Y-59186457D01*
X122098079Y-59165387D01*
X122090227Y-59143443D01*
X122084563Y-59120834D01*
X122081144Y-59097779D01*
X122080000Y-59074500D01*
X122080000Y-58499500D01*
X122081144Y-58476221D01*
X122084563Y-58453166D01*
X122090227Y-58430557D01*
X122098079Y-58408613D01*
X122108044Y-58387543D01*
X122120026Y-58367552D01*
X122133910Y-58348832D01*
X122149562Y-58331562D01*
X122166832Y-58315910D01*
X122185552Y-58302026D01*
X122205543Y-58290044D01*
X122226613Y-58280079D01*
X122248557Y-58272227D01*
X122271166Y-58266563D01*
X122294221Y-58263144D01*
X122317500Y-58262000D01*
X122792500Y-58262000D01*
X122815779Y-58263144D01*
X122815779Y-58263144D01*
G37*
D13*
X122555000Y-58787000D03*
M02*
