M48
; DRILL file {KiCad (5.1.2-1)-1} date Tuesday, 07 July 2020 at 12:36:56
; FORMAT={-:-/ absolute / metric / decimal}
; #@! TF.CreationDate,2020-07-07T12:36:56+01:00
; #@! TF.GenerationSoftware,Kicad,Pcbnew,(5.1.2-1)-1
; #@! TF.FileFunction,Plated,1,2,PTH
FMAT,2
METRIC
T1C0.400
T2C0.800
T3C1.000
%
G90
G05
T1
X74.224Y-95.51
X75.945Y-88.976
X76.327Y-91.059
X76.839Y-95.496
X77.47Y-91.059
X77.851Y-97.536
X78.322Y-53.921
X78.613Y-69.723
X78.613Y-91.059
X78.74Y-60.833
X79.629Y-91.059
X79.632Y-53.774
X79.696Y-52.175
X80.01Y-55.372
X80.01Y-58.547
X80.01Y-61.963
X80.38Y-92.528
X81.153Y-64.008
X82.384Y-77.407
X82.384Y-95.073
X82.931Y-58.801
X82.931Y-61.214
X84.074Y-55.499
X84.074Y-65.151
X84.38Y-51.648
X84.906Y-72.965
X85.217Y-54.356
X85.341Y-91.348
X85.541Y-47.816
X85.951Y-51.731
X85.979Y-46.818
X86.868Y-88.138
X86.868Y-91.44
X86.868Y-97.536
X87.503Y-65.024
X87.503Y-87.376
X87.757Y-88.138
X87.899Y-95.487
X88.073Y-43.858
X88.392Y-87.376
X88.7Y-70.022
X88.801Y-91.368
X88.807Y-84.904
X89.203Y-80.214
X89.448Y-73.062
X89.485Y-92.492
X89.662Y-51.943
X89.883Y-76.059
X90.188Y-73.736
X90.218Y-82.268
X90.218Y-90.547
X90.297Y-56.769
X90.424Y-67.818
X90.529Y-98.994
X91.089Y-65.629
X91.183Y-96.523
X91.186Y-58.166
X91.186Y-60.198
X91.186Y-61.849
X91.313Y-53.848
X91.901Y-98.746
X92.964Y-53.848
X93.98Y-56.769
X93.98Y-62.865
X94.107Y-59.182
X94.587Y-91.381
X95.247Y-81.751
X95.631Y-91.186
X95.631Y-97.536
X96.536Y-63.765
X96.845Y-80.843
X97.445Y-79.434
X97.536Y-101.092
X98.153Y-93.781
X98.298Y-71.882
X98.425Y-101.092
X100.466Y-51.068
X101.2Y-83.762
X101.225Y-75.593
X101.48Y-51.286
X102.523Y-86.336
X102.523Y-91.092
X102.525Y-73.035
X103.604Y-87.347
X104.798Y-84.647
X104.802Y-83.64
X104.996Y-48.918
X105.008Y-85.853
X105.164Y-47.896
X105.272Y-91.292
X105.791Y-67.564
X105.816Y-84.252
X105.918Y-69.342
X106.553Y-77.216
X107.061Y-84.074
X107.315Y-73.66
X107.442Y-62.738
X107.696Y-75.057
X107.823Y-65.532
X107.823Y-66.675
X107.823Y-70.866
X107.823Y-76.962
X107.971Y-93.007
X108.179Y-91.993
X108.585Y-76.073
X108.839Y-69.596
X108.89Y-81.33
X109.014Y-84.469
X109.505Y-64.612
X109.982Y-68.072
X109.995Y-65.672
X111.506Y-103.378
X111.889Y-85.618
X112.303Y-62.738
X113.145Y-84.317
X113.951Y-93.746
X114.046Y-59.817
X114.046Y-80.264
X114.173Y-78.359
X114.89Y-49.367
X115.316Y-64.516
X115.316Y-67.691
X115.831Y-51.923
X116.459Y-65.659
X118.237Y-65.659
X118.5Y-80.119
X118.618Y-67.691
X118.872Y-69.85
X118.872Y-74.93
X118.872Y-76.835
X119.126Y-65.659
X119.587Y-64.596
X119.634Y-63.5
X119.645Y-97.165
X120.269Y-79.375
X120.542Y-47.374
X120.72Y-65.729
X121.539Y-66.675
X121.539Y-68.707
X121.656Y-76.772
X122.505Y-78.536
X122.555Y-58.674
X122.682Y-96.774
X122.688Y-45.411
X123.825Y-68.326
X123.825Y-71.374
X123.825Y-75.946
X123.825Y-78.994
X123.825Y-84.074
X124.09Y-90.396
X124.46Y-50.027
X124.829Y-89.72
X125.222Y-82.677
X125.561Y-88.893
X128.142Y-59.312
X130.839Y-80.845
X130.914Y-70.964
X131.528Y-105.089
X132.43Y-75.74
X132.551Y-85.598
T2
X76.48Y-115.03
X76.48Y-130.27
X79.02Y-115.03
X79.02Y-130.27
X81.56Y-115.03
X81.56Y-130.27
X84.1Y-115.03
X84.1Y-130.27
X86.64Y-115.03
X86.64Y-130.27
X89.18Y-115.03
X89.18Y-130.27
X91.72Y-115.03
X91.72Y-130.27
X94.26Y-115.03
X94.26Y-130.27
X96.8Y-115.03
X96.8Y-130.27
X99.34Y-115.03
X99.34Y-130.27
X101.88Y-115.03
X101.88Y-130.27
X104.42Y-115.03
X104.42Y-130.27
X106.96Y-115.03
X106.96Y-130.27
X109.5Y-115.03
X109.5Y-130.27
X75.184Y-77.089
X75.184Y-84.709
X92.964Y-77.089
X92.964Y-84.709
X131.064Y-35.497
X131.064Y-37.497
X131.064Y-39.497
X110.1Y-91.61
X110.1Y-106.85
X112.64Y-91.61
X112.64Y-106.85
X115.18Y-91.61
X115.18Y-106.85
X117.72Y-91.61
X117.72Y-106.85
X120.26Y-91.61
X120.26Y-106.85
X122.8Y-91.61
X122.8Y-106.85
X125.34Y-91.61
X125.34Y-106.85
X127.88Y-91.61
X127.88Y-106.85
X130.42Y-91.61
X130.42Y-106.85
X132.96Y-91.61
X132.96Y-106.85
X135.5Y-91.61
X135.5Y-106.85
X138.04Y-91.61
X138.04Y-106.85
T3
X107.95Y-49.149
X107.95Y-51.689
X110.49Y-49.149
X110.49Y-51.689
X113.03Y-49.149
X113.03Y-51.689
X120.65Y-49.149
X120.65Y-51.689
X123.19Y-49.149
X123.19Y-51.689
X125.73Y-49.149
X125.73Y-51.689
X128.27Y-49.149
X128.27Y-51.689
X130.81Y-49.149
X130.81Y-51.689
X84.963Y-36.195
X84.963Y-38.735
X87.503Y-36.195
X87.503Y-38.735
X90.043Y-36.195
X90.043Y-38.735
X92.583Y-36.195
X92.583Y-38.735
X95.123Y-36.195
X95.123Y-38.735
X97.663Y-36.195
X97.663Y-38.735
X100.203Y-36.195
X100.203Y-38.735
X102.743Y-36.195
X102.743Y-38.735
X105.283Y-36.195
X105.283Y-38.735
X107.823Y-36.195
X107.823Y-38.735
X110.363Y-36.195
X110.363Y-38.735
X112.903Y-36.195
X112.903Y-38.735
X115.443Y-36.195
X115.443Y-38.735
X117.983Y-36.195
X117.983Y-38.735
X120.523Y-36.195
X120.523Y-38.735
X123.063Y-36.195
X123.063Y-38.735
X125.603Y-36.195
X125.603Y-38.735
X107.95Y-43.942
X110.49Y-43.942
X113.03Y-43.942
X115.57Y-43.942
X118.11Y-43.942
X120.65Y-43.942
X123.19Y-43.942
X125.73Y-43.942
X128.27Y-43.942
X130.81Y-43.942
T0
M30
