G04 #@! TF.GenerationSoftware,KiCad,Pcbnew,(5.1.2-1)-1*
G04 #@! TF.CreationDate,2020-07-07T12:37:09+01:00*
G04 #@! TF.ProjectId,MZ80-80CLR,4d5a3830-2d38-4304-934c-522e6b696361,rev?*
G04 #@! TF.SameCoordinates,Original*
G04 #@! TF.FileFunction,Other,User*
%FSLAX46Y46*%
G04 Gerber Fmt 4.6, Leading zero omitted, Abs format (unit mm)*
G04 Created by KiCad (PCBNEW (5.1.2-1)-1) date 2020-07-07 12:37:09*
%MOMM*%
%LPD*%
G04 APERTURE LIST*
%ADD10C,0.050000*%
G04 APERTURE END LIST*
D10*
X118647000Y-131923000D02*
X118647000Y-121823000D01*
X125447000Y-131923000D02*
X125447000Y-121823000D01*
X118647000Y-131923000D02*
X125447000Y-131923000D01*
X125447000Y-121823000D02*
X118647000Y-121823000D01*
X128044000Y-97487000D02*
X131544000Y-97487000D01*
X128044000Y-100887000D02*
X128044000Y-97487000D01*
X131544000Y-100887000D02*
X128044000Y-100887000D01*
X131544000Y-97487000D02*
X131544000Y-100887000D01*
X106150000Y-42142000D02*
X106150000Y-45742000D01*
X132600000Y-42142000D02*
X106150000Y-42142000D01*
X132600000Y-45742000D02*
X132600000Y-42142000D01*
X106150000Y-45742000D02*
X132600000Y-45742000D01*
X118850000Y-47339000D02*
X118850000Y-53489000D01*
X132600000Y-47339000D02*
X118850000Y-47339000D01*
X132600000Y-53489000D02*
X132600000Y-47339000D01*
X118850000Y-53489000D02*
X132600000Y-53489000D01*
X83163000Y-34385000D02*
X83163000Y-40535000D01*
X127413000Y-34385000D02*
X83163000Y-34385000D01*
X127413000Y-40535000D02*
X127413000Y-34385000D01*
X83163000Y-40535000D02*
X127413000Y-40535000D01*
X106150000Y-47339000D02*
X106150000Y-53489000D01*
X114800000Y-47339000D02*
X106150000Y-47339000D01*
X114800000Y-53489000D02*
X114800000Y-47339000D01*
X106150000Y-53489000D02*
X114800000Y-53489000D01*
X103154000Y-72014500D02*
X103154000Y-81164500D01*
X103154000Y-81164500D02*
X104554000Y-81164500D01*
X104554000Y-81164500D02*
X104554000Y-82264500D01*
X104554000Y-82264500D02*
X105654000Y-82264500D01*
X105654000Y-82264500D02*
X105654000Y-83664500D01*
X105654000Y-83664500D02*
X114804000Y-83664500D01*
X103154000Y-72014500D02*
X103154000Y-62864500D01*
X103154000Y-62864500D02*
X104554000Y-62864500D01*
X104554000Y-62864500D02*
X104554000Y-61764500D01*
X104554000Y-61764500D02*
X105654000Y-61764500D01*
X105654000Y-61764500D02*
X105654000Y-60364500D01*
X105654000Y-60364500D02*
X114804000Y-60364500D01*
X126454000Y-72014500D02*
X126454000Y-81164500D01*
X126454000Y-81164500D02*
X125054000Y-81164500D01*
X125054000Y-81164500D02*
X125054000Y-82264500D01*
X125054000Y-82264500D02*
X123954000Y-82264500D01*
X123954000Y-82264500D02*
X123954000Y-83664500D01*
X123954000Y-83664500D02*
X114804000Y-83664500D01*
X126454000Y-72014500D02*
X126454000Y-62864500D01*
X126454000Y-62864500D02*
X125054000Y-62864500D01*
X125054000Y-62864500D02*
X125054000Y-61764500D01*
X125054000Y-61764500D02*
X123954000Y-61764500D01*
X123954000Y-61764500D02*
X123954000Y-60364500D01*
X123954000Y-60364500D02*
X114804000Y-60364500D01*
X76201000Y-102648000D02*
X79501000Y-102648000D01*
X76201000Y-104108000D02*
X76201000Y-102648000D01*
X79501000Y-104108000D02*
X76201000Y-104108000D01*
X79501000Y-102648000D02*
X79501000Y-104108000D01*
X74251000Y-100412000D02*
X81451000Y-100412000D01*
X81451000Y-100412000D02*
X81451000Y-91612000D01*
X81451000Y-91612000D02*
X74251000Y-91612000D01*
X74251000Y-91612000D02*
X74251000Y-100412000D01*
X96780000Y-49310000D02*
X87630000Y-49310000D01*
X96780000Y-50710000D02*
X96780000Y-49310000D01*
X97880000Y-50710000D02*
X96780000Y-50710000D01*
X97880000Y-51810000D02*
X97880000Y-50710000D01*
X99280000Y-51810000D02*
X97880000Y-51810000D01*
X99280000Y-60960000D02*
X99280000Y-51810000D01*
X96780000Y-72610000D02*
X87630000Y-72610000D01*
X96780000Y-71210000D02*
X96780000Y-72610000D01*
X97880000Y-71210000D02*
X96780000Y-71210000D01*
X97880000Y-70110000D02*
X97880000Y-71210000D01*
X99280000Y-70110000D02*
X97880000Y-70110000D01*
X99280000Y-60960000D02*
X99280000Y-70110000D01*
X78480000Y-49310000D02*
X87630000Y-49310000D01*
X78480000Y-50710000D02*
X78480000Y-49310000D01*
X77380000Y-50710000D02*
X78480000Y-50710000D01*
X77380000Y-51810000D02*
X77380000Y-50710000D01*
X75980000Y-51810000D02*
X77380000Y-51810000D01*
X75980000Y-60960000D02*
X75980000Y-51810000D01*
X78480000Y-72610000D02*
X87630000Y-72610000D01*
X78480000Y-71210000D02*
X78480000Y-72610000D01*
X77380000Y-71210000D02*
X78480000Y-71210000D01*
X77380000Y-70110000D02*
X77380000Y-71210000D01*
X75980000Y-70110000D02*
X77380000Y-70110000D01*
X75980000Y-60960000D02*
X75980000Y-70110000D01*
X119429000Y-84868000D02*
X116029000Y-84868000D01*
X116029000Y-84868000D02*
X116029000Y-88868000D01*
X116029000Y-88868000D02*
X119429000Y-88868000D01*
X119429000Y-88868000D02*
X119429000Y-84868000D01*
X75487000Y-35592000D02*
X72087000Y-35592000D01*
X72087000Y-35592000D02*
X72087000Y-39592000D01*
X72087000Y-39592000D02*
X75487000Y-39592000D01*
X75487000Y-39592000D02*
X75487000Y-35592000D01*
X109822000Y-95106000D02*
X109822000Y-102506000D01*
X115222000Y-95106000D02*
X109822000Y-95106000D01*
X115222000Y-102506000D02*
X115222000Y-95106000D01*
X109822000Y-102506000D02*
X115222000Y-102506000D01*
X135691000Y-67376000D02*
X139391000Y-67376000D01*
X135691000Y-69276000D02*
X135691000Y-67376000D01*
X139391000Y-69276000D02*
X135691000Y-69276000D01*
X139391000Y-67376000D02*
X139391000Y-69276000D01*
X123632000Y-97337000D02*
X123632000Y-101037000D01*
X121732000Y-97337000D02*
X123632000Y-97337000D01*
X121732000Y-101037000D02*
X121732000Y-97337000D01*
X123632000Y-101037000D02*
X121732000Y-101037000D01*
X125796000Y-101037000D02*
X125796000Y-97337000D01*
X127696000Y-101037000D02*
X125796000Y-101037000D01*
X127696000Y-97337000D02*
X127696000Y-101037000D01*
X125796000Y-97337000D02*
X127696000Y-97337000D01*
X121600000Y-97337000D02*
X121600000Y-101037000D01*
X119700000Y-97337000D02*
X121600000Y-97337000D01*
X119700000Y-101037000D02*
X119700000Y-97337000D01*
X121600000Y-101037000D02*
X119700000Y-101037000D01*
X125664000Y-97337000D02*
X125664000Y-101037000D01*
X123764000Y-97337000D02*
X125664000Y-97337000D01*
X123764000Y-101037000D02*
X123764000Y-97337000D01*
X125664000Y-101037000D02*
X123764000Y-101037000D01*
X135824000Y-97337000D02*
X135824000Y-101037000D01*
X133924000Y-97337000D02*
X135824000Y-97337000D01*
X133924000Y-101037000D02*
X133924000Y-97337000D01*
X135824000Y-101037000D02*
X133924000Y-101037000D01*
X137856000Y-97337000D02*
X137856000Y-101037000D01*
X135956000Y-97337000D02*
X137856000Y-97337000D01*
X135956000Y-101037000D02*
X135956000Y-97337000D01*
X137856000Y-101037000D02*
X135956000Y-101037000D01*
X133792000Y-97337000D02*
X133792000Y-101037000D01*
X131892000Y-97337000D02*
X133792000Y-97337000D01*
X131892000Y-101037000D02*
X131892000Y-97337000D01*
X133792000Y-101037000D02*
X131892000Y-101037000D01*
X135691000Y-71440000D02*
X139391000Y-71440000D01*
X135691000Y-73340000D02*
X135691000Y-71440000D01*
X139391000Y-73340000D02*
X135691000Y-73340000D01*
X139391000Y-71440000D02*
X139391000Y-73340000D01*
X135691000Y-69408000D02*
X139391000Y-69408000D01*
X135691000Y-71308000D02*
X135691000Y-69408000D01*
X139391000Y-71308000D02*
X135691000Y-71308000D01*
X139391000Y-69408000D02*
X139391000Y-71308000D01*
X135691000Y-87696000D02*
X139391000Y-87696000D01*
X135691000Y-89596000D02*
X135691000Y-87696000D01*
X139391000Y-89596000D02*
X135691000Y-89596000D01*
X139391000Y-87696000D02*
X139391000Y-89596000D01*
X135691000Y-85664000D02*
X139391000Y-85664000D01*
X135691000Y-87564000D02*
X135691000Y-85664000D01*
X139391000Y-87564000D02*
X135691000Y-87564000D01*
X139391000Y-85664000D02*
X139391000Y-87564000D01*
X135691000Y-83632000D02*
X139391000Y-83632000D01*
X135691000Y-85532000D02*
X135691000Y-83632000D01*
X139391000Y-85532000D02*
X135691000Y-85532000D01*
X139391000Y-83632000D02*
X139391000Y-85532000D01*
X135691000Y-81600000D02*
X139391000Y-81600000D01*
X135691000Y-83500000D02*
X135691000Y-81600000D01*
X139391000Y-83500000D02*
X135691000Y-83500000D01*
X139391000Y-81600000D02*
X139391000Y-83500000D01*
X135691000Y-79568000D02*
X139391000Y-79568000D01*
X135691000Y-81468000D02*
X135691000Y-79568000D01*
X139391000Y-81468000D02*
X135691000Y-81468000D01*
X139391000Y-79568000D02*
X139391000Y-81468000D01*
X135691000Y-77536000D02*
X139391000Y-77536000D01*
X135691000Y-79436000D02*
X135691000Y-77536000D01*
X139391000Y-79436000D02*
X135691000Y-79436000D01*
X139391000Y-77536000D02*
X139391000Y-79436000D01*
X135691000Y-75504000D02*
X139391000Y-75504000D01*
X135691000Y-77404000D02*
X135691000Y-75504000D01*
X139391000Y-77404000D02*
X135691000Y-77404000D01*
X139391000Y-75504000D02*
X139391000Y-77404000D01*
X135691000Y-73472000D02*
X139391000Y-73472000D01*
X135691000Y-75372000D02*
X135691000Y-73472000D01*
X139391000Y-75372000D02*
X135691000Y-75372000D01*
X139391000Y-73472000D02*
X139391000Y-75372000D01*
X130738000Y-87696000D02*
X134438000Y-87696000D01*
X130738000Y-89596000D02*
X130738000Y-87696000D01*
X134438000Y-89596000D02*
X130738000Y-89596000D01*
X134438000Y-87696000D02*
X134438000Y-89596000D01*
X130738000Y-85664000D02*
X134438000Y-85664000D01*
X130738000Y-87564000D02*
X130738000Y-85664000D01*
X134438000Y-87564000D02*
X130738000Y-87564000D01*
X134438000Y-85664000D02*
X134438000Y-87564000D01*
X130738000Y-83632000D02*
X134438000Y-83632000D01*
X130738000Y-85532000D02*
X130738000Y-83632000D01*
X134438000Y-85532000D02*
X130738000Y-85532000D01*
X134438000Y-83632000D02*
X134438000Y-85532000D01*
X130738000Y-81600000D02*
X134438000Y-81600000D01*
X130738000Y-83500000D02*
X130738000Y-81600000D01*
X134438000Y-83500000D02*
X130738000Y-83500000D01*
X134438000Y-81600000D02*
X134438000Y-83500000D01*
X97591000Y-50353000D02*
X97591000Y-48453000D01*
X97591000Y-48453000D02*
X101291000Y-48453000D01*
X101291000Y-48453000D02*
X101291000Y-50353000D01*
X101291000Y-50353000D02*
X97591000Y-50353000D01*
X116779000Y-48569000D02*
X118679000Y-48569000D01*
X118679000Y-48569000D02*
X118679000Y-52269000D01*
X118679000Y-52269000D02*
X116779000Y-52269000D01*
X116779000Y-52269000D02*
X116779000Y-48569000D01*
X119568000Y-97328000D02*
X119568000Y-101028000D01*
X117668000Y-97328000D02*
X119568000Y-97328000D01*
X117668000Y-101028000D02*
X117668000Y-97328000D01*
X119568000Y-101028000D02*
X117668000Y-101028000D01*
X117536000Y-97337000D02*
X117536000Y-101037000D01*
X115636000Y-97337000D02*
X117536000Y-97337000D01*
X115636000Y-101037000D02*
X115636000Y-97337000D01*
X117536000Y-101037000D02*
X115636000Y-101037000D01*
X129564000Y-40997000D02*
X132564000Y-40997000D01*
X129564000Y-33997000D02*
X129564000Y-40997000D01*
X132564000Y-33997000D02*
X129564000Y-33997000D01*
X132564000Y-40997000D02*
X132564000Y-33997000D01*
X74644000Y-121032000D02*
X74644000Y-124332000D01*
X73184000Y-121032000D02*
X74644000Y-121032000D01*
X73184000Y-124332000D02*
X73184000Y-121032000D01*
X74644000Y-124332000D02*
X73184000Y-124332000D01*
X115188000Y-104108000D02*
X111888000Y-104108000D01*
X115188000Y-102648000D02*
X115188000Y-104108000D01*
X111888000Y-102648000D02*
X115188000Y-102648000D01*
X111888000Y-104108000D02*
X111888000Y-102648000D01*
X119539000Y-85599000D02*
X120999000Y-85599000D01*
X120999000Y-85599000D02*
X120999000Y-88899000D01*
X120999000Y-88899000D02*
X119539000Y-88899000D01*
X119539000Y-88899000D02*
X119539000Y-85599000D01*
X75437000Y-33941000D02*
X75437000Y-35401000D01*
X75437000Y-35401000D02*
X72137000Y-35401000D01*
X72137000Y-35401000D02*
X72137000Y-33941000D01*
X72137000Y-33941000D02*
X75437000Y-33941000D01*
X92031000Y-100539000D02*
X99231000Y-100539000D01*
X99231000Y-100539000D02*
X99231000Y-91739000D01*
X99231000Y-91739000D02*
X92031000Y-91739000D01*
X92031000Y-91739000D02*
X92031000Y-100539000D01*
X83268000Y-100539000D02*
X90468000Y-100539000D01*
X90468000Y-100539000D02*
X90468000Y-91739000D01*
X90468000Y-91739000D02*
X83268000Y-91739000D01*
X83268000Y-91739000D02*
X83268000Y-100539000D01*
X93092000Y-100743000D02*
X96392000Y-100743000D01*
X93092000Y-102203000D02*
X93092000Y-100743000D01*
X96392000Y-102203000D02*
X93092000Y-102203000D01*
X96392000Y-100743000D02*
X96392000Y-102203000D01*
X72518000Y-89821000D02*
X75818000Y-89821000D01*
X72518000Y-91281000D02*
X72518000Y-89821000D01*
X75818000Y-91281000D02*
X72518000Y-91281000D01*
X75818000Y-89821000D02*
X75818000Y-91281000D01*
X84075000Y-100616000D02*
X87375000Y-100616000D01*
X84075000Y-102076000D02*
X84075000Y-100616000D01*
X87375000Y-102076000D02*
X84075000Y-102076000D01*
X87375000Y-100616000D02*
X87375000Y-102076000D01*
X76201000Y-100997000D02*
X79501000Y-100997000D01*
X76201000Y-102457000D02*
X76201000Y-100997000D01*
X79501000Y-102457000D02*
X76201000Y-102457000D01*
X79501000Y-100997000D02*
X79501000Y-102457000D01*
M02*
